<?xml version="1.0" encoding="utf-8" standalone="no"?>
<!DOCTYPE svg PUBLIC "-//W3C//DTD SVG 1.1//EN"
  "http://www.w3.org/Graphics/SVG/1.1/DTD/svg11.dtd">
<svg xmlns:xlink="http://www.w3.org/1999/xlink" width="720pt" height="720pt" viewBox="0 0 720 720" xmlns="http://www.w3.org/2000/svg" version="1.1">
 <metadata>
  <rdf:RDF xmlns:dc="http://purl.org/dc/elements/1.1/" xmlns:cc="http://creativecommons.org/ns#" xmlns:rdf="http://www.w3.org/1999/02/22-rdf-syntax-ns#">
   <cc:Work>
    <dc:type rdf:resource="http://purl.org/dc/dcmitype/StillImage"/>
    <dc:date>2023-08-26T21:22:52.319553</dc:date>
    <dc:format>image/svg+xml</dc:format>
    <dc:creator>
     <cc:Agent>
      <dc:title>Matplotlib v3.7.1, https://matplotlib.org/</dc:title>
     </cc:Agent>
    </dc:creator>
   </cc:Work>
  </rdf:RDF>
 </metadata>
 <defs>
  <style type="text/css">*{stroke-linejoin: round; stroke-linecap: butt}</style>
 </defs>
 <g id="figure_1">
  <g id="patch_1">
   <path d="M 0 720 
L 720 720 
L 720 0 
L 0 0 
z
" style="fill: #ffffff"/>
  </g>
  <g id="axes_1">
   <g id="patch_2">
    <path d="M 90 640.8 
L 648 640.8 
L 648 86.4 
L 90 86.4 
z
" style="fill: #ffffff"/>
   </g>
   <g id="matplotlib.axis_1">
    <g id="xtick_1">
     <g id="line2d_1">
      <defs>
       <path id="mcbf52cfe96" d="M 0 0 
L 0 3.5 
" style="stroke: #000000; stroke-width: 0.8"/>
      </defs>
      <g>
       <use xlink:href="#mcbf52cfe96" x="115.363636" y="640.8" style="stroke: #000000; stroke-width: 0.8"/>
      </g>
     </g>
     <g id="text_1">
      <text style="font: 36px 'DejaVu Sans', 'Bitstream Vera Sans', 'Computer Modern Sans Serif', 'Lucida Grande', 'Verdana', 'Geneva', 'Lucid', 'Arial', 'Helvetica', 'Avant Garde', sans-serif; text-anchor: middle" x="115.363636" y="675.154375" transform="rotate(-0 115.363636 675.154375)">0.0</text>
     </g>
    </g>
    <g id="xtick_2">
     <g id="line2d_2">
      <g>
       <use xlink:href="#mcbf52cfe96" x="228.090909" y="640.8" style="stroke: #000000; stroke-width: 0.8"/>
      </g>
     </g>
     <g id="text_2">
      <text style="font: 36px 'DejaVu Sans', 'Bitstream Vera Sans', 'Computer Modern Sans Serif', 'Lucida Grande', 'Verdana', 'Geneva', 'Lucid', 'Arial', 'Helvetica', 'Avant Garde', sans-serif; text-anchor: middle" x="228.090909" y="675.154375" transform="rotate(-0 228.090909 675.154375)">0.2</text>
     </g>
    </g>
    <g id="xtick_3">
     <g id="line2d_3">
      <g>
       <use xlink:href="#mcbf52cfe96" x="340.818182" y="640.8" style="stroke: #000000; stroke-width: 0.8"/>
      </g>
     </g>
     <g id="text_3">
      <text style="font: 36px 'DejaVu Sans', 'Bitstream Vera Sans', 'Computer Modern Sans Serif', 'Lucida Grande', 'Verdana', 'Geneva', 'Lucid', 'Arial', 'Helvetica', 'Avant Garde', sans-serif; text-anchor: middle" x="340.818182" y="675.154375" transform="rotate(-0 340.818182 675.154375)">0.4</text>
     </g>
    </g>
    <g id="xtick_4">
     <g id="line2d_4">
      <g>
       <use xlink:href="#mcbf52cfe96" x="453.545455" y="640.8" style="stroke: #000000; stroke-width: 0.8"/>
      </g>
     </g>
     <g id="text_4">
      <text style="font: 36px 'DejaVu Sans', 'Bitstream Vera Sans', 'Computer Modern Sans Serif', 'Lucida Grande', 'Verdana', 'Geneva', 'Lucid', 'Arial', 'Helvetica', 'Avant Garde', sans-serif; text-anchor: middle" x="453.545455" y="675.154375" transform="rotate(-0 453.545455 675.154375)">0.6</text>
     </g>
    </g>
    <g id="xtick_5">
     <g id="line2d_5">
      <g>
       <use xlink:href="#mcbf52cfe96" x="566.272727" y="640.8" style="stroke: #000000; stroke-width: 0.8"/>
      </g>
     </g>
     <g id="text_5">
      <text style="font: 36px 'DejaVu Sans', 'Bitstream Vera Sans', 'Computer Modern Sans Serif', 'Lucida Grande', 'Verdana', 'Geneva', 'Lucid', 'Arial', 'Helvetica', 'Avant Garde', sans-serif; text-anchor: middle" x="566.272727" y="675.154375" transform="rotate(-0 566.272727 675.154375)">0.8</text>
     </g>
    </g>
    <g id="text_6">
     <text style="font: 36px 'DejaVu Sans', 'Bitstream Vera Sans', 'Computer Modern Sans Serif', 'Lucida Grande', 'Verdana', 'Geneva', 'Lucid', 'Arial', 'Helvetica', 'Avant Garde', sans-serif; text-anchor: middle" x="369" y="713.995625" transform="rotate(-0 369 713.995625)">Field in $ z $-direction $ h_z $ </text>
    </g>
   </g>
   <g id="matplotlib.axis_2">
    <g id="ytick_1">
     <g id="line2d_6">
      <defs>
       <path id="m3f40438bc0" d="M 0 0 
L -3.5 0 
" style="stroke: #000000; stroke-width: 0.8"/>
      </defs>
      <g>
       <use xlink:href="#m3f40438bc0" x="90" y="560.971465" style="stroke: #000000; stroke-width: 0.8"/>
      </g>
     </g>
     <g id="text_7">
      <!-- $\mathdefault{10^{-13}}$ -->
      <g transform="translate(-17.44 574.648653)">
       <text>
        <tspan style="font: 36px 'DejaVu Sans'" x="0 22.904297" y="-0.515625">10</tspan>
        <tspan style="font: 25.2px 'DejaVu Sans'" x="46.153125 67.267969 83.300977" y="-14.296875">−13</tspan>
       </text>
      </g>
     </g>
    </g>
    <g id="ytick_2">
     <g id="line2d_7">
      <g>
       <use xlink:href="#m3f40438bc0" x="90" y="480.770406" style="stroke: #000000; stroke-width: 0.8"/>
      </g>
     </g>
     <g id="text_8">
      <!-- $\mathdefault{10^{-11}}$ -->
      <g transform="translate(-17.44 494.447594)">
       <text>
        <tspan style="font: 36px 'DejaVu Sans'" x="0 22.904297" y="-0.84375">10</tspan>
        <tspan style="font: 25.2px 'DejaVu Sans'" x="46.153125 67.267969 83.300977" y="-14.625">−11</tspan>
       </text>
      </g>
     </g>
    </g>
    <g id="ytick_3">
     <g id="line2d_8">
      <g>
       <use xlink:href="#m3f40438bc0" x="90" y="400.569347" style="stroke: #000000; stroke-width: 0.8"/>
      </g>
     </g>
     <g id="text_9">
      <!-- $\mathdefault{10^{-9}}$ -->
      <g transform="translate(-1.6 414.246535)">
       <text>
        <tspan style="font: 36px 'DejaVu Sans'" x="0 22.904297" y="-0.515625">10</tspan>
        <tspan style="font: 25.2px 'DejaVu Sans'" x="46.153125 67.267969" y="-14.296875">−9</tspan>
       </text>
      </g>
     </g>
    </g>
    <g id="ytick_4">
     <g id="line2d_9">
      <g>
       <use xlink:href="#m3f40438bc0" x="90" y="320.368288" style="stroke: #000000; stroke-width: 0.8"/>
      </g>
     </g>
     <g id="text_10">
      <!-- $\mathdefault{10^{-7}}$ -->
      <g transform="translate(-1.6 334.045476)">
       <text>
        <tspan style="font: 36px 'DejaVu Sans'" x="0 22.904297" y="-0.84375">10</tspan>
        <tspan style="font: 25.2px 'DejaVu Sans'" x="46.153125 67.267969" y="-14.625">−7</tspan>
       </text>
      </g>
     </g>
    </g>
    <g id="ytick_5">
     <g id="line2d_10">
      <g>
       <use xlink:href="#m3f40438bc0" x="90" y="240.167229" style="stroke: #000000; stroke-width: 0.8"/>
      </g>
     </g>
     <g id="text_11">
      <!-- $\mathdefault{10^{-5}}$ -->
      <g transform="translate(-1.6 253.844417)">
       <text>
        <tspan style="font: 36px 'DejaVu Sans'" x="0 22.904297" y="-0.84375">10</tspan>
        <tspan style="font: 25.2px 'DejaVu Sans'" x="46.153125 67.267969" y="-14.625">−5</tspan>
       </text>
      </g>
     </g>
    </g>
    <g id="ytick_6">
     <g id="line2d_11">
      <g>
       <use xlink:href="#m3f40438bc0" x="90" y="159.96617" style="stroke: #000000; stroke-width: 0.8"/>
      </g>
     </g>
     <g id="text_12">
      <!-- $\mathdefault{10^{-3}}$ -->
      <g transform="translate(-1.6 173.643357)">
       <text>
        <tspan style="font: 36px 'DejaVu Sans'" x="0 22.904297" y="-0.515625">10</tspan>
        <tspan style="font: 25.2px 'DejaVu Sans'" x="46.153125 67.267969" y="-14.296875">−3</tspan>
       </text>
      </g>
     </g>
    </g>
    <g id="text_13">
     <text style="font: 36px 'DejaVu Sans', 'Bitstream Vera Sans', 'Computer Modern Sans Serif', 'Lucida Grande', 'Verdana', 'Geneva', 'Lucid', 'Arial', 'Helvetica', 'Avant Garde', sans-serif; text-anchor: middle" x="-29.928125" y="363.6" transform="rotate(-90 -29.928125 363.6)">$ |E_{\boldsymbol{\theta}}-E_\mathrm{exact}| / |E_\mathrm{exact}| $ </text>
    </g>
   </g>
   <g id="line2d_12">
    <path d="M 115.363636 419.950566 
L 171.727273 195.139133 
L 228.090909 159.089538 
L 284.454545 151.840851 
L 295.727273 156.813946 
L 312.636364 171.661899 
L 340.818182 217.433331 
L 397.181818 370.676172 
L 453.545455 427.027377 
L 509.909091 427.587027 
L 566.272727 432.371829 
L 622.636364 428.176804 
" clip-path="url(#p203af27675)" style="fill: none; stroke: #e41a1c; stroke-width: 1.5; stroke-linecap: square"/>
    <defs>
     <path id="mebaebcfdfc" d="M 0 1 
C 0.265203 1 0.51958 0.894634 0.707107 0.707107 
C 0.894634 0.51958 1 0.265203 1 0 
C 1 -0.265203 0.894634 -0.51958 0.707107 -0.707107 
C 0.51958 -0.894634 0.265203 -1 0 -1 
C -0.265203 -1 -0.51958 -0.894634 -0.707107 -0.707107 
C -0.894634 -0.51958 -1 -0.265203 -1 0 
C -1 0.265203 -0.894634 0.51958 -0.707107 0.707107 
C -0.51958 0.894634 -0.265203 1 0 1 
z
" style="stroke: #e41a1c"/>
    </defs>
    <g clip-path="url(#p203af27675)">
     <use xlink:href="#mebaebcfdfc" x="115.363636" y="419.950566" style="fill: #e41a1c; stroke: #e41a1c"/>
     <use xlink:href="#mebaebcfdfc" x="171.727273" y="195.139133" style="fill: #e41a1c; stroke: #e41a1c"/>
     <use xlink:href="#mebaebcfdfc" x="228.090909" y="159.089538" style="fill: #e41a1c; stroke: #e41a1c"/>
     <use xlink:href="#mebaebcfdfc" x="284.454545" y="151.840851" style="fill: #e41a1c; stroke: #e41a1c"/>
     <use xlink:href="#mebaebcfdfc" x="295.727273" y="156.813946" style="fill: #e41a1c; stroke: #e41a1c"/>
     <use xlink:href="#mebaebcfdfc" x="312.636364" y="171.661899" style="fill: #e41a1c; stroke: #e41a1c"/>
     <use xlink:href="#mebaebcfdfc" x="340.818182" y="217.433331" style="fill: #e41a1c; stroke: #e41a1c"/>
     <use xlink:href="#mebaebcfdfc" x="397.181818" y="370.676172" style="fill: #e41a1c; stroke: #e41a1c"/>
     <use xlink:href="#mebaebcfdfc" x="453.545455" y="427.027377" style="fill: #e41a1c; stroke: #e41a1c"/>
     <use xlink:href="#mebaebcfdfc" x="509.909091" y="427.587027" style="fill: #e41a1c; stroke: #e41a1c"/>
     <use xlink:href="#mebaebcfdfc" x="566.272727" y="432.371829" style="fill: #e41a1c; stroke: #e41a1c"/>
     <use xlink:href="#mebaebcfdfc" x="622.636364" y="428.176804" style="fill: #e41a1c; stroke: #e41a1c"/>
    </g>
   </g>
   <g id="line2d_13">
    <path d="M 115.363636 615.6 
L 171.727273 195.237213 
L 228.090909 155.927274 
L 284.454545 129.755052 
L 295.727273 125.359048 
L 312.636364 119.356295 
L 340.818182 111.6 
L 397.181818 122.758724 
L 453.545455 163.874304 
L 509.909091 151.119321 
L 566.272727 163.178485 
L 622.636364 174.430101 
" clip-path="url(#p203af27675)" style="fill: none; stroke-dasharray: 5.55,2.4; stroke-dashoffset: 0; stroke: #377eb8; stroke-width: 1.5"/>
    <defs>
     <path id="m2bb9dea9a8" d="M 0 1 
C 0.265203 1 0.51958 0.894634 0.707107 0.707107 
C 0.894634 0.51958 1 0.265203 1 0 
C 1 -0.265203 0.894634 -0.51958 0.707107 -0.707107 
C 0.51958 -0.894634 0.265203 -1 0 -1 
C -0.265203 -1 -0.51958 -0.894634 -0.707107 -0.707107 
C -0.894634 -0.51958 -1 -0.265203 -1 0 
C -1 0.265203 -0.894634 0.51958 -0.707107 0.707107 
C -0.51958 0.894634 -0.265203 1 0 1 
z
" style="stroke: #377eb8"/>
    </defs>
    <g clip-path="url(#p203af27675)">
     <use xlink:href="#m2bb9dea9a8" x="115.363636" y="615.6" style="fill: #377eb8; stroke: #377eb8"/>
     <use xlink:href="#m2bb9dea9a8" x="171.727273" y="195.237213" style="fill: #377eb8; stroke: #377eb8"/>
     <use xlink:href="#m2bb9dea9a8" x="228.090909" y="155.927274" style="fill: #377eb8; stroke: #377eb8"/>
     <use xlink:href="#m2bb9dea9a8" x="284.454545" y="129.755052" style="fill: #377eb8; stroke: #377eb8"/>
     <use xlink:href="#m2bb9dea9a8" x="295.727273" y="125.359048" style="fill: #377eb8; stroke: #377eb8"/>
     <use xlink:href="#m2bb9dea9a8" x="312.636364" y="119.356295" style="fill: #377eb8; stroke: #377eb8"/>
     <use xlink:href="#m2bb9dea9a8" x="340.818182" y="111.6" style="fill: #377eb8; stroke: #377eb8"/>
     <use xlink:href="#m2bb9dea9a8" x="397.181818" y="122.758724" style="fill: #377eb8; stroke: #377eb8"/>
     <use xlink:href="#m2bb9dea9a8" x="453.545455" y="163.874304" style="fill: #377eb8; stroke: #377eb8"/>
     <use xlink:href="#m2bb9dea9a8" x="509.909091" y="151.119321" style="fill: #377eb8; stroke: #377eb8"/>
     <use xlink:href="#m2bb9dea9a8" x="566.272727" y="163.178485" style="fill: #377eb8; stroke: #377eb8"/>
     <use xlink:href="#m2bb9dea9a8" x="622.636364" y="174.430101" style="fill: #377eb8; stroke: #377eb8"/>
    </g>
   </g>
   <g id="patch_3">
    <path d="M 90 640.8 
L 90 86.4 
" style="fill: none; stroke: #000000; stroke-width: 0.8; stroke-linejoin: miter; stroke-linecap: square"/>
   </g>
   <g id="patch_4">
    <path d="M 648 640.8 
L 648 86.4 
" style="fill: none; stroke: #000000; stroke-width: 0.8; stroke-linejoin: miter; stroke-linecap: square"/>
   </g>
   <g id="patch_5">
    <path d="M 90 640.8 
L 648 640.8 
" style="fill: none; stroke: #000000; stroke-width: 0.8; stroke-linejoin: miter; stroke-linecap: square"/>
   </g>
   <g id="patch_6">
    <path d="M 90 86.4 
L 648 86.4 
" style="fill: none; stroke: #000000; stroke-width: 0.8; stroke-linejoin: miter; stroke-linecap: square"/>
   </g>
   <g id="legend_1">
    <g id="patch_7">
     <path d="M 312.530625 622.8 
L 622.8 622.8 
Q 630 622.8 630 615.6 
L 630 513.5175 
Q 630 506.3175 622.8 506.3175 
L 312.530625 506.3175 
Q 305.330625 506.3175 305.330625 513.5175 
L 305.330625 615.6 
Q 305.330625 622.8 312.530625 622.8 
z
" style="fill: #ffffff; opacity: 0.8; stroke: #cccccc; stroke-linejoin: miter"/>
    </g>
    <g id="line2d_14">
     <path d="M 319.730625 535.471875 
L 355.730625 535.471875 
L 391.730625 535.471875 
" style="fill: none; stroke: #e41a1c; stroke-width: 1.5; stroke-linecap: square"/>
     <g>
      <use xlink:href="#mebaebcfdfc" x="355.730625" y="535.471875" style="fill: #e41a1c; stroke: #e41a1c"/>
     </g>
    </g>
    <g id="text_14">
     <text style="font: 36px 'DejaVu Sans', 'Bitstream Vera Sans', 'Computer Modern Sans Serif', 'Lucida Grande', 'Verdana', 'Geneva', 'Lucid', 'Arial', 'Helvetica', 'Avant Garde', sans-serif; text-anchor: start" x="420.530625" y="548.071875" transform="rotate(-0 420.530625 548.071875)">ToricCRBM</text>
    </g>
    <g id="line2d_15">
     <path d="M 319.730625 588.313125 
L 355.730625 588.313125 
L 391.730625 588.313125 
" style="fill: none; stroke-dasharray: 5.55,2.4; stroke-dashoffset: 0; stroke: #377eb8; stroke-width: 1.5"/>
     <g>
      <use xlink:href="#m2bb9dea9a8" x="355.730625" y="588.313125" style="fill: #377eb8; stroke: #377eb8"/>
     </g>
    </g>
    <g id="text_15">
     <text style="font: 36px 'DejaVu Sans', 'Bitstream Vera Sans', 'Computer Modern Sans Serif', 'Lucida Grande', 'Verdana', 'Geneva', 'Lucid', 'Arial', 'Helvetica', 'Avant Garde', sans-serif; text-anchor: start" x="420.530625" y="600.913125" transform="rotate(-0 420.530625 600.913125)">RBMSymm</text>
    </g>
   </g>
  </g>
 </g>
 <defs>
  <clipPath id="p203af27675">
   <rect x="90" y="86.4" width="558" height="554.4"/>
  </clipPath>
 </defs>
</svg>
