<?xml version="1.0" encoding="utf-8" standalone="no"?>
<!DOCTYPE svg PUBLIC "-//W3C//DTD SVG 1.1//EN"
  "http://www.w3.org/Graphics/SVG/1.1/DTD/svg11.dtd">
<svg xmlns:xlink="http://www.w3.org/1999/xlink" width="720pt" height="720pt" viewBox="0 0 720 720" xmlns="http://www.w3.org/2000/svg" version="1.1">
 <metadata>
  <rdf:RDF xmlns:dc="http://purl.org/dc/elements/1.1/" xmlns:cc="http://creativecommons.org/ns#" xmlns:rdf="http://www.w3.org/1999/02/22-rdf-syntax-ns#">
   <cc:Work>
    <dc:type rdf:resource="http://purl.org/dc/dcmitype/StillImage"/>
    <dc:date>2024-02-27T14:58:35.840490</dc:date>
    <dc:format>image/svg+xml</dc:format>
    <dc:creator>
     <cc:Agent>
      <dc:title>Matplotlib v3.7.1, https://matplotlib.org/</dc:title>
     </cc:Agent>
    </dc:creator>
   </cc:Work>
  </rdf:RDF>
 </metadata>
 <defs>
  <style type="text/css">*{stroke-linejoin: round; stroke-linecap: butt}</style>
 </defs>
 <g id="figure_1">
  <g id="patch_1">
   <path d="M 0 720 
L 720 720 
L 720 0 
L 0 0 
z
" style="fill: #ffffff"/>
  </g>
  <g id="axes_1">
   <g id="patch_2">
    <path d="M 90 640.8 
L 648 640.8 
L 648 86.4 
L 90 86.4 
z
" style="fill: #ffffff"/>
   </g>
   <g id="matplotlib.axis_1">
    <g id="xtick_1">
     <g id="line2d_1">
      <defs>
       <path id="m34f0044308" d="M 0 0 
L 0 3.5 
" style="stroke: #000000; stroke-width: 0.8"/>
      </defs>
      <g>
       <use xlink:href="#m34f0044308" x="115.363636" y="640.8" style="stroke: #000000; stroke-width: 0.8"/>
      </g>
     </g>
     <g id="text_1">
      <text style="font: 24px 'DejaVu Sans', 'Bitstream Vera Sans', 'Computer Modern Sans Serif', 'Lucida Grande', 'Verdana', 'Geneva', 'Lucid', 'Arial', 'Helvetica', 'Avant Garde', sans-serif; text-anchor: middle" x="115.363636" y="666.03625" transform="rotate(-0 115.363636 666.03625)">0.0</text>
     </g>
    </g>
    <g id="xtick_2">
     <g id="line2d_2">
      <g>
       <use xlink:href="#m34f0044308" x="260.298701" y="640.8" style="stroke: #000000; stroke-width: 0.8"/>
      </g>
     </g>
     <g id="text_2">
      <text style="font: 24px 'DejaVu Sans', 'Bitstream Vera Sans', 'Computer Modern Sans Serif', 'Lucida Grande', 'Verdana', 'Geneva', 'Lucid', 'Arial', 'Helvetica', 'Avant Garde', sans-serif; text-anchor: middle" x="260.298701" y="666.03625" transform="rotate(-0 260.298701 666.03625)">0.2</text>
     </g>
    </g>
    <g id="xtick_3">
     <g id="line2d_3">
      <g>
       <use xlink:href="#m34f0044308" x="405.233766" y="640.8" style="stroke: #000000; stroke-width: 0.8"/>
      </g>
     </g>
     <g id="text_3">
      <text style="font: 24px 'DejaVu Sans', 'Bitstream Vera Sans', 'Computer Modern Sans Serif', 'Lucida Grande', 'Verdana', 'Geneva', 'Lucid', 'Arial', 'Helvetica', 'Avant Garde', sans-serif; text-anchor: middle" x="405.233766" y="666.03625" transform="rotate(-0 405.233766 666.03625)">0.4</text>
     </g>
    </g>
    <g id="xtick_4">
     <g id="line2d_4">
      <g>
       <use xlink:href="#m34f0044308" x="550.168831" y="640.8" style="stroke: #000000; stroke-width: 0.8"/>
      </g>
     </g>
     <g id="text_4">
      <text style="font: 24px 'DejaVu Sans', 'Bitstream Vera Sans', 'Computer Modern Sans Serif', 'Lucida Grande', 'Verdana', 'Geneva', 'Lucid', 'Arial', 'Helvetica', 'Avant Garde', sans-serif; text-anchor: middle" x="550.168831" y="666.03625" transform="rotate(-0 550.168831 666.03625)">0.6</text>
     </g>
    </g>
    <g id="text_5">
     <text style="font: 24px 'DejaVu Sans', 'Bitstream Vera Sans', 'Computer Modern Sans Serif', 'Lucida Grande', 'Verdana', 'Geneva', 'Lucid', 'Arial', 'Helvetica', 'Avant Garde', sans-serif; text-anchor: middle" x="369" y="693.26375" transform="rotate(-0 369 693.26375)">Field strength in $ z $-direction $ h_z $ </text>
    </g>
   </g>
   <g id="matplotlib.axis_2">
    <g id="ytick_1">
     <g id="line2d_5">
      <defs>
       <path id="m6572b15b88" d="M 0 0 
L -3.5 0 
" style="stroke: #000000; stroke-width: 0.8"/>
      </defs>
      <g>
       <use xlink:href="#m6572b15b88" x="90" y="615.434723" style="stroke: #000000; stroke-width: 0.8"/>
      </g>
     </g>
     <g id="text_6">
      <text style="font: 24px 'DejaVu Sans', 'Bitstream Vera Sans', 'Computer Modern Sans Serif', 'Lucida Grande', 'Verdana', 'Geneva', 'Lucid', 'Arial', 'Helvetica', 'Avant Garde', sans-serif; text-anchor: end" x="83" y="624.552848" transform="rotate(-0 83 624.552848)">0.0</text>
     </g>
    </g>
    <g id="ytick_2">
     <g id="line2d_6">
      <g>
       <use xlink:href="#m6572b15b88" x="90" y="499.367368" style="stroke: #000000; stroke-width: 0.8"/>
      </g>
     </g>
     <g id="text_7">
      <text style="font: 24px 'DejaVu Sans', 'Bitstream Vera Sans', 'Computer Modern Sans Serif', 'Lucida Grande', 'Verdana', 'Geneva', 'Lucid', 'Arial', 'Helvetica', 'Avant Garde', sans-serif; text-anchor: end" x="83" y="508.485493" transform="rotate(-0 83 508.485493)">0.2</text>
     </g>
    </g>
    <g id="ytick_3">
     <g id="line2d_7">
      <g>
       <use xlink:href="#m6572b15b88" x="90" y="383.300014" style="stroke: #000000; stroke-width: 0.8"/>
      </g>
     </g>
     <g id="text_8">
      <text style="font: 24px 'DejaVu Sans', 'Bitstream Vera Sans', 'Computer Modern Sans Serif', 'Lucida Grande', 'Verdana', 'Geneva', 'Lucid', 'Arial', 'Helvetica', 'Avant Garde', sans-serif; text-anchor: end" x="83" y="392.418139" transform="rotate(-0 83 392.418139)">0.4</text>
     </g>
    </g>
    <g id="ytick_4">
     <g id="line2d_8">
      <g>
       <use xlink:href="#m6572b15b88" x="90" y="267.232659" style="stroke: #000000; stroke-width: 0.8"/>
      </g>
     </g>
     <g id="text_9">
      <text style="font: 24px 'DejaVu Sans', 'Bitstream Vera Sans', 'Computer Modern Sans Serif', 'Lucida Grande', 'Verdana', 'Geneva', 'Lucid', 'Arial', 'Helvetica', 'Avant Garde', sans-serif; text-anchor: end" x="83" y="276.350784" transform="rotate(-0 83 276.350784)">0.6</text>
     </g>
    </g>
    <g id="ytick_5">
     <g id="line2d_9">
      <g>
       <use xlink:href="#m6572b15b88" x="90" y="151.165305" style="stroke: #000000; stroke-width: 0.8"/>
      </g>
     </g>
     <g id="text_10">
      <text style="font: 24px 'DejaVu Sans', 'Bitstream Vera Sans', 'Computer Modern Sans Serif', 'Lucida Grande', 'Verdana', 'Geneva', 'Lucid', 'Arial', 'Helvetica', 'Avant Garde', sans-serif; text-anchor: end" x="83" y="160.28343" transform="rotate(-0 83 160.28343)">0.8</text>
     </g>
    </g>
    <g id="text_11">
     <text style="font: 24px 'DejaVu Sans', 'Bitstream Vera Sans', 'Computer Modern Sans Serif', 'Lucida Grande', 'Verdana', 'Geneva', 'Lucid', 'Arial', 'Helvetica', 'Avant Garde', sans-serif; text-anchor: middle" x="35.84125" y="363.6" transform="rotate(-90 35.84125 363.6)">Magnetization $ m $ </text>
    </g>
   </g>
   <g id="LineCollection_1">
    <path d="M 115.363636 615.471544 
L 115.363636 615.326765 
" clip-path="url(#pb4c32119cf)" style="fill: none; stroke: #e41a1c; stroke-width: 1.5"/>
    <path d="M 187.831169 585.777617 
L 187.831169 585.617463 
" clip-path="url(#pb4c32119cf)" style="fill: none; stroke: #e41a1c; stroke-width: 1.5"/>
    <path d="M 260.298701 552.399099 
L 260.298701 552.212622 
" clip-path="url(#pb4c32119cf)" style="fill: none; stroke: #e41a1c; stroke-width: 1.5"/>
    <path d="M 318.272727 516.47818 
L 318.272727 516.236342 
" clip-path="url(#pb4c32119cf)" style="fill: none; stroke: #e41a1c; stroke-width: 1.5"/>
    <path d="M 332.766234 504.110965 
L 332.766234 503.846087 
" clip-path="url(#pb4c32119cf)" style="fill: none; stroke: #e41a1c; stroke-width: 1.5"/>
    <path d="M 340.012987 496.602514 
L 340.012987 496.318523 
" clip-path="url(#pb4c32119cf)" style="fill: none; stroke: #e41a1c; stroke-width: 1.5"/>
    <path d="M 354.506494 475.630348 
L 354.506494 475.154051 
" clip-path="url(#pb4c32119cf)" style="fill: none; stroke: #e41a1c; stroke-width: 1.5"/>
    <path d="M 361.753247 469.933797 
L 361.753247 469.465484 
" clip-path="url(#pb4c32119cf)" style="fill: none; stroke: #e41a1c; stroke-width: 1.5"/>
    <path d="M 369 419.660039 
L 369 418.225291 
" clip-path="url(#pb4c32119cf)" style="fill: none; stroke: #e41a1c; stroke-width: 1.5"/>
    <path d="M 383.493506 415.510734 
L 383.493506 414.432099 
" clip-path="url(#pb4c32119cf)" style="fill: none; stroke: #e41a1c; stroke-width: 1.5"/>
    <path d="M 405.233766 350.085267 
L 405.233766 347.647883 
" clip-path="url(#pb4c32119cf)" style="fill: none; stroke: #e41a1c; stroke-width: 1.5"/>
    <path d="M 477.701299 208.108934 
L 477.701299 205.997665 
" clip-path="url(#pb4c32119cf)" style="fill: none; stroke: #e41a1c; stroke-width: 1.5"/>
    <path d="M 550.168831 141.270143 
L 550.168831 140.815389 
" clip-path="url(#pb4c32119cf)" style="fill: none; stroke: #e41a1c; stroke-width: 1.5"/>
    <path d="M 622.636364 112.259743 
L 622.636364 111.875883 
" clip-path="url(#pb4c32119cf)" style="fill: none; stroke: #e41a1c; stroke-width: 1.5"/>
   </g>
   <g id="LineCollection_2">
    <path d="M 115.363636 615.6 
L 115.363636 615.44596 
" clip-path="url(#pb4c32119cf)" style="fill: none; stroke: #377eb8; stroke-width: 1.5"/>
    <path d="M 187.831169 586.00375 
L 187.831169 585.839052 
" clip-path="url(#pb4c32119cf)" style="fill: none; stroke: #377eb8; stroke-width: 1.5"/>
    <path d="M 260.298701 552.38563 
L 260.298701 552.204189 
" clip-path="url(#pb4c32119cf)" style="fill: none; stroke: #377eb8; stroke-width: 1.5"/>
    <path d="M 318.272727 515.990281 
L 318.272727 515.747922 
" clip-path="url(#pb4c32119cf)" style="fill: none; stroke: #377eb8; stroke-width: 1.5"/>
    <path d="M 332.766234 503.099794 
L 332.766234 502.82014 
" clip-path="url(#pb4c32119cf)" style="fill: none; stroke: #377eb8; stroke-width: 1.5"/>
    <path d="M 340.012987 495.366366 
L 340.012987 495.070896 
" clip-path="url(#pb4c32119cf)" style="fill: none; stroke: #377eb8; stroke-width: 1.5"/>
    <path d="M 354.506494 466.218655 
L 354.506494 465.741872 
" clip-path="url(#pb4c32119cf)" style="fill: none; stroke: #377eb8; stroke-width: 1.5"/>
    <path d="M 361.753247 434.781406 
L 361.753247 434.101266 
" clip-path="url(#pb4c32119cf)" style="fill: none; stroke: #377eb8; stroke-width: 1.5"/>
    <path d="M 369 396.115504 
L 369 395.332022 
" clip-path="url(#pb4c32119cf)" style="fill: none; stroke: #377eb8; stroke-width: 1.5"/>
    <path d="M 383.493506 343.711808 
L 383.493506 342.968648 
" clip-path="url(#pb4c32119cf)" style="fill: none; stroke: #377eb8; stroke-width: 1.5"/>
    <path d="M 405.233766 291.161912 
L 405.233766 290.464684 
" clip-path="url(#pb4c32119cf)" style="fill: none; stroke: #377eb8; stroke-width: 1.5"/>
    <path d="M 477.701299 190.17735 
L 477.701299 189.69213 
" clip-path="url(#pb4c32119cf)" style="fill: none; stroke: #377eb8; stroke-width: 1.5"/>
    <path d="M 550.168831 141.061565 
L 550.168831 140.641303 
" clip-path="url(#pb4c32119cf)" style="fill: none; stroke: #377eb8; stroke-width: 1.5"/>
    <path d="M 622.636364 112.006023 
L 622.636364 111.6 
" clip-path="url(#pb4c32119cf)" style="fill: none; stroke: #377eb8; stroke-width: 1.5"/>
   </g>
   <g id="LineCollection_3">
    <path d="M 115.363636 615.481495 
L 115.363636 615.331454 
" clip-path="url(#pb4c32119cf)" style="fill: none; stroke: #4daf4a; stroke-width: 1.5"/>
    <path d="M 187.831169 585.914734 
L 187.831169 585.757633 
" clip-path="url(#pb4c32119cf)" style="fill: none; stroke: #4daf4a; stroke-width: 1.5"/>
    <path d="M 260.298701 552.22835 
L 260.298701 552.049942 
" clip-path="url(#pb4c32119cf)" style="fill: none; stroke: #4daf4a; stroke-width: 1.5"/>
    <path d="M 318.272727 516.400618 
L 318.272727 516.157934 
" clip-path="url(#pb4c32119cf)" style="fill: none; stroke: #4daf4a; stroke-width: 1.5"/>
    <path d="M 332.766234 504.601474 
L 332.766234 504.34335 
" clip-path="url(#pb4c32119cf)" style="fill: none; stroke: #4daf4a; stroke-width: 1.5"/>
    <path d="M 340.012987 497.585693 
L 340.012987 497.319921 
" clip-path="url(#pb4c32119cf)" style="fill: none; stroke: #4daf4a; stroke-width: 1.5"/>
    <path d="M 354.506494 481.430543 
L 354.506494 481.09714 
" clip-path="url(#pb4c32119cf)" style="fill: none; stroke: #4daf4a; stroke-width: 1.5"/>
    <path d="M 361.753247 471.833896 
L 361.753247 471.480402 
" clip-path="url(#pb4c32119cf)" style="fill: none; stroke: #4daf4a; stroke-width: 1.5"/>
    <path d="M 369 461.147381 
L 369 460.689722 
" clip-path="url(#pb4c32119cf)" style="fill: none; stroke: #4daf4a; stroke-width: 1.5"/>
    <path d="M 383.493506 436.197835 
L 383.493506 435.255748 
" clip-path="url(#pb4c32119cf)" style="fill: none; stroke: #4daf4a; stroke-width: 1.5"/>
    <path d="M 405.233766 397.469154 
L 405.233766 396.212666 
" clip-path="url(#pb4c32119cf)" style="fill: none; stroke: #4daf4a; stroke-width: 1.5"/>
    <path d="M 477.701299 301.173739 
L 477.701299 299.725895 
" clip-path="url(#pb4c32119cf)" style="fill: none; stroke: #4daf4a; stroke-width: 1.5"/>
    <path d="M 550.168831 243.218981 
L 550.168831 241.057632 
" clip-path="url(#pb4c32119cf)" style="fill: none; stroke: #4daf4a; stroke-width: 1.5"/>
    <path d="M 622.636364 185.90917 
L 622.636364 182.609314 
" clip-path="url(#pb4c32119cf)" style="fill: none; stroke: #4daf4a; stroke-width: 1.5"/>
   </g>
   <g id="line2d_10">
    <path d="M 115.363636 615.399154 
L 187.831169 585.69754 
L 260.298701 552.305861 
L 318.272727 516.357261 
L 332.766234 503.978526 
L 340.012987 496.460519 
L 354.506494 475.392199 
L 361.753247 469.69964 
L 369 418.942665 
L 383.493506 414.971416 
L 405.233766 348.866575 
L 477.701299 207.053299 
L 550.168831 141.042766 
L 622.636364 112.067813 
" clip-path="url(#pb4c32119cf)" style="fill: none; stroke: #e41a1c; stroke-width: 1.5; stroke-linecap: square"/>
    <defs>
     <path id="mcde1712f70" d="M 0 1.5 
C 0.397805 1.5 0.77937 1.341951 1.06066 1.06066 
C 1.341951 0.77937 1.5 0.397805 1.5 0 
C 1.5 -0.397805 1.341951 -0.77937 1.06066 -1.06066 
C 0.77937 -1.341951 0.397805 -1.5 0 -1.5 
C -0.397805 -1.5 -0.77937 -1.341951 -1.06066 -1.06066 
C -1.341951 -0.77937 -1.5 -0.397805 -1.5 0 
C -1.5 0.397805 -1.341951 0.77937 -1.06066 1.06066 
C -0.77937 1.341951 -0.397805 1.5 0 1.5 
z
" style="stroke: #e41a1c"/>
    </defs>
    <g clip-path="url(#pb4c32119cf)">
     <use xlink:href="#mcde1712f70" x="115.363636" y="615.399154" style="fill: #e41a1c; stroke: #e41a1c"/>
     <use xlink:href="#mcde1712f70" x="187.831169" y="585.69754" style="fill: #e41a1c; stroke: #e41a1c"/>
     <use xlink:href="#mcde1712f70" x="260.298701" y="552.305861" style="fill: #e41a1c; stroke: #e41a1c"/>
     <use xlink:href="#mcde1712f70" x="318.272727" y="516.357261" style="fill: #e41a1c; stroke: #e41a1c"/>
     <use xlink:href="#mcde1712f70" x="332.766234" y="503.978526" style="fill: #e41a1c; stroke: #e41a1c"/>
     <use xlink:href="#mcde1712f70" x="340.012987" y="496.460519" style="fill: #e41a1c; stroke: #e41a1c"/>
     <use xlink:href="#mcde1712f70" x="354.506494" y="475.392199" style="fill: #e41a1c; stroke: #e41a1c"/>
     <use xlink:href="#mcde1712f70" x="361.753247" y="469.69964" style="fill: #e41a1c; stroke: #e41a1c"/>
     <use xlink:href="#mcde1712f70" x="369" y="418.942665" style="fill: #e41a1c; stroke: #e41a1c"/>
     <use xlink:href="#mcde1712f70" x="383.493506" y="414.971416" style="fill: #e41a1c; stroke: #e41a1c"/>
     <use xlink:href="#mcde1712f70" x="405.233766" y="348.866575" style="fill: #e41a1c; stroke: #e41a1c"/>
     <use xlink:href="#mcde1712f70" x="477.701299" y="207.053299" style="fill: #e41a1c; stroke: #e41a1c"/>
     <use xlink:href="#mcde1712f70" x="550.168831" y="141.042766" style="fill: #e41a1c; stroke: #e41a1c"/>
     <use xlink:href="#mcde1712f70" x="622.636364" y="112.067813" style="fill: #e41a1c; stroke: #e41a1c"/>
    </g>
   </g>
   <g id="line2d_11">
    <path d="M 115.363636 615.52298 
L 187.831169 585.921401 
L 260.298701 552.29491 
L 318.272727 515.869101 
L 332.766234 502.959967 
L 340.012987 495.218631 
L 354.506494 465.980264 
L 361.753247 434.441336 
L 369 395.723763 
L 383.493506 343.340228 
L 405.233766 290.813298 
L 477.701299 189.93474 
L 550.168831 140.851434 
L 622.636364 111.803012 
" clip-path="url(#pb4c32119cf)" style="fill: none; stroke-dasharray: 5.55,2.4; stroke-dashoffset: 0; stroke: #377eb8; stroke-width: 1.5"/>
    <defs>
     <path id="m55e7afa08d" d="M 0 1.5 
C 0.397805 1.5 0.77937 1.341951 1.06066 1.06066 
C 1.341951 0.77937 1.5 0.397805 1.5 0 
C 1.5 -0.397805 1.341951 -0.77937 1.06066 -1.06066 
C 0.77937 -1.341951 0.397805 -1.5 0 -1.5 
C -0.397805 -1.5 -0.77937 -1.341951 -1.06066 -1.06066 
C -1.341951 -0.77937 -1.5 -0.397805 -1.5 0 
C -1.5 0.397805 -1.341951 0.77937 -1.06066 1.06066 
C -0.77937 1.341951 -0.397805 1.5 0 1.5 
z
" style="stroke: #377eb8"/>
    </defs>
    <g clip-path="url(#pb4c32119cf)">
     <use xlink:href="#m55e7afa08d" x="115.363636" y="615.52298" style="fill: #377eb8; stroke: #377eb8"/>
     <use xlink:href="#m55e7afa08d" x="187.831169" y="585.921401" style="fill: #377eb8; stroke: #377eb8"/>
     <use xlink:href="#m55e7afa08d" x="260.298701" y="552.29491" style="fill: #377eb8; stroke: #377eb8"/>
     <use xlink:href="#m55e7afa08d" x="318.272727" y="515.869101" style="fill: #377eb8; stroke: #377eb8"/>
     <use xlink:href="#m55e7afa08d" x="332.766234" y="502.959967" style="fill: #377eb8; stroke: #377eb8"/>
     <use xlink:href="#m55e7afa08d" x="340.012987" y="495.218631" style="fill: #377eb8; stroke: #377eb8"/>
     <use xlink:href="#m55e7afa08d" x="354.506494" y="465.980264" style="fill: #377eb8; stroke: #377eb8"/>
     <use xlink:href="#m55e7afa08d" x="361.753247" y="434.441336" style="fill: #377eb8; stroke: #377eb8"/>
     <use xlink:href="#m55e7afa08d" x="369" y="395.723763" style="fill: #377eb8; stroke: #377eb8"/>
     <use xlink:href="#m55e7afa08d" x="383.493506" y="343.340228" style="fill: #377eb8; stroke: #377eb8"/>
     <use xlink:href="#m55e7afa08d" x="405.233766" y="290.813298" style="fill: #377eb8; stroke: #377eb8"/>
     <use xlink:href="#m55e7afa08d" x="477.701299" y="189.93474" style="fill: #377eb8; stroke: #377eb8"/>
     <use xlink:href="#m55e7afa08d" x="550.168831" y="140.851434" style="fill: #377eb8; stroke: #377eb8"/>
     <use xlink:href="#m55e7afa08d" x="622.636364" y="111.803012" style="fill: #377eb8; stroke: #377eb8"/>
    </g>
   </g>
   <g id="line2d_12">
    <path d="M 115.363636 615.406475 
L 187.831169 585.836184 
L 260.298701 552.139146 
L 318.272727 516.279276 
L 332.766234 504.472412 
L 340.012987 497.452807 
L 354.506494 481.263841 
L 361.753247 471.657149 
L 369 460.918552 
L 383.493506 435.726792 
L 405.233766 396.84091 
L 477.701299 300.449817 
L 550.168831 242.138307 
L 622.636364 184.259242 
" clip-path="url(#pb4c32119cf)" style="fill: none; stroke-dasharray: 1.5,2.475; stroke-dashoffset: 0; stroke: #4daf4a; stroke-width: 1.5"/>
    <defs>
     <path id="m5b7d507e87" d="M 0 1.5 
C 0.397805 1.5 0.77937 1.341951 1.06066 1.06066 
C 1.341951 0.77937 1.5 0.397805 1.5 0 
C 1.5 -0.397805 1.341951 -0.77937 1.06066 -1.06066 
C 0.77937 -1.341951 0.397805 -1.5 0 -1.5 
C -0.397805 -1.5 -0.77937 -1.341951 -1.06066 -1.06066 
C -1.341951 -0.77937 -1.5 -0.397805 -1.5 0 
C -1.5 0.397805 -1.341951 0.77937 -1.06066 1.06066 
C -0.77937 1.341951 -0.397805 1.5 0 1.5 
z
" style="stroke: #4daf4a"/>
    </defs>
    <g clip-path="url(#pb4c32119cf)">
     <use xlink:href="#m5b7d507e87" x="115.363636" y="615.406475" style="fill: #4daf4a; stroke: #4daf4a"/>
     <use xlink:href="#m5b7d507e87" x="187.831169" y="585.836184" style="fill: #4daf4a; stroke: #4daf4a"/>
     <use xlink:href="#m5b7d507e87" x="260.298701" y="552.139146" style="fill: #4daf4a; stroke: #4daf4a"/>
     <use xlink:href="#m5b7d507e87" x="318.272727" y="516.279276" style="fill: #4daf4a; stroke: #4daf4a"/>
     <use xlink:href="#m5b7d507e87" x="332.766234" y="504.472412" style="fill: #4daf4a; stroke: #4daf4a"/>
     <use xlink:href="#m5b7d507e87" x="340.012987" y="497.452807" style="fill: #4daf4a; stroke: #4daf4a"/>
     <use xlink:href="#m5b7d507e87" x="354.506494" y="481.263841" style="fill: #4daf4a; stroke: #4daf4a"/>
     <use xlink:href="#m5b7d507e87" x="361.753247" y="471.657149" style="fill: #4daf4a; stroke: #4daf4a"/>
     <use xlink:href="#m5b7d507e87" x="369" y="460.918552" style="fill: #4daf4a; stroke: #4daf4a"/>
     <use xlink:href="#m5b7d507e87" x="383.493506" y="435.726792" style="fill: #4daf4a; stroke: #4daf4a"/>
     <use xlink:href="#m5b7d507e87" x="405.233766" y="396.84091" style="fill: #4daf4a; stroke: #4daf4a"/>
     <use xlink:href="#m5b7d507e87" x="477.701299" y="300.449817" style="fill: #4daf4a; stroke: #4daf4a"/>
     <use xlink:href="#m5b7d507e87" x="550.168831" y="242.138307" style="fill: #4daf4a; stroke: #4daf4a"/>
     <use xlink:href="#m5b7d507e87" x="622.636364" y="184.259242" style="fill: #4daf4a; stroke: #4daf4a"/>
    </g>
   </g>
   <g id="patch_3">
    <path d="M 90 640.8 
L 90 86.4 
" style="fill: none; stroke: #000000; stroke-width: 0.8; stroke-linejoin: miter; stroke-linecap: square"/>
   </g>
   <g id="patch_4">
    <path d="M 648 640.8 
L 648 86.4 
" style="fill: none; stroke: #000000; stroke-width: 0.8; stroke-linejoin: miter; stroke-linecap: square"/>
   </g>
   <g id="patch_5">
    <path d="M 90 640.8 
L 648 640.8 
" style="fill: none; stroke: #000000; stroke-width: 0.8; stroke-linejoin: miter; stroke-linecap: square"/>
   </g>
   <g id="patch_6">
    <path d="M 90 86.4 
L 648 86.4 
" style="fill: none; stroke: #000000; stroke-width: 0.8; stroke-linejoin: miter; stroke-linecap: square"/>
   </g>
   <g id="legend_1">
    <g id="patch_7">
     <path d="M 106.8 211.2825 
L 335.3175 211.2825 
Q 340.1175 211.2825 340.1175 206.4825 
L 340.1175 103.2 
Q 340.1175 98.4 335.3175 98.4 
L 106.8 98.4 
Q 102 98.4 102 103.2 
L 102 206.4825 
Q 102 211.2825 106.8 211.2825 
z
" style="fill: #ffffff; opacity: 0.8; stroke: #cccccc; stroke-linejoin: miter"/>
    </g>
    <g id="LineCollection_4">
     <path d="M 135.6 129.83625 
L 135.6 105.83625 
" style="fill: none; stroke: #e41a1c; stroke-width: 1.5"/>
    </g>
    <g id="line2d_13">
     <path d="M 111.6 117.83625 
L 159.6 117.83625 
" style="fill: none; stroke: #e41a1c; stroke-width: 1.5; stroke-linecap: square"/>
    </g>
    <g id="line2d_14">
     <g>
      <use xlink:href="#mcde1712f70" x="135.6" y="117.83625" style="fill: #e41a1c; stroke: #e41a1c"/>
     </g>
    </g>
    <g id="text_12">
     <text style="font: 24px 'DejaVu Sans', 'Bitstream Vera Sans', 'Computer Modern Sans Serif', 'Lucida Grande', 'Verdana', 'Geneva', 'Lucid', 'Arial', 'Helvetica', 'Avant Garde', sans-serif; text-anchor: start" x="178.8" y="126.23625" transform="rotate(-0 178.8 126.23625)">independent</text>
    </g>
    <g id="LineCollection_5">
     <path d="M 135.6 165.06375 
L 135.6 141.06375 
" style="fill: none; stroke: #377eb8; stroke-width: 1.5"/>
    </g>
    <g id="line2d_15">
     <path d="M 111.6 153.06375 
L 159.6 153.06375 
" style="fill: none; stroke-dasharray: 5.55,2.4; stroke-dashoffset: 0; stroke: #377eb8; stroke-width: 1.5"/>
    </g>
    <g id="line2d_16">
     <g>
      <use xlink:href="#m55e7afa08d" x="135.6" y="153.06375" style="fill: #377eb8; stroke: #377eb8"/>
     </g>
    </g>
    <g id="text_13">
     <text style="font: 24px 'DejaVu Sans', 'Bitstream Vera Sans', 'Computer Modern Sans Serif', 'Lucida Grande', 'Verdana', 'Geneva', 'Lucid', 'Arial', 'Helvetica', 'Avant Garde', sans-serif; text-anchor: start" x="178.8" y="161.46375" transform="rotate(-0 178.8 161.46375)">right-left</text>
    </g>
    <g id="LineCollection_6">
     <path d="M 135.6 200.29125 
L 135.6 176.29125 
" style="fill: none; stroke: #4daf4a; stroke-width: 1.5"/>
    </g>
    <g id="line2d_17">
     <path d="M 111.6 188.29125 
L 159.6 188.29125 
" style="fill: none; stroke-dasharray: 1.5,2.475; stroke-dashoffset: 0; stroke: #4daf4a; stroke-width: 1.5"/>
    </g>
    <g id="line2d_18">
     <g>
      <use xlink:href="#m5b7d507e87" x="135.6" y="188.29125" style="fill: #4daf4a; stroke: #4daf4a"/>
     </g>
    </g>
    <g id="text_14">
     <text style="font: 24px 'DejaVu Sans', 'Bitstream Vera Sans', 'Computer Modern Sans Serif', 'Lucida Grande', 'Verdana', 'Geneva', 'Lucid', 'Arial', 'Helvetica', 'Avant Garde', sans-serif; text-anchor: start" x="178.8" y="196.69125" transform="rotate(-0 178.8 196.69125)">left-right</text>
    </g>
   </g>
  </g>
 </g>
 <defs>
  <clipPath id="pb4c32119cf">
   <rect x="90" y="86.4" width="558" height="554.4"/>
  </clipPath>
 </defs>
</svg>
