<?xml version="1.0" encoding="utf-8" standalone="no"?>
<!DOCTYPE svg PUBLIC "-//W3C//DTD SVG 1.1//EN"
  "http://www.w3.org/Graphics/SVG/1.1/DTD/svg11.dtd">
<svg xmlns:xlink="http://www.w3.org/1999/xlink" width="720pt" height="720pt" viewBox="0 0 720 720" xmlns="http://www.w3.org/2000/svg" version="1.1">
 <metadata>
  <rdf:RDF xmlns:dc="http://purl.org/dc/elements/1.1/" xmlns:cc="http://creativecommons.org/ns#" xmlns:rdf="http://www.w3.org/1999/02/22-rdf-syntax-ns#">
   <cc:Work>
    <dc:type rdf:resource="http://purl.org/dc/dcmitype/StillImage"/>
    <dc:date>2024-02-27T14:58:35.903561</dc:date>
    <dc:format>image/svg+xml</dc:format>
    <dc:creator>
     <cc:Agent>
      <dc:title>Matplotlib v3.7.1, https://matplotlib.org/</dc:title>
     </cc:Agent>
    </dc:creator>
   </cc:Work>
  </rdf:RDF>
 </metadata>
 <defs>
  <style type="text/css">*{stroke-linejoin: round; stroke-linecap: butt}</style>
 </defs>
 <g id="figure_1">
  <g id="patch_1">
   <path d="M 0 720 
L 720 720 
L 720 0 
L 0 0 
z
" style="fill: #ffffff"/>
  </g>
  <g id="axes_1">
   <g id="patch_2">
    <path d="M 90 640.8 
L 648 640.8 
L 648 86.4 
L 90 86.4 
z
" style="fill: #ffffff"/>
   </g>
   <g id="matplotlib.axis_1">
    <g id="xtick_1">
     <g id="line2d_1">
      <defs>
       <path id="md286cf29d4" d="M 0 0 
L 0 3.5 
" style="stroke: #000000; stroke-width: 0.8"/>
      </defs>
      <g>
       <use xlink:href="#md286cf29d4" x="157.636364" y="640.8" style="stroke: #000000; stroke-width: 0.8"/>
      </g>
     </g>
     <g id="text_1">
      <text style="font: 24px 'DejaVu Sans', 'Bitstream Vera Sans', 'Computer Modern Sans Serif', 'Lucida Grande', 'Verdana', 'Geneva', 'Lucid', 'Arial', 'Helvetica', 'Avant Garde', sans-serif; text-anchor: middle" x="157.636364" y="666.03625" transform="rotate(-0 157.636364 666.03625)">0.1</text>
     </g>
    </g>
    <g id="xtick_2">
     <g id="line2d_2">
      <g>
       <use xlink:href="#md286cf29d4" x="242.181818" y="640.8" style="stroke: #000000; stroke-width: 0.8"/>
      </g>
     </g>
     <g id="text_2">
      <text style="font: 24px 'DejaVu Sans', 'Bitstream Vera Sans', 'Computer Modern Sans Serif', 'Lucida Grande', 'Verdana', 'Geneva', 'Lucid', 'Arial', 'Helvetica', 'Avant Garde', sans-serif; text-anchor: middle" x="242.181818" y="666.03625" transform="rotate(-0 242.181818 666.03625)">0.2</text>
     </g>
    </g>
    <g id="xtick_3">
     <g id="line2d_3">
      <g>
       <use xlink:href="#md286cf29d4" x="326.727273" y="640.8" style="stroke: #000000; stroke-width: 0.8"/>
      </g>
     </g>
     <g id="text_3">
      <text style="font: 24px 'DejaVu Sans', 'Bitstream Vera Sans', 'Computer Modern Sans Serif', 'Lucida Grande', 'Verdana', 'Geneva', 'Lucid', 'Arial', 'Helvetica', 'Avant Garde', sans-serif; text-anchor: middle" x="326.727273" y="666.03625" transform="rotate(-0 326.727273 666.03625)">0.3</text>
     </g>
    </g>
    <g id="xtick_4">
     <g id="line2d_4">
      <g>
       <use xlink:href="#md286cf29d4" x="411.272727" y="640.8" style="stroke: #000000; stroke-width: 0.8"/>
      </g>
     </g>
     <g id="text_4">
      <text style="font: 24px 'DejaVu Sans', 'Bitstream Vera Sans', 'Computer Modern Sans Serif', 'Lucida Grande', 'Verdana', 'Geneva', 'Lucid', 'Arial', 'Helvetica', 'Avant Garde', sans-serif; text-anchor: middle" x="411.272727" y="666.03625" transform="rotate(-0 411.272727 666.03625)">0.4</text>
     </g>
    </g>
    <g id="xtick_5">
     <g id="line2d_5">
      <g>
       <use xlink:href="#md286cf29d4" x="495.818182" y="640.8" style="stroke: #000000; stroke-width: 0.8"/>
      </g>
     </g>
     <g id="text_5">
      <text style="font: 24px 'DejaVu Sans', 'Bitstream Vera Sans', 'Computer Modern Sans Serif', 'Lucida Grande', 'Verdana', 'Geneva', 'Lucid', 'Arial', 'Helvetica', 'Avant Garde', sans-serif; text-anchor: middle" x="495.818182" y="666.03625" transform="rotate(-0 495.818182 666.03625)">0.5</text>
     </g>
    </g>
    <g id="xtick_6">
     <g id="line2d_6">
      <g>
       <use xlink:href="#md286cf29d4" x="580.363636" y="640.8" style="stroke: #000000; stroke-width: 0.8"/>
      </g>
     </g>
     <g id="text_6">
      <text style="font: 24px 'DejaVu Sans', 'Bitstream Vera Sans', 'Computer Modern Sans Serif', 'Lucida Grande', 'Verdana', 'Geneva', 'Lucid', 'Arial', 'Helvetica', 'Avant Garde', sans-serif; text-anchor: middle" x="580.363636" y="666.03625" transform="rotate(-0 580.363636 666.03625)">0.6</text>
     </g>
    </g>
    <g id="text_7">
     <text style="font: 24px 'DejaVu Sans', 'Bitstream Vera Sans', 'Computer Modern Sans Serif', 'Lucida Grande', 'Verdana', 'Geneva', 'Lucid', 'Arial', 'Helvetica', 'Avant Garde', sans-serif; text-anchor: middle" x="369" y="693.26375" transform="rotate(-0 369 693.26375)">Field strength in $ z $-direction $ h_z $ </text>
    </g>
   </g>
   <g id="matplotlib.axis_2">
    <g id="ytick_1">
     <g id="line2d_7">
      <defs>
       <path id="mf352f7f7d2" d="M 0 0 
L -3.5 0 
" style="stroke: #000000; stroke-width: 0.8"/>
      </defs>
      <g>
       <use xlink:href="#mf352f7f7d2" x="90" y="636.119315" style="stroke: #000000; stroke-width: 0.8"/>
      </g>
     </g>
     <g id="text_8">
      <text style="font: 24px 'DejaVu Sans', 'Bitstream Vera Sans', 'Computer Modern Sans Serif', 'Lucida Grande', 'Verdana', 'Geneva', 'Lucid', 'Arial', 'Helvetica', 'Avant Garde', sans-serif; text-anchor: end" x="83" y="645.23744" transform="rotate(-0 83 645.23744)">0</text>
     </g>
    </g>
    <g id="ytick_2">
     <g id="line2d_8">
      <g>
       <use xlink:href="#mf352f7f7d2" x="90" y="516.176058" style="stroke: #000000; stroke-width: 0.8"/>
      </g>
     </g>
     <g id="text_9">
      <text style="font: 24px 'DejaVu Sans', 'Bitstream Vera Sans', 'Computer Modern Sans Serif', 'Lucida Grande', 'Verdana', 'Geneva', 'Lucid', 'Arial', 'Helvetica', 'Avant Garde', sans-serif; text-anchor: end" x="83" y="525.294183" transform="rotate(-0 83 525.294183)">2</text>
     </g>
    </g>
    <g id="ytick_3">
     <g id="line2d_9">
      <g>
       <use xlink:href="#mf352f7f7d2" x="90" y="396.232801" style="stroke: #000000; stroke-width: 0.8"/>
      </g>
     </g>
     <g id="text_10">
      <text style="font: 24px 'DejaVu Sans', 'Bitstream Vera Sans', 'Computer Modern Sans Serif', 'Lucida Grande', 'Verdana', 'Geneva', 'Lucid', 'Arial', 'Helvetica', 'Avant Garde', sans-serif; text-anchor: end" x="83" y="405.350926" transform="rotate(-0 83 405.350926)">4</text>
     </g>
    </g>
    <g id="ytick_4">
     <g id="line2d_10">
      <g>
       <use xlink:href="#mf352f7f7d2" x="90" y="276.289544" style="stroke: #000000; stroke-width: 0.8"/>
      </g>
     </g>
     <g id="text_11">
      <text style="font: 24px 'DejaVu Sans', 'Bitstream Vera Sans', 'Computer Modern Sans Serif', 'Lucida Grande', 'Verdana', 'Geneva', 'Lucid', 'Arial', 'Helvetica', 'Avant Garde', sans-serif; text-anchor: end" x="83" y="285.407669" transform="rotate(-0 83 285.407669)">6</text>
     </g>
    </g>
    <g id="ytick_5">
     <g id="line2d_11">
      <g>
       <use xlink:href="#mf352f7f7d2" x="90" y="156.346287" style="stroke: #000000; stroke-width: 0.8"/>
      </g>
     </g>
     <g id="text_12">
      <text style="font: 24px 'DejaVu Sans', 'Bitstream Vera Sans', 'Computer Modern Sans Serif', 'Lucida Grande', 'Verdana', 'Geneva', 'Lucid', 'Arial', 'Helvetica', 'Avant Garde', sans-serif; text-anchor: end" x="83" y="165.464412" transform="rotate(-0 83 165.464412)">8</text>
     </g>
    </g>
    <g id="text_13">
     <text style="font: 24px 'DejaVu Sans', 'Bitstream Vera Sans', 'Computer Modern Sans Serif', 'Lucida Grande', 'Verdana', 'Geneva', 'Lucid', 'Arial', 'Helvetica', 'Avant Garde', sans-serif; text-anchor: middle" x="58.73875" y="363.6" transform="rotate(-90 58.73875 363.6)">Susceptibility $ \chi $ </text>
    </g>
   </g>
   <g id="line2d_12">
    <path d="M 115.363636 605.425858 
L 199.909091 601.612568 
L 276 589.683001 
L 318.272727 572.15879 
L 330.954545 558.428713 
L 343.636364 527.259987 
L 356.318182 577.292775 
L 364.772727 111.6 
L 377.454545 615.6 
L 398.590909 408.41159 
L 453.545455 489.570389 
L 538.090909 567.904455 
L 622.636364 606.176785 
" clip-path="url(#pa6e5b12727)" style="fill: none; stroke: #e41a1c; stroke-width: 1.5; stroke-linecap: square"/>
    <defs>
     <path id="m092626d8ad" d="M 0 1.5 
C 0.397805 1.5 0.77937 1.341951 1.06066 1.06066 
C 1.341951 0.77937 1.5 0.397805 1.5 0 
C 1.5 -0.397805 1.341951 -0.77937 1.06066 -1.06066 
C 0.77937 -1.341951 0.397805 -1.5 0 -1.5 
C -0.397805 -1.5 -0.77937 -1.341951 -1.06066 -1.06066 
C -1.341951 -0.77937 -1.5 -0.397805 -1.5 0 
C -1.5 0.397805 -1.341951 0.77937 -1.06066 1.06066 
C -0.77937 1.341951 -0.397805 1.5 0 1.5 
z
" style="stroke: #e41a1c"/>
    </defs>
    <g clip-path="url(#pa6e5b12727)">
     <use xlink:href="#m092626d8ad" x="115.363636" y="605.425858" style="fill: #e41a1c; stroke: #e41a1c"/>
     <use xlink:href="#m092626d8ad" x="199.909091" y="601.612568" style="fill: #e41a1c; stroke: #e41a1c"/>
     <use xlink:href="#m092626d8ad" x="276" y="589.683001" style="fill: #e41a1c; stroke: #e41a1c"/>
     <use xlink:href="#m092626d8ad" x="318.272727" y="572.15879" style="fill: #e41a1c; stroke: #e41a1c"/>
     <use xlink:href="#m092626d8ad" x="330.954545" y="558.428713" style="fill: #e41a1c; stroke: #e41a1c"/>
     <use xlink:href="#m092626d8ad" x="343.636364" y="527.259987" style="fill: #e41a1c; stroke: #e41a1c"/>
     <use xlink:href="#m092626d8ad" x="356.318182" y="577.292775" style="fill: #e41a1c; stroke: #e41a1c"/>
     <use xlink:href="#m092626d8ad" x="364.772727" y="111.6" style="fill: #e41a1c; stroke: #e41a1c"/>
     <use xlink:href="#m092626d8ad" x="377.454545" y="615.6" style="fill: #e41a1c; stroke: #e41a1c"/>
     <use xlink:href="#m092626d8ad" x="398.590909" y="408.41159" style="fill: #e41a1c; stroke: #e41a1c"/>
     <use xlink:href="#m092626d8ad" x="453.545455" y="489.570389" style="fill: #e41a1c; stroke: #e41a1c"/>
     <use xlink:href="#m092626d8ad" x="538.090909" y="567.904455" style="fill: #e41a1c; stroke: #e41a1c"/>
     <use xlink:href="#m092626d8ad" x="622.636364" y="606.176785" style="fill: #e41a1c; stroke: #e41a1c"/>
    </g>
   </g>
   <g id="line2d_13">
    <path d="M 115.363636 605.529233 
L 199.909091 601.369916 
L 276 589.06657 
L 318.272727 569.418235 
L 330.954545 556.120845 
L 343.636364 485.045613 
L 356.318182 310.198063 
L 364.772727 236.014408 
L 377.454545 365.455278 
L 398.590909 455.182676 
L 453.545455 531.872063 
L 538.090909 585.396942 
L 622.636364 606.100862 
" clip-path="url(#pa6e5b12727)" style="fill: none; stroke-dasharray: 5.55,2.4; stroke-dashoffset: 0; stroke: #377eb8; stroke-width: 1.5"/>
    <defs>
     <path id="ma88638515b" d="M 0 1.5 
C 0.397805 1.5 0.77937 1.341951 1.06066 1.06066 
C 1.341951 0.77937 1.5 0.397805 1.5 0 
C 1.5 -0.397805 1.341951 -0.77937 1.06066 -1.06066 
C 0.77937 -1.341951 0.397805 -1.5 0 -1.5 
C -0.397805 -1.5 -0.77937 -1.341951 -1.06066 -1.06066 
C -1.341951 -0.77937 -1.5 -0.397805 -1.5 0 
C -1.5 0.397805 -1.341951 0.77937 -1.06066 1.06066 
C -0.77937 1.341951 -0.397805 1.5 0 1.5 
z
" style="stroke: #377eb8"/>
    </defs>
    <g clip-path="url(#pa6e5b12727)">
     <use xlink:href="#ma88638515b" x="115.363636" y="605.529233" style="fill: #377eb8; stroke: #377eb8"/>
     <use xlink:href="#ma88638515b" x="199.909091" y="601.369916" style="fill: #377eb8; stroke: #377eb8"/>
     <use xlink:href="#ma88638515b" x="276" y="589.06657" style="fill: #377eb8; stroke: #377eb8"/>
     <use xlink:href="#ma88638515b" x="318.272727" y="569.418235" style="fill: #377eb8; stroke: #377eb8"/>
     <use xlink:href="#ma88638515b" x="330.954545" y="556.120845" style="fill: #377eb8; stroke: #377eb8"/>
     <use xlink:href="#ma88638515b" x="343.636364" y="485.045613" style="fill: #377eb8; stroke: #377eb8"/>
     <use xlink:href="#ma88638515b" x="356.318182" y="310.198063" style="fill: #377eb8; stroke: #377eb8"/>
     <use xlink:href="#ma88638515b" x="364.772727" y="236.014408" style="fill: #377eb8; stroke: #377eb8"/>
     <use xlink:href="#ma88638515b" x="377.454545" y="365.455278" style="fill: #377eb8; stroke: #377eb8"/>
     <use xlink:href="#ma88638515b" x="398.590909" y="455.182676" style="fill: #377eb8; stroke: #377eb8"/>
     <use xlink:href="#ma88638515b" x="453.545455" y="531.872063" style="fill: #377eb8; stroke: #377eb8"/>
     <use xlink:href="#ma88638515b" x="538.090909" y="585.396942" style="fill: #377eb8; stroke: #377eb8"/>
     <use xlink:href="#ma88638515b" x="622.636364" y="606.100862" style="fill: #377eb8; stroke: #377eb8"/>
    </g>
   </g>
   <g id="line2d_14">
    <path d="M 115.363636 605.561567 
L 199.909091 601.297013 
L 276 589.797616 
L 318.272727 575.11363 
L 330.954545 563.579169 
L 343.636364 552.471448 
L 356.318182 536.844381 
L 364.772727 525.147339 
L 377.454545 505.954301 
L 398.590909 502.17125 
L 453.545455 536.50938 
L 538.090909 575.860576 
L 622.636364 576.307462 
" clip-path="url(#pa6e5b12727)" style="fill: none; stroke-dasharray: 1.5,2.475; stroke-dashoffset: 0; stroke: #4daf4a; stroke-width: 1.5"/>
    <defs>
     <path id="m8176bbed4d" d="M 0 1.5 
C 0.397805 1.5 0.77937 1.341951 1.06066 1.06066 
C 1.341951 0.77937 1.5 0.397805 1.5 0 
C 1.5 -0.397805 1.341951 -0.77937 1.06066 -1.06066 
C 0.77937 -1.341951 0.397805 -1.5 0 -1.5 
C -0.397805 -1.5 -0.77937 -1.341951 -1.06066 -1.06066 
C -1.341951 -0.77937 -1.5 -0.397805 -1.5 0 
C -1.5 0.397805 -1.341951 0.77937 -1.06066 1.06066 
C -0.77937 1.341951 -0.397805 1.5 0 1.5 
z
" style="stroke: #4daf4a"/>
    </defs>
    <g clip-path="url(#pa6e5b12727)">
     <use xlink:href="#m8176bbed4d" x="115.363636" y="605.561567" style="fill: #4daf4a; stroke: #4daf4a"/>
     <use xlink:href="#m8176bbed4d" x="199.909091" y="601.297013" style="fill: #4daf4a; stroke: #4daf4a"/>
     <use xlink:href="#m8176bbed4d" x="276" y="589.797616" style="fill: #4daf4a; stroke: #4daf4a"/>
     <use xlink:href="#m8176bbed4d" x="318.272727" y="575.11363" style="fill: #4daf4a; stroke: #4daf4a"/>
     <use xlink:href="#m8176bbed4d" x="330.954545" y="563.579169" style="fill: #4daf4a; stroke: #4daf4a"/>
     <use xlink:href="#m8176bbed4d" x="343.636364" y="552.471448" style="fill: #4daf4a; stroke: #4daf4a"/>
     <use xlink:href="#m8176bbed4d" x="356.318182" y="536.844381" style="fill: #4daf4a; stroke: #4daf4a"/>
     <use xlink:href="#m8176bbed4d" x="364.772727" y="525.147339" style="fill: #4daf4a; stroke: #4daf4a"/>
     <use xlink:href="#m8176bbed4d" x="377.454545" y="505.954301" style="fill: #4daf4a; stroke: #4daf4a"/>
     <use xlink:href="#m8176bbed4d" x="398.590909" y="502.17125" style="fill: #4daf4a; stroke: #4daf4a"/>
     <use xlink:href="#m8176bbed4d" x="453.545455" y="536.50938" style="fill: #4daf4a; stroke: #4daf4a"/>
     <use xlink:href="#m8176bbed4d" x="538.090909" y="575.860576" style="fill: #4daf4a; stroke: #4daf4a"/>
     <use xlink:href="#m8176bbed4d" x="622.636364" y="576.307462" style="fill: #4daf4a; stroke: #4daf4a"/>
    </g>
   </g>
   <g id="patch_3">
    <path d="M 90 640.8 
L 90 86.4 
" style="fill: none; stroke: #000000; stroke-width: 0.8; stroke-linejoin: miter; stroke-linecap: square"/>
   </g>
   <g id="patch_4">
    <path d="M 648 640.8 
L 648 86.4 
" style="fill: none; stroke: #000000; stroke-width: 0.8; stroke-linejoin: miter; stroke-linecap: square"/>
   </g>
   <g id="patch_5">
    <path d="M 90 640.8 
L 648 640.8 
" style="fill: none; stroke: #000000; stroke-width: 0.8; stroke-linejoin: miter; stroke-linecap: square"/>
   </g>
   <g id="patch_6">
    <path d="M 90 86.4 
L 648 86.4 
" style="fill: none; stroke: #000000; stroke-width: 0.8; stroke-linejoin: miter; stroke-linecap: square"/>
   </g>
   <g id="legend_1">
    <g id="patch_7">
     <path d="M 402.6825 211.2825 
L 631.2 211.2825 
Q 636 211.2825 636 206.4825 
L 636 103.2 
Q 636 98.4 631.2 98.4 
L 402.6825 98.4 
Q 397.8825 98.4 397.8825 103.2 
L 397.8825 206.4825 
Q 397.8825 211.2825 402.6825 211.2825 
z
" style="fill: #ffffff; opacity: 0.8; stroke: #cccccc; stroke-linejoin: miter"/>
    </g>
    <g id="line2d_15">
     <path d="M 407.4825 117.83625 
L 431.4825 117.83625 
L 455.4825 117.83625 
" style="fill: none; stroke: #e41a1c; stroke-width: 1.5; stroke-linecap: square"/>
     <g>
      <use xlink:href="#m092626d8ad" x="431.4825" y="117.83625" style="fill: #e41a1c; stroke: #e41a1c"/>
     </g>
    </g>
    <g id="text_14">
     <text style="font: 24px 'DejaVu Sans', 'Bitstream Vera Sans', 'Computer Modern Sans Serif', 'Lucida Grande', 'Verdana', 'Geneva', 'Lucid', 'Arial', 'Helvetica', 'Avant Garde', sans-serif; text-anchor: start" x="474.6825" y="126.23625" transform="rotate(-0 474.6825 126.23625)">independent</text>
    </g>
    <g id="line2d_16">
     <path d="M 407.4825 153.06375 
L 431.4825 153.06375 
L 455.4825 153.06375 
" style="fill: none; stroke-dasharray: 5.55,2.4; stroke-dashoffset: 0; stroke: #377eb8; stroke-width: 1.5"/>
     <g>
      <use xlink:href="#ma88638515b" x="431.4825" y="153.06375" style="fill: #377eb8; stroke: #377eb8"/>
     </g>
    </g>
    <g id="text_15">
     <text style="font: 24px 'DejaVu Sans', 'Bitstream Vera Sans', 'Computer Modern Sans Serif', 'Lucida Grande', 'Verdana', 'Geneva', 'Lucid', 'Arial', 'Helvetica', 'Avant Garde', sans-serif; text-anchor: start" x="474.6825" y="161.46375" transform="rotate(-0 474.6825 161.46375)">right-left</text>
    </g>
    <g id="line2d_17">
     <path d="M 407.4825 188.29125 
L 431.4825 188.29125 
L 455.4825 188.29125 
" style="fill: none; stroke-dasharray: 1.5,2.475; stroke-dashoffset: 0; stroke: #4daf4a; stroke-width: 1.5"/>
     <g>
      <use xlink:href="#m8176bbed4d" x="431.4825" y="188.29125" style="fill: #4daf4a; stroke: #4daf4a"/>
     </g>
    </g>
    <g id="text_16">
     <text style="font: 24px 'DejaVu Sans', 'Bitstream Vera Sans', 'Computer Modern Sans Serif', 'Lucida Grande', 'Verdana', 'Geneva', 'Lucid', 'Arial', 'Helvetica', 'Avant Garde', sans-serif; text-anchor: start" x="474.6825" y="196.69125" transform="rotate(-0 474.6825 196.69125)">left-right</text>
    </g>
   </g>
  </g>
 </g>
 <defs>
  <clipPath id="pa6e5b12727">
   <rect x="90" y="86.4" width="558" height="554.4"/>
  </clipPath>
 </defs>
</svg>
