<?xml version="1.0" encoding="utf-8" standalone="no"?>
<!DOCTYPE svg PUBLIC "-//W3C//DTD SVG 1.1//EN"
  "http://www.w3.org/Graphics/SVG/1.1/DTD/svg11.dtd">
<svg xmlns:xlink="http://www.w3.org/1999/xlink" width="720pt" height="720pt" viewBox="0 0 720 720" xmlns="http://www.w3.org/2000/svg" version="1.1">
 <metadata>
  <rdf:RDF xmlns:dc="http://purl.org/dc/elements/1.1/" xmlns:cc="http://creativecommons.org/ns#" xmlns:rdf="http://www.w3.org/1999/02/22-rdf-syntax-ns#">
   <cc:Work>
    <dc:type rdf:resource="http://purl.org/dc/dcmitype/StillImage"/>
    <dc:date>2023-08-28T19:50:06.339281</dc:date>
    <dc:format>image/svg+xml</dc:format>
    <dc:creator>
     <cc:Agent>
      <dc:title>Matplotlib v3.7.1, https://matplotlib.org/</dc:title>
     </cc:Agent>
    </dc:creator>
   </cc:Work>
  </rdf:RDF>
 </metadata>
 <defs>
  <style type="text/css">*{stroke-linejoin: round; stroke-linecap: butt}</style>
 </defs>
 <g id="figure_1">
  <g id="patch_1">
   <path d="M 0 720 
L 720 720 
L 720 0 
L 0 0 
z
" style="fill: #ffffff"/>
  </g>
  <g id="axes_1">
   <g id="patch_2">
    <path d="M 90 640.8 
L 648 640.8 
L 648 86.4 
L 90 86.4 
z
" style="fill: #ffffff"/>
   </g>
   <g id="matplotlib.axis_1">
    <g id="xtick_1">
     <g id="line2d_1">
      <defs>
       <path id="m5611427a81" d="M 0 0 
L 0 3.5 
" style="stroke: #000000; stroke-width: 0.8"/>
      </defs>
      <g>
       <use xlink:href="#m5611427a81" x="115.363636" y="640.8" style="stroke: #000000; stroke-width: 0.8"/>
      </g>
     </g>
     <g id="text_1">
      <text style="font: 12px 'DejaVu Sans', 'Bitstream Vera Sans', 'Computer Modern Sans Serif', 'Lucida Grande', 'Verdana', 'Geneva', 'Lucid', 'Arial', 'Helvetica', 'Avant Garde', sans-serif; text-anchor: middle" x="115.363636" y="656.918125" transform="rotate(-0 115.363636 656.918125)">0.0</text>
     </g>
    </g>
    <g id="xtick_2">
     <g id="line2d_2">
      <g>
       <use xlink:href="#m5611427a81" x="178.772727" y="640.8" style="stroke: #000000; stroke-width: 0.8"/>
      </g>
     </g>
     <g id="text_2">
      <text style="font: 12px 'DejaVu Sans', 'Bitstream Vera Sans', 'Computer Modern Sans Serif', 'Lucida Grande', 'Verdana', 'Geneva', 'Lucid', 'Arial', 'Helvetica', 'Avant Garde', sans-serif; text-anchor: middle" x="178.772727" y="656.918125" transform="rotate(-0 178.772727 656.918125)">0.1</text>
     </g>
    </g>
    <g id="xtick_3">
     <g id="line2d_3">
      <g>
       <use xlink:href="#m5611427a81" x="242.181818" y="640.8" style="stroke: #000000; stroke-width: 0.8"/>
      </g>
     </g>
     <g id="text_3">
      <text style="font: 12px 'DejaVu Sans', 'Bitstream Vera Sans', 'Computer Modern Sans Serif', 'Lucida Grande', 'Verdana', 'Geneva', 'Lucid', 'Arial', 'Helvetica', 'Avant Garde', sans-serif; text-anchor: middle" x="242.181818" y="656.918125" transform="rotate(-0 242.181818 656.918125)">0.2</text>
     </g>
    </g>
    <g id="xtick_4">
     <g id="line2d_4">
      <g>
       <use xlink:href="#m5611427a81" x="305.590909" y="640.8" style="stroke: #000000; stroke-width: 0.8"/>
      </g>
     </g>
     <g id="text_4">
      <text style="font: 12px 'DejaVu Sans', 'Bitstream Vera Sans', 'Computer Modern Sans Serif', 'Lucida Grande', 'Verdana', 'Geneva', 'Lucid', 'Arial', 'Helvetica', 'Avant Garde', sans-serif; text-anchor: middle" x="305.590909" y="656.918125" transform="rotate(-0 305.590909 656.918125)">0.3</text>
     </g>
    </g>
    <g id="xtick_5">
     <g id="line2d_5">
      <g>
       <use xlink:href="#m5611427a81" x="369" y="640.8" style="stroke: #000000; stroke-width: 0.8"/>
      </g>
     </g>
     <g id="text_5">
      <text style="font: 12px 'DejaVu Sans', 'Bitstream Vera Sans', 'Computer Modern Sans Serif', 'Lucida Grande', 'Verdana', 'Geneva', 'Lucid', 'Arial', 'Helvetica', 'Avant Garde', sans-serif; text-anchor: middle" x="369" y="656.918125" transform="rotate(-0 369 656.918125)">0.4</text>
     </g>
    </g>
    <g id="xtick_6">
     <g id="line2d_6">
      <g>
       <use xlink:href="#m5611427a81" x="432.409091" y="640.8" style="stroke: #000000; stroke-width: 0.8"/>
      </g>
     </g>
     <g id="text_6">
      <text style="font: 12px 'DejaVu Sans', 'Bitstream Vera Sans', 'Computer Modern Sans Serif', 'Lucida Grande', 'Verdana', 'Geneva', 'Lucid', 'Arial', 'Helvetica', 'Avant Garde', sans-serif; text-anchor: middle" x="432.409091" y="656.918125" transform="rotate(-0 432.409091 656.918125)">0.5</text>
     </g>
    </g>
    <g id="xtick_7">
     <g id="line2d_7">
      <g>
       <use xlink:href="#m5611427a81" x="495.818182" y="640.8" style="stroke: #000000; stroke-width: 0.8"/>
      </g>
     </g>
     <g id="text_7">
      <text style="font: 12px 'DejaVu Sans', 'Bitstream Vera Sans', 'Computer Modern Sans Serif', 'Lucida Grande', 'Verdana', 'Geneva', 'Lucid', 'Arial', 'Helvetica', 'Avant Garde', sans-serif; text-anchor: middle" x="495.818182" y="656.918125" transform="rotate(-0 495.818182 656.918125)">0.6</text>
     </g>
    </g>
    <g id="xtick_8">
     <g id="line2d_8">
      <g>
       <use xlink:href="#m5611427a81" x="559.227273" y="640.8" style="stroke: #000000; stroke-width: 0.8"/>
      </g>
     </g>
     <g id="text_8">
      <text style="font: 12px 'DejaVu Sans', 'Bitstream Vera Sans', 'Computer Modern Sans Serif', 'Lucida Grande', 'Verdana', 'Geneva', 'Lucid', 'Arial', 'Helvetica', 'Avant Garde', sans-serif; text-anchor: middle" x="559.227273" y="656.918125" transform="rotate(-0 559.227273 656.918125)">0.7</text>
     </g>
    </g>
    <g id="xtick_9">
     <g id="line2d_9">
      <g>
       <use xlink:href="#m5611427a81" x="622.636364" y="640.8" style="stroke: #000000; stroke-width: 0.8"/>
      </g>
     </g>
     <g id="text_9">
      <text style="font: 12px 'DejaVu Sans', 'Bitstream Vera Sans', 'Computer Modern Sans Serif', 'Lucida Grande', 'Verdana', 'Geneva', 'Lucid', 'Arial', 'Helvetica', 'Avant Garde', sans-serif; text-anchor: middle" x="622.636364" y="656.918125" transform="rotate(-0 622.636364 656.918125)">0.8</text>
     </g>
    </g>
    <g id="text_10">
     <text style="font: 12px 'DejaVu Sans', 'Bitstream Vera Sans', 'Computer Modern Sans Serif', 'Lucida Grande', 'Verdana', 'Geneva', 'Lucid', 'Arial', 'Helvetica', 'Avant Garde', sans-serif; text-anchor: middle" x="369" y="672.531875" transform="rotate(-0 369 672.531875)">Field strength in $ x $-direction $ h_x $ </text>
    </g>
   </g>
   <g id="matplotlib.axis_2">
    <g id="ytick_1">
     <g id="line2d_10">
      <defs>
       <path id="md8d88f0bb1" d="M 0 0 
L -3.5 0 
" style="stroke: #000000; stroke-width: 0.8"/>
      </defs>
      <g>
       <use xlink:href="#md8d88f0bb1" x="90" y="615.6" style="stroke: #000000; stroke-width: 0.8"/>
      </g>
     </g>
     <g id="text_11">
      <text style="font: 12px 'DejaVu Sans', 'Bitstream Vera Sans', 'Computer Modern Sans Serif', 'Lucida Grande', 'Verdana', 'Geneva', 'Lucid', 'Arial', 'Helvetica', 'Avant Garde', sans-serif; text-anchor: end" x="83" y="620.159063" transform="rotate(-0 83 620.159063)">0.0</text>
     </g>
    </g>
    <g id="ytick_2">
     <g id="line2d_11">
      <g>
       <use xlink:href="#md8d88f0bb1" x="90" y="551.777234" style="stroke: #000000; stroke-width: 0.8"/>
      </g>
     </g>
     <g id="text_12">
      <text style="font: 12px 'DejaVu Sans', 'Bitstream Vera Sans', 'Computer Modern Sans Serif', 'Lucida Grande', 'Verdana', 'Geneva', 'Lucid', 'Arial', 'Helvetica', 'Avant Garde', sans-serif; text-anchor: end" x="83" y="556.336296" transform="rotate(-0 83 556.336296)">0.5</text>
     </g>
    </g>
    <g id="ytick_3">
     <g id="line2d_12">
      <g>
       <use xlink:href="#md8d88f0bb1" x="90" y="487.954468" style="stroke: #000000; stroke-width: 0.8"/>
      </g>
     </g>
     <g id="text_13">
      <text style="font: 12px 'DejaVu Sans', 'Bitstream Vera Sans', 'Computer Modern Sans Serif', 'Lucida Grande', 'Verdana', 'Geneva', 'Lucid', 'Arial', 'Helvetica', 'Avant Garde', sans-serif; text-anchor: end" x="83" y="492.51353" transform="rotate(-0 83 492.51353)">1.0</text>
     </g>
    </g>
    <g id="ytick_4">
     <g id="line2d_13">
      <g>
       <use xlink:href="#md8d88f0bb1" x="90" y="424.131702" style="stroke: #000000; stroke-width: 0.8"/>
      </g>
     </g>
     <g id="text_14">
      <text style="font: 12px 'DejaVu Sans', 'Bitstream Vera Sans', 'Computer Modern Sans Serif', 'Lucida Grande', 'Verdana', 'Geneva', 'Lucid', 'Arial', 'Helvetica', 'Avant Garde', sans-serif; text-anchor: end" x="83" y="428.690764" transform="rotate(-0 83 428.690764)">1.5</text>
     </g>
    </g>
    <g id="ytick_5">
     <g id="line2d_14">
      <g>
       <use xlink:href="#md8d88f0bb1" x="90" y="360.308935" style="stroke: #000000; stroke-width: 0.8"/>
      </g>
     </g>
     <g id="text_15">
      <text style="font: 12px 'DejaVu Sans', 'Bitstream Vera Sans', 'Computer Modern Sans Serif', 'Lucida Grande', 'Verdana', 'Geneva', 'Lucid', 'Arial', 'Helvetica', 'Avant Garde', sans-serif; text-anchor: end" x="83" y="364.867998" transform="rotate(-0 83 364.867998)">2.0</text>
     </g>
    </g>
    <g id="ytick_6">
     <g id="line2d_15">
      <g>
       <use xlink:href="#md8d88f0bb1" x="90" y="296.486169" style="stroke: #000000; stroke-width: 0.8"/>
      </g>
     </g>
     <g id="text_16">
      <text style="font: 12px 'DejaVu Sans', 'Bitstream Vera Sans', 'Computer Modern Sans Serif', 'Lucida Grande', 'Verdana', 'Geneva', 'Lucid', 'Arial', 'Helvetica', 'Avant Garde', sans-serif; text-anchor: end" x="83" y="301.045232" transform="rotate(-0 83 301.045232)">2.5</text>
     </g>
    </g>
    <g id="ytick_7">
     <g id="line2d_16">
      <g>
       <use xlink:href="#md8d88f0bb1" x="90" y="232.663403" style="stroke: #000000; stroke-width: 0.8"/>
      </g>
     </g>
     <g id="text_17">
      <text style="font: 12px 'DejaVu Sans', 'Bitstream Vera Sans', 'Computer Modern Sans Serif', 'Lucida Grande', 'Verdana', 'Geneva', 'Lucid', 'Arial', 'Helvetica', 'Avant Garde', sans-serif; text-anchor: end" x="83" y="237.222466" transform="rotate(-0 83 237.222466)">3.0</text>
     </g>
    </g>
    <g id="ytick_8">
     <g id="line2d_17">
      <g>
       <use xlink:href="#md8d88f0bb1" x="90" y="168.840637" style="stroke: #000000; stroke-width: 0.8"/>
      </g>
     </g>
     <g id="text_18">
      <text style="font: 12px 'DejaVu Sans', 'Bitstream Vera Sans', 'Computer Modern Sans Serif', 'Lucida Grande', 'Verdana', 'Geneva', 'Lucid', 'Arial', 'Helvetica', 'Avant Garde', sans-serif; text-anchor: end" x="83" y="173.3997" transform="rotate(-0 83 173.3997)">3.5</text>
     </g>
    </g>
    <g id="ytick_9">
     <g id="line2d_18">
      <g>
       <use xlink:href="#md8d88f0bb1" x="90" y="105.017871" style="stroke: #000000; stroke-width: 0.8"/>
      </g>
     </g>
     <g id="text_19">
      <text style="font: 12px 'DejaVu Sans', 'Bitstream Vera Sans', 'Computer Modern Sans Serif', 'Lucida Grande', 'Verdana', 'Geneva', 'Lucid', 'Arial', 'Helvetica', 'Avant Garde', sans-serif; text-anchor: end" x="83" y="109.576933" transform="rotate(-0 83 109.576933)">4.0</text>
     </g>
    </g>
    <g id="text_20">
     <text style="font: 12px 'DejaVu Sans', 'Bitstream Vera Sans', 'Computer Modern Sans Serif', 'Lucida Grande', 'Verdana', 'Geneva', 'Lucid', 'Arial', 'Helvetica', 'Avant Garde', sans-serif; text-anchor: middle" x="57.420625" y="363.6" transform="rotate(-90 57.420625 363.6)">Var($ E $)</text>
    </g>
   </g>
   <g id="line2d_19">
    <path d="M 115.363636 615.55845 
L 178.772727 614.12525 
L 242.181818 605.159921 
L 305.590909 559.358691 
L 324.613636 535.513588 
L 337.295455 522.354992 
L 349.977273 493.035871 
L 362.659091 469.233519 
L 375.340909 421.953814 
L 388.022727 341.221753 
L 400.704545 377.936508 
L 413.386364 549.049979 
L 426.068182 577.539127 
L 438.75 586.423083 
L 451.431818 591.962156 
L 464.113636 596.262283 
L 495.818182 601.92016 
L 527.522727 605.283084 
L 559.227273 607.350457 
L 622.636364 609.893744 
" clip-path="url(#pf24ea5f5ae)" style="fill: none; stroke: #e41a1c; stroke-width: 1.5; stroke-linecap: square"/>
    <defs>
     <path id="m36ceeab59a" d="M 0 1 
C 0.265203 1 0.51958 0.894634 0.707107 0.707107 
C 0.894634 0.51958 1 0.265203 1 0 
C 1 -0.265203 0.894634 -0.51958 0.707107 -0.707107 
C 0.51958 -0.894634 0.265203 -1 0 -1 
C -0.265203 -1 -0.51958 -0.894634 -0.707107 -0.707107 
C -0.894634 -0.51958 -1 -0.265203 -1 0 
C -1 0.265203 -0.894634 0.51958 -0.707107 0.707107 
C -0.51958 0.894634 -0.265203 1 0 1 
z
" style="stroke: #e41a1c"/>
    </defs>
    <g clip-path="url(#pf24ea5f5ae)">
     <use xlink:href="#m36ceeab59a" x="115.363636" y="615.55845" style="fill: #e41a1c; stroke: #e41a1c"/>
     <use xlink:href="#m36ceeab59a" x="178.772727" y="614.12525" style="fill: #e41a1c; stroke: #e41a1c"/>
     <use xlink:href="#m36ceeab59a" x="242.181818" y="605.159921" style="fill: #e41a1c; stroke: #e41a1c"/>
     <use xlink:href="#m36ceeab59a" x="305.590909" y="559.358691" style="fill: #e41a1c; stroke: #e41a1c"/>
     <use xlink:href="#m36ceeab59a" x="324.613636" y="535.513588" style="fill: #e41a1c; stroke: #e41a1c"/>
     <use xlink:href="#m36ceeab59a" x="337.295455" y="522.354992" style="fill: #e41a1c; stroke: #e41a1c"/>
     <use xlink:href="#m36ceeab59a" x="349.977273" y="493.035871" style="fill: #e41a1c; stroke: #e41a1c"/>
     <use xlink:href="#m36ceeab59a" x="362.659091" y="469.233519" style="fill: #e41a1c; stroke: #e41a1c"/>
     <use xlink:href="#m36ceeab59a" x="375.340909" y="421.953814" style="fill: #e41a1c; stroke: #e41a1c"/>
     <use xlink:href="#m36ceeab59a" x="388.022727" y="341.221753" style="fill: #e41a1c; stroke: #e41a1c"/>
     <use xlink:href="#m36ceeab59a" x="400.704545" y="377.936508" style="fill: #e41a1c; stroke: #e41a1c"/>
     <use xlink:href="#m36ceeab59a" x="413.386364" y="549.049979" style="fill: #e41a1c; stroke: #e41a1c"/>
     <use xlink:href="#m36ceeab59a" x="426.068182" y="577.539127" style="fill: #e41a1c; stroke: #e41a1c"/>
     <use xlink:href="#m36ceeab59a" x="438.75" y="586.423083" style="fill: #e41a1c; stroke: #e41a1c"/>
     <use xlink:href="#m36ceeab59a" x="451.431818" y="591.962156" style="fill: #e41a1c; stroke: #e41a1c"/>
     <use xlink:href="#m36ceeab59a" x="464.113636" y="596.262283" style="fill: #e41a1c; stroke: #e41a1c"/>
     <use xlink:href="#m36ceeab59a" x="495.818182" y="601.92016" style="fill: #e41a1c; stroke: #e41a1c"/>
     <use xlink:href="#m36ceeab59a" x="527.522727" y="605.283084" style="fill: #e41a1c; stroke: #e41a1c"/>
     <use xlink:href="#m36ceeab59a" x="559.227273" y="607.350457" style="fill: #e41a1c; stroke: #e41a1c"/>
     <use xlink:href="#m36ceeab59a" x="622.636364" y="609.893744" style="fill: #e41a1c; stroke: #e41a1c"/>
    </g>
   </g>
   <g id="line2d_20">
    <path d="M 115.363636 615.6 
L 178.772727 609.79855 
L 242.181818 592.320142 
L 305.590909 532.606515 
L 324.613636 536.011845 
L 337.295455 494.784355 
L 349.977273 497.543457 
L 362.659091 481.602785 
L 369 462.545623 
L 375.340909 404.130618 
L 388.022727 351.749671 
L 400.704545 375.668266 
L 413.386364 549.50872 
L 426.068182 577.665876 
L 438.75 585.705554 
L 451.431818 592.171732 
L 464.113636 596.218805 
L 495.818182 602.006901 
L 527.522727 605.259516 
L 559.227273 607.362725 
L 622.636364 609.886672 
" clip-path="url(#pf24ea5f5ae)" style="fill: none; stroke-dasharray: 5.55,2.4; stroke-dashoffset: 0; stroke: #377eb8; stroke-width: 1.5"/>
    <defs>
     <path id="m4f92d268a8" d="M 0 1 
C 0.265203 1 0.51958 0.894634 0.707107 0.707107 
C 0.894634 0.51958 1 0.265203 1 0 
C 1 -0.265203 0.894634 -0.51958 0.707107 -0.707107 
C 0.51958 -0.894634 0.265203 -1 0 -1 
C -0.265203 -1 -0.51958 -0.894634 -0.707107 -0.707107 
C -0.894634 -0.51958 -1 -0.265203 -1 0 
C -1 0.265203 -0.894634 0.51958 -0.707107 0.707107 
C -0.51958 0.894634 -0.265203 1 0 1 
z
" style="stroke: #377eb8"/>
    </defs>
    <g clip-path="url(#pf24ea5f5ae)">
     <use xlink:href="#m4f92d268a8" x="115.363636" y="615.6" style="fill: #377eb8; stroke: #377eb8"/>
     <use xlink:href="#m4f92d268a8" x="178.772727" y="609.79855" style="fill: #377eb8; stroke: #377eb8"/>
     <use xlink:href="#m4f92d268a8" x="242.181818" y="592.320142" style="fill: #377eb8; stroke: #377eb8"/>
     <use xlink:href="#m4f92d268a8" x="305.590909" y="532.606515" style="fill: #377eb8; stroke: #377eb8"/>
     <use xlink:href="#m4f92d268a8" x="324.613636" y="536.011845" style="fill: #377eb8; stroke: #377eb8"/>
     <use xlink:href="#m4f92d268a8" x="337.295455" y="494.784355" style="fill: #377eb8; stroke: #377eb8"/>
     <use xlink:href="#m4f92d268a8" x="349.977273" y="497.543457" style="fill: #377eb8; stroke: #377eb8"/>
     <use xlink:href="#m4f92d268a8" x="362.659091" y="481.602785" style="fill: #377eb8; stroke: #377eb8"/>
     <use xlink:href="#m4f92d268a8" x="369" y="462.545623" style="fill: #377eb8; stroke: #377eb8"/>
     <use xlink:href="#m4f92d268a8" x="375.340909" y="404.130618" style="fill: #377eb8; stroke: #377eb8"/>
     <use xlink:href="#m4f92d268a8" x="388.022727" y="351.749671" style="fill: #377eb8; stroke: #377eb8"/>
     <use xlink:href="#m4f92d268a8" x="400.704545" y="375.668266" style="fill: #377eb8; stroke: #377eb8"/>
     <use xlink:href="#m4f92d268a8" x="413.386364" y="549.50872" style="fill: #377eb8; stroke: #377eb8"/>
     <use xlink:href="#m4f92d268a8" x="426.068182" y="577.665876" style="fill: #377eb8; stroke: #377eb8"/>
     <use xlink:href="#m4f92d268a8" x="438.75" y="585.705554" style="fill: #377eb8; stroke: #377eb8"/>
     <use xlink:href="#m4f92d268a8" x="451.431818" y="592.171732" style="fill: #377eb8; stroke: #377eb8"/>
     <use xlink:href="#m4f92d268a8" x="464.113636" y="596.218805" style="fill: #377eb8; stroke: #377eb8"/>
     <use xlink:href="#m4f92d268a8" x="495.818182" y="602.006901" style="fill: #377eb8; stroke: #377eb8"/>
     <use xlink:href="#m4f92d268a8" x="527.522727" y="605.259516" style="fill: #377eb8; stroke: #377eb8"/>
     <use xlink:href="#m4f92d268a8" x="559.227273" y="607.362725" style="fill: #377eb8; stroke: #377eb8"/>
     <use xlink:href="#m4f92d268a8" x="622.636364" y="609.886672" style="fill: #377eb8; stroke: #377eb8"/>
    </g>
   </g>
   <g id="line2d_21">
    <path d="M 115.363636 615.6 
L 178.772727 614.800715 
L 242.181818 601.499309 
L 305.590909 503.146809 
L 324.613636 536.897448 
L 337.295455 508.323018 
L 349.977273 489.114632 
L 362.659091 443.502413 
L 375.340909 397.758528 
L 388.022727 379.199901 
L 400.704545 355.59027 
L 413.386364 272.986183 
L 426.068182 170.972958 
L 438.75 111.6 
L 451.431818 546.465989 
L 464.113636 553.366887 
L 495.818182 565.492428 
L 527.522727 574.049894 
L 559.227273 580.141312 
L 622.636364 588.900358 
" clip-path="url(#pf24ea5f5ae)" style="fill: none; stroke-dasharray: 1.5,2.475; stroke-dashoffset: 0; stroke: #4daf4a; stroke-width: 1.5"/>
    <defs>
     <path id="m281d4dc1b1" d="M 0 1 
C 0.265203 1 0.51958 0.894634 0.707107 0.707107 
C 0.894634 0.51958 1 0.265203 1 0 
C 1 -0.265203 0.894634 -0.51958 0.707107 -0.707107 
C 0.51958 -0.894634 0.265203 -1 0 -1 
C -0.265203 -1 -0.51958 -0.894634 -0.707107 -0.707107 
C -0.894634 -0.51958 -1 -0.265203 -1 0 
C -1 0.265203 -0.894634 0.51958 -0.707107 0.707107 
C -0.51958 0.894634 -0.265203 1 0 1 
z
" style="stroke: #4daf4a"/>
    </defs>
    <g clip-path="url(#pf24ea5f5ae)">
     <use xlink:href="#m281d4dc1b1" x="115.363636" y="615.6" style="fill: #4daf4a; stroke: #4daf4a"/>
     <use xlink:href="#m281d4dc1b1" x="178.772727" y="614.800715" style="fill: #4daf4a; stroke: #4daf4a"/>
     <use xlink:href="#m281d4dc1b1" x="242.181818" y="601.499309" style="fill: #4daf4a; stroke: #4daf4a"/>
     <use xlink:href="#m281d4dc1b1" x="305.590909" y="503.146809" style="fill: #4daf4a; stroke: #4daf4a"/>
     <use xlink:href="#m281d4dc1b1" x="324.613636" y="536.897448" style="fill: #4daf4a; stroke: #4daf4a"/>
     <use xlink:href="#m281d4dc1b1" x="337.295455" y="508.323018" style="fill: #4daf4a; stroke: #4daf4a"/>
     <use xlink:href="#m281d4dc1b1" x="349.977273" y="489.114632" style="fill: #4daf4a; stroke: #4daf4a"/>
     <use xlink:href="#m281d4dc1b1" x="362.659091" y="443.502413" style="fill: #4daf4a; stroke: #4daf4a"/>
     <use xlink:href="#m281d4dc1b1" x="375.340909" y="397.758528" style="fill: #4daf4a; stroke: #4daf4a"/>
     <use xlink:href="#m281d4dc1b1" x="388.022727" y="379.199901" style="fill: #4daf4a; stroke: #4daf4a"/>
     <use xlink:href="#m281d4dc1b1" x="400.704545" y="355.59027" style="fill: #4daf4a; stroke: #4daf4a"/>
     <use xlink:href="#m281d4dc1b1" x="413.386364" y="272.986183" style="fill: #4daf4a; stroke: #4daf4a"/>
     <use xlink:href="#m281d4dc1b1" x="426.068182" y="170.972958" style="fill: #4daf4a; stroke: #4daf4a"/>
     <use xlink:href="#m281d4dc1b1" x="438.75" y="111.6" style="fill: #4daf4a; stroke: #4daf4a"/>
     <use xlink:href="#m281d4dc1b1" x="451.431818" y="546.465989" style="fill: #4daf4a; stroke: #4daf4a"/>
     <use xlink:href="#m281d4dc1b1" x="464.113636" y="553.366887" style="fill: #4daf4a; stroke: #4daf4a"/>
     <use xlink:href="#m281d4dc1b1" x="495.818182" y="565.492428" style="fill: #4daf4a; stroke: #4daf4a"/>
     <use xlink:href="#m281d4dc1b1" x="527.522727" y="574.049894" style="fill: #4daf4a; stroke: #4daf4a"/>
     <use xlink:href="#m281d4dc1b1" x="559.227273" y="580.141312" style="fill: #4daf4a; stroke: #4daf4a"/>
     <use xlink:href="#m281d4dc1b1" x="622.636364" y="588.900358" style="fill: #4daf4a; stroke: #4daf4a"/>
    </g>
   </g>
   <g id="patch_3">
    <path d="M 90 640.8 
L 90 86.4 
" style="fill: none; stroke: #000000; stroke-width: 0.8; stroke-linejoin: miter; stroke-linecap: square"/>
   </g>
   <g id="patch_4">
    <path d="M 648 640.8 
L 648 86.4 
" style="fill: none; stroke: #000000; stroke-width: 0.8; stroke-linejoin: miter; stroke-linecap: square"/>
   </g>
   <g id="patch_5">
    <path d="M 90 640.8 
L 648 640.8 
" style="fill: none; stroke: #000000; stroke-width: 0.8; stroke-linejoin: miter; stroke-linecap: square"/>
   </g>
   <g id="patch_6">
    <path d="M 90 86.4 
L 648 86.4 
" style="fill: none; stroke: #000000; stroke-width: 0.8; stroke-linejoin: miter; stroke-linecap: square"/>
   </g>
   <g id="legend_1">
    <g id="patch_7">
     <path d="M 525.34125 149.50875 
L 639.6 149.50875 
Q 642 149.50875 642 147.10875 
L 642 94.8 
Q 642 92.4 639.6 92.4 
L 525.34125 92.4 
Q 522.94125 92.4 522.94125 94.8 
L 522.94125 147.10875 
Q 522.94125 149.50875 525.34125 149.50875 
z
" style="fill: #ffffff; opacity: 0.8; stroke: #cccccc; stroke-linejoin: miter"/>
    </g>
    <g id="line2d_22">
     <path d="M 527.74125 102.118125 
L 539.74125 102.118125 
L 551.74125 102.118125 
" style="fill: none; stroke: #e41a1c; stroke-width: 1.5; stroke-linecap: square"/>
     <g>
      <use xlink:href="#m36ceeab59a" x="539.74125" y="102.118125" style="fill: #e41a1c; stroke: #e41a1c"/>
     </g>
    </g>
    <g id="text_21">
     <text style="font: 12px 'DejaVu Sans', 'Bitstream Vera Sans', 'Computer Modern Sans Serif', 'Lucida Grande', 'Verdana', 'Geneva', 'Lucid', 'Arial', 'Helvetica', 'Avant Garde', sans-serif; text-anchor: start" x="561.34125" y="106.318125" transform="rotate(-0 561.34125 106.318125)">independent</text>
    </g>
    <g id="line2d_23">
     <path d="M 527.74125 119.731875 
L 539.74125 119.731875 
L 551.74125 119.731875 
" style="fill: none; stroke-dasharray: 5.55,2.4; stroke-dashoffset: 0; stroke: #377eb8; stroke-width: 1.5"/>
     <g>
      <use xlink:href="#m4f92d268a8" x="539.74125" y="119.731875" style="fill: #377eb8; stroke: #377eb8"/>
     </g>
    </g>
    <g id="text_22">
     <text style="font: 12px 'DejaVu Sans', 'Bitstream Vera Sans', 'Computer Modern Sans Serif', 'Lucida Grande', 'Verdana', 'Geneva', 'Lucid', 'Arial', 'Helvetica', 'Avant Garde', sans-serif; text-anchor: start" x="561.34125" y="123.931875" transform="rotate(-0 561.34125 123.931875)">right_left</text>
    </g>
    <g id="line2d_24">
     <path d="M 527.74125 137.679375 
L 539.74125 137.679375 
L 551.74125 137.679375 
" style="fill: none; stroke-dasharray: 1.5,2.475; stroke-dashoffset: 0; stroke: #4daf4a; stroke-width: 1.5"/>
     <g>
      <use xlink:href="#m281d4dc1b1" x="539.74125" y="137.679375" style="fill: #4daf4a; stroke: #4daf4a"/>
     </g>
    </g>
    <g id="text_23">
     <text style="font: 12px 'DejaVu Sans', 'Bitstream Vera Sans', 'Computer Modern Sans Serif', 'Lucida Grande', 'Verdana', 'Geneva', 'Lucid', 'Arial', 'Helvetica', 'Avant Garde', sans-serif; text-anchor: start" x="561.34125" y="141.879375" transform="rotate(-0 561.34125 141.879375)">left_right</text>
    </g>
   </g>
  </g>
 </g>
 <defs>
  <clipPath id="pf24ea5f5ae">
   <rect x="90" y="86.4" width="558" height="554.4"/>
  </clipPath>
 </defs>
</svg>
