<?xml version="1.0" encoding="utf-8" standalone="no"?>
<!DOCTYPE svg PUBLIC "-//W3C//DTD SVG 1.1//EN"
  "http://www.w3.org/Graphics/SVG/1.1/DTD/svg11.dtd">
<svg xmlns:xlink="http://www.w3.org/1999/xlink" width="720pt" height="720pt" viewBox="0 0 720 720" xmlns="http://www.w3.org/2000/svg" version="1.1">
 <metadata>
  <rdf:RDF xmlns:dc="http://purl.org/dc/elements/1.1/" xmlns:cc="http://creativecommons.org/ns#" xmlns:rdf="http://www.w3.org/1999/02/22-rdf-syntax-ns#">
   <cc:Work>
    <dc:type rdf:resource="http://purl.org/dc/dcmitype/StillImage"/>
    <dc:date>2023-08-29T17:33:48.265100</dc:date>
    <dc:format>image/svg+xml</dc:format>
    <dc:creator>
     <cc:Agent>
      <dc:title>Matplotlib v3.7.1, https://matplotlib.org/</dc:title>
     </cc:Agent>
    </dc:creator>
   </cc:Work>
  </rdf:RDF>
 </metadata>
 <defs>
  <style type="text/css">*{stroke-linejoin: round; stroke-linecap: butt}</style>
 </defs>
 <g id="figure_1">
  <g id="patch_1">
   <path d="M 0 720 
L 720 720 
L 720 0 
L 0 0 
z
" style="fill: #ffffff"/>
  </g>
  <g id="axes_1">
   <g id="patch_2">
    <path d="M 90 640.8 
L 648 640.8 
L 648 86.4 
L 90 86.4 
z
" style="fill: #ffffff"/>
   </g>
   <g id="matplotlib.axis_1">
    <g id="xtick_1">
     <g id="line2d_1">
      <defs>
       <path id="m89f4a5efd3" d="M 0 0 
L 0 3.5 
" style="stroke: #000000; stroke-width: 0.8"/>
      </defs>
      <g>
       <use xlink:href="#m89f4a5efd3" x="115.363636" y="640.8" style="stroke: #000000; stroke-width: 0.8"/>
      </g>
     </g>
     <g id="text_1">
      <text style="font: 24px 'DejaVu Sans', 'Bitstream Vera Sans', 'Computer Modern Sans Serif', 'Lucida Grande', 'Verdana', 'Geneva', 'Lucid', 'Arial', 'Helvetica', 'Avant Garde', sans-serif; text-anchor: middle" x="115.363636" y="666.03625" transform="rotate(-0 115.363636 666.03625)">0.0</text>
     </g>
    </g>
    <g id="xtick_2">
     <g id="line2d_2">
      <g>
       <use xlink:href="#m89f4a5efd3" x="242.181818" y="640.8" style="stroke: #000000; stroke-width: 0.8"/>
      </g>
     </g>
     <g id="text_2">
      <text style="font: 24px 'DejaVu Sans', 'Bitstream Vera Sans', 'Computer Modern Sans Serif', 'Lucida Grande', 'Verdana', 'Geneva', 'Lucid', 'Arial', 'Helvetica', 'Avant Garde', sans-serif; text-anchor: middle" x="242.181818" y="666.03625" transform="rotate(-0 242.181818 666.03625)">0.2</text>
     </g>
    </g>
    <g id="xtick_3">
     <g id="line2d_3">
      <g>
       <use xlink:href="#m89f4a5efd3" x="369" y="640.8" style="stroke: #000000; stroke-width: 0.8"/>
      </g>
     </g>
     <g id="text_3">
      <text style="font: 24px 'DejaVu Sans', 'Bitstream Vera Sans', 'Computer Modern Sans Serif', 'Lucida Grande', 'Verdana', 'Geneva', 'Lucid', 'Arial', 'Helvetica', 'Avant Garde', sans-serif; text-anchor: middle" x="369" y="666.03625" transform="rotate(-0 369 666.03625)">0.4</text>
     </g>
    </g>
    <g id="xtick_4">
     <g id="line2d_4">
      <g>
       <use xlink:href="#m89f4a5efd3" x="495.818182" y="640.8" style="stroke: #000000; stroke-width: 0.8"/>
      </g>
     </g>
     <g id="text_4">
      <text style="font: 24px 'DejaVu Sans', 'Bitstream Vera Sans', 'Computer Modern Sans Serif', 'Lucida Grande', 'Verdana', 'Geneva', 'Lucid', 'Arial', 'Helvetica', 'Avant Garde', sans-serif; text-anchor: middle" x="495.818182" y="666.03625" transform="rotate(-0 495.818182 666.03625)">0.6</text>
     </g>
    </g>
    <g id="xtick_5">
     <g id="line2d_5">
      <g>
       <use xlink:href="#m89f4a5efd3" x="622.636364" y="640.8" style="stroke: #000000; stroke-width: 0.8"/>
      </g>
     </g>
     <g id="text_5">
      <text style="font: 24px 'DejaVu Sans', 'Bitstream Vera Sans', 'Computer Modern Sans Serif', 'Lucida Grande', 'Verdana', 'Geneva', 'Lucid', 'Arial', 'Helvetica', 'Avant Garde', sans-serif; text-anchor: middle" x="622.636364" y="666.03625" transform="rotate(-0 622.636364 666.03625)">0.8</text>
     </g>
    </g>
    <g id="text_6">
     <text style="font: 24px 'DejaVu Sans', 'Bitstream Vera Sans', 'Computer Modern Sans Serif', 'Lucida Grande', 'Verdana', 'Geneva', 'Lucid', 'Arial', 'Helvetica', 'Avant Garde', sans-serif; text-anchor: middle" x="369" y="693.26375" transform="rotate(-0 369 693.26375)">Field strength in $ x $-direction $ h_x $ </text>
    </g>
   </g>
   <g id="matplotlib.axis_2">
    <g id="ytick_1">
     <g id="line2d_6">
      <defs>
       <path id="me000b6c307" d="M 0 0 
L -3.5 0 
" style="stroke: #000000; stroke-width: 0.8"/>
      </defs>
      <g>
       <use xlink:href="#me000b6c307" x="90" y="615.6" style="stroke: #000000; stroke-width: 0.8"/>
      </g>
     </g>
     <g id="text_7">
      <text style="font: 24px 'DejaVu Sans', 'Bitstream Vera Sans', 'Computer Modern Sans Serif', 'Lucida Grande', 'Verdana', 'Geneva', 'Lucid', 'Arial', 'Helvetica', 'Avant Garde', sans-serif; text-anchor: end" x="83" y="624.718125" transform="rotate(-0 83 624.718125)">0.0</text>
     </g>
    </g>
    <g id="ytick_2">
     <g id="line2d_7">
      <g>
       <use xlink:href="#me000b6c307" x="90" y="526.585376" style="stroke: #000000; stroke-width: 0.8"/>
      </g>
     </g>
     <g id="text_8">
      <text style="font: 24px 'DejaVu Sans', 'Bitstream Vera Sans', 'Computer Modern Sans Serif', 'Lucida Grande', 'Verdana', 'Geneva', 'Lucid', 'Arial', 'Helvetica', 'Avant Garde', sans-serif; text-anchor: end" x="83" y="535.703501" transform="rotate(-0 83 535.703501)">0.1</text>
     </g>
    </g>
    <g id="ytick_3">
     <g id="line2d_8">
      <g>
       <use xlink:href="#me000b6c307" x="90" y="437.570752" style="stroke: #000000; stroke-width: 0.8"/>
      </g>
     </g>
     <g id="text_9">
      <text style="font: 24px 'DejaVu Sans', 'Bitstream Vera Sans', 'Computer Modern Sans Serif', 'Lucida Grande', 'Verdana', 'Geneva', 'Lucid', 'Arial', 'Helvetica', 'Avant Garde', sans-serif; text-anchor: end" x="83" y="446.688877" transform="rotate(-0 83 446.688877)">0.2</text>
     </g>
    </g>
    <g id="ytick_4">
     <g id="line2d_9">
      <g>
       <use xlink:href="#me000b6c307" x="90" y="348.556129" style="stroke: #000000; stroke-width: 0.8"/>
      </g>
     </g>
     <g id="text_10">
      <text style="font: 24px 'DejaVu Sans', 'Bitstream Vera Sans', 'Computer Modern Sans Serif', 'Lucida Grande', 'Verdana', 'Geneva', 'Lucid', 'Arial', 'Helvetica', 'Avant Garde', sans-serif; text-anchor: end" x="83" y="357.674254" transform="rotate(-0 83 357.674254)">0.3</text>
     </g>
    </g>
    <g id="ytick_5">
     <g id="line2d_10">
      <g>
       <use xlink:href="#me000b6c307" x="90" y="259.541505" style="stroke: #000000; stroke-width: 0.8"/>
      </g>
     </g>
     <g id="text_11">
      <text style="font: 24px 'DejaVu Sans', 'Bitstream Vera Sans', 'Computer Modern Sans Serif', 'Lucida Grande', 'Verdana', 'Geneva', 'Lucid', 'Arial', 'Helvetica', 'Avant Garde', sans-serif; text-anchor: end" x="83" y="268.65963" transform="rotate(-0 83 268.65963)">0.4</text>
     </g>
    </g>
    <g id="ytick_6">
     <g id="line2d_11">
      <g>
       <use xlink:href="#me000b6c307" x="90" y="170.526881" style="stroke: #000000; stroke-width: 0.8"/>
      </g>
     </g>
     <g id="text_12">
      <text style="font: 24px 'DejaVu Sans', 'Bitstream Vera Sans', 'Computer Modern Sans Serif', 'Lucida Grande', 'Verdana', 'Geneva', 'Lucid', 'Arial', 'Helvetica', 'Avant Garde', sans-serif; text-anchor: end" x="83" y="179.645006" transform="rotate(-0 83 179.645006)">0.5</text>
     </g>
    </g>
    <g id="text_13">
     <text style="font: 24px 'DejaVu Sans', 'Bitstream Vera Sans', 'Computer Modern Sans Serif', 'Lucida Grande', 'Verdana', 'Geneva', 'Lucid', 'Arial', 'Helvetica', 'Avant Garde', sans-serif; text-anchor: middle" x="35.84125" y="363.6" transform="rotate(-90 35.84125 363.6)">Contribution to $ \langle E \rangle $</text>
    </g>
   </g>
   <g id="line2d_12">
    <path d="M 115.363636 170.526032 
L 178.772727 171.079459 
L 242.181818 172.721227 
L 305.590909 175.373465 
L 324.613636 176.505893 
L 337.295455 177.270471 
L 349.977273 178.067649 
L 362.659091 178.941303 
L 375.340909 179.708809 
L 388.022727 180.821877 
L 400.704545 182.876819 
L 413.386364 188.363642 
L 426.068182 194.916696 
L 438.75 201.486848 
L 451.431818 208.005055 
L 464.113636 214.424919 
L 495.818182 229.923596 
L 527.522727 244.564212 
L 559.227273 258.341824 
L 622.636364 283.407448 
" clip-path="url(#p5f81fe38e1)" style="fill: none; stroke: #e41a1c; stroke-width: 1.5; stroke-linecap: square"/>
    <defs>
     <path id="ma460b143b6" d="M 0 1.5 
C 0.397805 1.5 0.77937 1.341951 1.06066 1.06066 
C 1.341951 0.77937 1.5 0.397805 1.5 0 
C 1.5 -0.397805 1.341951 -0.77937 1.06066 -1.06066 
C 0.77937 -1.341951 0.397805 -1.5 0 -1.5 
C -0.397805 -1.5 -0.77937 -1.341951 -1.06066 -1.06066 
C -1.341951 -0.77937 -1.5 -0.397805 -1.5 0 
C -1.5 0.397805 -1.341951 0.77937 -1.06066 1.06066 
C -0.77937 1.341951 -0.397805 1.5 0 1.5 
z
" style="stroke: #e41a1c"/>
    </defs>
    <g clip-path="url(#p5f81fe38e1)">
     <use xlink:href="#ma460b143b6" x="115.363636" y="170.526032" style="fill: #e41a1c; stroke: #e41a1c"/>
     <use xlink:href="#ma460b143b6" x="178.772727" y="171.079459" style="fill: #e41a1c; stroke: #e41a1c"/>
     <use xlink:href="#ma460b143b6" x="242.181818" y="172.721227" style="fill: #e41a1c; stroke: #e41a1c"/>
     <use xlink:href="#ma460b143b6" x="305.590909" y="175.373465" style="fill: #e41a1c; stroke: #e41a1c"/>
     <use xlink:href="#ma460b143b6" x="324.613636" y="176.505893" style="fill: #e41a1c; stroke: #e41a1c"/>
     <use xlink:href="#ma460b143b6" x="337.295455" y="177.270471" style="fill: #e41a1c; stroke: #e41a1c"/>
     <use xlink:href="#ma460b143b6" x="349.977273" y="178.067649" style="fill: #e41a1c; stroke: #e41a1c"/>
     <use xlink:href="#ma460b143b6" x="362.659091" y="178.941303" style="fill: #e41a1c; stroke: #e41a1c"/>
     <use xlink:href="#ma460b143b6" x="375.340909" y="179.708809" style="fill: #e41a1c; stroke: #e41a1c"/>
     <use xlink:href="#ma460b143b6" x="388.022727" y="180.821877" style="fill: #e41a1c; stroke: #e41a1c"/>
     <use xlink:href="#ma460b143b6" x="400.704545" y="182.876819" style="fill: #e41a1c; stroke: #e41a1c"/>
     <use xlink:href="#ma460b143b6" x="413.386364" y="188.363642" style="fill: #e41a1c; stroke: #e41a1c"/>
     <use xlink:href="#ma460b143b6" x="426.068182" y="194.916696" style="fill: #e41a1c; stroke: #e41a1c"/>
     <use xlink:href="#ma460b143b6" x="438.75" y="201.486848" style="fill: #e41a1c; stroke: #e41a1c"/>
     <use xlink:href="#ma460b143b6" x="451.431818" y="208.005055" style="fill: #e41a1c; stroke: #e41a1c"/>
     <use xlink:href="#ma460b143b6" x="464.113636" y="214.424919" style="fill: #e41a1c; stroke: #e41a1c"/>
     <use xlink:href="#ma460b143b6" x="495.818182" y="229.923596" style="fill: #e41a1c; stroke: #e41a1c"/>
     <use xlink:href="#ma460b143b6" x="527.522727" y="244.564212" style="fill: #e41a1c; stroke: #e41a1c"/>
     <use xlink:href="#ma460b143b6" x="559.227273" y="258.341824" style="fill: #e41a1c; stroke: #e41a1c"/>
     <use xlink:href="#ma460b143b6" x="622.636364" y="283.407448" style="fill: #e41a1c; stroke: #e41a1c"/>
    </g>
   </g>
   <g id="line2d_13">
    <path d="M 115.363636 170.52773 
L 178.772727 172.165695 
L 242.181818 177.161754 
L 305.590909 186.036627 
L 324.613636 189.047915 
L 337.295455 191.828686 
L 349.977273 193.9336 
L 362.659091 197.146866 
L 375.340909 201.736982 
L 388.022727 218.007458 
L 400.704545 337.492716 
L 413.386364 467.958082 
L 426.068182 487.526761 
L 438.75 499.174454 
L 451.431818 507.756854 
L 464.113636 514.760062 
L 495.818182 528.559669 
L 527.522727 539.655528 
L 559.227273 548.364866 
L 622.636364 561.646314 
" clip-path="url(#p5f81fe38e1)" style="fill: none; stroke: #377eb8; stroke-width: 1.5; stroke-linecap: square"/>
    <defs>
     <path id="m5472d99eb6" d="M 0 1.5 
C 0.397805 1.5 0.77937 1.341951 1.06066 1.06066 
C 1.341951 0.77937 1.5 0.397805 1.5 0 
C 1.5 -0.397805 1.341951 -0.77937 1.06066 -1.06066 
C 0.77937 -1.341951 0.397805 -1.5 0 -1.5 
C -0.397805 -1.5 -0.77937 -1.341951 -1.06066 -1.06066 
C -1.341951 -0.77937 -1.5 -0.397805 -1.5 0 
C -1.5 0.397805 -1.341951 0.77937 -1.06066 1.06066 
C -0.77937 1.341951 -0.397805 1.5 0 1.5 
z
" style="stroke: #377eb8"/>
    </defs>
    <g clip-path="url(#p5f81fe38e1)">
     <use xlink:href="#m5472d99eb6" x="115.363636" y="170.52773" style="fill: #377eb8; stroke: #377eb8"/>
     <use xlink:href="#m5472d99eb6" x="178.772727" y="172.165695" style="fill: #377eb8; stroke: #377eb8"/>
     <use xlink:href="#m5472d99eb6" x="242.181818" y="177.161754" style="fill: #377eb8; stroke: #377eb8"/>
     <use xlink:href="#m5472d99eb6" x="305.590909" y="186.036627" style="fill: #377eb8; stroke: #377eb8"/>
     <use xlink:href="#m5472d99eb6" x="324.613636" y="189.047915" style="fill: #377eb8; stroke: #377eb8"/>
     <use xlink:href="#m5472d99eb6" x="337.295455" y="191.828686" style="fill: #377eb8; stroke: #377eb8"/>
     <use xlink:href="#m5472d99eb6" x="349.977273" y="193.9336" style="fill: #377eb8; stroke: #377eb8"/>
     <use xlink:href="#m5472d99eb6" x="362.659091" y="197.146866" style="fill: #377eb8; stroke: #377eb8"/>
     <use xlink:href="#m5472d99eb6" x="375.340909" y="201.736982" style="fill: #377eb8; stroke: #377eb8"/>
     <use xlink:href="#m5472d99eb6" x="388.022727" y="218.007458" style="fill: #377eb8; stroke: #377eb8"/>
     <use xlink:href="#m5472d99eb6" x="400.704545" y="337.492716" style="fill: #377eb8; stroke: #377eb8"/>
     <use xlink:href="#m5472d99eb6" x="413.386364" y="467.958082" style="fill: #377eb8; stroke: #377eb8"/>
     <use xlink:href="#m5472d99eb6" x="426.068182" y="487.526761" style="fill: #377eb8; stroke: #377eb8"/>
     <use xlink:href="#m5472d99eb6" x="438.75" y="499.174454" style="fill: #377eb8; stroke: #377eb8"/>
     <use xlink:href="#m5472d99eb6" x="451.431818" y="507.756854" style="fill: #377eb8; stroke: #377eb8"/>
     <use xlink:href="#m5472d99eb6" x="464.113636" y="514.760062" style="fill: #377eb8; stroke: #377eb8"/>
     <use xlink:href="#m5472d99eb6" x="495.818182" y="528.559669" style="fill: #377eb8; stroke: #377eb8"/>
     <use xlink:href="#m5472d99eb6" x="527.522727" y="539.655528" style="fill: #377eb8; stroke: #377eb8"/>
     <use xlink:href="#m5472d99eb6" x="559.227273" y="548.364866" style="fill: #377eb8; stroke: #377eb8"/>
     <use xlink:href="#m5472d99eb6" x="622.636364" y="561.646314" style="fill: #377eb8; stroke: #377eb8"/>
    </g>
   </g>
   <g id="line2d_14">
    <path d="M 115.363636 615.6 
L 178.772727 613.408607 
L 242.181818 606.770781 
L 305.590909 595.24367 
L 324.613636 591.099954 
L 337.295455 587.554604 
L 349.977273 584.652513 
L 362.659091 580.565593 
L 375.340909 575.207971 
L 388.022727 557.824427 
L 400.704545 436.284227 
L 413.386364 300.332038 
L 426.068182 274.210305 
L 438.75 255.992461 
L 451.431818 240.891853 
L 464.113636 227.468781 
L 495.818182 198.170497 
L 527.522727 172.434023 
L 559.227273 149.947072 
L 622.636364 111.6 
" clip-path="url(#p5f81fe38e1)" style="fill: none; stroke: #4daf4a; stroke-width: 1.5; stroke-linecap: square"/>
    <defs>
     <path id="m73d3f8fb4c" d="M 0 1.5 
C 0.397805 1.5 0.77937 1.341951 1.06066 1.06066 
C 1.341951 0.77937 1.5 0.397805 1.5 0 
C 1.5 -0.397805 1.341951 -0.77937 1.06066 -1.06066 
C 0.77937 -1.341951 0.397805 -1.5 0 -1.5 
C -0.397805 -1.5 -0.77937 -1.341951 -1.06066 -1.06066 
C -1.341951 -0.77937 -1.5 -0.397805 -1.5 0 
C -1.5 0.397805 -1.341951 0.77937 -1.06066 1.06066 
C -0.77937 1.341951 -0.397805 1.5 0 1.5 
z
" style="stroke: #4daf4a"/>
    </defs>
    <g clip-path="url(#p5f81fe38e1)">
     <use xlink:href="#m73d3f8fb4c" x="115.363636" y="615.6" style="fill: #4daf4a; stroke: #4daf4a"/>
     <use xlink:href="#m73d3f8fb4c" x="178.772727" y="613.408607" style="fill: #4daf4a; stroke: #4daf4a"/>
     <use xlink:href="#m73d3f8fb4c" x="242.181818" y="606.770781" style="fill: #4daf4a; stroke: #4daf4a"/>
     <use xlink:href="#m73d3f8fb4c" x="305.590909" y="595.24367" style="fill: #4daf4a; stroke: #4daf4a"/>
     <use xlink:href="#m73d3f8fb4c" x="324.613636" y="591.099954" style="fill: #4daf4a; stroke: #4daf4a"/>
     <use xlink:href="#m73d3f8fb4c" x="337.295455" y="587.554604" style="fill: #4daf4a; stroke: #4daf4a"/>
     <use xlink:href="#m73d3f8fb4c" x="349.977273" y="584.652513" style="fill: #4daf4a; stroke: #4daf4a"/>
     <use xlink:href="#m73d3f8fb4c" x="362.659091" y="580.565593" style="fill: #4daf4a; stroke: #4daf4a"/>
     <use xlink:href="#m73d3f8fb4c" x="375.340909" y="575.207971" style="fill: #4daf4a; stroke: #4daf4a"/>
     <use xlink:href="#m73d3f8fb4c" x="388.022727" y="557.824427" style="fill: #4daf4a; stroke: #4daf4a"/>
     <use xlink:href="#m73d3f8fb4c" x="400.704545" y="436.284227" style="fill: #4daf4a; stroke: #4daf4a"/>
     <use xlink:href="#m73d3f8fb4c" x="413.386364" y="300.332038" style="fill: #4daf4a; stroke: #4daf4a"/>
     <use xlink:href="#m73d3f8fb4c" x="426.068182" y="274.210305" style="fill: #4daf4a; stroke: #4daf4a"/>
     <use xlink:href="#m73d3f8fb4c" x="438.75" y="255.992461" style="fill: #4daf4a; stroke: #4daf4a"/>
     <use xlink:href="#m73d3f8fb4c" x="451.431818" y="240.891853" style="fill: #4daf4a; stroke: #4daf4a"/>
     <use xlink:href="#m73d3f8fb4c" x="464.113636" y="227.468781" style="fill: #4daf4a; stroke: #4daf4a"/>
     <use xlink:href="#m73d3f8fb4c" x="495.818182" y="198.170497" style="fill: #4daf4a; stroke: #4daf4a"/>
     <use xlink:href="#m73d3f8fb4c" x="527.522727" y="172.434023" style="fill: #4daf4a; stroke: #4daf4a"/>
     <use xlink:href="#m73d3f8fb4c" x="559.227273" y="149.947072" style="fill: #4daf4a; stroke: #4daf4a"/>
     <use xlink:href="#m73d3f8fb4c" x="622.636364" y="111.6" style="fill: #4daf4a; stroke: #4daf4a"/>
    </g>
   </g>
   <g id="patch_3">
    <path d="M 90 640.8 
L 90 86.4 
" style="fill: none; stroke: #000000; stroke-width: 0.8; stroke-linejoin: miter; stroke-linecap: square"/>
   </g>
   <g id="patch_4">
    <path d="M 648 640.8 
L 648 86.4 
" style="fill: none; stroke: #000000; stroke-width: 0.8; stroke-linejoin: miter; stroke-linecap: square"/>
   </g>
   <g id="patch_5">
    <path d="M 90 640.8 
L 648 640.8 
" style="fill: none; stroke: #000000; stroke-width: 0.8; stroke-linejoin: miter; stroke-linecap: square"/>
   </g>
   <g id="patch_6">
    <path d="M 90 86.4 
L 648 86.4 
" style="fill: none; stroke: #000000; stroke-width: 0.8; stroke-linejoin: miter; stroke-linecap: square"/>
   </g>
   <g id="legend_1">
    <g id="patch_7">
     <path d="M 460.62375 420.04125 
L 631.2 420.04125 
Q 636 420.04125 636 415.24125 
L 636 311.95875 
Q 636 307.15875 631.2 307.15875 
L 460.62375 307.15875 
Q 455.82375 307.15875 455.82375 311.95875 
L 455.82375 415.24125 
Q 455.82375 420.04125 460.62375 420.04125 
z
" style="fill: #ffffff; opacity: 0.8; stroke: #cccccc; stroke-linejoin: miter"/>
    </g>
    <g id="line2d_15">
     <path d="M 465.42375 326.595 
L 489.42375 326.595 
L 513.42375 326.595 
" style="fill: none; stroke: #e41a1c; stroke-width: 1.5; stroke-linecap: square"/>
     <g>
      <use xlink:href="#ma460b143b6" x="489.42375" y="326.595" style="fill: #e41a1c; stroke: #e41a1c"/>
     </g>
    </g>
    <g id="text_14">
     <text style="font: 24px 'DejaVu Sans', 'Bitstream Vera Sans', 'Computer Modern Sans Serif', 'Lucida Grande', 'Verdana', 'Geneva', 'Lucid', 'Arial', 'Helvetica', 'Avant Garde', sans-serif; text-anchor: start" x="532.62375" y="334.995" transform="rotate(-0 532.62375 334.995)">x-cubes</text>
    </g>
    <g id="line2d_16">
     <path d="M 465.42375 361.8225 
L 489.42375 361.8225 
L 513.42375 361.8225 
" style="fill: none; stroke: #377eb8; stroke-width: 1.5; stroke-linecap: square"/>
     <g>
      <use xlink:href="#m5472d99eb6" x="489.42375" y="361.8225" style="fill: #377eb8; stroke: #377eb8"/>
     </g>
    </g>
    <g id="text_15">
     <text style="font: 24px 'DejaVu Sans', 'Bitstream Vera Sans', 'Computer Modern Sans Serif', 'Lucida Grande', 'Verdana', 'Geneva', 'Lucid', 'Arial', 'Helvetica', 'Avant Garde', sans-serif; text-anchor: start" x="532.62375" y="370.2225" transform="rotate(-0 532.62375 370.2225)">z-cubes</text>
    </g>
    <g id="line2d_17">
     <path d="M 465.42375 397.05 
L 489.42375 397.05 
L 513.42375 397.05 
" style="fill: none; stroke: #4daf4a; stroke-width: 1.5; stroke-linecap: square"/>
     <g>
      <use xlink:href="#m73d3f8fb4c" x="489.42375" y="397.05" style="fill: #4daf4a; stroke: #4daf4a"/>
     </g>
    </g>
    <g id="text_16">
     <text style="font: 24px 'DejaVu Sans', 'Bitstream Vera Sans', 'Computer Modern Sans Serif', 'Lucida Grande', 'Verdana', 'Geneva', 'Lucid', 'Arial', 'Helvetica', 'Avant Garde', sans-serif; text-anchor: start" x="532.62375" y="405.45" transform="rotate(-0 532.62375 405.45)">field</text>
    </g>
   </g>
  </g>
 </g>
 <defs>
  <clipPath id="p5f81fe38e1">
   <rect x="90" y="86.4" width="558" height="554.4"/>
  </clipPath>
 </defs>
</svg>
