<?xml version="1.0" encoding="utf-8" standalone="no"?>
<!DOCTYPE svg PUBLIC "-//W3C//DTD SVG 1.1//EN"
  "http://www.w3.org/Graphics/SVG/1.1/DTD/svg11.dtd">
<svg xmlns:xlink="http://www.w3.org/1999/xlink" width="720pt" height="720pt" viewBox="0 0 720 720" xmlns="http://www.w3.org/2000/svg" version="1.1">
 <metadata>
  <rdf:RDF xmlns:dc="http://purl.org/dc/elements/1.1/" xmlns:cc="http://creativecommons.org/ns#" xmlns:rdf="http://www.w3.org/1999/02/22-rdf-syntax-ns#">
   <cc:Work>
    <dc:type rdf:resource="http://purl.org/dc/dcmitype/StillImage"/>
    <dc:date>2023-08-29T13:48:34.377358</dc:date>
    <dc:format>image/svg+xml</dc:format>
    <dc:creator>
     <cc:Agent>
      <dc:title>Matplotlib v3.7.1, https://matplotlib.org/</dc:title>
     </cc:Agent>
    </dc:creator>
   </cc:Work>
  </rdf:RDF>
 </metadata>
 <defs>
  <style type="text/css">*{stroke-linejoin: round; stroke-linecap: butt}</style>
 </defs>
 <g id="figure_1">
  <g id="patch_1">
   <path d="M 0 720 
L 720 720 
L 720 0 
L 0 0 
z
" style="fill: #ffffff"/>
  </g>
  <g id="axes_1">
   <g id="patch_2">
    <path d="M 90 640.8 
L 648 640.8 
L 648 86.4 
L 90 86.4 
z
" style="fill: #ffffff"/>
   </g>
   <g id="matplotlib.axis_1">
    <g id="xtick_1">
     <g id="line2d_1">
      <defs>
       <path id="mead6891b75" d="M 0 0 
L 0 3.5 
" style="stroke: #000000; stroke-width: 0.8"/>
      </defs>
      <g>
       <use xlink:href="#mead6891b75" x="115.363636" y="640.8" style="stroke: #000000; stroke-width: 0.8"/>
      </g>
     </g>
     <g id="text_1">
      <text style="font: 24px 'DejaVu Sans', 'Bitstream Vera Sans', 'Computer Modern Sans Serif', 'Lucida Grande', 'Verdana', 'Geneva', 'Lucid', 'Arial', 'Helvetica', 'Avant Garde', sans-serif; text-anchor: middle" x="115.363636" y="666.03625" transform="rotate(-0 115.363636 666.03625)">0.0</text>
     </g>
    </g>
    <g id="xtick_2">
     <g id="line2d_2">
      <g>
       <use xlink:href="#mead6891b75" x="242.181818" y="640.8" style="stroke: #000000; stroke-width: 0.8"/>
      </g>
     </g>
     <g id="text_2">
      <text style="font: 24px 'DejaVu Sans', 'Bitstream Vera Sans', 'Computer Modern Sans Serif', 'Lucida Grande', 'Verdana', 'Geneva', 'Lucid', 'Arial', 'Helvetica', 'Avant Garde', sans-serif; text-anchor: middle" x="242.181818" y="666.03625" transform="rotate(-0 242.181818 666.03625)">0.2</text>
     </g>
    </g>
    <g id="xtick_3">
     <g id="line2d_3">
      <g>
       <use xlink:href="#mead6891b75" x="369" y="640.8" style="stroke: #000000; stroke-width: 0.8"/>
      </g>
     </g>
     <g id="text_3">
      <text style="font: 24px 'DejaVu Sans', 'Bitstream Vera Sans', 'Computer Modern Sans Serif', 'Lucida Grande', 'Verdana', 'Geneva', 'Lucid', 'Arial', 'Helvetica', 'Avant Garde', sans-serif; text-anchor: middle" x="369" y="666.03625" transform="rotate(-0 369 666.03625)">0.4</text>
     </g>
    </g>
    <g id="xtick_4">
     <g id="line2d_4">
      <g>
       <use xlink:href="#mead6891b75" x="495.818182" y="640.8" style="stroke: #000000; stroke-width: 0.8"/>
      </g>
     </g>
     <g id="text_4">
      <text style="font: 24px 'DejaVu Sans', 'Bitstream Vera Sans', 'Computer Modern Sans Serif', 'Lucida Grande', 'Verdana', 'Geneva', 'Lucid', 'Arial', 'Helvetica', 'Avant Garde', sans-serif; text-anchor: middle" x="495.818182" y="666.03625" transform="rotate(-0 495.818182 666.03625)">0.6</text>
     </g>
    </g>
    <g id="xtick_5">
     <g id="line2d_5">
      <g>
       <use xlink:href="#mead6891b75" x="622.636364" y="640.8" style="stroke: #000000; stroke-width: 0.8"/>
      </g>
     </g>
     <g id="text_5">
      <text style="font: 24px 'DejaVu Sans', 'Bitstream Vera Sans', 'Computer Modern Sans Serif', 'Lucida Grande', 'Verdana', 'Geneva', 'Lucid', 'Arial', 'Helvetica', 'Avant Garde', sans-serif; text-anchor: middle" x="622.636364" y="666.03625" transform="rotate(-0 622.636364 666.03625)">0.8</text>
     </g>
    </g>
    <g id="text_6">
     <text style="font: 24px 'DejaVu Sans', 'Bitstream Vera Sans', 'Computer Modern Sans Serif', 'Lucida Grande', 'Verdana', 'Geneva', 'Lucid', 'Arial', 'Helvetica', 'Avant Garde', sans-serif; text-anchor: middle" x="369" y="693.26375" transform="rotate(-0 369 693.26375)">Field strength in $ x $-direction $ h_x $ </text>
    </g>
   </g>
   <g id="matplotlib.axis_2">
    <g id="ytick_1">
     <g id="line2d_6">
      <defs>
       <path id="m2cb34e5999" d="M 0 0 
L -3.5 0 
" style="stroke: #000000; stroke-width: 0.8"/>
      </defs>
      <g>
       <use xlink:href="#m2cb34e5999" x="90" y="615.664059" style="stroke: #000000; stroke-width: 0.8"/>
      </g>
     </g>
     <g id="text_7">
      <text style="font: 24px 'DejaVu Sans', 'Bitstream Vera Sans', 'Computer Modern Sans Serif', 'Lucida Grande', 'Verdana', 'Geneva', 'Lucid', 'Arial', 'Helvetica', 'Avant Garde', sans-serif; text-anchor: end" x="83" y="624.782184" transform="rotate(-0 83 624.782184)">0.0</text>
     </g>
    </g>
    <g id="ytick_2">
     <g id="line2d_7">
      <g>
       <use xlink:href="#m2cb34e5999" x="90" y="509.41279" style="stroke: #000000; stroke-width: 0.8"/>
      </g>
     </g>
     <g id="text_8">
      <text style="font: 24px 'DejaVu Sans', 'Bitstream Vera Sans', 'Computer Modern Sans Serif', 'Lucida Grande', 'Verdana', 'Geneva', 'Lucid', 'Arial', 'Helvetica', 'Avant Garde', sans-serif; text-anchor: end" x="83" y="518.530915" transform="rotate(-0 83 518.530915)">0.2</text>
     </g>
    </g>
    <g id="ytick_3">
     <g id="line2d_8">
      <g>
       <use xlink:href="#m2cb34e5999" x="90" y="403.161521" style="stroke: #000000; stroke-width: 0.8"/>
      </g>
     </g>
     <g id="text_9">
      <text style="font: 24px 'DejaVu Sans', 'Bitstream Vera Sans', 'Computer Modern Sans Serif', 'Lucida Grande', 'Verdana', 'Geneva', 'Lucid', 'Arial', 'Helvetica', 'Avant Garde', sans-serif; text-anchor: end" x="83" y="412.279646" transform="rotate(-0 83 412.279646)">0.4</text>
     </g>
    </g>
    <g id="ytick_4">
     <g id="line2d_9">
      <g>
       <use xlink:href="#m2cb34e5999" x="90" y="296.910253" style="stroke: #000000; stroke-width: 0.8"/>
      </g>
     </g>
     <g id="text_10">
      <text style="font: 24px 'DejaVu Sans', 'Bitstream Vera Sans', 'Computer Modern Sans Serif', 'Lucida Grande', 'Verdana', 'Geneva', 'Lucid', 'Arial', 'Helvetica', 'Avant Garde', sans-serif; text-anchor: end" x="83" y="306.028378" transform="rotate(-0 83 306.028378)">0.6</text>
     </g>
    </g>
    <g id="ytick_5">
     <g id="line2d_10">
      <g>
       <use xlink:href="#m2cb34e5999" x="90" y="190.658984" style="stroke: #000000; stroke-width: 0.8"/>
      </g>
     </g>
     <g id="text_11">
      <text style="font: 24px 'DejaVu Sans', 'Bitstream Vera Sans', 'Computer Modern Sans Serif', 'Lucida Grande', 'Verdana', 'Geneva', 'Lucid', 'Arial', 'Helvetica', 'Avant Garde', sans-serif; text-anchor: end" x="83" y="199.777109" transform="rotate(-0 83 199.777109)">0.8</text>
     </g>
    </g>
    <g id="text_12">
     <text style="font: 24px 'DejaVu Sans', 'Bitstream Vera Sans', 'Computer Modern Sans Serif', 'Lucida Grande', 'Verdana', 'Geneva', 'Lucid', 'Arial', 'Helvetica', 'Avant Garde', sans-serif; text-anchor: middle" x="35.84125" y="363.6" transform="rotate(-90 35.84125 363.6)">Magnetization $ m $ </text>
    </g>
   </g>
   <g id="LineCollection_1">
    <path d="M 115.363636 615.599668 
L 115.363636 615.418871 
" clip-path="url(#p0bda2f29d9)" style="fill: none; stroke: #e41a1c; stroke-width: 1.5"/>
    <path d="M 178.772727 602.619138 
L 178.772727 602.310386 
" clip-path="url(#p0bda2f29d9)" style="fill: none; stroke: #e41a1c; stroke-width: 1.5"/>
    <path d="M 242.181818 589.45427 
L 242.181818 589.163928 
" clip-path="url(#p0bda2f29d9)" style="fill: none; stroke: #e41a1c; stroke-width: 1.5"/>
    <path d="M 305.590909 575.322528 
L 305.590909 575.023258 
" clip-path="url(#p0bda2f29d9)" style="fill: none; stroke: #e41a1c; stroke-width: 1.5"/>
    <path d="M 324.613636 570.811333 
L 324.613636 570.515407 
" clip-path="url(#p0bda2f29d9)" style="fill: none; stroke: #e41a1c; stroke-width: 1.5"/>
    <path d="M 337.295455 567.612334 
L 337.295455 567.309182 
" clip-path="url(#p0bda2f29d9)" style="fill: none; stroke: #e41a1c; stroke-width: 1.5"/>
    <path d="M 349.977273 564.717154 
L 349.977273 564.417336 
" clip-path="url(#p0bda2f29d9)" style="fill: none; stroke: #e41a1c; stroke-width: 1.5"/>
    <path d="M 362.659091 561.261969 
L 362.659091 560.936337 
" clip-path="url(#p0bda2f29d9)" style="fill: none; stroke: #e41a1c; stroke-width: 1.5"/>
    <path d="M 375.340909 555.808561 
L 375.340909 555.432003 
" clip-path="url(#p0bda2f29d9)" style="fill: none; stroke: #e41a1c; stroke-width: 1.5"/>
    <path d="M 388.022727 533.733887 
L 388.022727 532.961745 
" clip-path="url(#p0bda2f29d9)" style="fill: none; stroke: #e41a1c; stroke-width: 1.5"/>
    <path d="M 400.704545 372.744192 
L 400.704545 370.894715 
" clip-path="url(#p0bda2f29d9)" style="fill: none; stroke: #e41a1c; stroke-width: 1.5"/>
    <path d="M 413.386364 198.591389 
L 413.386364 197.986279 
" clip-path="url(#p0bda2f29d9)" style="fill: none; stroke: #e41a1c; stroke-width: 1.5"/>
    <path d="M 426.068182 175.77563 
L 426.068182 175.433731 
" clip-path="url(#p0bda2f29d9)" style="fill: none; stroke: #e41a1c; stroke-width: 1.5"/>
    <path d="M 438.75 163.223563 
L 438.75 162.960999 
" clip-path="url(#p0bda2f29d9)" style="fill: none; stroke: #e41a1c; stroke-width: 1.5"/>
    <path d="M 451.431818 154.914251 
L 451.431818 154.678452 
" clip-path="url(#p0bda2f29d9)" style="fill: none; stroke: #e41a1c; stroke-width: 1.5"/>
    <path d="M 464.113636 148.531066 
L 464.113636 148.318468 
" clip-path="url(#p0bda2f29d9)" style="fill: none; stroke: #e41a1c; stroke-width: 1.5"/>
    <path d="M 495.818182 136.384063 
L 495.818182 136.187277 
" clip-path="url(#p0bda2f29d9)" style="fill: none; stroke: #e41a1c; stroke-width: 1.5"/>
    <path d="M 527.522727 127.785935 
L 527.522727 127.617715 
" clip-path="url(#p0bda2f29d9)" style="fill: none; stroke: #e41a1c; stroke-width: 1.5"/>
    <path d="M 559.227273 121.107449 
L 559.227273 120.949527 
" clip-path="url(#p0bda2f29d9)" style="fill: none; stroke: #e41a1c; stroke-width: 1.5"/>
    <path d="M 622.636364 111.981377 
L 622.636364 111.84502 
" clip-path="url(#p0bda2f29d9)" style="fill: none; stroke: #e41a1c; stroke-width: 1.5"/>
   </g>
   <g id="LineCollection_2">
    <path d="M 115.363636 615.591823 
L 115.363636 615.591817 
" clip-path="url(#p0bda2f29d9)" style="fill: none; stroke: #377eb8; stroke-width: 1.5"/>
    <path d="M 178.772727 602.87334 
L 178.772727 602.571906 
" clip-path="url(#p0bda2f29d9)" style="fill: none; stroke: #377eb8; stroke-width: 1.5"/>
    <path d="M 242.181818 589.273696 
L 242.181818 588.978747 
" clip-path="url(#p0bda2f29d9)" style="fill: none; stroke: #377eb8; stroke-width: 1.5"/>
    <path d="M 305.590909 574.710444 
L 305.590909 574.402995 
" clip-path="url(#p0bda2f29d9)" style="fill: none; stroke: #377eb8; stroke-width: 1.5"/>
    <path d="M 324.613636 570.551239 
L 324.613636 570.237483 
" clip-path="url(#p0bda2f29d9)" style="fill: none; stroke: #377eb8; stroke-width: 1.5"/>
    <path d="M 337.295455 567.759266 
L 337.295455 567.448877 
" clip-path="url(#p0bda2f29d9)" style="fill: none; stroke: #377eb8; stroke-width: 1.5"/>
    <path d="M 349.977273 564.839736 
L 349.977273 564.511539 
" clip-path="url(#p0bda2f29d9)" style="fill: none; stroke: #377eb8; stroke-width: 1.5"/>
    <path d="M 362.659091 561.659688 
L 362.659091 561.358376 
" clip-path="url(#p0bda2f29d9)" style="fill: none; stroke: #377eb8; stroke-width: 1.5"/>
    <path d="M 369 559.945753 
L 369 559.625798 
" clip-path="url(#p0bda2f29d9)" style="fill: none; stroke: #377eb8; stroke-width: 1.5"/>
    <path d="M 375.340909 556.140018 
L 375.340909 555.764273 
" clip-path="url(#p0bda2f29d9)" style="fill: none; stroke: #377eb8; stroke-width: 1.5"/>
    <path d="M 388.022727 534.780846 
L 388.022727 534.026845 
" clip-path="url(#p0bda2f29d9)" style="fill: none; stroke: #377eb8; stroke-width: 1.5"/>
    <path d="M 400.704545 376.180911 
L 400.704545 374.267195 
" clip-path="url(#p0bda2f29d9)" style="fill: none; stroke: #377eb8; stroke-width: 1.5"/>
    <path d="M 413.386364 198.252278 
L 413.386364 197.636267 
" clip-path="url(#p0bda2f29d9)" style="fill: none; stroke: #377eb8; stroke-width: 1.5"/>
    <path d="M 426.068182 175.235487 
L 426.068182 174.887488 
" clip-path="url(#p0bda2f29d9)" style="fill: none; stroke: #377eb8; stroke-width: 1.5"/>
    <path d="M 438.75 163.213338 
L 438.75 162.944148 
" clip-path="url(#p0bda2f29d9)" style="fill: none; stroke: #377eb8; stroke-width: 1.5"/>
    <path d="M 451.431818 154.997055 
L 451.431818 154.763435 
" clip-path="url(#p0bda2f29d9)" style="fill: none; stroke: #377eb8; stroke-width: 1.5"/>
    <path d="M 464.113636 148.70438 
L 464.113636 148.491007 
" clip-path="url(#p0bda2f29d9)" style="fill: none; stroke: #377eb8; stroke-width: 1.5"/>
    <path d="M 495.818182 136.47858 
L 495.818182 136.286558 
" clip-path="url(#p0bda2f29d9)" style="fill: none; stroke: #377eb8; stroke-width: 1.5"/>
    <path d="M 527.522727 127.880994 
L 527.522727 127.700747 
" clip-path="url(#p0bda2f29d9)" style="fill: none; stroke: #377eb8; stroke-width: 1.5"/>
    <path d="M 559.227273 121.175284 
L 559.227273 121.019881 
" clip-path="url(#p0bda2f29d9)" style="fill: none; stroke: #377eb8; stroke-width: 1.5"/>
    <path d="M 622.636364 111.975252 
L 622.636364 111.840441 
" clip-path="url(#p0bda2f29d9)" style="fill: none; stroke: #377eb8; stroke-width: 1.5"/>
   </g>
   <g id="LineCollection_3">
    <path d="M 115.363636 615.6 
L 115.363636 615.599998 
" clip-path="url(#p0bda2f29d9)" style="fill: none; stroke: #4daf4a; stroke-width: 1.5"/>
    <path d="M 178.772727 602.657498 
L 178.772727 602.361089 
" clip-path="url(#p0bda2f29d9)" style="fill: none; stroke: #4daf4a; stroke-width: 1.5"/>
    <path d="M 242.181818 589.291974 
L 242.181818 589.003039 
" clip-path="url(#p0bda2f29d9)" style="fill: none; stroke: #4daf4a; stroke-width: 1.5"/>
    <path d="M 305.590909 575.07145 
L 305.590909 574.76353 
" clip-path="url(#p0bda2f29d9)" style="fill: none; stroke: #4daf4a; stroke-width: 1.5"/>
    <path d="M 324.613636 571.263125 
L 324.613636 570.969232 
" clip-path="url(#p0bda2f29d9)" style="fill: none; stroke: #4daf4a; stroke-width: 1.5"/>
    <path d="M 337.295455 568.367691 
L 337.295455 568.059873 
" clip-path="url(#p0bda2f29d9)" style="fill: none; stroke: #4daf4a; stroke-width: 1.5"/>
    <path d="M 349.977273 566.323393 
L 349.977273 566.03159 
" clip-path="url(#p0bda2f29d9)" style="fill: none; stroke: #4daf4a; stroke-width: 1.5"/>
    <path d="M 362.659091 563.275766 
L 362.659091 562.970815 
" clip-path="url(#p0bda2f29d9)" style="fill: none; stroke: #4daf4a; stroke-width: 1.5"/>
    <path d="M 375.340909 560.691788 
L 375.340909 560.397826 
" clip-path="url(#p0bda2f29d9)" style="fill: none; stroke: #4daf4a; stroke-width: 1.5"/>
    <path d="M 388.022727 558.630284 
L 388.022727 558.322384 
" clip-path="url(#p0bda2f29d9)" style="fill: none; stroke: #4daf4a; stroke-width: 1.5"/>
    <path d="M 400.704545 556.079146 
L 400.704545 555.775346 
" clip-path="url(#p0bda2f29d9)" style="fill: none; stroke: #4daf4a; stroke-width: 1.5"/>
    <path d="M 413.386364 553.490725 
L 413.386364 553.188549 
" clip-path="url(#p0bda2f29d9)" style="fill: none; stroke: #4daf4a; stroke-width: 1.5"/>
    <path d="M 426.068182 550.887536 
L 426.068182 550.592726 
" clip-path="url(#p0bda2f29d9)" style="fill: none; stroke: #4daf4a; stroke-width: 1.5"/>
    <path d="M 438.75 547.780321 
L 438.75 547.476801 
" clip-path="url(#p0bda2f29d9)" style="fill: none; stroke: #4daf4a; stroke-width: 1.5"/>
    <path d="M 451.431818 153.732521 
L 451.431818 153.487848 
" clip-path="url(#p0bda2f29d9)" style="fill: none; stroke: #4daf4a; stroke-width: 1.5"/>
    <path d="M 464.113636 147.265348 
L 464.113636 147.056799 
" clip-path="url(#p0bda2f29d9)" style="fill: none; stroke: #4daf4a; stroke-width: 1.5"/>
    <path d="M 495.818182 135.77097 
L 495.818182 135.589343 
" clip-path="url(#p0bda2f29d9)" style="fill: none; stroke: #4daf4a; stroke-width: 1.5"/>
    <path d="M 527.522727 127.185574 
L 527.522727 127.021791 
" clip-path="url(#p0bda2f29d9)" style="fill: none; stroke: #4daf4a; stroke-width: 1.5"/>
    <path d="M 559.227273 120.981489 
L 559.227273 120.826015 
" clip-path="url(#p0bda2f29d9)" style="fill: none; stroke: #4daf4a; stroke-width: 1.5"/>
    <path d="M 622.636364 111.732747 
L 622.636364 111.6 
" clip-path="url(#p0bda2f29d9)" style="fill: none; stroke: #4daf4a; stroke-width: 1.5"/>
   </g>
   <g id="line2d_11">
    <path d="M 115.363636 615.509269 
L 178.772727 602.464762 
L 242.181818 589.309099 
L 305.590909 575.172893 
L 324.613636 570.66337 
L 337.295455 567.460758 
L 349.977273 564.567245 
L 362.659091 561.099153 
L 375.340909 555.620282 
L 388.022727 533.347816 
L 400.704545 371.819453 
L 413.386364 198.288834 
L 426.068182 175.60468 
L 438.75 163.092281 
L 451.431818 154.796352 
L 464.113636 148.424767 
L 495.818182 136.28567 
L 527.522727 127.701825 
L 559.227273 121.028488 
L 622.636364 111.913198 
" clip-path="url(#p0bda2f29d9)" style="fill: none; stroke: #e41a1c; stroke-width: 1.5; stroke-linecap: square"/>
    <defs>
     <path id="mdb9c02179e" d="M 0 1.5 
C 0.397805 1.5 0.77937 1.341951 1.06066 1.06066 
C 1.341951 0.77937 1.5 0.397805 1.5 0 
C 1.5 -0.397805 1.341951 -0.77937 1.06066 -1.06066 
C 0.77937 -1.341951 0.397805 -1.5 0 -1.5 
C -0.397805 -1.5 -0.77937 -1.341951 -1.06066 -1.06066 
C -1.341951 -0.77937 -1.5 -0.397805 -1.5 0 
C -1.5 0.397805 -1.341951 0.77937 -1.06066 1.06066 
C -0.77937 1.341951 -0.397805 1.5 0 1.5 
z
" style="stroke: #e41a1c"/>
    </defs>
    <g clip-path="url(#p0bda2f29d9)">
     <use xlink:href="#mdb9c02179e" x="115.363636" y="615.509269" style="fill: #e41a1c; stroke: #e41a1c"/>
     <use xlink:href="#mdb9c02179e" x="178.772727" y="602.464762" style="fill: #e41a1c; stroke: #e41a1c"/>
     <use xlink:href="#mdb9c02179e" x="242.181818" y="589.309099" style="fill: #e41a1c; stroke: #e41a1c"/>
     <use xlink:href="#mdb9c02179e" x="305.590909" y="575.172893" style="fill: #e41a1c; stroke: #e41a1c"/>
     <use xlink:href="#mdb9c02179e" x="324.613636" y="570.66337" style="fill: #e41a1c; stroke: #e41a1c"/>
     <use xlink:href="#mdb9c02179e" x="337.295455" y="567.460758" style="fill: #e41a1c; stroke: #e41a1c"/>
     <use xlink:href="#mdb9c02179e" x="349.977273" y="564.567245" style="fill: #e41a1c; stroke: #e41a1c"/>
     <use xlink:href="#mdb9c02179e" x="362.659091" y="561.099153" style="fill: #e41a1c; stroke: #e41a1c"/>
     <use xlink:href="#mdb9c02179e" x="375.340909" y="555.620282" style="fill: #e41a1c; stroke: #e41a1c"/>
     <use xlink:href="#mdb9c02179e" x="388.022727" y="533.347816" style="fill: #e41a1c; stroke: #e41a1c"/>
     <use xlink:href="#mdb9c02179e" x="400.704545" y="371.819453" style="fill: #e41a1c; stroke: #e41a1c"/>
     <use xlink:href="#mdb9c02179e" x="413.386364" y="198.288834" style="fill: #e41a1c; stroke: #e41a1c"/>
     <use xlink:href="#mdb9c02179e" x="426.068182" y="175.60468" style="fill: #e41a1c; stroke: #e41a1c"/>
     <use xlink:href="#mdb9c02179e" x="438.75" y="163.092281" style="fill: #e41a1c; stroke: #e41a1c"/>
     <use xlink:href="#mdb9c02179e" x="451.431818" y="154.796352" style="fill: #e41a1c; stroke: #e41a1c"/>
     <use xlink:href="#mdb9c02179e" x="464.113636" y="148.424767" style="fill: #e41a1c; stroke: #e41a1c"/>
     <use xlink:href="#mdb9c02179e" x="495.818182" y="136.28567" style="fill: #e41a1c; stroke: #e41a1c"/>
     <use xlink:href="#mdb9c02179e" x="527.522727" y="127.701825" style="fill: #e41a1c; stroke: #e41a1c"/>
     <use xlink:href="#mdb9c02179e" x="559.227273" y="121.028488" style="fill: #e41a1c; stroke: #e41a1c"/>
     <use xlink:href="#mdb9c02179e" x="622.636364" y="111.913198" style="fill: #e41a1c; stroke: #e41a1c"/>
    </g>
   </g>
   <g id="line2d_12">
    <path d="M 115.363636 615.59182 
L 178.772727 602.722623 
L 242.181818 589.126221 
L 305.590909 574.556719 
L 324.613636 570.394361 
L 337.295455 567.604071 
L 349.977273 564.675637 
L 362.659091 561.509032 
L 369 559.785775 
L 375.340909 555.952145 
L 388.022727 534.403846 
L 400.704545 375.224053 
L 413.386364 197.944272 
L 426.068182 175.061487 
L 438.75 163.078743 
L 451.431818 154.880245 
L 464.113636 148.597694 
L 495.818182 136.382569 
L 527.522727 127.79087 
L 559.227273 121.097583 
L 622.636364 111.907846 
" clip-path="url(#p0bda2f29d9)" style="fill: none; stroke-dasharray: 5.55,2.4; stroke-dashoffset: 0; stroke: #377eb8; stroke-width: 1.5"/>
    <defs>
     <path id="m8c6a45ca7f" d="M 0 1.5 
C 0.397805 1.5 0.77937 1.341951 1.06066 1.06066 
C 1.341951 0.77937 1.5 0.397805 1.5 0 
C 1.5 -0.397805 1.341951 -0.77937 1.06066 -1.06066 
C 0.77937 -1.341951 0.397805 -1.5 0 -1.5 
C -0.397805 -1.5 -0.77937 -1.341951 -1.06066 -1.06066 
C -1.341951 -0.77937 -1.5 -0.397805 -1.5 0 
C -1.5 0.397805 -1.341951 0.77937 -1.06066 1.06066 
C -0.77937 1.341951 -0.397805 1.5 0 1.5 
z
" style="stroke: #377eb8"/>
    </defs>
    <g clip-path="url(#p0bda2f29d9)">
     <use xlink:href="#m8c6a45ca7f" x="115.363636" y="615.59182" style="fill: #377eb8; stroke: #377eb8"/>
     <use xlink:href="#m8c6a45ca7f" x="178.772727" y="602.722623" style="fill: #377eb8; stroke: #377eb8"/>
     <use xlink:href="#m8c6a45ca7f" x="242.181818" y="589.126221" style="fill: #377eb8; stroke: #377eb8"/>
     <use xlink:href="#m8c6a45ca7f" x="305.590909" y="574.556719" style="fill: #377eb8; stroke: #377eb8"/>
     <use xlink:href="#m8c6a45ca7f" x="324.613636" y="570.394361" style="fill: #377eb8; stroke: #377eb8"/>
     <use xlink:href="#m8c6a45ca7f" x="337.295455" y="567.604071" style="fill: #377eb8; stroke: #377eb8"/>
     <use xlink:href="#m8c6a45ca7f" x="349.977273" y="564.675637" style="fill: #377eb8; stroke: #377eb8"/>
     <use xlink:href="#m8c6a45ca7f" x="362.659091" y="561.509032" style="fill: #377eb8; stroke: #377eb8"/>
     <use xlink:href="#m8c6a45ca7f" x="369" y="559.785775" style="fill: #377eb8; stroke: #377eb8"/>
     <use xlink:href="#m8c6a45ca7f" x="375.340909" y="555.952145" style="fill: #377eb8; stroke: #377eb8"/>
     <use xlink:href="#m8c6a45ca7f" x="388.022727" y="534.403846" style="fill: #377eb8; stroke: #377eb8"/>
     <use xlink:href="#m8c6a45ca7f" x="400.704545" y="375.224053" style="fill: #377eb8; stroke: #377eb8"/>
     <use xlink:href="#m8c6a45ca7f" x="413.386364" y="197.944272" style="fill: #377eb8; stroke: #377eb8"/>
     <use xlink:href="#m8c6a45ca7f" x="426.068182" y="175.061487" style="fill: #377eb8; stroke: #377eb8"/>
     <use xlink:href="#m8c6a45ca7f" x="438.75" y="163.078743" style="fill: #377eb8; stroke: #377eb8"/>
     <use xlink:href="#m8c6a45ca7f" x="451.431818" y="154.880245" style="fill: #377eb8; stroke: #377eb8"/>
     <use xlink:href="#m8c6a45ca7f" x="464.113636" y="148.597694" style="fill: #377eb8; stroke: #377eb8"/>
     <use xlink:href="#m8c6a45ca7f" x="495.818182" y="136.382569" style="fill: #377eb8; stroke: #377eb8"/>
     <use xlink:href="#m8c6a45ca7f" x="527.522727" y="127.79087" style="fill: #377eb8; stroke: #377eb8"/>
     <use xlink:href="#m8c6a45ca7f" x="559.227273" y="121.097583" style="fill: #377eb8; stroke: #377eb8"/>
     <use xlink:href="#m8c6a45ca7f" x="622.636364" y="111.907846" style="fill: #377eb8; stroke: #377eb8"/>
    </g>
   </g>
   <g id="line2d_13">
    <path d="M 115.363636 615.599999 
L 178.772727 602.509294 
L 242.181818 589.147506 
L 305.590909 574.91749 
L 324.613636 571.116179 
L 337.295455 568.213782 
L 349.977273 566.177491 
L 362.659091 563.123291 
L 375.340909 560.544807 
L 388.022727 558.476334 
L 400.704545 555.927246 
L 413.386364 553.339637 
L 426.068182 550.740131 
L 438.75 547.628561 
L 451.431818 153.610185 
L 464.113636 147.161073 
L 495.818182 135.680157 
L 527.522727 127.103682 
L 559.227273 120.903752 
L 622.636364 111.666373 
" clip-path="url(#p0bda2f29d9)" style="fill: none; stroke-dasharray: 1.5,2.475; stroke-dashoffset: 0; stroke: #4daf4a; stroke-width: 1.5"/>
    <defs>
     <path id="m34a0d080fa" d="M 0 1.5 
C 0.397805 1.5 0.77937 1.341951 1.06066 1.06066 
C 1.341951 0.77937 1.5 0.397805 1.5 0 
C 1.5 -0.397805 1.341951 -0.77937 1.06066 -1.06066 
C 0.77937 -1.341951 0.397805 -1.5 0 -1.5 
C -0.397805 -1.5 -0.77937 -1.341951 -1.06066 -1.06066 
C -1.341951 -0.77937 -1.5 -0.397805 -1.5 0 
C -1.5 0.397805 -1.341951 0.77937 -1.06066 1.06066 
C -0.77937 1.341951 -0.397805 1.5 0 1.5 
z
" style="stroke: #4daf4a"/>
    </defs>
    <g clip-path="url(#p0bda2f29d9)">
     <use xlink:href="#m34a0d080fa" x="115.363636" y="615.599999" style="fill: #4daf4a; stroke: #4daf4a"/>
     <use xlink:href="#m34a0d080fa" x="178.772727" y="602.509294" style="fill: #4daf4a; stroke: #4daf4a"/>
     <use xlink:href="#m34a0d080fa" x="242.181818" y="589.147506" style="fill: #4daf4a; stroke: #4daf4a"/>
     <use xlink:href="#m34a0d080fa" x="305.590909" y="574.91749" style="fill: #4daf4a; stroke: #4daf4a"/>
     <use xlink:href="#m34a0d080fa" x="324.613636" y="571.116179" style="fill: #4daf4a; stroke: #4daf4a"/>
     <use xlink:href="#m34a0d080fa" x="337.295455" y="568.213782" style="fill: #4daf4a; stroke: #4daf4a"/>
     <use xlink:href="#m34a0d080fa" x="349.977273" y="566.177491" style="fill: #4daf4a; stroke: #4daf4a"/>
     <use xlink:href="#m34a0d080fa" x="362.659091" y="563.123291" style="fill: #4daf4a; stroke: #4daf4a"/>
     <use xlink:href="#m34a0d080fa" x="375.340909" y="560.544807" style="fill: #4daf4a; stroke: #4daf4a"/>
     <use xlink:href="#m34a0d080fa" x="388.022727" y="558.476334" style="fill: #4daf4a; stroke: #4daf4a"/>
     <use xlink:href="#m34a0d080fa" x="400.704545" y="555.927246" style="fill: #4daf4a; stroke: #4daf4a"/>
     <use xlink:href="#m34a0d080fa" x="413.386364" y="553.339637" style="fill: #4daf4a; stroke: #4daf4a"/>
     <use xlink:href="#m34a0d080fa" x="426.068182" y="550.740131" style="fill: #4daf4a; stroke: #4daf4a"/>
     <use xlink:href="#m34a0d080fa" x="438.75" y="547.628561" style="fill: #4daf4a; stroke: #4daf4a"/>
     <use xlink:href="#m34a0d080fa" x="451.431818" y="153.610185" style="fill: #4daf4a; stroke: #4daf4a"/>
     <use xlink:href="#m34a0d080fa" x="464.113636" y="147.161073" style="fill: #4daf4a; stroke: #4daf4a"/>
     <use xlink:href="#m34a0d080fa" x="495.818182" y="135.680157" style="fill: #4daf4a; stroke: #4daf4a"/>
     <use xlink:href="#m34a0d080fa" x="527.522727" y="127.103682" style="fill: #4daf4a; stroke: #4daf4a"/>
     <use xlink:href="#m34a0d080fa" x="559.227273" y="120.903752" style="fill: #4daf4a; stroke: #4daf4a"/>
     <use xlink:href="#m34a0d080fa" x="622.636364" y="111.666373" style="fill: #4daf4a; stroke: #4daf4a"/>
    </g>
   </g>
   <g id="patch_3">
    <path d="M 90 640.8 
L 90 86.4 
" style="fill: none; stroke: #000000; stroke-width: 0.8; stroke-linejoin: miter; stroke-linecap: square"/>
   </g>
   <g id="patch_4">
    <path d="M 648 640.8 
L 648 86.4 
" style="fill: none; stroke: #000000; stroke-width: 0.8; stroke-linejoin: miter; stroke-linecap: square"/>
   </g>
   <g id="patch_5">
    <path d="M 90 640.8 
L 648 640.8 
" style="fill: none; stroke: #000000; stroke-width: 0.8; stroke-linejoin: miter; stroke-linecap: square"/>
   </g>
   <g id="patch_6">
    <path d="M 90 86.4 
L 648 86.4 
" style="fill: none; stroke: #000000; stroke-width: 0.8; stroke-linejoin: miter; stroke-linecap: square"/>
   </g>
   <g id="legend_1">
    <g id="patch_7">
     <path d="M 106.8 211.2825 
L 335.3175 211.2825 
Q 340.1175 211.2825 340.1175 206.4825 
L 340.1175 103.2 
Q 340.1175 98.4 335.3175 98.4 
L 106.8 98.4 
Q 102 98.4 102 103.2 
L 102 206.4825 
Q 102 211.2825 106.8 211.2825 
z
" style="fill: #ffffff; opacity: 0.8; stroke: #cccccc; stroke-linejoin: miter"/>
    </g>
    <g id="LineCollection_4">
     <path d="M 135.6 129.83625 
L 135.6 105.83625 
" style="fill: none; stroke: #e41a1c; stroke-width: 1.5"/>
    </g>
    <g id="line2d_14">
     <path d="M 111.6 117.83625 
L 159.6 117.83625 
" style="fill: none; stroke: #e41a1c; stroke-width: 1.5; stroke-linecap: square"/>
    </g>
    <g id="line2d_15">
     <g>
      <use xlink:href="#mdb9c02179e" x="135.6" y="117.83625" style="fill: #e41a1c; stroke: #e41a1c"/>
     </g>
    </g>
    <g id="text_13">
     <text style="font: 24px 'DejaVu Sans', 'Bitstream Vera Sans', 'Computer Modern Sans Serif', 'Lucida Grande', 'Verdana', 'Geneva', 'Lucid', 'Arial', 'Helvetica', 'Avant Garde', sans-serif; text-anchor: start" x="178.8" y="126.23625" transform="rotate(-0 178.8 126.23625)">independent</text>
    </g>
    <g id="LineCollection_5">
     <path d="M 135.6 165.06375 
L 135.6 141.06375 
" style="fill: none; stroke: #377eb8; stroke-width: 1.5"/>
    </g>
    <g id="line2d_16">
     <path d="M 111.6 153.06375 
L 159.6 153.06375 
" style="fill: none; stroke-dasharray: 5.55,2.4; stroke-dashoffset: 0; stroke: #377eb8; stroke-width: 1.5"/>
    </g>
    <g id="line2d_17">
     <g>
      <use xlink:href="#m8c6a45ca7f" x="135.6" y="153.06375" style="fill: #377eb8; stroke: #377eb8"/>
     </g>
    </g>
    <g id="text_14">
     <text style="font: 24px 'DejaVu Sans', 'Bitstream Vera Sans', 'Computer Modern Sans Serif', 'Lucida Grande', 'Verdana', 'Geneva', 'Lucid', 'Arial', 'Helvetica', 'Avant Garde', sans-serif; text-anchor: start" x="178.8" y="161.46375" transform="rotate(-0 178.8 161.46375)">right-left</text>
    </g>
    <g id="LineCollection_6">
     <path d="M 135.6 200.29125 
L 135.6 176.29125 
" style="fill: none; stroke: #4daf4a; stroke-width: 1.5"/>
    </g>
    <g id="line2d_18">
     <path d="M 111.6 188.29125 
L 159.6 188.29125 
" style="fill: none; stroke-dasharray: 1.5,2.475; stroke-dashoffset: 0; stroke: #4daf4a; stroke-width: 1.5"/>
    </g>
    <g id="line2d_19">
     <g>
      <use xlink:href="#m34a0d080fa" x="135.6" y="188.29125" style="fill: #4daf4a; stroke: #4daf4a"/>
     </g>
    </g>
    <g id="text_15">
     <text style="font: 24px 'DejaVu Sans', 'Bitstream Vera Sans', 'Computer Modern Sans Serif', 'Lucida Grande', 'Verdana', 'Geneva', 'Lucid', 'Arial', 'Helvetica', 'Avant Garde', sans-serif; text-anchor: start" x="178.8" y="196.69125" transform="rotate(-0 178.8 196.69125)">left-right</text>
    </g>
   </g>
  </g>
 </g>
 <defs>
  <clipPath id="p0bda2f29d9">
   <rect x="90" y="86.4" width="558" height="554.4"/>
  </clipPath>
 </defs>
</svg>
