<?xml version="1.0" encoding="utf-8" standalone="no"?>
<!DOCTYPE svg PUBLIC "-//W3C//DTD SVG 1.1//EN"
  "http://www.w3.org/Graphics/SVG/1.1/DTD/svg11.dtd">
<svg xmlns:xlink="http://www.w3.org/1999/xlink" width="720pt" height="720pt" viewBox="0 0 720 720" xmlns="http://www.w3.org/2000/svg" version="1.1">
 <metadata>
  <rdf:RDF xmlns:dc="http://purl.org/dc/elements/1.1/" xmlns:cc="http://creativecommons.org/ns#" xmlns:rdf="http://www.w3.org/1999/02/22-rdf-syntax-ns#">
   <cc:Work>
    <dc:type rdf:resource="http://purl.org/dc/dcmitype/StillImage"/>
    <dc:date>2023-08-28T19:50:06.050577</dc:date>
    <dc:format>image/svg+xml</dc:format>
    <dc:creator>
     <cc:Agent>
      <dc:title>Matplotlib v3.7.1, https://matplotlib.org/</dc:title>
     </cc:Agent>
    </dc:creator>
   </cc:Work>
  </rdf:RDF>
 </metadata>
 <defs>
  <style type="text/css">*{stroke-linejoin: round; stroke-linecap: butt}</style>
 </defs>
 <g id="figure_1">
  <g id="patch_1">
   <path d="M 0 720 
L 720 720 
L 720 0 
L 0 0 
z
" style="fill: #ffffff"/>
  </g>
  <g id="axes_1">
   <g id="patch_2">
    <path d="M 90 640.8 
L 648 640.8 
L 648 86.4 
L 90 86.4 
z
" style="fill: #ffffff"/>
   </g>
   <g id="matplotlib.axis_1">
    <g id="xtick_1">
     <g id="line2d_1">
      <defs>
       <path id="m83ad4478bd" d="M 0 0 
L 0 3.5 
" style="stroke: #000000; stroke-width: 0.8"/>
      </defs>
      <g>
       <use xlink:href="#m83ad4478bd" x="115.363636" y="640.8" style="stroke: #000000; stroke-width: 0.8"/>
      </g>
     </g>
     <g id="text_1">
      <text style="font: 12px 'DejaVu Sans', 'Bitstream Vera Sans', 'Computer Modern Sans Serif', 'Lucida Grande', 'Verdana', 'Geneva', 'Lucid', 'Arial', 'Helvetica', 'Avant Garde', sans-serif; text-anchor: middle" x="115.363636" y="656.918125" transform="rotate(-0 115.363636 656.918125)">0.0</text>
     </g>
    </g>
    <g id="xtick_2">
     <g id="line2d_2">
      <g>
       <use xlink:href="#m83ad4478bd" x="178.772727" y="640.8" style="stroke: #000000; stroke-width: 0.8"/>
      </g>
     </g>
     <g id="text_2">
      <text style="font: 12px 'DejaVu Sans', 'Bitstream Vera Sans', 'Computer Modern Sans Serif', 'Lucida Grande', 'Verdana', 'Geneva', 'Lucid', 'Arial', 'Helvetica', 'Avant Garde', sans-serif; text-anchor: middle" x="178.772727" y="656.918125" transform="rotate(-0 178.772727 656.918125)">0.1</text>
     </g>
    </g>
    <g id="xtick_3">
     <g id="line2d_3">
      <g>
       <use xlink:href="#m83ad4478bd" x="242.181818" y="640.8" style="stroke: #000000; stroke-width: 0.8"/>
      </g>
     </g>
     <g id="text_3">
      <text style="font: 12px 'DejaVu Sans', 'Bitstream Vera Sans', 'Computer Modern Sans Serif', 'Lucida Grande', 'Verdana', 'Geneva', 'Lucid', 'Arial', 'Helvetica', 'Avant Garde', sans-serif; text-anchor: middle" x="242.181818" y="656.918125" transform="rotate(-0 242.181818 656.918125)">0.2</text>
     </g>
    </g>
    <g id="xtick_4">
     <g id="line2d_4">
      <g>
       <use xlink:href="#m83ad4478bd" x="305.590909" y="640.8" style="stroke: #000000; stroke-width: 0.8"/>
      </g>
     </g>
     <g id="text_4">
      <text style="font: 12px 'DejaVu Sans', 'Bitstream Vera Sans', 'Computer Modern Sans Serif', 'Lucida Grande', 'Verdana', 'Geneva', 'Lucid', 'Arial', 'Helvetica', 'Avant Garde', sans-serif; text-anchor: middle" x="305.590909" y="656.918125" transform="rotate(-0 305.590909 656.918125)">0.3</text>
     </g>
    </g>
    <g id="xtick_5">
     <g id="line2d_5">
      <g>
       <use xlink:href="#m83ad4478bd" x="369" y="640.8" style="stroke: #000000; stroke-width: 0.8"/>
      </g>
     </g>
     <g id="text_5">
      <text style="font: 12px 'DejaVu Sans', 'Bitstream Vera Sans', 'Computer Modern Sans Serif', 'Lucida Grande', 'Verdana', 'Geneva', 'Lucid', 'Arial', 'Helvetica', 'Avant Garde', sans-serif; text-anchor: middle" x="369" y="656.918125" transform="rotate(-0 369 656.918125)">0.4</text>
     </g>
    </g>
    <g id="xtick_6">
     <g id="line2d_6">
      <g>
       <use xlink:href="#m83ad4478bd" x="432.409091" y="640.8" style="stroke: #000000; stroke-width: 0.8"/>
      </g>
     </g>
     <g id="text_6">
      <text style="font: 12px 'DejaVu Sans', 'Bitstream Vera Sans', 'Computer Modern Sans Serif', 'Lucida Grande', 'Verdana', 'Geneva', 'Lucid', 'Arial', 'Helvetica', 'Avant Garde', sans-serif; text-anchor: middle" x="432.409091" y="656.918125" transform="rotate(-0 432.409091 656.918125)">0.5</text>
     </g>
    </g>
    <g id="xtick_7">
     <g id="line2d_7">
      <g>
       <use xlink:href="#m83ad4478bd" x="495.818182" y="640.8" style="stroke: #000000; stroke-width: 0.8"/>
      </g>
     </g>
     <g id="text_7">
      <text style="font: 12px 'DejaVu Sans', 'Bitstream Vera Sans', 'Computer Modern Sans Serif', 'Lucida Grande', 'Verdana', 'Geneva', 'Lucid', 'Arial', 'Helvetica', 'Avant Garde', sans-serif; text-anchor: middle" x="495.818182" y="656.918125" transform="rotate(-0 495.818182 656.918125)">0.6</text>
     </g>
    </g>
    <g id="xtick_8">
     <g id="line2d_8">
      <g>
       <use xlink:href="#m83ad4478bd" x="559.227273" y="640.8" style="stroke: #000000; stroke-width: 0.8"/>
      </g>
     </g>
     <g id="text_8">
      <text style="font: 12px 'DejaVu Sans', 'Bitstream Vera Sans', 'Computer Modern Sans Serif', 'Lucida Grande', 'Verdana', 'Geneva', 'Lucid', 'Arial', 'Helvetica', 'Avant Garde', sans-serif; text-anchor: middle" x="559.227273" y="656.918125" transform="rotate(-0 559.227273 656.918125)">0.7</text>
     </g>
    </g>
    <g id="xtick_9">
     <g id="line2d_9">
      <g>
       <use xlink:href="#m83ad4478bd" x="622.636364" y="640.8" style="stroke: #000000; stroke-width: 0.8"/>
      </g>
     </g>
     <g id="text_9">
      <text style="font: 12px 'DejaVu Sans', 'Bitstream Vera Sans', 'Computer Modern Sans Serif', 'Lucida Grande', 'Verdana', 'Geneva', 'Lucid', 'Arial', 'Helvetica', 'Avant Garde', sans-serif; text-anchor: middle" x="622.636364" y="656.918125" transform="rotate(-0 622.636364 656.918125)">0.8</text>
     </g>
    </g>
    <g id="text_10">
     <text style="font: 12px 'DejaVu Sans', 'Bitstream Vera Sans', 'Computer Modern Sans Serif', 'Lucida Grande', 'Verdana', 'Geneva', 'Lucid', 'Arial', 'Helvetica', 'Avant Garde', sans-serif; text-anchor: middle" x="369" y="672.531875" transform="rotate(-0 369 672.531875)">Field strength in $ x $-direction $ h_x $ </text>
    </g>
   </g>
   <g id="matplotlib.axis_2">
    <g id="ytick_1">
     <g id="line2d_10">
      <defs>
       <path id="mf5e2cf9c70" d="M 0 0 
L -3.5 0 
" style="stroke: #000000; stroke-width: 0.8"/>
      </defs>
      <g>
       <use xlink:href="#mf5e2cf9c70" x="90" y="615.664059" style="stroke: #000000; stroke-width: 0.8"/>
      </g>
     </g>
     <g id="text_11">
      <text style="font: 12px 'DejaVu Sans', 'Bitstream Vera Sans', 'Computer Modern Sans Serif', 'Lucida Grande', 'Verdana', 'Geneva', 'Lucid', 'Arial', 'Helvetica', 'Avant Garde', sans-serif; text-anchor: end" x="83" y="620.223121" transform="rotate(-0 83 620.223121)">0.0</text>
     </g>
    </g>
    <g id="ytick_2">
     <g id="line2d_11">
      <g>
       <use xlink:href="#mf5e2cf9c70" x="90" y="509.41279" style="stroke: #000000; stroke-width: 0.8"/>
      </g>
     </g>
     <g id="text_12">
      <text style="font: 12px 'DejaVu Sans', 'Bitstream Vera Sans', 'Computer Modern Sans Serif', 'Lucida Grande', 'Verdana', 'Geneva', 'Lucid', 'Arial', 'Helvetica', 'Avant Garde', sans-serif; text-anchor: end" x="83" y="513.971852" transform="rotate(-0 83 513.971852)">0.2</text>
     </g>
    </g>
    <g id="ytick_3">
     <g id="line2d_12">
      <g>
       <use xlink:href="#mf5e2cf9c70" x="90" y="403.161521" style="stroke: #000000; stroke-width: 0.8"/>
      </g>
     </g>
     <g id="text_13">
      <text style="font: 12px 'DejaVu Sans', 'Bitstream Vera Sans', 'Computer Modern Sans Serif', 'Lucida Grande', 'Verdana', 'Geneva', 'Lucid', 'Arial', 'Helvetica', 'Avant Garde', sans-serif; text-anchor: end" x="83" y="407.720584" transform="rotate(-0 83 407.720584)">0.4</text>
     </g>
    </g>
    <g id="ytick_4">
     <g id="line2d_13">
      <g>
       <use xlink:href="#mf5e2cf9c70" x="90" y="296.910253" style="stroke: #000000; stroke-width: 0.8"/>
      </g>
     </g>
     <g id="text_14">
      <text style="font: 12px 'DejaVu Sans', 'Bitstream Vera Sans', 'Computer Modern Sans Serif', 'Lucida Grande', 'Verdana', 'Geneva', 'Lucid', 'Arial', 'Helvetica', 'Avant Garde', sans-serif; text-anchor: end" x="83" y="301.469315" transform="rotate(-0 83 301.469315)">0.6</text>
     </g>
    </g>
    <g id="ytick_5">
     <g id="line2d_14">
      <g>
       <use xlink:href="#mf5e2cf9c70" x="90" y="190.658984" style="stroke: #000000; stroke-width: 0.8"/>
      </g>
     </g>
     <g id="text_15">
      <text style="font: 12px 'DejaVu Sans', 'Bitstream Vera Sans', 'Computer Modern Sans Serif', 'Lucida Grande', 'Verdana', 'Geneva', 'Lucid', 'Arial', 'Helvetica', 'Avant Garde', sans-serif; text-anchor: end" x="83" y="195.218047" transform="rotate(-0 83 195.218047)">0.8</text>
     </g>
    </g>
    <g id="text_16">
     <text style="font: 12px 'DejaVu Sans', 'Bitstream Vera Sans', 'Computer Modern Sans Serif', 'Lucida Grande', 'Verdana', 'Geneva', 'Lucid', 'Arial', 'Helvetica', 'Avant Garde', sans-serif; text-anchor: middle" x="57.420625" y="363.6" transform="rotate(-90 57.420625 363.6)">Magnetization $ m $ </text>
    </g>
   </g>
   <g id="LineCollection_1">
    <path d="M 115.363636 615.599668 
L 115.363636 615.418871 
" clip-path="url(#pb1e344e9ec)" style="fill: none; stroke: #e41a1c; stroke-width: 1.5"/>
    <path d="M 178.772727 602.619138 
L 178.772727 602.310386 
" clip-path="url(#pb1e344e9ec)" style="fill: none; stroke: #e41a1c; stroke-width: 1.5"/>
    <path d="M 242.181818 589.45427 
L 242.181818 589.163928 
" clip-path="url(#pb1e344e9ec)" style="fill: none; stroke: #e41a1c; stroke-width: 1.5"/>
    <path d="M 305.590909 575.322528 
L 305.590909 575.023258 
" clip-path="url(#pb1e344e9ec)" style="fill: none; stroke: #e41a1c; stroke-width: 1.5"/>
    <path d="M 324.613636 570.811333 
L 324.613636 570.515407 
" clip-path="url(#pb1e344e9ec)" style="fill: none; stroke: #e41a1c; stroke-width: 1.5"/>
    <path d="M 337.295455 567.612334 
L 337.295455 567.309182 
" clip-path="url(#pb1e344e9ec)" style="fill: none; stroke: #e41a1c; stroke-width: 1.5"/>
    <path d="M 349.977273 564.717154 
L 349.977273 564.417336 
" clip-path="url(#pb1e344e9ec)" style="fill: none; stroke: #e41a1c; stroke-width: 1.5"/>
    <path d="M 362.659091 561.261969 
L 362.659091 560.936337 
" clip-path="url(#pb1e344e9ec)" style="fill: none; stroke: #e41a1c; stroke-width: 1.5"/>
    <path d="M 375.340909 555.808561 
L 375.340909 555.432003 
" clip-path="url(#pb1e344e9ec)" style="fill: none; stroke: #e41a1c; stroke-width: 1.5"/>
    <path d="M 388.022727 533.733887 
L 388.022727 532.961745 
" clip-path="url(#pb1e344e9ec)" style="fill: none; stroke: #e41a1c; stroke-width: 1.5"/>
    <path d="M 400.704545 372.744192 
L 400.704545 370.894715 
" clip-path="url(#pb1e344e9ec)" style="fill: none; stroke: #e41a1c; stroke-width: 1.5"/>
    <path d="M 413.386364 198.591389 
L 413.386364 197.986279 
" clip-path="url(#pb1e344e9ec)" style="fill: none; stroke: #e41a1c; stroke-width: 1.5"/>
    <path d="M 426.068182 175.77563 
L 426.068182 175.433731 
" clip-path="url(#pb1e344e9ec)" style="fill: none; stroke: #e41a1c; stroke-width: 1.5"/>
    <path d="M 438.75 163.223563 
L 438.75 162.960999 
" clip-path="url(#pb1e344e9ec)" style="fill: none; stroke: #e41a1c; stroke-width: 1.5"/>
    <path d="M 451.431818 154.914251 
L 451.431818 154.678452 
" clip-path="url(#pb1e344e9ec)" style="fill: none; stroke: #e41a1c; stroke-width: 1.5"/>
    <path d="M 464.113636 148.531066 
L 464.113636 148.318468 
" clip-path="url(#pb1e344e9ec)" style="fill: none; stroke: #e41a1c; stroke-width: 1.5"/>
    <path d="M 495.818182 136.384063 
L 495.818182 136.187277 
" clip-path="url(#pb1e344e9ec)" style="fill: none; stroke: #e41a1c; stroke-width: 1.5"/>
    <path d="M 527.522727 127.785935 
L 527.522727 127.617715 
" clip-path="url(#pb1e344e9ec)" style="fill: none; stroke: #e41a1c; stroke-width: 1.5"/>
    <path d="M 559.227273 121.107449 
L 559.227273 120.949527 
" clip-path="url(#pb1e344e9ec)" style="fill: none; stroke: #e41a1c; stroke-width: 1.5"/>
    <path d="M 622.636364 111.981377 
L 622.636364 111.84502 
" clip-path="url(#pb1e344e9ec)" style="fill: none; stroke: #e41a1c; stroke-width: 1.5"/>
   </g>
   <g id="LineCollection_2">
    <path d="M 115.363636 615.591823 
L 115.363636 615.591817 
" clip-path="url(#pb1e344e9ec)" style="fill: none; stroke: #377eb8; stroke-width: 1.5"/>
    <path d="M 178.772727 602.87334 
L 178.772727 602.571906 
" clip-path="url(#pb1e344e9ec)" style="fill: none; stroke: #377eb8; stroke-width: 1.5"/>
    <path d="M 242.181818 589.273696 
L 242.181818 588.978747 
" clip-path="url(#pb1e344e9ec)" style="fill: none; stroke: #377eb8; stroke-width: 1.5"/>
    <path d="M 305.590909 574.710444 
L 305.590909 574.402995 
" clip-path="url(#pb1e344e9ec)" style="fill: none; stroke: #377eb8; stroke-width: 1.5"/>
    <path d="M 324.613636 570.551239 
L 324.613636 570.237483 
" clip-path="url(#pb1e344e9ec)" style="fill: none; stroke: #377eb8; stroke-width: 1.5"/>
    <path d="M 337.295455 567.759266 
L 337.295455 567.448877 
" clip-path="url(#pb1e344e9ec)" style="fill: none; stroke: #377eb8; stroke-width: 1.5"/>
    <path d="M 349.977273 564.839736 
L 349.977273 564.511539 
" clip-path="url(#pb1e344e9ec)" style="fill: none; stroke: #377eb8; stroke-width: 1.5"/>
    <path d="M 362.659091 561.659688 
L 362.659091 561.358376 
" clip-path="url(#pb1e344e9ec)" style="fill: none; stroke: #377eb8; stroke-width: 1.5"/>
    <path d="M 369 559.945753 
L 369 559.625798 
" clip-path="url(#pb1e344e9ec)" style="fill: none; stroke: #377eb8; stroke-width: 1.5"/>
    <path d="M 375.340909 556.140018 
L 375.340909 555.764273 
" clip-path="url(#pb1e344e9ec)" style="fill: none; stroke: #377eb8; stroke-width: 1.5"/>
    <path d="M 388.022727 534.780846 
L 388.022727 534.026845 
" clip-path="url(#pb1e344e9ec)" style="fill: none; stroke: #377eb8; stroke-width: 1.5"/>
    <path d="M 400.704545 376.180911 
L 400.704545 374.267195 
" clip-path="url(#pb1e344e9ec)" style="fill: none; stroke: #377eb8; stroke-width: 1.5"/>
    <path d="M 413.386364 198.252278 
L 413.386364 197.636267 
" clip-path="url(#pb1e344e9ec)" style="fill: none; stroke: #377eb8; stroke-width: 1.5"/>
    <path d="M 426.068182 175.235487 
L 426.068182 174.887488 
" clip-path="url(#pb1e344e9ec)" style="fill: none; stroke: #377eb8; stroke-width: 1.5"/>
    <path d="M 438.75 163.213338 
L 438.75 162.944148 
" clip-path="url(#pb1e344e9ec)" style="fill: none; stroke: #377eb8; stroke-width: 1.5"/>
    <path d="M 451.431818 154.997055 
L 451.431818 154.763435 
" clip-path="url(#pb1e344e9ec)" style="fill: none; stroke: #377eb8; stroke-width: 1.5"/>
    <path d="M 464.113636 148.70438 
L 464.113636 148.491007 
" clip-path="url(#pb1e344e9ec)" style="fill: none; stroke: #377eb8; stroke-width: 1.5"/>
    <path d="M 495.818182 136.47858 
L 495.818182 136.286558 
" clip-path="url(#pb1e344e9ec)" style="fill: none; stroke: #377eb8; stroke-width: 1.5"/>
    <path d="M 527.522727 127.880994 
L 527.522727 127.700747 
" clip-path="url(#pb1e344e9ec)" style="fill: none; stroke: #377eb8; stroke-width: 1.5"/>
    <path d="M 559.227273 121.175284 
L 559.227273 121.019881 
" clip-path="url(#pb1e344e9ec)" style="fill: none; stroke: #377eb8; stroke-width: 1.5"/>
    <path d="M 622.636364 111.975252 
L 622.636364 111.840441 
" clip-path="url(#pb1e344e9ec)" style="fill: none; stroke: #377eb8; stroke-width: 1.5"/>
   </g>
   <g id="LineCollection_3">
    <path d="M 115.363636 615.6 
L 115.363636 615.599998 
" clip-path="url(#pb1e344e9ec)" style="fill: none; stroke: #4daf4a; stroke-width: 1.5"/>
    <path d="M 178.772727 602.657498 
L 178.772727 602.361089 
" clip-path="url(#pb1e344e9ec)" style="fill: none; stroke: #4daf4a; stroke-width: 1.5"/>
    <path d="M 242.181818 589.291974 
L 242.181818 589.003039 
" clip-path="url(#pb1e344e9ec)" style="fill: none; stroke: #4daf4a; stroke-width: 1.5"/>
    <path d="M 305.590909 575.07145 
L 305.590909 574.76353 
" clip-path="url(#pb1e344e9ec)" style="fill: none; stroke: #4daf4a; stroke-width: 1.5"/>
    <path d="M 324.613636 571.263125 
L 324.613636 570.969232 
" clip-path="url(#pb1e344e9ec)" style="fill: none; stroke: #4daf4a; stroke-width: 1.5"/>
    <path d="M 337.295455 568.367691 
L 337.295455 568.059873 
" clip-path="url(#pb1e344e9ec)" style="fill: none; stroke: #4daf4a; stroke-width: 1.5"/>
    <path d="M 349.977273 566.323393 
L 349.977273 566.03159 
" clip-path="url(#pb1e344e9ec)" style="fill: none; stroke: #4daf4a; stroke-width: 1.5"/>
    <path d="M 362.659091 563.275766 
L 362.659091 562.970815 
" clip-path="url(#pb1e344e9ec)" style="fill: none; stroke: #4daf4a; stroke-width: 1.5"/>
    <path d="M 375.340909 560.691788 
L 375.340909 560.397826 
" clip-path="url(#pb1e344e9ec)" style="fill: none; stroke: #4daf4a; stroke-width: 1.5"/>
    <path d="M 388.022727 558.630284 
L 388.022727 558.322384 
" clip-path="url(#pb1e344e9ec)" style="fill: none; stroke: #4daf4a; stroke-width: 1.5"/>
    <path d="M 400.704545 556.079146 
L 400.704545 555.775346 
" clip-path="url(#pb1e344e9ec)" style="fill: none; stroke: #4daf4a; stroke-width: 1.5"/>
    <path d="M 413.386364 553.490725 
L 413.386364 553.188549 
" clip-path="url(#pb1e344e9ec)" style="fill: none; stroke: #4daf4a; stroke-width: 1.5"/>
    <path d="M 426.068182 550.887536 
L 426.068182 550.592726 
" clip-path="url(#pb1e344e9ec)" style="fill: none; stroke: #4daf4a; stroke-width: 1.5"/>
    <path d="M 438.75 547.780321 
L 438.75 547.476801 
" clip-path="url(#pb1e344e9ec)" style="fill: none; stroke: #4daf4a; stroke-width: 1.5"/>
    <path d="M 451.431818 153.732521 
L 451.431818 153.487848 
" clip-path="url(#pb1e344e9ec)" style="fill: none; stroke: #4daf4a; stroke-width: 1.5"/>
    <path d="M 464.113636 147.265348 
L 464.113636 147.056799 
" clip-path="url(#pb1e344e9ec)" style="fill: none; stroke: #4daf4a; stroke-width: 1.5"/>
    <path d="M 495.818182 135.77097 
L 495.818182 135.589343 
" clip-path="url(#pb1e344e9ec)" style="fill: none; stroke: #4daf4a; stroke-width: 1.5"/>
    <path d="M 527.522727 127.185574 
L 527.522727 127.021791 
" clip-path="url(#pb1e344e9ec)" style="fill: none; stroke: #4daf4a; stroke-width: 1.5"/>
    <path d="M 559.227273 120.981489 
L 559.227273 120.826015 
" clip-path="url(#pb1e344e9ec)" style="fill: none; stroke: #4daf4a; stroke-width: 1.5"/>
    <path d="M 622.636364 111.732747 
L 622.636364 111.6 
" clip-path="url(#pb1e344e9ec)" style="fill: none; stroke: #4daf4a; stroke-width: 1.5"/>
   </g>
   <g id="line2d_15">
    <path d="M 115.363636 615.509269 
L 178.772727 602.464762 
L 242.181818 589.309099 
L 305.590909 575.172893 
L 324.613636 570.66337 
L 337.295455 567.460758 
L 349.977273 564.567245 
L 362.659091 561.099153 
L 375.340909 555.620282 
L 388.022727 533.347816 
L 400.704545 371.819453 
L 413.386364 198.288834 
L 426.068182 175.60468 
L 438.75 163.092281 
L 451.431818 154.796352 
L 464.113636 148.424767 
L 495.818182 136.28567 
L 527.522727 127.701825 
L 559.227273 121.028488 
L 622.636364 111.913198 
" clip-path="url(#pb1e344e9ec)" style="fill: none; stroke: #e41a1c; stroke-width: 1.5; stroke-linecap: square"/>
    <defs>
     <path id="m67aa726857" d="M 0 1 
C 0.265203 1 0.51958 0.894634 0.707107 0.707107 
C 0.894634 0.51958 1 0.265203 1 0 
C 1 -0.265203 0.894634 -0.51958 0.707107 -0.707107 
C 0.51958 -0.894634 0.265203 -1 0 -1 
C -0.265203 -1 -0.51958 -0.894634 -0.707107 -0.707107 
C -0.894634 -0.51958 -1 -0.265203 -1 0 
C -1 0.265203 -0.894634 0.51958 -0.707107 0.707107 
C -0.51958 0.894634 -0.265203 1 0 1 
z
" style="stroke: #e41a1c"/>
    </defs>
    <g clip-path="url(#pb1e344e9ec)">
     <use xlink:href="#m67aa726857" x="115.363636" y="615.509269" style="fill: #e41a1c; stroke: #e41a1c"/>
     <use xlink:href="#m67aa726857" x="178.772727" y="602.464762" style="fill: #e41a1c; stroke: #e41a1c"/>
     <use xlink:href="#m67aa726857" x="242.181818" y="589.309099" style="fill: #e41a1c; stroke: #e41a1c"/>
     <use xlink:href="#m67aa726857" x="305.590909" y="575.172893" style="fill: #e41a1c; stroke: #e41a1c"/>
     <use xlink:href="#m67aa726857" x="324.613636" y="570.66337" style="fill: #e41a1c; stroke: #e41a1c"/>
     <use xlink:href="#m67aa726857" x="337.295455" y="567.460758" style="fill: #e41a1c; stroke: #e41a1c"/>
     <use xlink:href="#m67aa726857" x="349.977273" y="564.567245" style="fill: #e41a1c; stroke: #e41a1c"/>
     <use xlink:href="#m67aa726857" x="362.659091" y="561.099153" style="fill: #e41a1c; stroke: #e41a1c"/>
     <use xlink:href="#m67aa726857" x="375.340909" y="555.620282" style="fill: #e41a1c; stroke: #e41a1c"/>
     <use xlink:href="#m67aa726857" x="388.022727" y="533.347816" style="fill: #e41a1c; stroke: #e41a1c"/>
     <use xlink:href="#m67aa726857" x="400.704545" y="371.819453" style="fill: #e41a1c; stroke: #e41a1c"/>
     <use xlink:href="#m67aa726857" x="413.386364" y="198.288834" style="fill: #e41a1c; stroke: #e41a1c"/>
     <use xlink:href="#m67aa726857" x="426.068182" y="175.60468" style="fill: #e41a1c; stroke: #e41a1c"/>
     <use xlink:href="#m67aa726857" x="438.75" y="163.092281" style="fill: #e41a1c; stroke: #e41a1c"/>
     <use xlink:href="#m67aa726857" x="451.431818" y="154.796352" style="fill: #e41a1c; stroke: #e41a1c"/>
     <use xlink:href="#m67aa726857" x="464.113636" y="148.424767" style="fill: #e41a1c; stroke: #e41a1c"/>
     <use xlink:href="#m67aa726857" x="495.818182" y="136.28567" style="fill: #e41a1c; stroke: #e41a1c"/>
     <use xlink:href="#m67aa726857" x="527.522727" y="127.701825" style="fill: #e41a1c; stroke: #e41a1c"/>
     <use xlink:href="#m67aa726857" x="559.227273" y="121.028488" style="fill: #e41a1c; stroke: #e41a1c"/>
     <use xlink:href="#m67aa726857" x="622.636364" y="111.913198" style="fill: #e41a1c; stroke: #e41a1c"/>
    </g>
   </g>
   <g id="line2d_16">
    <path d="M 115.363636 615.59182 
L 178.772727 602.722623 
L 242.181818 589.126221 
L 305.590909 574.556719 
L 324.613636 570.394361 
L 337.295455 567.604071 
L 349.977273 564.675637 
L 362.659091 561.509032 
L 369 559.785775 
L 375.340909 555.952145 
L 388.022727 534.403846 
L 400.704545 375.224053 
L 413.386364 197.944272 
L 426.068182 175.061487 
L 438.75 163.078743 
L 451.431818 154.880245 
L 464.113636 148.597694 
L 495.818182 136.382569 
L 527.522727 127.79087 
L 559.227273 121.097583 
L 622.636364 111.907846 
" clip-path="url(#pb1e344e9ec)" style="fill: none; stroke-dasharray: 5.55,2.4; stroke-dashoffset: 0; stroke: #377eb8; stroke-width: 1.5"/>
    <defs>
     <path id="mc409a877a3" d="M 0 1 
C 0.265203 1 0.51958 0.894634 0.707107 0.707107 
C 0.894634 0.51958 1 0.265203 1 0 
C 1 -0.265203 0.894634 -0.51958 0.707107 -0.707107 
C 0.51958 -0.894634 0.265203 -1 0 -1 
C -0.265203 -1 -0.51958 -0.894634 -0.707107 -0.707107 
C -0.894634 -0.51958 -1 -0.265203 -1 0 
C -1 0.265203 -0.894634 0.51958 -0.707107 0.707107 
C -0.51958 0.894634 -0.265203 1 0 1 
z
" style="stroke: #377eb8"/>
    </defs>
    <g clip-path="url(#pb1e344e9ec)">
     <use xlink:href="#mc409a877a3" x="115.363636" y="615.59182" style="fill: #377eb8; stroke: #377eb8"/>
     <use xlink:href="#mc409a877a3" x="178.772727" y="602.722623" style="fill: #377eb8; stroke: #377eb8"/>
     <use xlink:href="#mc409a877a3" x="242.181818" y="589.126221" style="fill: #377eb8; stroke: #377eb8"/>
     <use xlink:href="#mc409a877a3" x="305.590909" y="574.556719" style="fill: #377eb8; stroke: #377eb8"/>
     <use xlink:href="#mc409a877a3" x="324.613636" y="570.394361" style="fill: #377eb8; stroke: #377eb8"/>
     <use xlink:href="#mc409a877a3" x="337.295455" y="567.604071" style="fill: #377eb8; stroke: #377eb8"/>
     <use xlink:href="#mc409a877a3" x="349.977273" y="564.675637" style="fill: #377eb8; stroke: #377eb8"/>
     <use xlink:href="#mc409a877a3" x="362.659091" y="561.509032" style="fill: #377eb8; stroke: #377eb8"/>
     <use xlink:href="#mc409a877a3" x="369" y="559.785775" style="fill: #377eb8; stroke: #377eb8"/>
     <use xlink:href="#mc409a877a3" x="375.340909" y="555.952145" style="fill: #377eb8; stroke: #377eb8"/>
     <use xlink:href="#mc409a877a3" x="388.022727" y="534.403846" style="fill: #377eb8; stroke: #377eb8"/>
     <use xlink:href="#mc409a877a3" x="400.704545" y="375.224053" style="fill: #377eb8; stroke: #377eb8"/>
     <use xlink:href="#mc409a877a3" x="413.386364" y="197.944272" style="fill: #377eb8; stroke: #377eb8"/>
     <use xlink:href="#mc409a877a3" x="426.068182" y="175.061487" style="fill: #377eb8; stroke: #377eb8"/>
     <use xlink:href="#mc409a877a3" x="438.75" y="163.078743" style="fill: #377eb8; stroke: #377eb8"/>
     <use xlink:href="#mc409a877a3" x="451.431818" y="154.880245" style="fill: #377eb8; stroke: #377eb8"/>
     <use xlink:href="#mc409a877a3" x="464.113636" y="148.597694" style="fill: #377eb8; stroke: #377eb8"/>
     <use xlink:href="#mc409a877a3" x="495.818182" y="136.382569" style="fill: #377eb8; stroke: #377eb8"/>
     <use xlink:href="#mc409a877a3" x="527.522727" y="127.79087" style="fill: #377eb8; stroke: #377eb8"/>
     <use xlink:href="#mc409a877a3" x="559.227273" y="121.097583" style="fill: #377eb8; stroke: #377eb8"/>
     <use xlink:href="#mc409a877a3" x="622.636364" y="111.907846" style="fill: #377eb8; stroke: #377eb8"/>
    </g>
   </g>
   <g id="line2d_17">
    <path d="M 115.363636 615.599999 
L 178.772727 602.509294 
L 242.181818 589.147506 
L 305.590909 574.91749 
L 324.613636 571.116179 
L 337.295455 568.213782 
L 349.977273 566.177491 
L 362.659091 563.123291 
L 375.340909 560.544807 
L 388.022727 558.476334 
L 400.704545 555.927246 
L 413.386364 553.339637 
L 426.068182 550.740131 
L 438.75 547.628561 
L 451.431818 153.610185 
L 464.113636 147.161073 
L 495.818182 135.680157 
L 527.522727 127.103682 
L 559.227273 120.903752 
L 622.636364 111.666373 
" clip-path="url(#pb1e344e9ec)" style="fill: none; stroke-dasharray: 1.5,2.475; stroke-dashoffset: 0; stroke: #4daf4a; stroke-width: 1.5"/>
    <defs>
     <path id="m9a477ac3fe" d="M 0 1 
C 0.265203 1 0.51958 0.894634 0.707107 0.707107 
C 0.894634 0.51958 1 0.265203 1 0 
C 1 -0.265203 0.894634 -0.51958 0.707107 -0.707107 
C 0.51958 -0.894634 0.265203 -1 0 -1 
C -0.265203 -1 -0.51958 -0.894634 -0.707107 -0.707107 
C -0.894634 -0.51958 -1 -0.265203 -1 0 
C -1 0.265203 -0.894634 0.51958 -0.707107 0.707107 
C -0.51958 0.894634 -0.265203 1 0 1 
z
" style="stroke: #4daf4a"/>
    </defs>
    <g clip-path="url(#pb1e344e9ec)">
     <use xlink:href="#m9a477ac3fe" x="115.363636" y="615.599999" style="fill: #4daf4a; stroke: #4daf4a"/>
     <use xlink:href="#m9a477ac3fe" x="178.772727" y="602.509294" style="fill: #4daf4a; stroke: #4daf4a"/>
     <use xlink:href="#m9a477ac3fe" x="242.181818" y="589.147506" style="fill: #4daf4a; stroke: #4daf4a"/>
     <use xlink:href="#m9a477ac3fe" x="305.590909" y="574.91749" style="fill: #4daf4a; stroke: #4daf4a"/>
     <use xlink:href="#m9a477ac3fe" x="324.613636" y="571.116179" style="fill: #4daf4a; stroke: #4daf4a"/>
     <use xlink:href="#m9a477ac3fe" x="337.295455" y="568.213782" style="fill: #4daf4a; stroke: #4daf4a"/>
     <use xlink:href="#m9a477ac3fe" x="349.977273" y="566.177491" style="fill: #4daf4a; stroke: #4daf4a"/>
     <use xlink:href="#m9a477ac3fe" x="362.659091" y="563.123291" style="fill: #4daf4a; stroke: #4daf4a"/>
     <use xlink:href="#m9a477ac3fe" x="375.340909" y="560.544807" style="fill: #4daf4a; stroke: #4daf4a"/>
     <use xlink:href="#m9a477ac3fe" x="388.022727" y="558.476334" style="fill: #4daf4a; stroke: #4daf4a"/>
     <use xlink:href="#m9a477ac3fe" x="400.704545" y="555.927246" style="fill: #4daf4a; stroke: #4daf4a"/>
     <use xlink:href="#m9a477ac3fe" x="413.386364" y="553.339637" style="fill: #4daf4a; stroke: #4daf4a"/>
     <use xlink:href="#m9a477ac3fe" x="426.068182" y="550.740131" style="fill: #4daf4a; stroke: #4daf4a"/>
     <use xlink:href="#m9a477ac3fe" x="438.75" y="547.628561" style="fill: #4daf4a; stroke: #4daf4a"/>
     <use xlink:href="#m9a477ac3fe" x="451.431818" y="153.610185" style="fill: #4daf4a; stroke: #4daf4a"/>
     <use xlink:href="#m9a477ac3fe" x="464.113636" y="147.161073" style="fill: #4daf4a; stroke: #4daf4a"/>
     <use xlink:href="#m9a477ac3fe" x="495.818182" y="135.680157" style="fill: #4daf4a; stroke: #4daf4a"/>
     <use xlink:href="#m9a477ac3fe" x="527.522727" y="127.103682" style="fill: #4daf4a; stroke: #4daf4a"/>
     <use xlink:href="#m9a477ac3fe" x="559.227273" y="120.903752" style="fill: #4daf4a; stroke: #4daf4a"/>
     <use xlink:href="#m9a477ac3fe" x="622.636364" y="111.666373" style="fill: #4daf4a; stroke: #4daf4a"/>
    </g>
   </g>
   <g id="patch_3">
    <path d="M 90 640.8 
L 90 86.4 
" style="fill: none; stroke: #000000; stroke-width: 0.8; stroke-linejoin: miter; stroke-linecap: square"/>
   </g>
   <g id="patch_4">
    <path d="M 648 640.8 
L 648 86.4 
" style="fill: none; stroke: #000000; stroke-width: 0.8; stroke-linejoin: miter; stroke-linecap: square"/>
   </g>
   <g id="patch_5">
    <path d="M 90 640.8 
L 648 640.8 
" style="fill: none; stroke: #000000; stroke-width: 0.8; stroke-linejoin: miter; stroke-linecap: square"/>
   </g>
   <g id="patch_6">
    <path d="M 90 86.4 
L 648 86.4 
" style="fill: none; stroke: #000000; stroke-width: 0.8; stroke-linejoin: miter; stroke-linecap: square"/>
   </g>
   <g id="legend_1">
    <g id="patch_7">
     <path d="M 98.4 149.50875 
L 212.65875 149.50875 
Q 215.05875 149.50875 215.05875 147.10875 
L 215.05875 94.8 
Q 215.05875 92.4 212.65875 92.4 
L 98.4 92.4 
Q 96 92.4 96 94.8 
L 96 147.10875 
Q 96 149.50875 98.4 149.50875 
z
" style="fill: #ffffff; opacity: 0.8; stroke: #cccccc; stroke-linejoin: miter"/>
    </g>
    <g id="LineCollection_4">
     <path d="M 112.8 108.118125 
L 112.8 96.118125 
" style="fill: none; stroke: #e41a1c; stroke-width: 1.5"/>
    </g>
    <g id="line2d_18">
     <path d="M 100.8 102.118125 
L 124.8 102.118125 
" style="fill: none; stroke: #e41a1c; stroke-width: 1.5; stroke-linecap: square"/>
    </g>
    <g id="line2d_19">
     <g>
      <use xlink:href="#m67aa726857" x="112.8" y="102.118125" style="fill: #e41a1c; stroke: #e41a1c"/>
     </g>
    </g>
    <g id="text_17">
     <text style="font: 12px 'DejaVu Sans', 'Bitstream Vera Sans', 'Computer Modern Sans Serif', 'Lucida Grande', 'Verdana', 'Geneva', 'Lucid', 'Arial', 'Helvetica', 'Avant Garde', sans-serif; text-anchor: start" x="134.4" y="106.318125" transform="rotate(-0 134.4 106.318125)">independent</text>
    </g>
    <g id="LineCollection_5">
     <path d="M 112.8 125.731875 
L 112.8 113.731875 
" style="fill: none; stroke: #377eb8; stroke-width: 1.5"/>
    </g>
    <g id="line2d_20">
     <path d="M 100.8 119.731875 
L 124.8 119.731875 
" style="fill: none; stroke-dasharray: 5.55,2.4; stroke-dashoffset: 0; stroke: #377eb8; stroke-width: 1.5"/>
    </g>
    <g id="line2d_21">
     <g>
      <use xlink:href="#mc409a877a3" x="112.8" y="119.731875" style="fill: #377eb8; stroke: #377eb8"/>
     </g>
    </g>
    <g id="text_18">
     <text style="font: 12px 'DejaVu Sans', 'Bitstream Vera Sans', 'Computer Modern Sans Serif', 'Lucida Grande', 'Verdana', 'Geneva', 'Lucid', 'Arial', 'Helvetica', 'Avant Garde', sans-serif; text-anchor: start" x="134.4" y="123.931875" transform="rotate(-0 134.4 123.931875)">right_left</text>
    </g>
    <g id="LineCollection_6">
     <path d="M 112.8 143.679375 
L 112.8 131.679375 
" style="fill: none; stroke: #4daf4a; stroke-width: 1.5"/>
    </g>
    <g id="line2d_22">
     <path d="M 100.8 137.679375 
L 124.8 137.679375 
" style="fill: none; stroke-dasharray: 1.5,2.475; stroke-dashoffset: 0; stroke: #4daf4a; stroke-width: 1.5"/>
    </g>
    <g id="line2d_23">
     <g>
      <use xlink:href="#m9a477ac3fe" x="112.8" y="137.679375" style="fill: #4daf4a; stroke: #4daf4a"/>
     </g>
    </g>
    <g id="text_19">
     <text style="font: 12px 'DejaVu Sans', 'Bitstream Vera Sans', 'Computer Modern Sans Serif', 'Lucida Grande', 'Verdana', 'Geneva', 'Lucid', 'Arial', 'Helvetica', 'Avant Garde', sans-serif; text-anchor: start" x="134.4" y="141.879375" transform="rotate(-0 134.4 141.879375)">left_right</text>
    </g>
   </g>
  </g>
 </g>
 <defs>
  <clipPath id="pb1e344e9ec">
   <rect x="90" y="86.4" width="558" height="554.4"/>
  </clipPath>
 </defs>
</svg>
