<?xml version="1.0" encoding="utf-8" standalone="no"?>
<!DOCTYPE svg PUBLIC "-//W3C//DTD SVG 1.1//EN"
  "http://www.w3.org/Graphics/SVG/1.1/DTD/svg11.dtd">
<svg xmlns:xlink="http://www.w3.org/1999/xlink" width="720pt" height="720pt" viewBox="0 0 720 720" xmlns="http://www.w3.org/2000/svg" version="1.1">
 <metadata>
  <rdf:RDF xmlns:dc="http://purl.org/dc/elements/1.1/" xmlns:cc="http://creativecommons.org/ns#" xmlns:rdf="http://www.w3.org/1999/02/22-rdf-syntax-ns#">
   <cc:Work>
    <dc:type rdf:resource="http://purl.org/dc/dcmitype/StillImage"/>
    <dc:date>2023-08-28T19:50:06.145437</dc:date>
    <dc:format>image/svg+xml</dc:format>
    <dc:creator>
     <cc:Agent>
      <dc:title>Matplotlib v3.7.1, https://matplotlib.org/</dc:title>
     </cc:Agent>
    </dc:creator>
   </cc:Work>
  </rdf:RDF>
 </metadata>
 <defs>
  <style type="text/css">*{stroke-linejoin: round; stroke-linecap: butt}</style>
 </defs>
 <g id="figure_1">
  <g id="patch_1">
   <path d="M 0 720 
L 720 720 
L 720 0 
L 0 0 
z
" style="fill: #ffffff"/>
  </g>
  <g id="axes_1">
   <g id="patch_2">
    <path d="M 90 640.8 
L 648 640.8 
L 648 86.4 
L 90 86.4 
z
" style="fill: #ffffff"/>
   </g>
   <g id="matplotlib.axis_1">
    <g id="xtick_1">
     <g id="line2d_1">
      <defs>
       <path id="mec07401499" d="M 0 0 
L 0 3.5 
" style="stroke: #000000; stroke-width: 0.8"/>
      </defs>
      <g>
       <use xlink:href="#mec07401499" x="151.597403" y="640.8" style="stroke: #000000; stroke-width: 0.8"/>
      </g>
     </g>
     <g id="text_1">
      <text style="font: 12px 'DejaVu Sans', 'Bitstream Vera Sans', 'Computer Modern Sans Serif', 'Lucida Grande', 'Verdana', 'Geneva', 'Lucid', 'Arial', 'Helvetica', 'Avant Garde', sans-serif; text-anchor: middle" x="151.597403" y="656.918125" transform="rotate(-0 151.597403 656.918125)">0.1</text>
     </g>
    </g>
    <g id="xtick_2">
     <g id="line2d_2">
      <g>
       <use xlink:href="#mec07401499" x="224.064935" y="640.8" style="stroke: #000000; stroke-width: 0.8"/>
      </g>
     </g>
     <g id="text_2">
      <text style="font: 12px 'DejaVu Sans', 'Bitstream Vera Sans', 'Computer Modern Sans Serif', 'Lucida Grande', 'Verdana', 'Geneva', 'Lucid', 'Arial', 'Helvetica', 'Avant Garde', sans-serif; text-anchor: middle" x="224.064935" y="656.918125" transform="rotate(-0 224.064935 656.918125)">0.2</text>
     </g>
    </g>
    <g id="xtick_3">
     <g id="line2d_3">
      <g>
       <use xlink:href="#mec07401499" x="296.532468" y="640.8" style="stroke: #000000; stroke-width: 0.8"/>
      </g>
     </g>
     <g id="text_3">
      <text style="font: 12px 'DejaVu Sans', 'Bitstream Vera Sans', 'Computer Modern Sans Serif', 'Lucida Grande', 'Verdana', 'Geneva', 'Lucid', 'Arial', 'Helvetica', 'Avant Garde', sans-serif; text-anchor: middle" x="296.532468" y="656.918125" transform="rotate(-0 296.532468 656.918125)">0.3</text>
     </g>
    </g>
    <g id="xtick_4">
     <g id="line2d_4">
      <g>
       <use xlink:href="#mec07401499" x="369" y="640.8" style="stroke: #000000; stroke-width: 0.8"/>
      </g>
     </g>
     <g id="text_4">
      <text style="font: 12px 'DejaVu Sans', 'Bitstream Vera Sans', 'Computer Modern Sans Serif', 'Lucida Grande', 'Verdana', 'Geneva', 'Lucid', 'Arial', 'Helvetica', 'Avant Garde', sans-serif; text-anchor: middle" x="369" y="656.918125" transform="rotate(-0 369 656.918125)">0.4</text>
     </g>
    </g>
    <g id="xtick_5">
     <g id="line2d_5">
      <g>
       <use xlink:href="#mec07401499" x="441.467532" y="640.8" style="stroke: #000000; stroke-width: 0.8"/>
      </g>
     </g>
     <g id="text_5">
      <text style="font: 12px 'DejaVu Sans', 'Bitstream Vera Sans', 'Computer Modern Sans Serif', 'Lucida Grande', 'Verdana', 'Geneva', 'Lucid', 'Arial', 'Helvetica', 'Avant Garde', sans-serif; text-anchor: middle" x="441.467532" y="656.918125" transform="rotate(-0 441.467532 656.918125)">0.5</text>
     </g>
    </g>
    <g id="xtick_6">
     <g id="line2d_6">
      <g>
       <use xlink:href="#mec07401499" x="513.935065" y="640.8" style="stroke: #000000; stroke-width: 0.8"/>
      </g>
     </g>
     <g id="text_6">
      <text style="font: 12px 'DejaVu Sans', 'Bitstream Vera Sans', 'Computer Modern Sans Serif', 'Lucida Grande', 'Verdana', 'Geneva', 'Lucid', 'Arial', 'Helvetica', 'Avant Garde', sans-serif; text-anchor: middle" x="513.935065" y="656.918125" transform="rotate(-0 513.935065 656.918125)">0.6</text>
     </g>
    </g>
    <g id="xtick_7">
     <g id="line2d_7">
      <g>
       <use xlink:href="#mec07401499" x="586.402597" y="640.8" style="stroke: #000000; stroke-width: 0.8"/>
      </g>
     </g>
     <g id="text_7">
      <text style="font: 12px 'DejaVu Sans', 'Bitstream Vera Sans', 'Computer Modern Sans Serif', 'Lucida Grande', 'Verdana', 'Geneva', 'Lucid', 'Arial', 'Helvetica', 'Avant Garde', sans-serif; text-anchor: middle" x="586.402597" y="656.918125" transform="rotate(-0 586.402597 656.918125)">0.7</text>
     </g>
    </g>
    <g id="text_8">
     <text style="font: 12px 'DejaVu Sans', 'Bitstream Vera Sans', 'Computer Modern Sans Serif', 'Lucida Grande', 'Verdana', 'Geneva', 'Lucid', 'Arial', 'Helvetica', 'Avant Garde', sans-serif; text-anchor: middle" x="369" y="672.531875" transform="rotate(-0 369 672.531875)">Field strength in $ x $-direction $ h_x $ </text>
    </g>
   </g>
   <g id="matplotlib.axis_2">
    <g id="ytick_1">
     <g id="line2d_8">
      <defs>
       <path id="m42de3bc09d" d="M 0 0 
L -3.5 0 
" style="stroke: #000000; stroke-width: 0.8"/>
      </defs>
      <g>
       <use xlink:href="#m42de3bc09d" x="90" y="617.942764" style="stroke: #000000; stroke-width: 0.8"/>
      </g>
     </g>
     <g id="text_9">
      <text style="font: 12px 'DejaVu Sans', 'Bitstream Vera Sans', 'Computer Modern Sans Serif', 'Lucida Grande', 'Verdana', 'Geneva', 'Lucid', 'Arial', 'Helvetica', 'Avant Garde', sans-serif; text-anchor: end" x="83" y="622.501827" transform="rotate(-0 83 622.501827)">0</text>
     </g>
    </g>
    <g id="ytick_2">
     <g id="line2d_9">
      <g>
       <use xlink:href="#m42de3bc09d" x="90" y="549.672394" style="stroke: #000000; stroke-width: 0.8"/>
      </g>
     </g>
     <g id="text_10">
      <text style="font: 12px 'DejaVu Sans', 'Bitstream Vera Sans', 'Computer Modern Sans Serif', 'Lucida Grande', 'Verdana', 'Geneva', 'Lucid', 'Arial', 'Helvetica', 'Avant Garde', sans-serif; text-anchor: end" x="83" y="554.231456" transform="rotate(-0 83 554.231456)">5</text>
     </g>
    </g>
    <g id="ytick_3">
     <g id="line2d_10">
      <g>
       <use xlink:href="#m42de3bc09d" x="90" y="481.402023" style="stroke: #000000; stroke-width: 0.8"/>
      </g>
     </g>
     <g id="text_11">
      <text style="font: 12px 'DejaVu Sans', 'Bitstream Vera Sans', 'Computer Modern Sans Serif', 'Lucida Grande', 'Verdana', 'Geneva', 'Lucid', 'Arial', 'Helvetica', 'Avant Garde', sans-serif; text-anchor: end" x="83" y="485.961086" transform="rotate(-0 83 485.961086)">10</text>
     </g>
    </g>
    <g id="ytick_4">
     <g id="line2d_11">
      <g>
       <use xlink:href="#m42de3bc09d" x="90" y="413.131653" style="stroke: #000000; stroke-width: 0.8"/>
      </g>
     </g>
     <g id="text_12">
      <text style="font: 12px 'DejaVu Sans', 'Bitstream Vera Sans', 'Computer Modern Sans Serif', 'Lucida Grande', 'Verdana', 'Geneva', 'Lucid', 'Arial', 'Helvetica', 'Avant Garde', sans-serif; text-anchor: end" x="83" y="417.690715" transform="rotate(-0 83 417.690715)">15</text>
     </g>
    </g>
    <g id="ytick_5">
     <g id="line2d_12">
      <g>
       <use xlink:href="#m42de3bc09d" x="90" y="344.861282" style="stroke: #000000; stroke-width: 0.8"/>
      </g>
     </g>
     <g id="text_13">
      <text style="font: 12px 'DejaVu Sans', 'Bitstream Vera Sans', 'Computer Modern Sans Serif', 'Lucida Grande', 'Verdana', 'Geneva', 'Lucid', 'Arial', 'Helvetica', 'Avant Garde', sans-serif; text-anchor: end" x="83" y="349.420345" transform="rotate(-0 83 349.420345)">20</text>
     </g>
    </g>
    <g id="ytick_6">
     <g id="line2d_13">
      <g>
       <use xlink:href="#m42de3bc09d" x="90" y="276.590912" style="stroke: #000000; stroke-width: 0.8"/>
      </g>
     </g>
     <g id="text_14">
      <text style="font: 12px 'DejaVu Sans', 'Bitstream Vera Sans', 'Computer Modern Sans Serif', 'Lucida Grande', 'Verdana', 'Geneva', 'Lucid', 'Arial', 'Helvetica', 'Avant Garde', sans-serif; text-anchor: end" x="83" y="281.149974" transform="rotate(-0 83 281.149974)">25</text>
     </g>
    </g>
    <g id="ytick_7">
     <g id="line2d_14">
      <g>
       <use xlink:href="#m42de3bc09d" x="90" y="208.320542" style="stroke: #000000; stroke-width: 0.8"/>
      </g>
     </g>
     <g id="text_15">
      <text style="font: 12px 'DejaVu Sans', 'Bitstream Vera Sans', 'Computer Modern Sans Serif', 'Lucida Grande', 'Verdana', 'Geneva', 'Lucid', 'Arial', 'Helvetica', 'Avant Garde', sans-serif; text-anchor: end" x="83" y="212.879604" transform="rotate(-0 83 212.879604)">30</text>
     </g>
    </g>
    <g id="ytick_8">
     <g id="line2d_15">
      <g>
       <use xlink:href="#m42de3bc09d" x="90" y="140.050171" style="stroke: #000000; stroke-width: 0.8"/>
      </g>
     </g>
     <g id="text_16">
      <text style="font: 12px 'DejaVu Sans', 'Bitstream Vera Sans', 'Computer Modern Sans Serif', 'Lucida Grande', 'Verdana', 'Geneva', 'Lucid', 'Arial', 'Helvetica', 'Avant Garde', sans-serif; text-anchor: end" x="83" y="144.609234" transform="rotate(-0 83 144.609234)">35</text>
     </g>
    </g>
    <g id="text_17">
     <text style="font: 12px 'DejaVu Sans', 'Bitstream Vera Sans', 'Computer Modern Sans Serif', 'Lucida Grande', 'Verdana', 'Geneva', 'Lucid', 'Arial', 'Helvetica', 'Avant Garde', sans-serif; text-anchor: middle" x="61.234375" y="363.6" transform="rotate(-90 61.234375 363.6)">Susceptibility $ \xi $ </text>
    </g>
   </g>
   <g id="line2d_16">
    <path d="M 115.363636 614.590133 
L 187.831169 614.561564 
L 260.298701 614.30955 
L 307.402597 614.079384 
L 325.519481 613.827171 
L 340.012987 614.224386 
L 354.506494 613.48601 
L 369 610.90201 
L 383.493506 589.320998 
L 397.987013 410.366868 
L 412.480519 394.94308 
L 426.974026 588.791948 
L 441.467532 601.863405 
L 455.961039 607.281882 
L 470.454545 609.754807 
L 495.818182 611.702909 
L 532.051948 613.530414 
L 568.285714 614.512472 
L 622.636364 615.6 
" clip-path="url(#pc6c665f7bc)" style="fill: none; stroke: #e41a1c; stroke-width: 1.5; stroke-linecap: square"/>
    <defs>
     <path id="m11c5eb93d8" d="M 0 1 
C 0.265203 1 0.51958 0.894634 0.707107 0.707107 
C 0.894634 0.51958 1 0.265203 1 0 
C 1 -0.265203 0.894634 -0.51958 0.707107 -0.707107 
C 0.51958 -0.894634 0.265203 -1 0 -1 
C -0.265203 -1 -0.51958 -0.894634 -0.707107 -0.707107 
C -0.894634 -0.51958 -1 -0.265203 -1 0 
C -1 0.265203 -0.894634 0.51958 -0.707107 0.707107 
C -0.51958 0.894634 -0.265203 1 0 1 
z
" style="stroke: #e41a1c"/>
    </defs>
    <g clip-path="url(#pc6c665f7bc)">
     <use xlink:href="#m11c5eb93d8" x="115.363636" y="614.590133" style="fill: #e41a1c; stroke: #e41a1c"/>
     <use xlink:href="#m11c5eb93d8" x="187.831169" y="614.561564" style="fill: #e41a1c; stroke: #e41a1c"/>
     <use xlink:href="#m11c5eb93d8" x="260.298701" y="614.30955" style="fill: #e41a1c; stroke: #e41a1c"/>
     <use xlink:href="#m11c5eb93d8" x="307.402597" y="614.079384" style="fill: #e41a1c; stroke: #e41a1c"/>
     <use xlink:href="#m11c5eb93d8" x="325.519481" y="613.827171" style="fill: #e41a1c; stroke: #e41a1c"/>
     <use xlink:href="#m11c5eb93d8" x="340.012987" y="614.224386" style="fill: #e41a1c; stroke: #e41a1c"/>
     <use xlink:href="#m11c5eb93d8" x="354.506494" y="613.48601" style="fill: #e41a1c; stroke: #e41a1c"/>
     <use xlink:href="#m11c5eb93d8" x="369" y="610.90201" style="fill: #e41a1c; stroke: #e41a1c"/>
     <use xlink:href="#m11c5eb93d8" x="383.493506" y="589.320998" style="fill: #e41a1c; stroke: #e41a1c"/>
     <use xlink:href="#m11c5eb93d8" x="397.987013" y="410.366868" style="fill: #e41a1c; stroke: #e41a1c"/>
     <use xlink:href="#m11c5eb93d8" x="412.480519" y="394.94308" style="fill: #e41a1c; stroke: #e41a1c"/>
     <use xlink:href="#m11c5eb93d8" x="426.974026" y="588.791948" style="fill: #e41a1c; stroke: #e41a1c"/>
     <use xlink:href="#m11c5eb93d8" x="441.467532" y="601.863405" style="fill: #e41a1c; stroke: #e41a1c"/>
     <use xlink:href="#m11c5eb93d8" x="455.961039" y="607.281882" style="fill: #e41a1c; stroke: #e41a1c"/>
     <use xlink:href="#m11c5eb93d8" x="470.454545" y="609.754807" style="fill: #e41a1c; stroke: #e41a1c"/>
     <use xlink:href="#m11c5eb93d8" x="495.818182" y="611.702909" style="fill: #e41a1c; stroke: #e41a1c"/>
     <use xlink:href="#m11c5eb93d8" x="532.051948" y="613.530414" style="fill: #e41a1c; stroke: #e41a1c"/>
     <use xlink:href="#m11c5eb93d8" x="568.285714" y="614.512472" style="fill: #e41a1c; stroke: #e41a1c"/>
     <use xlink:href="#m11c5eb93d8" x="622.636364" y="615.6" style="fill: #e41a1c; stroke: #e41a1c"/>
    </g>
   </g>
   <g id="line2d_17">
    <path d="M 115.363636 614.63519 
L 187.831169 614.448288 
L 260.298701 614.198187 
L 307.402597 614.376805 
L 325.519481 614.357036 
L 340.012987 614.17951 
L 354.506494 613.873442 
L 365.376623 613.51374 
L 372.623377 608.089768 
L 383.493506 590.251605 
L 397.987013 413.384954 
L 412.480519 390.12513 
L 426.974026 588.536692 
L 441.467532 602.544052 
L 455.961039 607.407088 
L 470.454545 609.869221 
L 495.818182 611.663829 
L 532.051948 613.526377 
L 568.285714 614.502216 
L 622.636364 615.580866 
" clip-path="url(#pc6c665f7bc)" style="fill: none; stroke-dasharray: 5.55,2.4; stroke-dashoffset: 0; stroke: #377eb8; stroke-width: 1.5"/>
    <defs>
     <path id="m1127c5a8b1" d="M 0 1 
C 0.265203 1 0.51958 0.894634 0.707107 0.707107 
C 0.894634 0.51958 1 0.265203 1 0 
C 1 -0.265203 0.894634 -0.51958 0.707107 -0.707107 
C 0.51958 -0.894634 0.265203 -1 0 -1 
C -0.265203 -1 -0.51958 -0.894634 -0.707107 -0.707107 
C -0.894634 -0.51958 -1 -0.265203 -1 0 
C -1 0.265203 -0.894634 0.51958 -0.707107 0.707107 
C -0.51958 0.894634 -0.265203 1 0 1 
z
" style="stroke: #377eb8"/>
    </defs>
    <g clip-path="url(#pc6c665f7bc)">
     <use xlink:href="#m1127c5a8b1" x="115.363636" y="614.63519" style="fill: #377eb8; stroke: #377eb8"/>
     <use xlink:href="#m1127c5a8b1" x="187.831169" y="614.448288" style="fill: #377eb8; stroke: #377eb8"/>
     <use xlink:href="#m1127c5a8b1" x="260.298701" y="614.198187" style="fill: #377eb8; stroke: #377eb8"/>
     <use xlink:href="#m1127c5a8b1" x="307.402597" y="614.376805" style="fill: #377eb8; stroke: #377eb8"/>
     <use xlink:href="#m1127c5a8b1" x="325.519481" y="614.357036" style="fill: #377eb8; stroke: #377eb8"/>
     <use xlink:href="#m1127c5a8b1" x="340.012987" y="614.17951" style="fill: #377eb8; stroke: #377eb8"/>
     <use xlink:href="#m1127c5a8b1" x="354.506494" y="613.873442" style="fill: #377eb8; stroke: #377eb8"/>
     <use xlink:href="#m1127c5a8b1" x="365.376623" y="613.51374" style="fill: #377eb8; stroke: #377eb8"/>
     <use xlink:href="#m1127c5a8b1" x="372.623377" y="608.089768" style="fill: #377eb8; stroke: #377eb8"/>
     <use xlink:href="#m1127c5a8b1" x="383.493506" y="590.251605" style="fill: #377eb8; stroke: #377eb8"/>
     <use xlink:href="#m1127c5a8b1" x="397.987013" y="413.384954" style="fill: #377eb8; stroke: #377eb8"/>
     <use xlink:href="#m1127c5a8b1" x="412.480519" y="390.12513" style="fill: #377eb8; stroke: #377eb8"/>
     <use xlink:href="#m1127c5a8b1" x="426.974026" y="588.536692" style="fill: #377eb8; stroke: #377eb8"/>
     <use xlink:href="#m1127c5a8b1" x="441.467532" y="602.544052" style="fill: #377eb8; stroke: #377eb8"/>
     <use xlink:href="#m1127c5a8b1" x="455.961039" y="607.407088" style="fill: #377eb8; stroke: #377eb8"/>
     <use xlink:href="#m1127c5a8b1" x="470.454545" y="609.869221" style="fill: #377eb8; stroke: #377eb8"/>
     <use xlink:href="#m1127c5a8b1" x="495.818182" y="611.663829" style="fill: #377eb8; stroke: #377eb8"/>
     <use xlink:href="#m1127c5a8b1" x="532.051948" y="613.526377" style="fill: #377eb8; stroke: #377eb8"/>
     <use xlink:href="#m1127c5a8b1" x="568.285714" y="614.502216" style="fill: #377eb8; stroke: #377eb8"/>
     <use xlink:href="#m1127c5a8b1" x="622.636364" y="615.580866" style="fill: #377eb8; stroke: #377eb8"/>
    </g>
   </g>
   <g id="line2d_18">
    <path d="M 115.363636 614.578259 
L 187.831169 614.508587 
L 260.298701 614.28544 
L 307.402597 614.68612 
L 325.519481 614.21297 
L 340.012987 615.32598 
L 354.506494 614.017891 
L 369 614.629222 
L 383.493506 615.284624 
L 397.987013 614.666997 
L 412.480519 614.617495 
L 426.974026 614.602206 
L 441.467532 613.944167 
L 455.961039 111.6 
L 470.454545 609.655179 
L 495.818182 612.041233 
L 532.051948 613.534203 
L 568.285714 614.755817 
L 622.636364 615.568621 
" clip-path="url(#pc6c665f7bc)" style="fill: none; stroke-dasharray: 1.5,2.475; stroke-dashoffset: 0; stroke: #4daf4a; stroke-width: 1.5"/>
    <defs>
     <path id="me5c203e89c" d="M 0 1 
C 0.265203 1 0.51958 0.894634 0.707107 0.707107 
C 0.894634 0.51958 1 0.265203 1 0 
C 1 -0.265203 0.894634 -0.51958 0.707107 -0.707107 
C 0.51958 -0.894634 0.265203 -1 0 -1 
C -0.265203 -1 -0.51958 -0.894634 -0.707107 -0.707107 
C -0.894634 -0.51958 -1 -0.265203 -1 0 
C -1 0.265203 -0.894634 0.51958 -0.707107 0.707107 
C -0.51958 0.894634 -0.265203 1 0 1 
z
" style="stroke: #4daf4a"/>
    </defs>
    <g clip-path="url(#pc6c665f7bc)">
     <use xlink:href="#me5c203e89c" x="115.363636" y="614.578259" style="fill: #4daf4a; stroke: #4daf4a"/>
     <use xlink:href="#me5c203e89c" x="187.831169" y="614.508587" style="fill: #4daf4a; stroke: #4daf4a"/>
     <use xlink:href="#me5c203e89c" x="260.298701" y="614.28544" style="fill: #4daf4a; stroke: #4daf4a"/>
     <use xlink:href="#me5c203e89c" x="307.402597" y="614.68612" style="fill: #4daf4a; stroke: #4daf4a"/>
     <use xlink:href="#me5c203e89c" x="325.519481" y="614.21297" style="fill: #4daf4a; stroke: #4daf4a"/>
     <use xlink:href="#me5c203e89c" x="340.012987" y="615.32598" style="fill: #4daf4a; stroke: #4daf4a"/>
     <use xlink:href="#me5c203e89c" x="354.506494" y="614.017891" style="fill: #4daf4a; stroke: #4daf4a"/>
     <use xlink:href="#me5c203e89c" x="369" y="614.629222" style="fill: #4daf4a; stroke: #4daf4a"/>
     <use xlink:href="#me5c203e89c" x="383.493506" y="615.284624" style="fill: #4daf4a; stroke: #4daf4a"/>
     <use xlink:href="#me5c203e89c" x="397.987013" y="614.666997" style="fill: #4daf4a; stroke: #4daf4a"/>
     <use xlink:href="#me5c203e89c" x="412.480519" y="614.617495" style="fill: #4daf4a; stroke: #4daf4a"/>
     <use xlink:href="#me5c203e89c" x="426.974026" y="614.602206" style="fill: #4daf4a; stroke: #4daf4a"/>
     <use xlink:href="#me5c203e89c" x="441.467532" y="613.944167" style="fill: #4daf4a; stroke: #4daf4a"/>
     <use xlink:href="#me5c203e89c" x="455.961039" y="111.6" style="fill: #4daf4a; stroke: #4daf4a"/>
     <use xlink:href="#me5c203e89c" x="470.454545" y="609.655179" style="fill: #4daf4a; stroke: #4daf4a"/>
     <use xlink:href="#me5c203e89c" x="495.818182" y="612.041233" style="fill: #4daf4a; stroke: #4daf4a"/>
     <use xlink:href="#me5c203e89c" x="532.051948" y="613.534203" style="fill: #4daf4a; stroke: #4daf4a"/>
     <use xlink:href="#me5c203e89c" x="568.285714" y="614.755817" style="fill: #4daf4a; stroke: #4daf4a"/>
     <use xlink:href="#me5c203e89c" x="622.636364" y="615.568621" style="fill: #4daf4a; stroke: #4daf4a"/>
    </g>
   </g>
   <g id="patch_3">
    <path d="M 90 640.8 
L 90 86.4 
" style="fill: none; stroke: #000000; stroke-width: 0.8; stroke-linejoin: miter; stroke-linecap: square"/>
   </g>
   <g id="patch_4">
    <path d="M 648 640.8 
L 648 86.4 
" style="fill: none; stroke: #000000; stroke-width: 0.8; stroke-linejoin: miter; stroke-linecap: square"/>
   </g>
   <g id="patch_5">
    <path d="M 90 640.8 
L 648 640.8 
" style="fill: none; stroke: #000000; stroke-width: 0.8; stroke-linejoin: miter; stroke-linecap: square"/>
   </g>
   <g id="patch_6">
    <path d="M 90 86.4 
L 648 86.4 
" style="fill: none; stroke: #000000; stroke-width: 0.8; stroke-linejoin: miter; stroke-linecap: square"/>
   </g>
   <g id="legend_1">
    <g id="patch_7">
     <path d="M 525.34125 149.50875 
L 639.6 149.50875 
Q 642 149.50875 642 147.10875 
L 642 94.8 
Q 642 92.4 639.6 92.4 
L 525.34125 92.4 
Q 522.94125 92.4 522.94125 94.8 
L 522.94125 147.10875 
Q 522.94125 149.50875 525.34125 149.50875 
z
" style="fill: #ffffff; opacity: 0.8; stroke: #cccccc; stroke-linejoin: miter"/>
    </g>
    <g id="line2d_19">
     <path d="M 527.74125 102.118125 
L 539.74125 102.118125 
L 551.74125 102.118125 
" style="fill: none; stroke: #e41a1c; stroke-width: 1.5; stroke-linecap: square"/>
     <g>
      <use xlink:href="#m11c5eb93d8" x="539.74125" y="102.118125" style="fill: #e41a1c; stroke: #e41a1c"/>
     </g>
    </g>
    <g id="text_18">
     <text style="font: 12px 'DejaVu Sans', 'Bitstream Vera Sans', 'Computer Modern Sans Serif', 'Lucida Grande', 'Verdana', 'Geneva', 'Lucid', 'Arial', 'Helvetica', 'Avant Garde', sans-serif; text-anchor: start" x="561.34125" y="106.318125" transform="rotate(-0 561.34125 106.318125)">independent</text>
    </g>
    <g id="line2d_20">
     <path d="M 527.74125 119.731875 
L 539.74125 119.731875 
L 551.74125 119.731875 
" style="fill: none; stroke-dasharray: 5.55,2.4; stroke-dashoffset: 0; stroke: #377eb8; stroke-width: 1.5"/>
     <g>
      <use xlink:href="#m1127c5a8b1" x="539.74125" y="119.731875" style="fill: #377eb8; stroke: #377eb8"/>
     </g>
    </g>
    <g id="text_19">
     <text style="font: 12px 'DejaVu Sans', 'Bitstream Vera Sans', 'Computer Modern Sans Serif', 'Lucida Grande', 'Verdana', 'Geneva', 'Lucid', 'Arial', 'Helvetica', 'Avant Garde', sans-serif; text-anchor: start" x="561.34125" y="123.931875" transform="rotate(-0 561.34125 123.931875)">right_left</text>
    </g>
    <g id="line2d_21">
     <path d="M 527.74125 137.679375 
L 539.74125 137.679375 
L 551.74125 137.679375 
" style="fill: none; stroke-dasharray: 1.5,2.475; stroke-dashoffset: 0; stroke: #4daf4a; stroke-width: 1.5"/>
     <g>
      <use xlink:href="#me5c203e89c" x="539.74125" y="137.679375" style="fill: #4daf4a; stroke: #4daf4a"/>
     </g>
    </g>
    <g id="text_20">
     <text style="font: 12px 'DejaVu Sans', 'Bitstream Vera Sans', 'Computer Modern Sans Serif', 'Lucida Grande', 'Verdana', 'Geneva', 'Lucid', 'Arial', 'Helvetica', 'Avant Garde', sans-serif; text-anchor: start" x="561.34125" y="141.879375" transform="rotate(-0 561.34125 141.879375)">left_right</text>
    </g>
   </g>
  </g>
 </g>
 <defs>
  <clipPath id="pc6c665f7bc">
   <rect x="90" y="86.4" width="558" height="554.4"/>
  </clipPath>
 </defs>
</svg>
