<?xml version="1.0" encoding="utf-8" standalone="no"?>
<!DOCTYPE svg PUBLIC "-//W3C//DTD SVG 1.1//EN"
  "http://www.w3.org/Graphics/SVG/1.1/DTD/svg11.dtd">
<svg xmlns:xlink="http://www.w3.org/1999/xlink" width="720pt" height="720pt" viewBox="0 0 720 720" xmlns="http://www.w3.org/2000/svg" version="1.1">
 <metadata>
  <rdf:RDF xmlns:dc="http://purl.org/dc/elements/1.1/" xmlns:cc="http://creativecommons.org/ns#" xmlns:rdf="http://www.w3.org/1999/02/22-rdf-syntax-ns#">
   <cc:Work>
    <dc:type rdf:resource="http://purl.org/dc/dcmitype/StillImage"/>
    <dc:date>2023-09-17T22:05:15.347917</dc:date>
    <dc:format>image/svg+xml</dc:format>
    <dc:creator>
     <cc:Agent>
      <dc:title>Matplotlib v3.7.1, https://matplotlib.org/</dc:title>
     </cc:Agent>
    </dc:creator>
   </cc:Work>
  </rdf:RDF>
 </metadata>
 <defs>
  <style type="text/css">*{stroke-linejoin: round; stroke-linecap: butt}</style>
 </defs>
 <g id="figure_1">
  <g id="patch_1">
   <path d="M 0 720 
L 720 720 
L 720 0 
L 0 0 
z
" style="fill: #ffffff"/>
  </g>
  <g id="axes_1">
   <g id="patch_2">
    <path d="M 90 640.8 
L 648 640.8 
L 648 86.4 
L 90 86.4 
z
" style="fill: #ffffff"/>
   </g>
   <g id="matplotlib.axis_1">
    <g id="xtick_1">
     <g id="line2d_1">
      <defs>
       <path id="mf7c740aabd" d="M 0 0 
L 0 3.5 
" style="stroke: #000000; stroke-width: 0.8"/>
      </defs>
      <g>
       <use xlink:href="#mf7c740aabd" x="115.363636" y="640.8" style="stroke: #000000; stroke-width: 0.8"/>
      </g>
     </g>
     <g id="text_1">
      <text style="font: 24px 'DejaVu Sans', 'Bitstream Vera Sans', 'Computer Modern Sans Serif', 'Lucida Grande', 'Verdana', 'Geneva', 'Lucid', 'Arial', 'Helvetica', 'Avant Garde', sans-serif; text-anchor: middle" x="115.363636" y="666.03625" transform="rotate(-0 115.363636 666.03625)">0.0</text>
     </g>
    </g>
    <g id="xtick_2">
     <g id="line2d_2">
      <g>
       <use xlink:href="#mf7c740aabd" x="228.090909" y="640.8" style="stroke: #000000; stroke-width: 0.8"/>
      </g>
     </g>
     <g id="text_2">
      <text style="font: 24px 'DejaVu Sans', 'Bitstream Vera Sans', 'Computer Modern Sans Serif', 'Lucida Grande', 'Verdana', 'Geneva', 'Lucid', 'Arial', 'Helvetica', 'Avant Garde', sans-serif; text-anchor: middle" x="228.090909" y="666.03625" transform="rotate(-0 228.090909 666.03625)">0.2</text>
     </g>
    </g>
    <g id="xtick_3">
     <g id="line2d_3">
      <g>
       <use xlink:href="#mf7c740aabd" x="340.818182" y="640.8" style="stroke: #000000; stroke-width: 0.8"/>
      </g>
     </g>
     <g id="text_3">
      <text style="font: 24px 'DejaVu Sans', 'Bitstream Vera Sans', 'Computer Modern Sans Serif', 'Lucida Grande', 'Verdana', 'Geneva', 'Lucid', 'Arial', 'Helvetica', 'Avant Garde', sans-serif; text-anchor: middle" x="340.818182" y="666.03625" transform="rotate(-0 340.818182 666.03625)">0.4</text>
     </g>
    </g>
    <g id="xtick_4">
     <g id="line2d_4">
      <g>
       <use xlink:href="#mf7c740aabd" x="453.545455" y="640.8" style="stroke: #000000; stroke-width: 0.8"/>
      </g>
     </g>
     <g id="text_4">
      <text style="font: 24px 'DejaVu Sans', 'Bitstream Vera Sans', 'Computer Modern Sans Serif', 'Lucida Grande', 'Verdana', 'Geneva', 'Lucid', 'Arial', 'Helvetica', 'Avant Garde', sans-serif; text-anchor: middle" x="453.545455" y="666.03625" transform="rotate(-0 453.545455 666.03625)">0.6</text>
     </g>
    </g>
    <g id="xtick_5">
     <g id="line2d_5">
      <g>
       <use xlink:href="#mf7c740aabd" x="566.272727" y="640.8" style="stroke: #000000; stroke-width: 0.8"/>
      </g>
     </g>
     <g id="text_5">
      <text style="font: 24px 'DejaVu Sans', 'Bitstream Vera Sans', 'Computer Modern Sans Serif', 'Lucida Grande', 'Verdana', 'Geneva', 'Lucid', 'Arial', 'Helvetica', 'Avant Garde', sans-serif; text-anchor: middle" x="566.272727" y="666.03625" transform="rotate(-0 566.272727 666.03625)">0.8</text>
     </g>
    </g>
    <g id="text_6">
     <text style="font: 24px 'DejaVu Sans', 'Bitstream Vera Sans', 'Computer Modern Sans Serif', 'Lucida Grande', 'Verdana', 'Geneva', 'Lucid', 'Arial', 'Helvetica', 'Avant Garde', sans-serif; text-anchor: middle" x="369" y="693.26375" transform="rotate(-0 369 693.26375)">Field strength in $ x $-direction $ h_x $ </text>
    </g>
   </g>
   <g id="matplotlib.axis_2">
    <g id="ytick_1">
     <g id="line2d_6">
      <defs>
       <path id="m9ae30096f7" d="M 0 0 
L -3.5 0 
" style="stroke: #000000; stroke-width: 0.8"/>
      </defs>
      <g>
       <use xlink:href="#m9ae30096f7" x="90" y="578.547324" style="stroke: #000000; stroke-width: 0.8"/>
      </g>
     </g>
     <g id="text_7">
      <text style="font: 24px 'DejaVu Sans', 'Bitstream Vera Sans', 'Computer Modern Sans Serif', 'Lucida Grande', 'Verdana', 'Geneva', 'Lucid', 'Arial', 'Helvetica', 'Avant Garde', sans-serif; text-anchor: end" x="83" y="587.665449" transform="rotate(-0 83 587.665449)">−1.4</text>
     </g>
    </g>
    <g id="ytick_2">
     <g id="line2d_7">
      <g>
       <use xlink:href="#m9ae30096f7" x="90" y="473.418825" style="stroke: #000000; stroke-width: 0.8"/>
      </g>
     </g>
     <g id="text_8">
      <text style="font: 24px 'DejaVu Sans', 'Bitstream Vera Sans', 'Computer Modern Sans Serif', 'Lucida Grande', 'Verdana', 'Geneva', 'Lucid', 'Arial', 'Helvetica', 'Avant Garde', sans-serif; text-anchor: end" x="83" y="482.53695" transform="rotate(-0 83 482.53695)">−1.3</text>
     </g>
    </g>
    <g id="ytick_3">
     <g id="line2d_8">
      <g>
       <use xlink:href="#m9ae30096f7" x="90" y="368.290326" style="stroke: #000000; stroke-width: 0.8"/>
      </g>
     </g>
     <g id="text_9">
      <text style="font: 24px 'DejaVu Sans', 'Bitstream Vera Sans', 'Computer Modern Sans Serif', 'Lucida Grande', 'Verdana', 'Geneva', 'Lucid', 'Arial', 'Helvetica', 'Avant Garde', sans-serif; text-anchor: end" x="83" y="377.408451" transform="rotate(-0 83 377.408451)">−1.2</text>
     </g>
    </g>
    <g id="ytick_4">
     <g id="line2d_9">
      <g>
       <use xlink:href="#m9ae30096f7" x="90" y="263.161828" style="stroke: #000000; stroke-width: 0.8"/>
      </g>
     </g>
     <g id="text_10">
      <text style="font: 24px 'DejaVu Sans', 'Bitstream Vera Sans', 'Computer Modern Sans Serif', 'Lucida Grande', 'Verdana', 'Geneva', 'Lucid', 'Arial', 'Helvetica', 'Avant Garde', sans-serif; text-anchor: end" x="83" y="272.279953" transform="rotate(-0 83 272.279953)">−1.1</text>
     </g>
    </g>
    <g id="ytick_5">
     <g id="line2d_10">
      <g>
       <use xlink:href="#m9ae30096f7" x="90" y="158.033329" style="stroke: #000000; stroke-width: 0.8"/>
      </g>
     </g>
     <g id="text_11">
      <text style="font: 24px 'DejaVu Sans', 'Bitstream Vera Sans', 'Computer Modern Sans Serif', 'Lucida Grande', 'Verdana', 'Geneva', 'Lucid', 'Arial', 'Helvetica', 'Avant Garde', sans-serif; text-anchor: end" x="83" y="167.151454" transform="rotate(-0 83 167.151454)">−1.0</text>
     </g>
    </g>
    <g id="text_12">
     <text style="font: 24px 'DejaVu Sans', 'Bitstream Vera Sans', 'Computer Modern Sans Serif', 'Lucida Grande', 'Verdana', 'Geneva', 'Lucid', 'Arial', 'Helvetica', 'Avant Garde', sans-serif; text-anchor: middle" x="15.73" y="363.6" transform="rotate(-90 15.73 363.6)">Energy per spin $ E/N $</text>
    </g>
   </g>
   <g id="LineCollection_1">
    <path d="M 115.363636 151.718407 
L 115.363636 151.194327 
" clip-path="url(#pfb3090d716)" style="fill: none; stroke: #e41a1c; stroke-width: 1.5"/>
    <path d="M 171.727273 159.259034 
L 171.727273 159.248619 
" clip-path="url(#pfb3090d716)" style="fill: none; stroke: #e41a1c; stroke-width: 1.5"/>
    <path d="M 228.090909 162.496066 
L 228.090909 162.372923 
" clip-path="url(#pfb3090d716)" style="fill: none; stroke: #e41a1c; stroke-width: 1.5"/>
    <path d="M 284.454545 167.944463 
L 284.454545 167.806945 
" clip-path="url(#pfb3090d716)" style="fill: none; stroke: #e41a1c; stroke-width: 1.5"/>
    <path d="M 301.363636 169.504061 
L 301.363636 169.253223 
" clip-path="url(#pfb3090d716)" style="fill: none; stroke: #e41a1c; stroke-width: 1.5"/>
    <path d="M 307 166.448844 
L 307 166.028518 
" clip-path="url(#pfb3090d716)" style="fill: none; stroke: #e41a1c; stroke-width: 1.5"/>
    <path d="M 312.636364 111.660486 
L 312.636364 111.6 
" clip-path="url(#pfb3090d716)" style="fill: none; stroke: #e41a1c; stroke-width: 1.5"/>
    <path d="M 318.272727 116.03831 
L 318.272727 115.997978 
" clip-path="url(#pfb3090d716)" style="fill: none; stroke: #e41a1c; stroke-width: 1.5"/>
    <path d="M 323.909091 122.064961 
L 323.909091 122.032158 
" clip-path="url(#pfb3090d716)" style="fill: none; stroke: #e41a1c; stroke-width: 1.5"/>
    <path d="M 329.545455 128.86653 
L 329.545455 128.839133 
" clip-path="url(#pfb3090d716)" style="fill: none; stroke: #e41a1c; stroke-width: 1.5"/>
    <path d="M 335.181818 136.038846 
L 335.181818 136.015032 
" clip-path="url(#pfb3090d716)" style="fill: none; stroke: #e41a1c; stroke-width: 1.5"/>
    <path d="M 340.818182 143.493771 
L 340.818182 143.470992 
" clip-path="url(#pfb3090d716)" style="fill: none; stroke: #e41a1c; stroke-width: 1.5"/>
    <path d="M 346.454545 151.161007 
L 346.454545 151.141681 
" clip-path="url(#pfb3090d716)" style="fill: none; stroke: #e41a1c; stroke-width: 1.5"/>
    <path d="M 352.090909 159.005848 
L 352.090909 158.989323 
" clip-path="url(#pfb3090d716)" style="fill: none; stroke: #e41a1c; stroke-width: 1.5"/>
    <path d="M 357.727273 167.183748 
L 357.727273 167.166981 
" clip-path="url(#pfb3090d716)" style="fill: none; stroke: #e41a1c; stroke-width: 1.5"/>
    <path d="M 363.363636 175.393021 
L 363.363636 175.376385 
" clip-path="url(#pfb3090d716)" style="fill: none; stroke: #e41a1c; stroke-width: 1.5"/>
    <path d="M 369 183.786004 
L 369 183.769972 
" clip-path="url(#pfb3090d716)" style="fill: none; stroke: #e41a1c; stroke-width: 1.5"/>
    <path d="M 397.181818 227.414416 
L 397.181818 227.401587 
" clip-path="url(#pfb3090d716)" style="fill: none; stroke: #e41a1c; stroke-width: 1.5"/>
    <path d="M 453.545455 319.89533 
L 453.545455 319.88677 
" clip-path="url(#pfb3090d716)" style="fill: none; stroke: #e41a1c; stroke-width: 1.5"/>
    <path d="M 509.909091 416.439089 
L 509.909091 416.432294 
" clip-path="url(#pfb3090d716)" style="fill: none; stroke: #e41a1c; stroke-width: 1.5"/>
    <path d="M 566.272727 515.279135 
L 566.272727 515.272899 
" clip-path="url(#pfb3090d716)" style="fill: none; stroke: #e41a1c; stroke-width: 1.5"/>
    <path d="M 622.636364 615.6 
L 622.636364 615.595151 
" clip-path="url(#pfb3090d716)" style="fill: none; stroke: #e41a1c; stroke-width: 1.5"/>
   </g>
   <g id="LineCollection_2">
    <path d="M 115.363636 158.033329 
L 115.363636 158.031992 
" clip-path="url(#pfb3090d716)" style="fill: none; stroke: #377eb8; stroke-width: 1.5"/>
    <path d="M 171.727273 159.344147 
L 171.727273 159.338552 
" clip-path="url(#pfb3090d716)" style="fill: none; stroke: #377eb8; stroke-width: 1.5"/>
    <path d="M 228.090909 163.157521 
L 228.090909 163.135677 
" clip-path="url(#pfb3090d716)" style="fill: none; stroke: #377eb8; stroke-width: 1.5"/>
    <path d="M 284.454545 169.055735 
L 284.454545 168.885114 
" clip-path="url(#pfb3090d716)" style="fill: none; stroke: #377eb8; stroke-width: 1.5"/>
    <path d="M 301.363636 171.136786 
L 301.363636 170.774184 
" clip-path="url(#pfb3090d716)" style="fill: none; stroke: #377eb8; stroke-width: 1.5"/>
    <path d="M 307 171.72882 
L 307 171.470211 
" clip-path="url(#pfb3090d716)" style="fill: none; stroke: #377eb8; stroke-width: 1.5"/>
    <path d="M 312.636364 172.442673 
L 312.636364 172.08499 
" clip-path="url(#pfb3090d716)" style="fill: none; stroke: #377eb8; stroke-width: 1.5"/>
    <path d="M 318.272727 173.015184 
L 318.272727 172.708175 
" clip-path="url(#pfb3090d716)" style="fill: none; stroke: #377eb8; stroke-width: 1.5"/>
    <path d="M 323.909091 122.52761 
L 323.909091 122.487042 
" clip-path="url(#pfb3090d716)" style="fill: none; stroke: #377eb8; stroke-width: 1.5"/>
    <path d="M 329.545455 128.97075 
L 329.545455 128.937062 
" clip-path="url(#pfb3090d716)" style="fill: none; stroke: #377eb8; stroke-width: 1.5"/>
    <path d="M 335.181818 136.052244 
L 335.181818 136.021878 
" clip-path="url(#pfb3090d716)" style="fill: none; stroke: #377eb8; stroke-width: 1.5"/>
    <path d="M 340.818182 143.518233 
L 340.818182 143.491447 
" clip-path="url(#pfb3090d716)" style="fill: none; stroke: #377eb8; stroke-width: 1.5"/>
    <path d="M 346.454545 151.201443 
L 346.454545 151.176383 
" clip-path="url(#pfb3090d716)" style="fill: none; stroke: #377eb8; stroke-width: 1.5"/>
    <path d="M 352.090909 159.125528 
L 352.090909 159.101988 
" clip-path="url(#pfb3090d716)" style="fill: none; stroke: #377eb8; stroke-width: 1.5"/>
    <path d="M 357.727273 167.189332 
L 357.727273 167.167728 
" clip-path="url(#pfb3090d716)" style="fill: none; stroke: #377eb8; stroke-width: 1.5"/>
    <path d="M 363.363636 175.443941 
L 363.363636 175.422466 
" clip-path="url(#pfb3090d716)" style="fill: none; stroke: #377eb8; stroke-width: 1.5"/>
    <path d="M 369 183.843038 
L 369 183.823191 
" clip-path="url(#pfb3090d716)" style="fill: none; stroke: #377eb8; stroke-width: 1.5"/>
    <path d="M 397.181818 227.406987 
L 397.181818 227.391597 
" clip-path="url(#pfb3090d716)" style="fill: none; stroke: #377eb8; stroke-width: 1.5"/>
    <path d="M 453.545455 319.900527 
L 453.545455 319.889568 
" clip-path="url(#pfb3090d716)" style="fill: none; stroke: #377eb8; stroke-width: 1.5"/>
    <path d="M 509.909091 416.428344 
L 509.909091 416.419609 
" clip-path="url(#pfb3090d716)" style="fill: none; stroke: #377eb8; stroke-width: 1.5"/>
    <path d="M 566.272727 515.272445 
L 566.272727 515.265078 
" clip-path="url(#pfb3090d716)" style="fill: none; stroke: #377eb8; stroke-width: 1.5"/>
    <path d="M 622.636364 615.598557 
L 622.636364 615.592159 
" clip-path="url(#pfb3090d716)" style="fill: none; stroke: #377eb8; stroke-width: 1.5"/>
   </g>
   <g id="LineCollection_3">
    <path d="M 171.727273 159.25405 
L 171.727273 159.24484 
" clip-path="url(#pfb3090d716)" style="fill: none; stroke: #4daf4a; stroke-width: 1.5"/>
    <path d="M 228.090909 162.676826 
L 228.090909 162.572704 
" clip-path="url(#pfb3090d716)" style="fill: none; stroke: #4daf4a; stroke-width: 1.5"/>
    <path d="M 284.454545 168.481439 
L 284.454545 168.383293 
" clip-path="url(#pfb3090d716)" style="fill: none; stroke: #4daf4a; stroke-width: 1.5"/>
    <path d="M 301.363636 170.821699 
L 301.363636 170.694385 
" clip-path="url(#pfb3090d716)" style="fill: none; stroke: #4daf4a; stroke-width: 1.5"/>
    <path d="M 307 171.777801 
L 307 171.66555 
" clip-path="url(#pfb3090d716)" style="fill: none; stroke: #4daf4a; stroke-width: 1.5"/>
    <path d="M 312.636364 172.509122 
L 312.636364 172.360523 
" clip-path="url(#pfb3090d716)" style="fill: none; stroke: #4daf4a; stroke-width: 1.5"/>
    <path d="M 318.272727 173.296966 
L 318.272727 173.187563 
" clip-path="url(#pfb3090d716)" style="fill: none; stroke: #4daf4a; stroke-width: 1.5"/>
    <path d="M 323.909091 174.067334 
L 323.909091 173.90799 
" clip-path="url(#pfb3090d716)" style="fill: none; stroke: #4daf4a; stroke-width: 1.5"/>
    <path d="M 329.545455 174.854939 
L 329.545455 174.603796 
" clip-path="url(#pfb3090d716)" style="fill: none; stroke: #4daf4a; stroke-width: 1.5"/>
    <path d="M 335.181818 175.743795 
L 335.181818 175.492545 
" clip-path="url(#pfb3090d716)" style="fill: none; stroke: #4daf4a; stroke-width: 1.5"/>
    <path d="M 340.818182 176.672972 
L 340.818182 176.449834 
" clip-path="url(#pfb3090d716)" style="fill: none; stroke: #4daf4a; stroke-width: 1.5"/>
    <path d="M 346.454545 177.555589 
L 346.454545 177.349097 
" clip-path="url(#pfb3090d716)" style="fill: none; stroke: #4daf4a; stroke-width: 1.5"/>
    <path d="M 352.090909 178.356652 
L 352.090909 177.845835 
" clip-path="url(#pfb3090d716)" style="fill: none; stroke: #4daf4a; stroke-width: 1.5"/>
    <path d="M 357.727273 179.160643 
L 357.727273 178.564931 
" clip-path="url(#pfb3090d716)" style="fill: none; stroke: #4daf4a; stroke-width: 1.5"/>
    <path d="M 363.363636 180.235939 
L 363.363636 179.752946 
" clip-path="url(#pfb3090d716)" style="fill: none; stroke: #4daf4a; stroke-width: 1.5"/>
    <path d="M 369 180.994078 
L 369 180.393317 
" clip-path="url(#pfb3090d716)" style="fill: none; stroke: #4daf4a; stroke-width: 1.5"/>
    <path d="M 397.181818 185.743904 
L 397.181818 185.144755 
" clip-path="url(#pfb3090d716)" style="fill: none; stroke: #4daf4a; stroke-width: 1.5"/>
    <path d="M 453.545455 196.073177 
L 453.545455 195.312748 
" clip-path="url(#pfb3090d716)" style="fill: none; stroke: #4daf4a; stroke-width: 1.5"/>
    <path d="M 509.909091 206.586242 
L 509.909091 205.387228 
" clip-path="url(#pfb3090d716)" style="fill: none; stroke: #4daf4a; stroke-width: 1.5"/>
    <path d="M 566.272727 217.688026 
L 566.272727 216.317417 
" clip-path="url(#pfb3090d716)" style="fill: none; stroke: #4daf4a; stroke-width: 1.5"/>
    <path d="M 622.636364 231.049099 
L 622.636364 229.474661 
" clip-path="url(#pfb3090d716)" style="fill: none; stroke: #4daf4a; stroke-width: 1.5"/>
   </g>
   <g id="line2d_11">
    <path d="M 115.363636 151.456367 
L 171.727273 159.253826 
L 228.090909 162.434494 
L 284.454545 167.875704 
L 301.363636 169.378642 
L 307 166.238681 
L 312.636364 111.630243 
L 318.272727 116.018144 
L 323.909091 122.048559 
L 329.545455 128.852831 
L 335.181818 136.026939 
L 340.818182 143.482382 
L 346.454545 151.151344 
L 352.090909 158.997585 
L 357.727273 167.175364 
L 363.363636 175.384703 
L 369 183.777988 
L 397.181818 227.408002 
L 453.545455 319.89105 
L 509.909091 416.435692 
L 566.272727 515.276017 
L 622.636364 615.597576 
" clip-path="url(#pfb3090d716)" style="fill: none; stroke: #e41a1c; stroke-width: 1.5; stroke-linecap: square"/>
    <defs>
     <path id="m9a1c995f1c" d="M 0 1.5 
C 0.397805 1.5 0.77937 1.341951 1.06066 1.06066 
C 1.341951 0.77937 1.5 0.397805 1.5 0 
C 1.5 -0.397805 1.341951 -0.77937 1.06066 -1.06066 
C 0.77937 -1.341951 0.397805 -1.5 0 -1.5 
C -0.397805 -1.5 -0.77937 -1.341951 -1.06066 -1.06066 
C -1.341951 -0.77937 -1.5 -0.397805 -1.5 0 
C -1.5 0.397805 -1.341951 0.77937 -1.06066 1.06066 
C -0.77937 1.341951 -0.397805 1.5 0 1.5 
z
" style="stroke: #e41a1c"/>
    </defs>
    <g clip-path="url(#pfb3090d716)">
     <use xlink:href="#m9a1c995f1c" x="115.363636" y="151.456367" style="fill: #e41a1c; stroke: #e41a1c"/>
     <use xlink:href="#m9a1c995f1c" x="171.727273" y="159.253826" style="fill: #e41a1c; stroke: #e41a1c"/>
     <use xlink:href="#m9a1c995f1c" x="228.090909" y="162.434494" style="fill: #e41a1c; stroke: #e41a1c"/>
     <use xlink:href="#m9a1c995f1c" x="284.454545" y="167.875704" style="fill: #e41a1c; stroke: #e41a1c"/>
     <use xlink:href="#m9a1c995f1c" x="301.363636" y="169.378642" style="fill: #e41a1c; stroke: #e41a1c"/>
     <use xlink:href="#m9a1c995f1c" x="307" y="166.238681" style="fill: #e41a1c; stroke: #e41a1c"/>
     <use xlink:href="#m9a1c995f1c" x="312.636364" y="111.630243" style="fill: #e41a1c; stroke: #e41a1c"/>
     <use xlink:href="#m9a1c995f1c" x="318.272727" y="116.018144" style="fill: #e41a1c; stroke: #e41a1c"/>
     <use xlink:href="#m9a1c995f1c" x="323.909091" y="122.048559" style="fill: #e41a1c; stroke: #e41a1c"/>
     <use xlink:href="#m9a1c995f1c" x="329.545455" y="128.852831" style="fill: #e41a1c; stroke: #e41a1c"/>
     <use xlink:href="#m9a1c995f1c" x="335.181818" y="136.026939" style="fill: #e41a1c; stroke: #e41a1c"/>
     <use xlink:href="#m9a1c995f1c" x="340.818182" y="143.482382" style="fill: #e41a1c; stroke: #e41a1c"/>
     <use xlink:href="#m9a1c995f1c" x="346.454545" y="151.151344" style="fill: #e41a1c; stroke: #e41a1c"/>
     <use xlink:href="#m9a1c995f1c" x="352.090909" y="158.997585" style="fill: #e41a1c; stroke: #e41a1c"/>
     <use xlink:href="#m9a1c995f1c" x="357.727273" y="167.175364" style="fill: #e41a1c; stroke: #e41a1c"/>
     <use xlink:href="#m9a1c995f1c" x="363.363636" y="175.384703" style="fill: #e41a1c; stroke: #e41a1c"/>
     <use xlink:href="#m9a1c995f1c" x="369" y="183.777988" style="fill: #e41a1c; stroke: #e41a1c"/>
     <use xlink:href="#m9a1c995f1c" x="397.181818" y="227.408002" style="fill: #e41a1c; stroke: #e41a1c"/>
     <use xlink:href="#m9a1c995f1c" x="453.545455" y="319.89105" style="fill: #e41a1c; stroke: #e41a1c"/>
     <use xlink:href="#m9a1c995f1c" x="509.909091" y="416.435692" style="fill: #e41a1c; stroke: #e41a1c"/>
     <use xlink:href="#m9a1c995f1c" x="566.272727" y="515.276017" style="fill: #e41a1c; stroke: #e41a1c"/>
     <use xlink:href="#m9a1c995f1c" x="622.636364" y="615.597576" style="fill: #e41a1c; stroke: #e41a1c"/>
    </g>
   </g>
   <g id="line2d_12">
    <path d="M 115.363636 158.03266 
L 171.727273 159.34135 
L 228.090909 163.146599 
L 284.454545 168.970424 
L 301.363636 170.955485 
L 307 171.599515 
L 312.636364 172.263832 
L 318.272727 172.86168 
L 323.909091 122.507326 
L 329.545455 128.953906 
L 335.181818 136.037061 
L 340.818182 143.50484 
L 346.454545 151.188913 
L 352.090909 159.113758 
L 357.727273 167.17853 
L 363.363636 175.433203 
L 369 183.833115 
L 397.181818 227.399292 
L 453.545455 319.895048 
L 509.909091 416.423976 
L 566.272727 515.268761 
L 622.636364 615.595358 
" clip-path="url(#pfb3090d716)" style="fill: none; stroke-dasharray: 5.55,2.4; stroke-dashoffset: 0; stroke: #377eb8; stroke-width: 1.5"/>
    <defs>
     <path id="m0a967085ab" d="M 0 1.5 
C 0.397805 1.5 0.77937 1.341951 1.06066 1.06066 
C 1.341951 0.77937 1.5 0.397805 1.5 0 
C 1.5 -0.397805 1.341951 -0.77937 1.06066 -1.06066 
C 0.77937 -1.341951 0.397805 -1.5 0 -1.5 
C -0.397805 -1.5 -0.77937 -1.341951 -1.06066 -1.06066 
C -1.341951 -0.77937 -1.5 -0.397805 -1.5 0 
C -1.5 0.397805 -1.341951 0.77937 -1.06066 1.06066 
C -0.77937 1.341951 -0.397805 1.5 0 1.5 
z
" style="stroke: #377eb8"/>
    </defs>
    <g clip-path="url(#pfb3090d716)">
     <use xlink:href="#m0a967085ab" x="115.363636" y="158.03266" style="fill: #377eb8; stroke: #377eb8"/>
     <use xlink:href="#m0a967085ab" x="171.727273" y="159.34135" style="fill: #377eb8; stroke: #377eb8"/>
     <use xlink:href="#m0a967085ab" x="228.090909" y="163.146599" style="fill: #377eb8; stroke: #377eb8"/>
     <use xlink:href="#m0a967085ab" x="284.454545" y="168.970424" style="fill: #377eb8; stroke: #377eb8"/>
     <use xlink:href="#m0a967085ab" x="301.363636" y="170.955485" style="fill: #377eb8; stroke: #377eb8"/>
     <use xlink:href="#m0a967085ab" x="307" y="171.599515" style="fill: #377eb8; stroke: #377eb8"/>
     <use xlink:href="#m0a967085ab" x="312.636364" y="172.263832" style="fill: #377eb8; stroke: #377eb8"/>
     <use xlink:href="#m0a967085ab" x="318.272727" y="172.86168" style="fill: #377eb8; stroke: #377eb8"/>
     <use xlink:href="#m0a967085ab" x="323.909091" y="122.507326" style="fill: #377eb8; stroke: #377eb8"/>
     <use xlink:href="#m0a967085ab" x="329.545455" y="128.953906" style="fill: #377eb8; stroke: #377eb8"/>
     <use xlink:href="#m0a967085ab" x="335.181818" y="136.037061" style="fill: #377eb8; stroke: #377eb8"/>
     <use xlink:href="#m0a967085ab" x="340.818182" y="143.50484" style="fill: #377eb8; stroke: #377eb8"/>
     <use xlink:href="#m0a967085ab" x="346.454545" y="151.188913" style="fill: #377eb8; stroke: #377eb8"/>
     <use xlink:href="#m0a967085ab" x="352.090909" y="159.113758" style="fill: #377eb8; stroke: #377eb8"/>
     <use xlink:href="#m0a967085ab" x="357.727273" y="167.17853" style="fill: #377eb8; stroke: #377eb8"/>
     <use xlink:href="#m0a967085ab" x="363.363636" y="175.433203" style="fill: #377eb8; stroke: #377eb8"/>
     <use xlink:href="#m0a967085ab" x="369" y="183.833115" style="fill: #377eb8; stroke: #377eb8"/>
     <use xlink:href="#m0a967085ab" x="397.181818" y="227.399292" style="fill: #377eb8; stroke: #377eb8"/>
     <use xlink:href="#m0a967085ab" x="453.545455" y="319.895048" style="fill: #377eb8; stroke: #377eb8"/>
     <use xlink:href="#m0a967085ab" x="509.909091" y="416.423976" style="fill: #377eb8; stroke: #377eb8"/>
     <use xlink:href="#m0a967085ab" x="566.272727" y="515.268761" style="fill: #377eb8; stroke: #377eb8"/>
     <use xlink:href="#m0a967085ab" x="622.636364" y="615.595358" style="fill: #377eb8; stroke: #377eb8"/>
    </g>
   </g>
   <g id="line2d_13">
    <path d="M 171.727273 159.249445 
L 228.090909 162.624765 
L 284.454545 168.432366 
L 301.363636 170.758042 
L 307 171.721675 
L 312.636364 172.434822 
L 318.272727 173.242265 
L 323.909091 173.987662 
L 329.545455 174.729367 
L 335.181818 175.61817 
L 340.818182 176.561403 
L 346.454545 177.452343 
L 352.090909 178.101243 
L 357.727273 178.862787 
L 363.363636 179.994442 
L 369 180.693697 
L 397.181818 185.444329 
L 453.545455 195.692962 
L 509.909091 205.986735 
L 566.272727 217.002722 
L 622.636364 230.26188 
" clip-path="url(#pfb3090d716)" style="fill: none; stroke-dasharray: 1.5,2.475; stroke-dashoffset: 0; stroke: #4daf4a; stroke-width: 1.5"/>
    <defs>
     <path id="m12a9915cab" d="M 0 1.5 
C 0.397805 1.5 0.77937 1.341951 1.06066 1.06066 
C 1.341951 0.77937 1.5 0.397805 1.5 0 
C 1.5 -0.397805 1.341951 -0.77937 1.06066 -1.06066 
C 0.77937 -1.341951 0.397805 -1.5 0 -1.5 
C -0.397805 -1.5 -0.77937 -1.341951 -1.06066 -1.06066 
C -1.341951 -0.77937 -1.5 -0.397805 -1.5 0 
C -1.5 0.397805 -1.341951 0.77937 -1.06066 1.06066 
C -0.77937 1.341951 -0.397805 1.5 0 1.5 
z
" style="stroke: #4daf4a"/>
    </defs>
    <g clip-path="url(#pfb3090d716)">
     <use xlink:href="#m12a9915cab" x="171.727273" y="159.249445" style="fill: #4daf4a; stroke: #4daf4a"/>
     <use xlink:href="#m12a9915cab" x="228.090909" y="162.624765" style="fill: #4daf4a; stroke: #4daf4a"/>
     <use xlink:href="#m12a9915cab" x="284.454545" y="168.432366" style="fill: #4daf4a; stroke: #4daf4a"/>
     <use xlink:href="#m12a9915cab" x="301.363636" y="170.758042" style="fill: #4daf4a; stroke: #4daf4a"/>
     <use xlink:href="#m12a9915cab" x="307" y="171.721675" style="fill: #4daf4a; stroke: #4daf4a"/>
     <use xlink:href="#m12a9915cab" x="312.636364" y="172.434822" style="fill: #4daf4a; stroke: #4daf4a"/>
     <use xlink:href="#m12a9915cab" x="318.272727" y="173.242265" style="fill: #4daf4a; stroke: #4daf4a"/>
     <use xlink:href="#m12a9915cab" x="323.909091" y="173.987662" style="fill: #4daf4a; stroke: #4daf4a"/>
     <use xlink:href="#m12a9915cab" x="329.545455" y="174.729367" style="fill: #4daf4a; stroke: #4daf4a"/>
     <use xlink:href="#m12a9915cab" x="335.181818" y="175.61817" style="fill: #4daf4a; stroke: #4daf4a"/>
     <use xlink:href="#m12a9915cab" x="340.818182" y="176.561403" style="fill: #4daf4a; stroke: #4daf4a"/>
     <use xlink:href="#m12a9915cab" x="346.454545" y="177.452343" style="fill: #4daf4a; stroke: #4daf4a"/>
     <use xlink:href="#m12a9915cab" x="352.090909" y="178.101243" style="fill: #4daf4a; stroke: #4daf4a"/>
     <use xlink:href="#m12a9915cab" x="357.727273" y="178.862787" style="fill: #4daf4a; stroke: #4daf4a"/>
     <use xlink:href="#m12a9915cab" x="363.363636" y="179.994442" style="fill: #4daf4a; stroke: #4daf4a"/>
     <use xlink:href="#m12a9915cab" x="369" y="180.693697" style="fill: #4daf4a; stroke: #4daf4a"/>
     <use xlink:href="#m12a9915cab" x="397.181818" y="185.444329" style="fill: #4daf4a; stroke: #4daf4a"/>
     <use xlink:href="#m12a9915cab" x="453.545455" y="195.692962" style="fill: #4daf4a; stroke: #4daf4a"/>
     <use xlink:href="#m12a9915cab" x="509.909091" y="205.986735" style="fill: #4daf4a; stroke: #4daf4a"/>
     <use xlink:href="#m12a9915cab" x="566.272727" y="217.002722" style="fill: #4daf4a; stroke: #4daf4a"/>
     <use xlink:href="#m12a9915cab" x="622.636364" y="230.26188" style="fill: #4daf4a; stroke: #4daf4a"/>
    </g>
   </g>
   <g id="patch_3">
    <path d="M 90 640.8 
L 90 86.4 
" style="fill: none; stroke: #000000; stroke-width: 0.8; stroke-linejoin: miter; stroke-linecap: square"/>
   </g>
   <g id="patch_4">
    <path d="M 648 640.8 
L 648 86.4 
" style="fill: none; stroke: #000000; stroke-width: 0.8; stroke-linejoin: miter; stroke-linecap: square"/>
   </g>
   <g id="patch_5">
    <path d="M 90 640.8 
L 648 640.8 
" style="fill: none; stroke: #000000; stroke-width: 0.8; stroke-linejoin: miter; stroke-linecap: square"/>
   </g>
   <g id="patch_6">
    <path d="M 90 86.4 
L 648 86.4 
" style="fill: none; stroke: #000000; stroke-width: 0.8; stroke-linejoin: miter; stroke-linecap: square"/>
   </g>
   <g id="legend_1">
    <g id="patch_7">
     <path d="M 106.8 628.8 
L 335.3175 628.8 
Q 340.1175 628.8 340.1175 624 
L 340.1175 520.7175 
Q 340.1175 515.9175 335.3175 515.9175 
L 106.8 515.9175 
Q 102 515.9175 102 520.7175 
L 102 624 
Q 102 628.8 106.8 628.8 
z
" style="fill: #ffffff; opacity: 0.8; stroke: #cccccc; stroke-linejoin: miter"/>
    </g>
    <g id="LineCollection_4">
     <path d="M 135.6 547.35375 
L 135.6 523.35375 
" style="fill: none; stroke: #e41a1c; stroke-width: 1.5"/>
    </g>
    <g id="line2d_14">
     <path d="M 111.6 535.35375 
L 159.6 535.35375 
" style="fill: none; stroke: #e41a1c; stroke-width: 1.5; stroke-linecap: square"/>
    </g>
    <g id="line2d_15">
     <g>
      <use xlink:href="#m9a1c995f1c" x="135.6" y="535.35375" style="fill: #e41a1c; stroke: #e41a1c"/>
     </g>
    </g>
    <g id="text_13">
     <text style="font: 24px 'DejaVu Sans', 'Bitstream Vera Sans', 'Computer Modern Sans Serif', 'Lucida Grande', 'Verdana', 'Geneva', 'Lucid', 'Arial', 'Helvetica', 'Avant Garde', sans-serif; text-anchor: start" x="178.8" y="543.75375" transform="rotate(-0 178.8 543.75375)">independent</text>
    </g>
    <g id="LineCollection_5">
     <path d="M 135.6 582.58125 
L 135.6 558.58125 
" style="fill: none; stroke: #377eb8; stroke-width: 1.5"/>
    </g>
    <g id="line2d_16">
     <path d="M 111.6 570.58125 
L 159.6 570.58125 
" style="fill: none; stroke-dasharray: 5.55,2.4; stroke-dashoffset: 0; stroke: #377eb8; stroke-width: 1.5"/>
    </g>
    <g id="line2d_17">
     <g>
      <use xlink:href="#m0a967085ab" x="135.6" y="570.58125" style="fill: #377eb8; stroke: #377eb8"/>
     </g>
    </g>
    <g id="text_14">
     <text style="font: 24px 'DejaVu Sans', 'Bitstream Vera Sans', 'Computer Modern Sans Serif', 'Lucida Grande', 'Verdana', 'Geneva', 'Lucid', 'Arial', 'Helvetica', 'Avant Garde', sans-serif; text-anchor: start" x="178.8" y="578.98125" transform="rotate(-0 178.8 578.98125)">right-left</text>
    </g>
    <g id="LineCollection_6">
     <path d="M 135.6 617.80875 
L 135.6 593.80875 
" style="fill: none; stroke: #4daf4a; stroke-width: 1.5"/>
    </g>
    <g id="line2d_18">
     <path d="M 111.6 605.80875 
L 159.6 605.80875 
" style="fill: none; stroke-dasharray: 1.5,2.475; stroke-dashoffset: 0; stroke: #4daf4a; stroke-width: 1.5"/>
    </g>
    <g id="line2d_19">
     <g>
      <use xlink:href="#m12a9915cab" x="135.6" y="605.80875" style="fill: #4daf4a; stroke: #4daf4a"/>
     </g>
    </g>
    <g id="text_15">
     <text style="font: 24px 'DejaVu Sans', 'Bitstream Vera Sans', 'Computer Modern Sans Serif', 'Lucida Grande', 'Verdana', 'Geneva', 'Lucid', 'Arial', 'Helvetica', 'Avant Garde', sans-serif; text-anchor: start" x="178.8" y="614.20875" transform="rotate(-0 178.8 614.20875)">left-right</text>
    </g>
   </g>
  </g>
 </g>
 <defs>
  <clipPath id="pfb3090d716">
   <rect x="90" y="86.4" width="558" height="554.4"/>
  </clipPath>
 </defs>
</svg>
