<?xml version="1.0" encoding="utf-8" standalone="no"?>
<!DOCTYPE svg PUBLIC "-//W3C//DTD SVG 1.1//EN"
  "http://www.w3.org/Graphics/SVG/1.1/DTD/svg11.dtd">
<svg xmlns:xlink="http://www.w3.org/1999/xlink" width="720pt" height="720pt" viewBox="0 0 720 720" xmlns="http://www.w3.org/2000/svg" version="1.1">
 <metadata>
  <rdf:RDF xmlns:dc="http://purl.org/dc/elements/1.1/" xmlns:cc="http://creativecommons.org/ns#" xmlns:rdf="http://www.w3.org/1999/02/22-rdf-syntax-ns#">
   <cc:Work>
    <dc:type rdf:resource="http://purl.org/dc/dcmitype/StillImage"/>
    <dc:date>2023-09-17T22:05:15.178459</dc:date>
    <dc:format>image/svg+xml</dc:format>
    <dc:creator>
     <cc:Agent>
      <dc:title>Matplotlib v3.7.1, https://matplotlib.org/</dc:title>
     </cc:Agent>
    </dc:creator>
   </cc:Work>
  </rdf:RDF>
 </metadata>
 <defs>
  <style type="text/css">*{stroke-linejoin: round; stroke-linecap: butt}</style>
 </defs>
 <g id="figure_1">
  <g id="patch_1">
   <path d="M 0 720 
L 720 720 
L 720 0 
L 0 0 
z
" style="fill: #ffffff"/>
  </g>
  <g id="axes_1">
   <g id="patch_2">
    <path d="M 90 640.8 
L 648 640.8 
L 648 86.4 
L 90 86.4 
z
" style="fill: #ffffff"/>
   </g>
   <g id="matplotlib.axis_1">
    <g id="xtick_1">
     <g id="line2d_1">
      <defs>
       <path id="m6ff3c70804" d="M 0 0 
L 0 3.5 
" style="stroke: #000000; stroke-width: 0.8"/>
      </defs>
      <g>
       <use xlink:href="#m6ff3c70804" x="115.363636" y="640.8" style="stroke: #000000; stroke-width: 0.8"/>
      </g>
     </g>
     <g id="text_1">
      <text style="font: 24px 'DejaVu Sans', 'Bitstream Vera Sans', 'Computer Modern Sans Serif', 'Lucida Grande', 'Verdana', 'Geneva', 'Lucid', 'Arial', 'Helvetica', 'Avant Garde', sans-serif; text-anchor: middle" x="115.363636" y="666.03625" transform="rotate(-0 115.363636 666.03625)">0.0</text>
     </g>
    </g>
    <g id="xtick_2">
     <g id="line2d_2">
      <g>
       <use xlink:href="#m6ff3c70804" x="228.090909" y="640.8" style="stroke: #000000; stroke-width: 0.8"/>
      </g>
     </g>
     <g id="text_2">
      <text style="font: 24px 'DejaVu Sans', 'Bitstream Vera Sans', 'Computer Modern Sans Serif', 'Lucida Grande', 'Verdana', 'Geneva', 'Lucid', 'Arial', 'Helvetica', 'Avant Garde', sans-serif; text-anchor: middle" x="228.090909" y="666.03625" transform="rotate(-0 228.090909 666.03625)">0.2</text>
     </g>
    </g>
    <g id="xtick_3">
     <g id="line2d_3">
      <g>
       <use xlink:href="#m6ff3c70804" x="340.818182" y="640.8" style="stroke: #000000; stroke-width: 0.8"/>
      </g>
     </g>
     <g id="text_3">
      <text style="font: 24px 'DejaVu Sans', 'Bitstream Vera Sans', 'Computer Modern Sans Serif', 'Lucida Grande', 'Verdana', 'Geneva', 'Lucid', 'Arial', 'Helvetica', 'Avant Garde', sans-serif; text-anchor: middle" x="340.818182" y="666.03625" transform="rotate(-0 340.818182 666.03625)">0.4</text>
     </g>
    </g>
    <g id="xtick_4">
     <g id="line2d_4">
      <g>
       <use xlink:href="#m6ff3c70804" x="453.545455" y="640.8" style="stroke: #000000; stroke-width: 0.8"/>
      </g>
     </g>
     <g id="text_4">
      <text style="font: 24px 'DejaVu Sans', 'Bitstream Vera Sans', 'Computer Modern Sans Serif', 'Lucida Grande', 'Verdana', 'Geneva', 'Lucid', 'Arial', 'Helvetica', 'Avant Garde', sans-serif; text-anchor: middle" x="453.545455" y="666.03625" transform="rotate(-0 453.545455 666.03625)">0.6</text>
     </g>
    </g>
    <g id="xtick_5">
     <g id="line2d_5">
      <g>
       <use xlink:href="#m6ff3c70804" x="566.272727" y="640.8" style="stroke: #000000; stroke-width: 0.8"/>
      </g>
     </g>
     <g id="text_5">
      <text style="font: 24px 'DejaVu Sans', 'Bitstream Vera Sans', 'Computer Modern Sans Serif', 'Lucida Grande', 'Verdana', 'Geneva', 'Lucid', 'Arial', 'Helvetica', 'Avant Garde', sans-serif; text-anchor: middle" x="566.272727" y="666.03625" transform="rotate(-0 566.272727 666.03625)">0.8</text>
     </g>
    </g>
    <g id="text_6">
     <text style="font: 24px 'DejaVu Sans', 'Bitstream Vera Sans', 'Computer Modern Sans Serif', 'Lucida Grande', 'Verdana', 'Geneva', 'Lucid', 'Arial', 'Helvetica', 'Avant Garde', sans-serif; text-anchor: middle" x="369" y="693.26375" transform="rotate(-0 369 693.26375)">Field strength in $ x $-direction $ h_x $ </text>
    </g>
   </g>
   <g id="matplotlib.axis_2">
    <g id="ytick_1">
     <g id="line2d_6">
      <defs>
       <path id="m6d1dc1173c" d="M 0 0 
L -3.5 0 
" style="stroke: #000000; stroke-width: 0.8"/>
      </defs>
      <g>
       <use xlink:href="#m6d1dc1173c" x="90" y="615.600006" style="stroke: #000000; stroke-width: 0.8"/>
      </g>
     </g>
     <g id="text_7">
      <text style="font: 24px 'DejaVu Sans', 'Bitstream Vera Sans', 'Computer Modern Sans Serif', 'Lucida Grande', 'Verdana', 'Geneva', 'Lucid', 'Arial', 'Helvetica', 'Avant Garde', sans-serif; text-anchor: end" x="83" y="624.718131" transform="rotate(-0 83 624.718131)">0.0</text>
     </g>
    </g>
    <g id="ytick_2">
     <g id="line2d_7">
      <g>
       <use xlink:href="#m6d1dc1173c" x="90" y="510.588653" style="stroke: #000000; stroke-width: 0.8"/>
      </g>
     </g>
     <g id="text_8">
      <text style="font: 24px 'DejaVu Sans', 'Bitstream Vera Sans', 'Computer Modern Sans Serif', 'Lucida Grande', 'Verdana', 'Geneva', 'Lucid', 'Arial', 'Helvetica', 'Avant Garde', sans-serif; text-anchor: end" x="83" y="519.706778" transform="rotate(-0 83 519.706778)">0.2</text>
     </g>
    </g>
    <g id="ytick_3">
     <g id="line2d_8">
      <g>
       <use xlink:href="#m6d1dc1173c" x="90" y="405.577299" style="stroke: #000000; stroke-width: 0.8"/>
      </g>
     </g>
     <g id="text_9">
      <text style="font: 24px 'DejaVu Sans', 'Bitstream Vera Sans', 'Computer Modern Sans Serif', 'Lucida Grande', 'Verdana', 'Geneva', 'Lucid', 'Arial', 'Helvetica', 'Avant Garde', sans-serif; text-anchor: end" x="83" y="414.695424" transform="rotate(-0 83 414.695424)">0.4</text>
     </g>
    </g>
    <g id="ytick_4">
     <g id="line2d_9">
      <g>
       <use xlink:href="#m6d1dc1173c" x="90" y="300.565946" style="stroke: #000000; stroke-width: 0.8"/>
      </g>
     </g>
     <g id="text_10">
      <text style="font: 24px 'DejaVu Sans', 'Bitstream Vera Sans', 'Computer Modern Sans Serif', 'Lucida Grande', 'Verdana', 'Geneva', 'Lucid', 'Arial', 'Helvetica', 'Avant Garde', sans-serif; text-anchor: end" x="83" y="309.684071" transform="rotate(-0 83 309.684071)">0.6</text>
     </g>
    </g>
    <g id="ytick_5">
     <g id="line2d_10">
      <g>
       <use xlink:href="#m6d1dc1173c" x="90" y="195.554592" style="stroke: #000000; stroke-width: 0.8"/>
      </g>
     </g>
     <g id="text_11">
      <text style="font: 24px 'DejaVu Sans', 'Bitstream Vera Sans', 'Computer Modern Sans Serif', 'Lucida Grande', 'Verdana', 'Geneva', 'Lucid', 'Arial', 'Helvetica', 'Avant Garde', sans-serif; text-anchor: end" x="83" y="204.672717" transform="rotate(-0 83 204.672717)">0.8</text>
     </g>
    </g>
    <g id="ytick_6">
     <g id="line2d_11">
      <g>
       <use xlink:href="#m6d1dc1173c" x="90" y="90.543239" style="stroke: #000000; stroke-width: 0.8"/>
      </g>
     </g>
     <g id="text_12">
      <text style="font: 24px 'DejaVu Sans', 'Bitstream Vera Sans', 'Computer Modern Sans Serif', 'Lucida Grande', 'Verdana', 'Geneva', 'Lucid', 'Arial', 'Helvetica', 'Avant Garde', sans-serif; text-anchor: end" x="83" y="99.661364" transform="rotate(-0 83 99.661364)">1.0</text>
     </g>
    </g>
    <g id="text_13">
     <text style="font: 24px 'DejaVu Sans', 'Bitstream Vera Sans', 'Computer Modern Sans Serif', 'Lucida Grande', 'Verdana', 'Geneva', 'Lucid', 'Arial', 'Helvetica', 'Avant Garde', sans-serif; text-anchor: middle" x="35.84125" y="363.6" transform="rotate(-90 35.84125 363.6)">Magnetization $ m $ </text>
    </g>
   </g>
   <g id="LineCollection_1">
    <path d="M 115.363636 615.6 
L 115.363636 615.599999 
" clip-path="url(#pbe5eb0b71f)" style="fill: none; stroke: #e41a1c; stroke-width: 1.5"/>
    <path d="M 171.727273 604.121602 
L 171.727273 603.873104 
" clip-path="url(#pbe5eb0b71f)" style="fill: none; stroke: #e41a1c; stroke-width: 1.5"/>
    <path d="M 228.090909 595.031194 
L 228.090909 594.816966 
" clip-path="url(#pbe5eb0b71f)" style="fill: none; stroke: #e41a1c; stroke-width: 1.5"/>
    <path d="M 284.454545 587.771591 
L 284.454545 587.542426 
" clip-path="url(#pbe5eb0b71f)" style="fill: none; stroke: #e41a1c; stroke-width: 1.5"/>
    <path d="M 301.363636 585.472873 
L 301.363636 585.228999 
" clip-path="url(#pbe5eb0b71f)" style="fill: none; stroke: #e41a1c; stroke-width: 1.5"/>
    <path d="M 307 588.457138 
L 307 588.107198 
" clip-path="url(#pbe5eb0b71f)" style="fill: none; stroke: #e41a1c; stroke-width: 1.5"/>
    <path d="M 312.636364 401.22533 
L 312.636364 400.573349 
" clip-path="url(#pbe5eb0b71f)" style="fill: none; stroke: #e41a1c; stroke-width: 1.5"/>
    <path d="M 318.272727 330.225311 
L 318.272727 329.713098 
" clip-path="url(#pbe5eb0b71f)" style="fill: none; stroke: #e41a1c; stroke-width: 1.5"/>
    <path d="M 323.909091 289.988443 
L 323.909091 289.57316 
" clip-path="url(#pbe5eb0b71f)" style="fill: none; stroke: #e41a1c; stroke-width: 1.5"/>
    <path d="M 329.545455 267.30014 
L 329.545455 266.902878 
" clip-path="url(#pbe5eb0b71f)" style="fill: none; stroke: #e41a1c; stroke-width: 1.5"/>
    <path d="M 335.181818 250.645098 
L 335.181818 250.298163 
" clip-path="url(#pbe5eb0b71f)" style="fill: none; stroke: #e41a1c; stroke-width: 1.5"/>
    <path d="M 340.818182 236.682524 
L 340.818182 236.359134 
" clip-path="url(#pbe5eb0b71f)" style="fill: none; stroke: #e41a1c; stroke-width: 1.5"/>
    <path d="M 346.454545 225.034588 
L 346.454545 224.732873 
" clip-path="url(#pbe5eb0b71f)" style="fill: none; stroke: #e41a1c; stroke-width: 1.5"/>
    <path d="M 352.090909 209.653883 
L 352.090909 209.393565 
" clip-path="url(#pbe5eb0b71f)" style="fill: none; stroke: #e41a1c; stroke-width: 1.5"/>
    <path d="M 357.727273 203.567552 
L 357.727273 203.304605 
" clip-path="url(#pbe5eb0b71f)" style="fill: none; stroke: #e41a1c; stroke-width: 1.5"/>
    <path d="M 363.363636 196.92827 
L 363.363636 196.660717 
" clip-path="url(#pbe5eb0b71f)" style="fill: none; stroke: #e41a1c; stroke-width: 1.5"/>
    <path d="M 369 190.866437 
L 369 190.606213 
" clip-path="url(#pbe5eb0b71f)" style="fill: none; stroke: #e41a1c; stroke-width: 1.5"/>
    <path d="M 397.181818 168.596166 
L 397.181818 168.392252 
" clip-path="url(#pbe5eb0b71f)" style="fill: none; stroke: #e41a1c; stroke-width: 1.5"/>
    <path d="M 453.545455 141.352911 
L 453.545455 141.195569 
" clip-path="url(#pbe5eb0b71f)" style="fill: none; stroke: #e41a1c; stroke-width: 1.5"/>
    <path d="M 509.909091 126.877156 
L 509.909091 126.744268 
" clip-path="url(#pbe5eb0b71f)" style="fill: none; stroke: #e41a1c; stroke-width: 1.5"/>
    <path d="M 566.272727 117.596448 
L 566.272727 117.478449 
" clip-path="url(#pbe5eb0b71f)" style="fill: none; stroke: #e41a1c; stroke-width: 1.5"/>
    <path d="M 622.636364 111.909336 
L 622.636364 111.808522 
" clip-path="url(#pbe5eb0b71f)" style="fill: none; stroke: #e41a1c; stroke-width: 1.5"/>
   </g>
   <g id="LineCollection_2">
    <path d="M 115.363636 615.525105 
L 115.363636 614.99311 
" clip-path="url(#pbe5eb0b71f)" style="fill: none; stroke: #377eb8; stroke-width: 1.5"/>
    <path d="M 171.727273 602.831634 
L 171.727273 602.494071 
" clip-path="url(#pbe5eb0b71f)" style="fill: none; stroke: #377eb8; stroke-width: 1.5"/>
    <path d="M 228.090909 591.243889 
L 228.090909 590.936528 
" clip-path="url(#pbe5eb0b71f)" style="fill: none; stroke: #377eb8; stroke-width: 1.5"/>
    <path d="M 284.454545 582.123175 
L 284.454545 581.836405 
" clip-path="url(#pbe5eb0b71f)" style="fill: none; stroke: #377eb8; stroke-width: 1.5"/>
    <path d="M 301.363636 579.884376 
L 301.363636 579.601763 
" clip-path="url(#pbe5eb0b71f)" style="fill: none; stroke: #377eb8; stroke-width: 1.5"/>
    <path d="M 307 579.564867 
L 307 579.289739 
" clip-path="url(#pbe5eb0b71f)" style="fill: none; stroke: #377eb8; stroke-width: 1.5"/>
    <path d="M 312.636364 579.090464 
L 312.636364 578.811019 
" clip-path="url(#pbe5eb0b71f)" style="fill: none; stroke: #377eb8; stroke-width: 1.5"/>
    <path d="M 318.272727 578.753623 
L 318.272727 578.475595 
" clip-path="url(#pbe5eb0b71f)" style="fill: none; stroke: #377eb8; stroke-width: 1.5"/>
    <path d="M 323.909091 298.331129 
L 323.909091 297.654913 
" clip-path="url(#pbe5eb0b71f)" style="fill: none; stroke: #377eb8; stroke-width: 1.5"/>
    <path d="M 329.545455 270.58552 
L 329.545455 270.086239 
" clip-path="url(#pbe5eb0b71f)" style="fill: none; stroke: #377eb8; stroke-width: 1.5"/>
    <path d="M 335.181818 251.781294 
L 335.181818 251.323715 
" clip-path="url(#pbe5eb0b71f)" style="fill: none; stroke: #377eb8; stroke-width: 1.5"/>
    <path d="M 340.818182 238.056146 
L 340.818182 237.639587 
" clip-path="url(#pbe5eb0b71f)" style="fill: none; stroke: #377eb8; stroke-width: 1.5"/>
    <path d="M 346.454545 225.878135 
L 346.454545 225.481759 
" clip-path="url(#pbe5eb0b71f)" style="fill: none; stroke: #377eb8; stroke-width: 1.5"/>
    <path d="M 352.090909 216.066442 
L 352.090909 215.695293 
" clip-path="url(#pbe5eb0b71f)" style="fill: none; stroke: #377eb8; stroke-width: 1.5"/>
    <path d="M 357.727273 207.917306 
L 357.727273 207.566797 
" clip-path="url(#pbe5eb0b71f)" style="fill: none; stroke: #377eb8; stroke-width: 1.5"/>
    <path d="M 363.363636 200.290819 
L 363.363636 199.967641 
" clip-path="url(#pbe5eb0b71f)" style="fill: none; stroke: #377eb8; stroke-width: 1.5"/>
    <path d="M 369 193.49715 
L 369 193.189541 
" clip-path="url(#pbe5eb0b71f)" style="fill: none; stroke: #377eb8; stroke-width: 1.5"/>
    <path d="M 397.181818 169.0674 
L 397.181818 168.802509 
" clip-path="url(#pbe5eb0b71f)" style="fill: none; stroke: #377eb8; stroke-width: 1.5"/>
    <path d="M 453.545455 141.718582 
L 453.545455 141.506546 
" clip-path="url(#pbe5eb0b71f)" style="fill: none; stroke: #377eb8; stroke-width: 1.5"/>
    <path d="M 509.909091 126.660509 
L 509.909091 126.484135 
" clip-path="url(#pbe5eb0b71f)" style="fill: none; stroke: #377eb8; stroke-width: 1.5"/>
    <path d="M 566.272727 117.799464 
L 566.272727 117.644385 
" clip-path="url(#pbe5eb0b71f)" style="fill: none; stroke: #377eb8; stroke-width: 1.5"/>
    <path d="M 622.636364 111.732407 
L 622.636364 111.6 
" clip-path="url(#pbe5eb0b71f)" style="fill: none; stroke: #377eb8; stroke-width: 1.5"/>
   </g>
   <g id="LineCollection_3">
    <path d="M 171.727273 604.441118 
L 171.727273 604.166146 
" clip-path="url(#pbe5eb0b71f)" style="fill: none; stroke: #4daf4a; stroke-width: 1.5"/>
    <path d="M 228.090909 594.837418 
L 228.090909 594.54833 
" clip-path="url(#pbe5eb0b71f)" style="fill: none; stroke: #4daf4a; stroke-width: 1.5"/>
    <path d="M 284.454545 584.860688 
L 284.454545 584.588241 
" clip-path="url(#pbe5eb0b71f)" style="fill: none; stroke: #4daf4a; stroke-width: 1.5"/>
    <path d="M 301.363636 580.813045 
L 301.363636 580.535474 
" clip-path="url(#pbe5eb0b71f)" style="fill: none; stroke: #4daf4a; stroke-width: 1.5"/>
    <path d="M 307 579.358584 
L 307 579.068543 
" clip-path="url(#pbe5eb0b71f)" style="fill: none; stroke: #4daf4a; stroke-width: 1.5"/>
    <path d="M 312.636364 578.391873 
L 312.636364 578.118224 
" clip-path="url(#pbe5eb0b71f)" style="fill: none; stroke: #4daf4a; stroke-width: 1.5"/>
    <path d="M 318.272727 577.517682 
L 318.272727 577.245413 
" clip-path="url(#pbe5eb0b71f)" style="fill: none; stroke: #4daf4a; stroke-width: 1.5"/>
    <path d="M 323.909091 576.728882 
L 323.909091 576.453461 
" clip-path="url(#pbe5eb0b71f)" style="fill: none; stroke: #4daf4a; stroke-width: 1.5"/>
    <path d="M 329.545455 575.772931 
L 329.545455 575.497592 
" clip-path="url(#pbe5eb0b71f)" style="fill: none; stroke: #4daf4a; stroke-width: 1.5"/>
    <path d="M 335.181818 574.995211 
L 335.181818 574.722429 
" clip-path="url(#pbe5eb0b71f)" style="fill: none; stroke: #4daf4a; stroke-width: 1.5"/>
    <path d="M 340.818182 573.700087 
L 340.818182 573.438158 
" clip-path="url(#pbe5eb0b71f)" style="fill: none; stroke: #4daf4a; stroke-width: 1.5"/>
    <path d="M 346.454545 572.934354 
L 346.454545 572.665218 
" clip-path="url(#pbe5eb0b71f)" style="fill: none; stroke: #4daf4a; stroke-width: 1.5"/>
    <path d="M 352.090909 571.911062 
L 352.090909 571.619773 
" clip-path="url(#pbe5eb0b71f)" style="fill: none; stroke: #4daf4a; stroke-width: 1.5"/>
    <path d="M 357.727273 571.832122 
L 357.727273 571.536283 
" clip-path="url(#pbe5eb0b71f)" style="fill: none; stroke: #4daf4a; stroke-width: 1.5"/>
    <path d="M 363.363636 570.245423 
L 363.363636 569.950378 
" clip-path="url(#pbe5eb0b71f)" style="fill: none; stroke: #4daf4a; stroke-width: 1.5"/>
    <path d="M 369 569.38863 
L 369 569.070247 
" clip-path="url(#pbe5eb0b71f)" style="fill: none; stroke: #4daf4a; stroke-width: 1.5"/>
    <path d="M 397.181818 566.437566 
L 397.181818 566.120522 
" clip-path="url(#pbe5eb0b71f)" style="fill: none; stroke: #4daf4a; stroke-width: 1.5"/>
    <path d="M 453.545455 561.440409 
L 453.545455 561.121581 
" clip-path="url(#pbe5eb0b71f)" style="fill: none; stroke: #4daf4a; stroke-width: 1.5"/>
    <path d="M 509.909091 558.332287 
L 509.909091 557.975734 
" clip-path="url(#pbe5eb0b71f)" style="fill: none; stroke: #4daf4a; stroke-width: 1.5"/>
    <path d="M 566.272727 556.428925 
L 566.272727 556.015268 
" clip-path="url(#pbe5eb0b71f)" style="fill: none; stroke: #4daf4a; stroke-width: 1.5"/>
    <path d="M 622.636364 552.551286 
L 622.636364 552.126656 
" clip-path="url(#pbe5eb0b71f)" style="fill: none; stroke: #4daf4a; stroke-width: 1.5"/>
   </g>
   <g id="line2d_12">
    <path d="M 115.363636 615.6 
L 171.727273 603.997353 
L 228.090909 594.92408 
L 284.454545 587.657009 
L 301.363636 585.350936 
L 307 588.282168 
L 312.636364 400.89934 
L 318.272727 329.969204 
L 323.909091 289.780802 
L 329.545455 267.101509 
L 335.181818 250.47163 
L 340.818182 236.520829 
L 346.454545 224.883731 
L 352.090909 209.523724 
L 357.727273 203.436078 
L 363.363636 196.794493 
L 369 190.736325 
L 397.181818 168.494209 
L 453.545455 141.27424 
L 509.909091 126.810712 
L 566.272727 117.537448 
L 622.636364 111.858929 
" clip-path="url(#pbe5eb0b71f)" style="fill: none; stroke: #e41a1c; stroke-width: 1.5; stroke-linecap: square"/>
    <defs>
     <path id="mc09329cf11" d="M 0 1.5 
C 0.397805 1.5 0.77937 1.341951 1.06066 1.06066 
C 1.341951 0.77937 1.5 0.397805 1.5 0 
C 1.5 -0.397805 1.341951 -0.77937 1.06066 -1.06066 
C 0.77937 -1.341951 0.397805 -1.5 0 -1.5 
C -0.397805 -1.5 -0.77937 -1.341951 -1.06066 -1.06066 
C -1.341951 -0.77937 -1.5 -0.397805 -1.5 0 
C -1.5 0.397805 -1.341951 0.77937 -1.06066 1.06066 
C -0.77937 1.341951 -0.397805 1.5 0 1.5 
z
" style="stroke: #e41a1c"/>
    </defs>
    <g clip-path="url(#pbe5eb0b71f)">
     <use xlink:href="#mc09329cf11" x="115.363636" y="615.6" style="fill: #e41a1c; stroke: #e41a1c"/>
     <use xlink:href="#mc09329cf11" x="171.727273" y="603.997353" style="fill: #e41a1c; stroke: #e41a1c"/>
     <use xlink:href="#mc09329cf11" x="228.090909" y="594.92408" style="fill: #e41a1c; stroke: #e41a1c"/>
     <use xlink:href="#mc09329cf11" x="284.454545" y="587.657009" style="fill: #e41a1c; stroke: #e41a1c"/>
     <use xlink:href="#mc09329cf11" x="301.363636" y="585.350936" style="fill: #e41a1c; stroke: #e41a1c"/>
     <use xlink:href="#mc09329cf11" x="307" y="588.282168" style="fill: #e41a1c; stroke: #e41a1c"/>
     <use xlink:href="#mc09329cf11" x="312.636364" y="400.89934" style="fill: #e41a1c; stroke: #e41a1c"/>
     <use xlink:href="#mc09329cf11" x="318.272727" y="329.969204" style="fill: #e41a1c; stroke: #e41a1c"/>
     <use xlink:href="#mc09329cf11" x="323.909091" y="289.780802" style="fill: #e41a1c; stroke: #e41a1c"/>
     <use xlink:href="#mc09329cf11" x="329.545455" y="267.101509" style="fill: #e41a1c; stroke: #e41a1c"/>
     <use xlink:href="#mc09329cf11" x="335.181818" y="250.47163" style="fill: #e41a1c; stroke: #e41a1c"/>
     <use xlink:href="#mc09329cf11" x="340.818182" y="236.520829" style="fill: #e41a1c; stroke: #e41a1c"/>
     <use xlink:href="#mc09329cf11" x="346.454545" y="224.883731" style="fill: #e41a1c; stroke: #e41a1c"/>
     <use xlink:href="#mc09329cf11" x="352.090909" y="209.523724" style="fill: #e41a1c; stroke: #e41a1c"/>
     <use xlink:href="#mc09329cf11" x="357.727273" y="203.436078" style="fill: #e41a1c; stroke: #e41a1c"/>
     <use xlink:href="#mc09329cf11" x="363.363636" y="196.794493" style="fill: #e41a1c; stroke: #e41a1c"/>
     <use xlink:href="#mc09329cf11" x="369" y="190.736325" style="fill: #e41a1c; stroke: #e41a1c"/>
     <use xlink:href="#mc09329cf11" x="397.181818" y="168.494209" style="fill: #e41a1c; stroke: #e41a1c"/>
     <use xlink:href="#mc09329cf11" x="453.545455" y="141.27424" style="fill: #e41a1c; stroke: #e41a1c"/>
     <use xlink:href="#mc09329cf11" x="509.909091" y="126.810712" style="fill: #e41a1c; stroke: #e41a1c"/>
     <use xlink:href="#mc09329cf11" x="566.272727" y="117.537448" style="fill: #e41a1c; stroke: #e41a1c"/>
     <use xlink:href="#mc09329cf11" x="622.636364" y="111.858929" style="fill: #e41a1c; stroke: #e41a1c"/>
    </g>
   </g>
   <g id="line2d_13">
    <path d="M 115.363636 615.259107 
L 171.727273 602.662852 
L 228.090909 591.090209 
L 284.454545 581.97979 
L 301.363636 579.74307 
L 307 579.427303 
L 312.636364 578.950742 
L 318.272727 578.614609 
L 323.909091 297.993021 
L 329.545455 270.33588 
L 335.181818 251.552505 
L 340.818182 237.847866 
L 346.454545 225.679947 
L 352.090909 215.880867 
L 357.727273 207.742052 
L 363.363636 200.12923 
L 369 193.343345 
L 397.181818 168.934954 
L 453.545455 141.612564 
L 509.909091 126.572322 
L 566.272727 117.721924 
L 622.636364 111.666203 
" clip-path="url(#pbe5eb0b71f)" style="fill: none; stroke-dasharray: 5.55,2.4; stroke-dashoffset: 0; stroke: #377eb8; stroke-width: 1.5"/>
    <defs>
     <path id="m0879f7e51e" d="M 0 1.5 
C 0.397805 1.5 0.77937 1.341951 1.06066 1.06066 
C 1.341951 0.77937 1.5 0.397805 1.5 0 
C 1.5 -0.397805 1.341951 -0.77937 1.06066 -1.06066 
C 0.77937 -1.341951 0.397805 -1.5 0 -1.5 
C -0.397805 -1.5 -0.77937 -1.341951 -1.06066 -1.06066 
C -1.341951 -0.77937 -1.5 -0.397805 -1.5 0 
C -1.5 0.397805 -1.341951 0.77937 -1.06066 1.06066 
C -0.77937 1.341951 -0.397805 1.5 0 1.5 
z
" style="stroke: #377eb8"/>
    </defs>
    <g clip-path="url(#pbe5eb0b71f)">
     <use xlink:href="#m0879f7e51e" x="115.363636" y="615.259107" style="fill: #377eb8; stroke: #377eb8"/>
     <use xlink:href="#m0879f7e51e" x="171.727273" y="602.662852" style="fill: #377eb8; stroke: #377eb8"/>
     <use xlink:href="#m0879f7e51e" x="228.090909" y="591.090209" style="fill: #377eb8; stroke: #377eb8"/>
     <use xlink:href="#m0879f7e51e" x="284.454545" y="581.97979" style="fill: #377eb8; stroke: #377eb8"/>
     <use xlink:href="#m0879f7e51e" x="301.363636" y="579.74307" style="fill: #377eb8; stroke: #377eb8"/>
     <use xlink:href="#m0879f7e51e" x="307" y="579.427303" style="fill: #377eb8; stroke: #377eb8"/>
     <use xlink:href="#m0879f7e51e" x="312.636364" y="578.950742" style="fill: #377eb8; stroke: #377eb8"/>
     <use xlink:href="#m0879f7e51e" x="318.272727" y="578.614609" style="fill: #377eb8; stroke: #377eb8"/>
     <use xlink:href="#m0879f7e51e" x="323.909091" y="297.993021" style="fill: #377eb8; stroke: #377eb8"/>
     <use xlink:href="#m0879f7e51e" x="329.545455" y="270.33588" style="fill: #377eb8; stroke: #377eb8"/>
     <use xlink:href="#m0879f7e51e" x="335.181818" y="251.552505" style="fill: #377eb8; stroke: #377eb8"/>
     <use xlink:href="#m0879f7e51e" x="340.818182" y="237.847866" style="fill: #377eb8; stroke: #377eb8"/>
     <use xlink:href="#m0879f7e51e" x="346.454545" y="225.679947" style="fill: #377eb8; stroke: #377eb8"/>
     <use xlink:href="#m0879f7e51e" x="352.090909" y="215.880867" style="fill: #377eb8; stroke: #377eb8"/>
     <use xlink:href="#m0879f7e51e" x="357.727273" y="207.742052" style="fill: #377eb8; stroke: #377eb8"/>
     <use xlink:href="#m0879f7e51e" x="363.363636" y="200.12923" style="fill: #377eb8; stroke: #377eb8"/>
     <use xlink:href="#m0879f7e51e" x="369" y="193.343345" style="fill: #377eb8; stroke: #377eb8"/>
     <use xlink:href="#m0879f7e51e" x="397.181818" y="168.934954" style="fill: #377eb8; stroke: #377eb8"/>
     <use xlink:href="#m0879f7e51e" x="453.545455" y="141.612564" style="fill: #377eb8; stroke: #377eb8"/>
     <use xlink:href="#m0879f7e51e" x="509.909091" y="126.572322" style="fill: #377eb8; stroke: #377eb8"/>
     <use xlink:href="#m0879f7e51e" x="566.272727" y="117.721924" style="fill: #377eb8; stroke: #377eb8"/>
     <use xlink:href="#m0879f7e51e" x="622.636364" y="111.666203" style="fill: #377eb8; stroke: #377eb8"/>
    </g>
   </g>
   <g id="line2d_14">
    <path d="M 171.727273 604.303632 
L 228.090909 594.692874 
L 284.454545 584.724465 
L 301.363636 580.674259 
L 307 579.213563 
L 312.636364 578.255049 
L 318.272727 577.381548 
L 323.909091 576.591171 
L 329.545455 575.635262 
L 335.181818 574.85882 
L 340.818182 573.569122 
L 346.454545 572.799786 
L 352.090909 571.765418 
L 357.727273 571.684203 
L 363.363636 570.097901 
L 369 569.229439 
L 397.181818 566.279044 
L 453.545455 561.280995 
L 509.909091 558.15401 
L 566.272727 556.222096 
L 622.636364 552.338971 
" clip-path="url(#pbe5eb0b71f)" style="fill: none; stroke-dasharray: 1.5,2.475; stroke-dashoffset: 0; stroke: #4daf4a; stroke-width: 1.5"/>
    <defs>
     <path id="m5797ae337d" d="M 0 1.5 
C 0.397805 1.5 0.77937 1.341951 1.06066 1.06066 
C 1.341951 0.77937 1.5 0.397805 1.5 0 
C 1.5 -0.397805 1.341951 -0.77937 1.06066 -1.06066 
C 0.77937 -1.341951 0.397805 -1.5 0 -1.5 
C -0.397805 -1.5 -0.77937 -1.341951 -1.06066 -1.06066 
C -1.341951 -0.77937 -1.5 -0.397805 -1.5 0 
C -1.5 0.397805 -1.341951 0.77937 -1.06066 1.06066 
C -0.77937 1.341951 -0.397805 1.5 0 1.5 
z
" style="stroke: #4daf4a"/>
    </defs>
    <g clip-path="url(#pbe5eb0b71f)">
     <use xlink:href="#m5797ae337d" x="171.727273" y="604.303632" style="fill: #4daf4a; stroke: #4daf4a"/>
     <use xlink:href="#m5797ae337d" x="228.090909" y="594.692874" style="fill: #4daf4a; stroke: #4daf4a"/>
     <use xlink:href="#m5797ae337d" x="284.454545" y="584.724465" style="fill: #4daf4a; stroke: #4daf4a"/>
     <use xlink:href="#m5797ae337d" x="301.363636" y="580.674259" style="fill: #4daf4a; stroke: #4daf4a"/>
     <use xlink:href="#m5797ae337d" x="307" y="579.213563" style="fill: #4daf4a; stroke: #4daf4a"/>
     <use xlink:href="#m5797ae337d" x="312.636364" y="578.255049" style="fill: #4daf4a; stroke: #4daf4a"/>
     <use xlink:href="#m5797ae337d" x="318.272727" y="577.381548" style="fill: #4daf4a; stroke: #4daf4a"/>
     <use xlink:href="#m5797ae337d" x="323.909091" y="576.591171" style="fill: #4daf4a; stroke: #4daf4a"/>
     <use xlink:href="#m5797ae337d" x="329.545455" y="575.635262" style="fill: #4daf4a; stroke: #4daf4a"/>
     <use xlink:href="#m5797ae337d" x="335.181818" y="574.85882" style="fill: #4daf4a; stroke: #4daf4a"/>
     <use xlink:href="#m5797ae337d" x="340.818182" y="573.569122" style="fill: #4daf4a; stroke: #4daf4a"/>
     <use xlink:href="#m5797ae337d" x="346.454545" y="572.799786" style="fill: #4daf4a; stroke: #4daf4a"/>
     <use xlink:href="#m5797ae337d" x="352.090909" y="571.765418" style="fill: #4daf4a; stroke: #4daf4a"/>
     <use xlink:href="#m5797ae337d" x="357.727273" y="571.684203" style="fill: #4daf4a; stroke: #4daf4a"/>
     <use xlink:href="#m5797ae337d" x="363.363636" y="570.097901" style="fill: #4daf4a; stroke: #4daf4a"/>
     <use xlink:href="#m5797ae337d" x="369" y="569.229439" style="fill: #4daf4a; stroke: #4daf4a"/>
     <use xlink:href="#m5797ae337d" x="397.181818" y="566.279044" style="fill: #4daf4a; stroke: #4daf4a"/>
     <use xlink:href="#m5797ae337d" x="453.545455" y="561.280995" style="fill: #4daf4a; stroke: #4daf4a"/>
     <use xlink:href="#m5797ae337d" x="509.909091" y="558.15401" style="fill: #4daf4a; stroke: #4daf4a"/>
     <use xlink:href="#m5797ae337d" x="566.272727" y="556.222096" style="fill: #4daf4a; stroke: #4daf4a"/>
     <use xlink:href="#m5797ae337d" x="622.636364" y="552.338971" style="fill: #4daf4a; stroke: #4daf4a"/>
    </g>
   </g>
   <g id="patch_3">
    <path d="M 90 640.8 
L 90 86.4 
" style="fill: none; stroke: #000000; stroke-width: 0.8; stroke-linejoin: miter; stroke-linecap: square"/>
   </g>
   <g id="patch_4">
    <path d="M 648 640.8 
L 648 86.4 
" style="fill: none; stroke: #000000; stroke-width: 0.8; stroke-linejoin: miter; stroke-linecap: square"/>
   </g>
   <g id="patch_5">
    <path d="M 90 640.8 
L 648 640.8 
" style="fill: none; stroke: #000000; stroke-width: 0.8; stroke-linejoin: miter; stroke-linecap: square"/>
   </g>
   <g id="patch_6">
    <path d="M 90 86.4 
L 648 86.4 
" style="fill: none; stroke: #000000; stroke-width: 0.8; stroke-linejoin: miter; stroke-linecap: square"/>
   </g>
   <g id="legend_1">
    <g id="patch_7">
     <path d="M 106.8 211.2825 
L 335.3175 211.2825 
Q 340.1175 211.2825 340.1175 206.4825 
L 340.1175 103.2 
Q 340.1175 98.4 335.3175 98.4 
L 106.8 98.4 
Q 102 98.4 102 103.2 
L 102 206.4825 
Q 102 211.2825 106.8 211.2825 
z
" style="fill: #ffffff; opacity: 0.8; stroke: #cccccc; stroke-linejoin: miter"/>
    </g>
    <g id="LineCollection_4">
     <path d="M 135.6 129.83625 
L 135.6 105.83625 
" style="fill: none; stroke: #e41a1c; stroke-width: 1.5"/>
    </g>
    <g id="line2d_15">
     <path d="M 111.6 117.83625 
L 159.6 117.83625 
" style="fill: none; stroke: #e41a1c; stroke-width: 1.5; stroke-linecap: square"/>
    </g>
    <g id="line2d_16">
     <g>
      <use xlink:href="#mc09329cf11" x="135.6" y="117.83625" style="fill: #e41a1c; stroke: #e41a1c"/>
     </g>
    </g>
    <g id="text_14">
     <text style="font: 24px 'DejaVu Sans', 'Bitstream Vera Sans', 'Computer Modern Sans Serif', 'Lucida Grande', 'Verdana', 'Geneva', 'Lucid', 'Arial', 'Helvetica', 'Avant Garde', sans-serif; text-anchor: start" x="178.8" y="126.23625" transform="rotate(-0 178.8 126.23625)">independent</text>
    </g>
    <g id="LineCollection_5">
     <path d="M 135.6 165.06375 
L 135.6 141.06375 
" style="fill: none; stroke: #377eb8; stroke-width: 1.5"/>
    </g>
    <g id="line2d_17">
     <path d="M 111.6 153.06375 
L 159.6 153.06375 
" style="fill: none; stroke-dasharray: 5.55,2.4; stroke-dashoffset: 0; stroke: #377eb8; stroke-width: 1.5"/>
    </g>
    <g id="line2d_18">
     <g>
      <use xlink:href="#m0879f7e51e" x="135.6" y="153.06375" style="fill: #377eb8; stroke: #377eb8"/>
     </g>
    </g>
    <g id="text_15">
     <text style="font: 24px 'DejaVu Sans', 'Bitstream Vera Sans', 'Computer Modern Sans Serif', 'Lucida Grande', 'Verdana', 'Geneva', 'Lucid', 'Arial', 'Helvetica', 'Avant Garde', sans-serif; text-anchor: start" x="178.8" y="161.46375" transform="rotate(-0 178.8 161.46375)">right-left</text>
    </g>
    <g id="LineCollection_6">
     <path d="M 135.6 200.29125 
L 135.6 176.29125 
" style="fill: none; stroke: #4daf4a; stroke-width: 1.5"/>
    </g>
    <g id="line2d_19">
     <path d="M 111.6 188.29125 
L 159.6 188.29125 
" style="fill: none; stroke-dasharray: 1.5,2.475; stroke-dashoffset: 0; stroke: #4daf4a; stroke-width: 1.5"/>
    </g>
    <g id="line2d_20">
     <g>
      <use xlink:href="#m5797ae337d" x="135.6" y="188.29125" style="fill: #4daf4a; stroke: #4daf4a"/>
     </g>
    </g>
    <g id="text_16">
     <text style="font: 24px 'DejaVu Sans', 'Bitstream Vera Sans', 'Computer Modern Sans Serif', 'Lucida Grande', 'Verdana', 'Geneva', 'Lucid', 'Arial', 'Helvetica', 'Avant Garde', sans-serif; text-anchor: start" x="178.8" y="196.69125" transform="rotate(-0 178.8 196.69125)">left-right</text>
    </g>
   </g>
  </g>
 </g>
 <defs>
  <clipPath id="pbe5eb0b71f">
   <rect x="90" y="86.4" width="558" height="554.4"/>
  </clipPath>
 </defs>
</svg>
