<?xml version="1.0" encoding="utf-8" standalone="no"?>
<!DOCTYPE svg PUBLIC "-//W3C//DTD SVG 1.1//EN"
  "http://www.w3.org/Graphics/SVG/1.1/DTD/svg11.dtd">
<svg xmlns:xlink="http://www.w3.org/1999/xlink" width="720pt" height="720pt" viewBox="0 0 720 720" xmlns="http://www.w3.org/2000/svg" version="1.1">
 <metadata>
  <rdf:RDF xmlns:dc="http://purl.org/dc/elements/1.1/" xmlns:cc="http://creativecommons.org/ns#" xmlns:rdf="http://www.w3.org/1999/02/22-rdf-syntax-ns#">
   <cc:Work>
    <dc:type rdf:resource="http://purl.org/dc/dcmitype/StillImage"/>
    <dc:date>2023-09-17T22:05:15.274616</dc:date>
    <dc:format>image/svg+xml</dc:format>
    <dc:creator>
     <cc:Agent>
      <dc:title>Matplotlib v3.7.1, https://matplotlib.org/</dc:title>
     </cc:Agent>
    </dc:creator>
   </cc:Work>
  </rdf:RDF>
 </metadata>
 <defs>
  <style type="text/css">*{stroke-linejoin: round; stroke-linecap: butt}</style>
 </defs>
 <g id="figure_1">
  <g id="patch_1">
   <path d="M 0 720 
L 720 720 
L 720 0 
L 0 0 
z
" style="fill: #ffffff"/>
  </g>
  <g id="axes_1">
   <g id="patch_2">
    <path d="M 90 640.8 
L 648 640.8 
L 648 86.4 
L 90 86.4 
z
" style="fill: #ffffff"/>
   </g>
   <g id="matplotlib.axis_1">
    <g id="xtick_1">
     <g id="line2d_1">
      <defs>
       <path id="mf3dc356814" d="M 0 0 
L 0 3.5 
" style="stroke: #000000; stroke-width: 0.8"/>
      </defs>
      <g>
       <use xlink:href="#mf3dc356814" x="210.477273" y="640.8" style="stroke: #000000; stroke-width: 0.8"/>
      </g>
     </g>
     <g id="text_1">
      <text style="font: 24px 'DejaVu Sans', 'Bitstream Vera Sans', 'Computer Modern Sans Serif', 'Lucida Grande', 'Verdana', 'Geneva', 'Lucid', 'Arial', 'Helvetica', 'Avant Garde', sans-serif; text-anchor: middle" x="210.477273" y="666.03625" transform="rotate(-0 210.477273 666.03625)">0.2</text>
     </g>
    </g>
    <g id="xtick_2">
     <g id="line2d_2">
      <g>
       <use xlink:href="#mf3dc356814" x="337.295455" y="640.8" style="stroke: #000000; stroke-width: 0.8"/>
      </g>
     </g>
     <g id="text_2">
      <text style="font: 24px 'DejaVu Sans', 'Bitstream Vera Sans', 'Computer Modern Sans Serif', 'Lucida Grande', 'Verdana', 'Geneva', 'Lucid', 'Arial', 'Helvetica', 'Avant Garde', sans-serif; text-anchor: middle" x="337.295455" y="666.03625" transform="rotate(-0 337.295455 666.03625)">0.4</text>
     </g>
    </g>
    <g id="xtick_3">
     <g id="line2d_3">
      <g>
       <use xlink:href="#mf3dc356814" x="464.113636" y="640.8" style="stroke: #000000; stroke-width: 0.8"/>
      </g>
     </g>
     <g id="text_3">
      <text style="font: 24px 'DejaVu Sans', 'Bitstream Vera Sans', 'Computer Modern Sans Serif', 'Lucida Grande', 'Verdana', 'Geneva', 'Lucid', 'Arial', 'Helvetica', 'Avant Garde', sans-serif; text-anchor: middle" x="464.113636" y="666.03625" transform="rotate(-0 464.113636 666.03625)">0.6</text>
     </g>
    </g>
    <g id="xtick_4">
     <g id="line2d_4">
      <g>
       <use xlink:href="#mf3dc356814" x="590.931818" y="640.8" style="stroke: #000000; stroke-width: 0.8"/>
      </g>
     </g>
     <g id="text_4">
      <text style="font: 24px 'DejaVu Sans', 'Bitstream Vera Sans', 'Computer Modern Sans Serif', 'Lucida Grande', 'Verdana', 'Geneva', 'Lucid', 'Arial', 'Helvetica', 'Avant Garde', sans-serif; text-anchor: middle" x="590.931818" y="666.03625" transform="rotate(-0 590.931818 666.03625)">0.8</text>
     </g>
    </g>
    <g id="text_5">
     <text style="font: 24px 'DejaVu Sans', 'Bitstream Vera Sans', 'Computer Modern Sans Serif', 'Lucida Grande', 'Verdana', 'Geneva', 'Lucid', 'Arial', 'Helvetica', 'Avant Garde', sans-serif; text-anchor: middle" x="369" y="693.26375" transform="rotate(-0 369 693.26375)">Field strength in $ x $-direction $ h_x $ </text>
    </g>
   </g>
   <g id="matplotlib.axis_2">
    <g id="ytick_1">
     <g id="line2d_5">
      <defs>
       <path id="m99438ed740" d="M 0 0 
L -3.5 0 
" style="stroke: #000000; stroke-width: 0.8"/>
      </defs>
      <g>
       <use xlink:href="#m99438ed740" x="90" y="610.389891" style="stroke: #000000; stroke-width: 0.8"/>
      </g>
     </g>
     <g id="text_6">
      <text style="font: 24px 'DejaVu Sans', 'Bitstream Vera Sans', 'Computer Modern Sans Serif', 'Lucida Grande', 'Verdana', 'Geneva', 'Lucid', 'Arial', 'Helvetica', 'Avant Garde', sans-serif; text-anchor: end" x="83" y="619.508016" transform="rotate(-0 83 619.508016)">0</text>
     </g>
    </g>
    <g id="ytick_2">
     <g id="line2d_6">
      <g>
       <use xlink:href="#m99438ed740" x="90" y="517.063853" style="stroke: #000000; stroke-width: 0.8"/>
      </g>
     </g>
     <g id="text_7">
      <text style="font: 24px 'DejaVu Sans', 'Bitstream Vera Sans', 'Computer Modern Sans Serif', 'Lucida Grande', 'Verdana', 'Geneva', 'Lucid', 'Arial', 'Helvetica', 'Avant Garde', sans-serif; text-anchor: end" x="83" y="526.181978" transform="rotate(-0 83 526.181978)">10</text>
     </g>
    </g>
    <g id="ytick_3">
     <g id="line2d_7">
      <g>
       <use xlink:href="#m99438ed740" x="90" y="423.737816" style="stroke: #000000; stroke-width: 0.8"/>
      </g>
     </g>
     <g id="text_8">
      <text style="font: 24px 'DejaVu Sans', 'Bitstream Vera Sans', 'Computer Modern Sans Serif', 'Lucida Grande', 'Verdana', 'Geneva', 'Lucid', 'Arial', 'Helvetica', 'Avant Garde', sans-serif; text-anchor: end" x="83" y="432.855941" transform="rotate(-0 83 432.855941)">20</text>
     </g>
    </g>
    <g id="ytick_4">
     <g id="line2d_8">
      <g>
       <use xlink:href="#m99438ed740" x="90" y="330.411779" style="stroke: #000000; stroke-width: 0.8"/>
      </g>
     </g>
     <g id="text_9">
      <text style="font: 24px 'DejaVu Sans', 'Bitstream Vera Sans', 'Computer Modern Sans Serif', 'Lucida Grande', 'Verdana', 'Geneva', 'Lucid', 'Arial', 'Helvetica', 'Avant Garde', sans-serif; text-anchor: end" x="83" y="339.529904" transform="rotate(-0 83 339.529904)">30</text>
     </g>
    </g>
    <g id="ytick_5">
     <g id="line2d_9">
      <g>
       <use xlink:href="#m99438ed740" x="90" y="237.085742" style="stroke: #000000; stroke-width: 0.8"/>
      </g>
     </g>
     <g id="text_10">
      <text style="font: 24px 'DejaVu Sans', 'Bitstream Vera Sans', 'Computer Modern Sans Serif', 'Lucida Grande', 'Verdana', 'Geneva', 'Lucid', 'Arial', 'Helvetica', 'Avant Garde', sans-serif; text-anchor: end" x="83" y="246.203867" transform="rotate(-0 83 246.203867)">40</text>
     </g>
    </g>
    <g id="ytick_6">
     <g id="line2d_10">
      <g>
       <use xlink:href="#m99438ed740" x="90" y="143.759704" style="stroke: #000000; stroke-width: 0.8"/>
      </g>
     </g>
     <g id="text_11">
      <text style="font: 24px 'DejaVu Sans', 'Bitstream Vera Sans', 'Computer Modern Sans Serif', 'Lucida Grande', 'Verdana', 'Geneva', 'Lucid', 'Arial', 'Helvetica', 'Avant Garde', sans-serif; text-anchor: end" x="83" y="152.877829" transform="rotate(-0 83 152.877829)">50</text>
     </g>
    </g>
    <g id="text_12">
     <text style="font: 24px 'DejaVu Sans', 'Bitstream Vera Sans', 'Computer Modern Sans Serif', 'Lucida Grande', 'Verdana', 'Geneva', 'Lucid', 'Arial', 'Helvetica', 'Avant Garde', sans-serif; text-anchor: middle" x="43.46875" y="363.6" transform="rotate(-90 43.46875 363.6)">Susceptibility $ \chi $ </text>
    </g>
   </g>
   <g id="line2d_11">
    <path d="M 115.363636 608.327582 
L 178.772727 608.777165 
L 242.181818 609.098208 
L 283.397727 609.023584 
L 296.079545 615.6 
L 302.420455 277.326916 
L 308.761364 484.315362 
L 315.102273 538.95715 
L 321.443182 570.078658 
L 327.784091 580.83117 
L 334.125 585.593086 
L 340.465909 589.705569 
L 346.806818 583.088299 
L 353.147727 599.569426 
L 359.488636 598.584828 
L 365.829545 599.62182 
L 384.852273 602.483056 
L 432.409091 605.551687 
L 495.818182 607.819076 
L 559.227273 608.741618 
L 622.636364 609.380564 
" clip-path="url(#pc758e715be)" style="fill: none; stroke: #e41a1c; stroke-width: 1.5; stroke-linecap: square"/>
    <defs>
     <path id="m9cb0274657" d="M 0 1.5 
C 0.397805 1.5 0.77937 1.341951 1.06066 1.06066 
C 1.341951 0.77937 1.5 0.397805 1.5 0 
C 1.5 -0.397805 1.341951 -0.77937 1.06066 -1.06066 
C 0.77937 -1.341951 0.397805 -1.5 0 -1.5 
C -0.397805 -1.5 -0.77937 -1.341951 -1.06066 -1.06066 
C -1.341951 -0.77937 -1.5 -0.397805 -1.5 0 
C -1.5 0.397805 -1.341951 0.77937 -1.06066 1.06066 
C -0.77937 1.341951 -0.397805 1.5 0 1.5 
z
" style="stroke: #e41a1c"/>
    </defs>
    <g clip-path="url(#pc758e715be)">
     <use xlink:href="#m9cb0274657" x="115.363636" y="608.327582" style="fill: #e41a1c; stroke: #e41a1c"/>
     <use xlink:href="#m9cb0274657" x="178.772727" y="608.777165" style="fill: #e41a1c; stroke: #e41a1c"/>
     <use xlink:href="#m9cb0274657" x="242.181818" y="609.098208" style="fill: #e41a1c; stroke: #e41a1c"/>
     <use xlink:href="#m9cb0274657" x="283.397727" y="609.023584" style="fill: #e41a1c; stroke: #e41a1c"/>
     <use xlink:href="#m9cb0274657" x="296.079545" y="615.6" style="fill: #e41a1c; stroke: #e41a1c"/>
     <use xlink:href="#m9cb0274657" x="302.420455" y="277.326916" style="fill: #e41a1c; stroke: #e41a1c"/>
     <use xlink:href="#m9cb0274657" x="308.761364" y="484.315362" style="fill: #e41a1c; stroke: #e41a1c"/>
     <use xlink:href="#m9cb0274657" x="315.102273" y="538.95715" style="fill: #e41a1c; stroke: #e41a1c"/>
     <use xlink:href="#m9cb0274657" x="321.443182" y="570.078658" style="fill: #e41a1c; stroke: #e41a1c"/>
     <use xlink:href="#m9cb0274657" x="327.784091" y="580.83117" style="fill: #e41a1c; stroke: #e41a1c"/>
     <use xlink:href="#m9cb0274657" x="334.125" y="585.593086" style="fill: #e41a1c; stroke: #e41a1c"/>
     <use xlink:href="#m9cb0274657" x="340.465909" y="589.705569" style="fill: #e41a1c; stroke: #e41a1c"/>
     <use xlink:href="#m9cb0274657" x="346.806818" y="583.088299" style="fill: #e41a1c; stroke: #e41a1c"/>
     <use xlink:href="#m9cb0274657" x="353.147727" y="599.569426" style="fill: #e41a1c; stroke: #e41a1c"/>
     <use xlink:href="#m9cb0274657" x="359.488636" y="598.584828" style="fill: #e41a1c; stroke: #e41a1c"/>
     <use xlink:href="#m9cb0274657" x="365.829545" y="599.62182" style="fill: #e41a1c; stroke: #e41a1c"/>
     <use xlink:href="#m9cb0274657" x="384.852273" y="602.483056" style="fill: #e41a1c; stroke: #e41a1c"/>
     <use xlink:href="#m9cb0274657" x="432.409091" y="605.551687" style="fill: #e41a1c; stroke: #e41a1c"/>
     <use xlink:href="#m9cb0274657" x="495.818182" y="607.819076" style="fill: #e41a1c; stroke: #e41a1c"/>
     <use xlink:href="#m9cb0274657" x="559.227273" y="608.741618" style="fill: #e41a1c; stroke: #e41a1c"/>
     <use xlink:href="#m9cb0274657" x="622.636364" y="609.380564" style="fill: #e41a1c; stroke: #e41a1c"/>
    </g>
   </g>
   <g id="line2d_12">
    <path d="M 115.363636 608.150974 
L 178.772727 608.332915 
L 242.181818 608.770562 
L 283.397727 609.064674 
L 296.079545 609.828632 
L 302.420455 609.542828 
L 308.761364 609.792433 
L 315.102273 111.6 
L 321.443182 561.230798 
L 327.784091 577.003445 
L 334.125 586.030628 
L 340.465909 588.762063 
L 346.806818 592.97255 
L 353.147727 595.923581 
L 359.488636 596.858506 
L 365.829545 598.328343 
L 384.852273 601.712968 
L 432.409091 605.533482 
L 495.818182 607.716568 
L 559.227273 608.81678 
L 622.636364 609.313519 
" clip-path="url(#pc758e715be)" style="fill: none; stroke-dasharray: 5.55,2.4; stroke-dashoffset: 0; stroke: #377eb8; stroke-width: 1.5"/>
    <defs>
     <path id="m00f4e30812" d="M 0 1.5 
C 0.397805 1.5 0.77937 1.341951 1.06066 1.06066 
C 1.341951 0.77937 1.5 0.397805 1.5 0 
C 1.5 -0.397805 1.341951 -0.77937 1.06066 -1.06066 
C 0.77937 -1.341951 0.397805 -1.5 0 -1.5 
C -0.397805 -1.5 -0.77937 -1.341951 -1.06066 -1.06066 
C -1.341951 -0.77937 -1.5 -0.397805 -1.5 0 
C -1.5 0.397805 -1.341951 0.77937 -1.06066 1.06066 
C -0.77937 1.341951 -0.397805 1.5 0 1.5 
z
" style="stroke: #377eb8"/>
    </defs>
    <g clip-path="url(#pc758e715be)">
     <use xlink:href="#m00f4e30812" x="115.363636" y="608.150974" style="fill: #377eb8; stroke: #377eb8"/>
     <use xlink:href="#m00f4e30812" x="178.772727" y="608.332915" style="fill: #377eb8; stroke: #377eb8"/>
     <use xlink:href="#m00f4e30812" x="242.181818" y="608.770562" style="fill: #377eb8; stroke: #377eb8"/>
     <use xlink:href="#m00f4e30812" x="283.397727" y="609.064674" style="fill: #377eb8; stroke: #377eb8"/>
     <use xlink:href="#m00f4e30812" x="296.079545" y="609.828632" style="fill: #377eb8; stroke: #377eb8"/>
     <use xlink:href="#m00f4e30812" x="302.420455" y="609.542828" style="fill: #377eb8; stroke: #377eb8"/>
     <use xlink:href="#m00f4e30812" x="308.761364" y="609.792433" style="fill: #377eb8; stroke: #377eb8"/>
     <use xlink:href="#m00f4e30812" x="315.102273" y="111.6" style="fill: #377eb8; stroke: #377eb8"/>
     <use xlink:href="#m00f4e30812" x="321.443182" y="561.230798" style="fill: #377eb8; stroke: #377eb8"/>
     <use xlink:href="#m00f4e30812" x="327.784091" y="577.003445" style="fill: #377eb8; stroke: #377eb8"/>
     <use xlink:href="#m00f4e30812" x="334.125" y="586.030628" style="fill: #377eb8; stroke: #377eb8"/>
     <use xlink:href="#m00f4e30812" x="340.465909" y="588.762063" style="fill: #377eb8; stroke: #377eb8"/>
     <use xlink:href="#m00f4e30812" x="346.806818" y="592.97255" style="fill: #377eb8; stroke: #377eb8"/>
     <use xlink:href="#m00f4e30812" x="353.147727" y="595.923581" style="fill: #377eb8; stroke: #377eb8"/>
     <use xlink:href="#m00f4e30812" x="359.488636" y="596.858506" style="fill: #377eb8; stroke: #377eb8"/>
     <use xlink:href="#m00f4e30812" x="365.829545" y="598.328343" style="fill: #377eb8; stroke: #377eb8"/>
     <use xlink:href="#m00f4e30812" x="384.852273" y="601.712968" style="fill: #377eb8; stroke: #377eb8"/>
     <use xlink:href="#m00f4e30812" x="432.409091" y="605.533482" style="fill: #377eb8; stroke: #377eb8"/>
     <use xlink:href="#m00f4e30812" x="495.818182" y="607.716568" style="fill: #377eb8; stroke: #377eb8"/>
     <use xlink:href="#m00f4e30812" x="559.227273" y="608.81678" style="fill: #377eb8; stroke: #377eb8"/>
     <use xlink:href="#m00f4e30812" x="622.636364" y="609.313519" style="fill: #377eb8; stroke: #377eb8"/>
    </g>
   </g>
   <g id="line2d_13">
    <path d="M 178.772727 608.68163 
L 242.181818 608.618059 
L 283.397727 607.990216 
L 296.079545 607.793582 
L 302.420455 608.686182 
L 308.761364 608.83729 
L 315.102273 608.985038 
L 321.443182 608.690813 
L 327.784091 609.009807 
L 334.125 608.097522 
L 340.465909 609.022437 
L 346.806818 608.551356 
L 353.147727 610.245535 
L 359.488636 607.570324 
L 365.829545 608.846245 
L 384.852273 609.341057 
L 432.409091 609.501514 
L 495.818182 609.834086 
L 559.227273 610.046503 
L 622.636364 609.699686 
" clip-path="url(#pc758e715be)" style="fill: none; stroke-dasharray: 1.5,2.475; stroke-dashoffset: 0; stroke: #4daf4a; stroke-width: 1.5"/>
    <defs>
     <path id="m069d1944af" d="M 0 1.5 
C 0.397805 1.5 0.77937 1.341951 1.06066 1.06066 
C 1.341951 0.77937 1.5 0.397805 1.5 0 
C 1.5 -0.397805 1.341951 -0.77937 1.06066 -1.06066 
C 0.77937 -1.341951 0.397805 -1.5 0 -1.5 
C -0.397805 -1.5 -0.77937 -1.341951 -1.06066 -1.06066 
C -1.341951 -0.77937 -1.5 -0.397805 -1.5 0 
C -1.5 0.397805 -1.341951 0.77937 -1.06066 1.06066 
C -0.77937 1.341951 -0.397805 1.5 0 1.5 
z
" style="stroke: #4daf4a"/>
    </defs>
    <g clip-path="url(#pc758e715be)">
     <use xlink:href="#m069d1944af" x="178.772727" y="608.68163" style="fill: #4daf4a; stroke: #4daf4a"/>
     <use xlink:href="#m069d1944af" x="242.181818" y="608.618059" style="fill: #4daf4a; stroke: #4daf4a"/>
     <use xlink:href="#m069d1944af" x="283.397727" y="607.990216" style="fill: #4daf4a; stroke: #4daf4a"/>
     <use xlink:href="#m069d1944af" x="296.079545" y="607.793582" style="fill: #4daf4a; stroke: #4daf4a"/>
     <use xlink:href="#m069d1944af" x="302.420455" y="608.686182" style="fill: #4daf4a; stroke: #4daf4a"/>
     <use xlink:href="#m069d1944af" x="308.761364" y="608.83729" style="fill: #4daf4a; stroke: #4daf4a"/>
     <use xlink:href="#m069d1944af" x="315.102273" y="608.985038" style="fill: #4daf4a; stroke: #4daf4a"/>
     <use xlink:href="#m069d1944af" x="321.443182" y="608.690813" style="fill: #4daf4a; stroke: #4daf4a"/>
     <use xlink:href="#m069d1944af" x="327.784091" y="609.009807" style="fill: #4daf4a; stroke: #4daf4a"/>
     <use xlink:href="#m069d1944af" x="334.125" y="608.097522" style="fill: #4daf4a; stroke: #4daf4a"/>
     <use xlink:href="#m069d1944af" x="340.465909" y="609.022437" style="fill: #4daf4a; stroke: #4daf4a"/>
     <use xlink:href="#m069d1944af" x="346.806818" y="608.551356" style="fill: #4daf4a; stroke: #4daf4a"/>
     <use xlink:href="#m069d1944af" x="353.147727" y="610.245535" style="fill: #4daf4a; stroke: #4daf4a"/>
     <use xlink:href="#m069d1944af" x="359.488636" y="607.570324" style="fill: #4daf4a; stroke: #4daf4a"/>
     <use xlink:href="#m069d1944af" x="365.829545" y="608.846245" style="fill: #4daf4a; stroke: #4daf4a"/>
     <use xlink:href="#m069d1944af" x="384.852273" y="609.341057" style="fill: #4daf4a; stroke: #4daf4a"/>
     <use xlink:href="#m069d1944af" x="432.409091" y="609.501514" style="fill: #4daf4a; stroke: #4daf4a"/>
     <use xlink:href="#m069d1944af" x="495.818182" y="609.834086" style="fill: #4daf4a; stroke: #4daf4a"/>
     <use xlink:href="#m069d1944af" x="559.227273" y="610.046503" style="fill: #4daf4a; stroke: #4daf4a"/>
     <use xlink:href="#m069d1944af" x="622.636364" y="609.699686" style="fill: #4daf4a; stroke: #4daf4a"/>
    </g>
   </g>
   <g id="patch_3">
    <path d="M 90 640.8 
L 90 86.4 
" style="fill: none; stroke: #000000; stroke-width: 0.8; stroke-linejoin: miter; stroke-linecap: square"/>
   </g>
   <g id="patch_4">
    <path d="M 648 640.8 
L 648 86.4 
" style="fill: none; stroke: #000000; stroke-width: 0.8; stroke-linejoin: miter; stroke-linecap: square"/>
   </g>
   <g id="patch_5">
    <path d="M 90 640.8 
L 648 640.8 
" style="fill: none; stroke: #000000; stroke-width: 0.8; stroke-linejoin: miter; stroke-linecap: square"/>
   </g>
   <g id="patch_6">
    <path d="M 90 86.4 
L 648 86.4 
" style="fill: none; stroke: #000000; stroke-width: 0.8; stroke-linejoin: miter; stroke-linecap: square"/>
   </g>
   <g id="legend_1">
    <g id="patch_7">
     <path d="M 402.6825 211.2825 
L 631.2 211.2825 
Q 636 211.2825 636 206.4825 
L 636 103.2 
Q 636 98.4 631.2 98.4 
L 402.6825 98.4 
Q 397.8825 98.4 397.8825 103.2 
L 397.8825 206.4825 
Q 397.8825 211.2825 402.6825 211.2825 
z
" style="fill: #ffffff; opacity: 0.8; stroke: #cccccc; stroke-linejoin: miter"/>
    </g>
    <g id="line2d_14">
     <path d="M 407.4825 117.83625 
L 431.4825 117.83625 
L 455.4825 117.83625 
" style="fill: none; stroke: #e41a1c; stroke-width: 1.5; stroke-linecap: square"/>
     <g>
      <use xlink:href="#m9cb0274657" x="431.4825" y="117.83625" style="fill: #e41a1c; stroke: #e41a1c"/>
     </g>
    </g>
    <g id="text_13">
     <text style="font: 24px 'DejaVu Sans', 'Bitstream Vera Sans', 'Computer Modern Sans Serif', 'Lucida Grande', 'Verdana', 'Geneva', 'Lucid', 'Arial', 'Helvetica', 'Avant Garde', sans-serif; text-anchor: start" x="474.6825" y="126.23625" transform="rotate(-0 474.6825 126.23625)">independent</text>
    </g>
    <g id="line2d_15">
     <path d="M 407.4825 153.06375 
L 431.4825 153.06375 
L 455.4825 153.06375 
" style="fill: none; stroke-dasharray: 5.55,2.4; stroke-dashoffset: 0; stroke: #377eb8; stroke-width: 1.5"/>
     <g>
      <use xlink:href="#m00f4e30812" x="431.4825" y="153.06375" style="fill: #377eb8; stroke: #377eb8"/>
     </g>
    </g>
    <g id="text_14">
     <text style="font: 24px 'DejaVu Sans', 'Bitstream Vera Sans', 'Computer Modern Sans Serif', 'Lucida Grande', 'Verdana', 'Geneva', 'Lucid', 'Arial', 'Helvetica', 'Avant Garde', sans-serif; text-anchor: start" x="474.6825" y="161.46375" transform="rotate(-0 474.6825 161.46375)">right-left</text>
    </g>
    <g id="line2d_16">
     <path d="M 407.4825 188.29125 
L 431.4825 188.29125 
L 455.4825 188.29125 
" style="fill: none; stroke-dasharray: 1.5,2.475; stroke-dashoffset: 0; stroke: #4daf4a; stroke-width: 1.5"/>
     <g>
      <use xlink:href="#m069d1944af" x="431.4825" y="188.29125" style="fill: #4daf4a; stroke: #4daf4a"/>
     </g>
    </g>
    <g id="text_15">
     <text style="font: 24px 'DejaVu Sans', 'Bitstream Vera Sans', 'Computer Modern Sans Serif', 'Lucida Grande', 'Verdana', 'Geneva', 'Lucid', 'Arial', 'Helvetica', 'Avant Garde', sans-serif; text-anchor: start" x="474.6825" y="196.69125" transform="rotate(-0 474.6825 196.69125)">left-right</text>
    </g>
   </g>
  </g>
 </g>
 <defs>
  <clipPath id="pc758e715be">
   <rect x="90" y="86.4" width="558" height="554.4"/>
  </clipPath>
 </defs>
</svg>
