<?xml version="1.0" encoding="utf-8" standalone="no"?>
<!DOCTYPE svg PUBLIC "-//W3C//DTD SVG 1.1//EN"
  "http://www.w3.org/Graphics/SVG/1.1/DTD/svg11.dtd">
<svg xmlns:xlink="http://www.w3.org/1999/xlink" width="720pt" height="720pt" viewBox="0 0 720 720" xmlns="http://www.w3.org/2000/svg" version="1.1">
 <metadata>
  <rdf:RDF xmlns:dc="http://purl.org/dc/elements/1.1/" xmlns:cc="http://creativecommons.org/ns#" xmlns:rdf="http://www.w3.org/1999/02/22-rdf-syntax-ns#">
   <cc:Work>
    <dc:type rdf:resource="http://purl.org/dc/dcmitype/StillImage"/>
    <dc:date>2023-09-18T12:21:33.733196</dc:date>
    <dc:format>image/svg+xml</dc:format>
    <dc:creator>
     <cc:Agent>
      <dc:title>Matplotlib v3.7.1, https://matplotlib.org/</dc:title>
     </cc:Agent>
    </dc:creator>
   </cc:Work>
  </rdf:RDF>
 </metadata>
 <defs>
  <style type="text/css">*{stroke-linejoin: round; stroke-linecap: butt}</style>
 </defs>
 <g id="figure_1">
  <g id="patch_1">
   <path d="M 0 720 
L 720 720 
L 720 0 
L 0 0 
z
" style="fill: #ffffff"/>
  </g>
  <g id="axes_1">
   <g id="patch_2">
    <path d="M 90 640.8 
L 648 640.8 
L 648 86.4 
L 90 86.4 
z
" style="fill: #ffffff"/>
   </g>
   <g id="matplotlib.axis_1">
    <g id="xtick_1">
     <g id="line2d_1">
      <defs>
       <path id="m8aec632df1" d="M 0 0 
L 0 3.5 
" style="stroke: #000000; stroke-width: 0.8"/>
      </defs>
      <g>
       <use xlink:href="#m8aec632df1" x="115.363636" y="640.8" style="stroke: #000000; stroke-width: 0.8"/>
      </g>
     </g>
     <g id="text_1">
      <text style="font: 24px 'DejaVu Sans', 'Bitstream Vera Sans', 'Computer Modern Sans Serif', 'Lucida Grande', 'Verdana', 'Geneva', 'Lucid', 'Arial', 'Helvetica', 'Avant Garde', sans-serif; text-anchor: middle" x="115.363636" y="666.03625" transform="rotate(-0 115.363636 666.03625)">0.0</text>
     </g>
    </g>
    <g id="xtick_2">
     <g id="line2d_2">
      <g>
       <use xlink:href="#m8aec632df1" x="260.298701" y="640.8" style="stroke: #000000; stroke-width: 0.8"/>
      </g>
     </g>
     <g id="text_2">
      <text style="font: 24px 'DejaVu Sans', 'Bitstream Vera Sans', 'Computer Modern Sans Serif', 'Lucida Grande', 'Verdana', 'Geneva', 'Lucid', 'Arial', 'Helvetica', 'Avant Garde', sans-serif; text-anchor: middle" x="260.298701" y="666.03625" transform="rotate(-0 260.298701 666.03625)">0.2</text>
     </g>
    </g>
    <g id="xtick_3">
     <g id="line2d_3">
      <g>
       <use xlink:href="#m8aec632df1" x="405.233766" y="640.8" style="stroke: #000000; stroke-width: 0.8"/>
      </g>
     </g>
     <g id="text_3">
      <text style="font: 24px 'DejaVu Sans', 'Bitstream Vera Sans', 'Computer Modern Sans Serif', 'Lucida Grande', 'Verdana', 'Geneva', 'Lucid', 'Arial', 'Helvetica', 'Avant Garde', sans-serif; text-anchor: middle" x="405.233766" y="666.03625" transform="rotate(-0 405.233766 666.03625)">0.4</text>
     </g>
    </g>
    <g id="xtick_4">
     <g id="line2d_4">
      <g>
       <use xlink:href="#m8aec632df1" x="550.168831" y="640.8" style="stroke: #000000; stroke-width: 0.8"/>
      </g>
     </g>
     <g id="text_4">
      <text style="font: 24px 'DejaVu Sans', 'Bitstream Vera Sans', 'Computer Modern Sans Serif', 'Lucida Grande', 'Verdana', 'Geneva', 'Lucid', 'Arial', 'Helvetica', 'Avant Garde', sans-serif; text-anchor: middle" x="550.168831" y="666.03625" transform="rotate(-0 550.168831 666.03625)">0.6</text>
     </g>
    </g>
    <g id="text_5">
     <text style="font: 24px 'DejaVu Sans', 'Bitstream Vera Sans', 'Computer Modern Sans Serif', 'Lucida Grande', 'Verdana', 'Geneva', 'Lucid', 'Arial', 'Helvetica', 'Avant Garde', sans-serif; text-anchor: middle" x="369" y="693.26375" transform="rotate(-0 369 693.26375)">Field strength in $ z $-direction $ h_z $ </text>
    </g>
   </g>
   <g id="matplotlib.axis_2">
    <g id="ytick_1">
     <g id="line2d_5">
      <defs>
       <path id="m30c12f94dc" d="M 0 0 
L -3.5 0 
" style="stroke: #000000; stroke-width: 0.8"/>
      </defs>
      <g>
       <use xlink:href="#m30c12f94dc" x="90" y="632.49839" style="stroke: #000000; stroke-width: 0.8"/>
      </g>
     </g>
     <g id="text_6">
      <text style="font: 24px 'DejaVu Sans', 'Bitstream Vera Sans', 'Computer Modern Sans Serif', 'Lucida Grande', 'Verdana', 'Geneva', 'Lucid', 'Arial', 'Helvetica', 'Avant Garde', sans-serif; text-anchor: end" x="83" y="641.616515" transform="rotate(-0 83 641.616515)">−1.30</text>
     </g>
    </g>
    <g id="ytick_2">
     <g id="line2d_6">
      <g>
       <use xlink:href="#m30c12f94dc" x="90" y="545.683572" style="stroke: #000000; stroke-width: 0.8"/>
      </g>
     </g>
     <g id="text_7">
      <text style="font: 24px 'DejaVu Sans', 'Bitstream Vera Sans', 'Computer Modern Sans Serif', 'Lucida Grande', 'Verdana', 'Geneva', 'Lucid', 'Arial', 'Helvetica', 'Avant Garde', sans-serif; text-anchor: end" x="83" y="554.801697" transform="rotate(-0 83 554.801697)">−1.25</text>
     </g>
    </g>
    <g id="ytick_3">
     <g id="line2d_7">
      <g>
       <use xlink:href="#m30c12f94dc" x="90" y="458.868753" style="stroke: #000000; stroke-width: 0.8"/>
      </g>
     </g>
     <g id="text_8">
      <text style="font: 24px 'DejaVu Sans', 'Bitstream Vera Sans', 'Computer Modern Sans Serif', 'Lucida Grande', 'Verdana', 'Geneva', 'Lucid', 'Arial', 'Helvetica', 'Avant Garde', sans-serif; text-anchor: end" x="83" y="467.986878" transform="rotate(-0 83 467.986878)">−1.20</text>
     </g>
    </g>
    <g id="ytick_4">
     <g id="line2d_8">
      <g>
       <use xlink:href="#m30c12f94dc" x="90" y="372.053935" style="stroke: #000000; stroke-width: 0.8"/>
      </g>
     </g>
     <g id="text_9">
      <text style="font: 24px 'DejaVu Sans', 'Bitstream Vera Sans', 'Computer Modern Sans Serif', 'Lucida Grande', 'Verdana', 'Geneva', 'Lucid', 'Arial', 'Helvetica', 'Avant Garde', sans-serif; text-anchor: end" x="83" y="381.17206" transform="rotate(-0 83 381.17206)">−1.15</text>
     </g>
    </g>
    <g id="ytick_5">
     <g id="line2d_9">
      <g>
       <use xlink:href="#m30c12f94dc" x="90" y="285.239117" style="stroke: #000000; stroke-width: 0.8"/>
      </g>
     </g>
     <g id="text_10">
      <text style="font: 24px 'DejaVu Sans', 'Bitstream Vera Sans', 'Computer Modern Sans Serif', 'Lucida Grande', 'Verdana', 'Geneva', 'Lucid', 'Arial', 'Helvetica', 'Avant Garde', sans-serif; text-anchor: end" x="83" y="294.357242" transform="rotate(-0 83 294.357242)">−1.10</text>
     </g>
    </g>
    <g id="ytick_6">
     <g id="line2d_10">
      <g>
       <use xlink:href="#m30c12f94dc" x="90" y="198.424299" style="stroke: #000000; stroke-width: 0.8"/>
      </g>
     </g>
     <g id="text_11">
      <text style="font: 24px 'DejaVu Sans', 'Bitstream Vera Sans', 'Computer Modern Sans Serif', 'Lucida Grande', 'Verdana', 'Geneva', 'Lucid', 'Arial', 'Helvetica', 'Avant Garde', sans-serif; text-anchor: end" x="83" y="207.542424" transform="rotate(-0 83 207.542424)">−1.05</text>
     </g>
    </g>
    <g id="ytick_7">
     <g id="line2d_11">
      <g>
       <use xlink:href="#m30c12f94dc" x="90" y="111.60948" style="stroke: #000000; stroke-width: 0.8"/>
      </g>
     </g>
     <g id="text_12">
      <text style="font: 24px 'DejaVu Sans', 'Bitstream Vera Sans', 'Computer Modern Sans Serif', 'Lucida Grande', 'Verdana', 'Geneva', 'Lucid', 'Arial', 'Helvetica', 'Avant Garde', sans-serif; text-anchor: end" x="83" y="120.727605" transform="rotate(-0 83 120.727605)">−1.00</text>
     </g>
    </g>
    <g id="text_13">
     <text style="font: 24px 'DejaVu Sans', 'Bitstream Vera Sans', 'Computer Modern Sans Serif', 'Lucida Grande', 'Verdana', 'Geneva', 'Lucid', 'Arial', 'Helvetica', 'Avant Garde', sans-serif; text-anchor: middle" x="0.46" y="363.6" transform="rotate(-90 0.46 363.6)">Energy per spin $ E/N $</text>
    </g>
   </g>
   <g id="LineCollection_1">
    <path d="M 115.363636 111.609481 
L 115.363636 111.60948 
" clip-path="url(#p72071174f2)" style="fill: none; stroke: #e41a1c; stroke-width: 1.5"/>
    <path d="M 187.831169 115.991919 
L 187.831169 115.946415 
" clip-path="url(#p72071174f2)" style="fill: none; stroke: #e41a1c; stroke-width: 1.5"/>
    <path d="M 260.298701 129.699424 
L 260.298701 129.698829 
" clip-path="url(#p72071174f2)" style="fill: none; stroke: #e41a1c; stroke-width: 1.5"/>
    <path d="M 318.272727 148.858692 
L 318.272727 148.854676 
" clip-path="url(#p72071174f2)" style="fill: none; stroke: #e41a1c; stroke-width: 1.5"/>
    <path d="M 332.766234 155.127883 
L 332.766234 155.114641 
" clip-path="url(#p72071174f2)" style="fill: none; stroke: #e41a1c; stroke-width: 1.5"/>
    <path d="M 340.012987 158.623797 
L 340.012987 158.612731 
" clip-path="url(#p72071174f2)" style="fill: none; stroke: #e41a1c; stroke-width: 1.5"/>
    <path d="M 354.506494 166.233811 
L 354.506494 166.208604 
" clip-path="url(#p72071174f2)" style="fill: none; stroke: #e41a1c; stroke-width: 1.5"/>
    <path d="M 361.753247 170.647586 
L 361.753247 170.596632 
" clip-path="url(#p72071174f2)" style="fill: none; stroke: #e41a1c; stroke-width: 1.5"/>
    <path d="M 369 175.845263 
L 369 175.75113 
" clip-path="url(#p72071174f2)" style="fill: none; stroke: #e41a1c; stroke-width: 1.5"/>
    <path d="M 383.493506 186.612805 
L 383.493506 186.393015 
" clip-path="url(#p72071174f2)" style="fill: none; stroke: #e41a1c; stroke-width: 1.5"/>
    <path d="M 405.233766 208.894078 
L 405.233766 208.374806 
" clip-path="url(#p72071174f2)" style="fill: none; stroke: #e41a1c; stroke-width: 1.5"/>
    <path d="M 477.701299 333.497057 
L 477.701299 333.484987 
" clip-path="url(#p72071174f2)" style="fill: none; stroke: #e41a1c; stroke-width: 1.5"/>
    <path d="M 550.168831 468.841287 
L 550.168831 468.833939 
" clip-path="url(#p72071174f2)" style="fill: none; stroke: #e41a1c; stroke-width: 1.5"/>
    <path d="M 622.636364 615.598028 
L 622.636364 615.592743 
" clip-path="url(#p72071174f2)" style="fill: none; stroke: #e41a1c; stroke-width: 1.5"/>
   </g>
   <g id="LineCollection_2">
    <path d="M 115.363636 111.609487 
L 115.363636 111.609477 
" clip-path="url(#p72071174f2)" style="fill: none; stroke: #377eb8; stroke-width: 1.5"/>
    <path d="M 187.831169 115.991945 
L 187.831169 115.991919 
" clip-path="url(#p72071174f2)" style="fill: none; stroke: #377eb8; stroke-width: 1.5"/>
    <path d="M 260.298701 129.700065 
L 260.298701 129.699636 
" clip-path="url(#p72071174f2)" style="fill: none; stroke: #377eb8; stroke-width: 1.5"/>
    <path d="M 318.272727 148.901803 
L 318.272727 148.898975 
" clip-path="url(#p72071174f2)" style="fill: none; stroke: #377eb8; stroke-width: 1.5"/>
    <path d="M 332.766234 155.287929 
L 332.766234 155.283342 
" clip-path="url(#p72071174f2)" style="fill: none; stroke: #377eb8; stroke-width: 1.5"/>
    <path d="M 340.012987 158.848867 
L 340.012987 158.842821 
" clip-path="url(#p72071174f2)" style="fill: none; stroke: #377eb8; stroke-width: 1.5"/>
    <path d="M 354.506494 167.036849 
L 354.506494 167.026619 
" clip-path="url(#p72071174f2)" style="fill: none; stroke: #377eb8; stroke-width: 1.5"/>
    <path d="M 361.753247 172.042382 
L 361.753247 172.028508 
" clip-path="url(#p72071174f2)" style="fill: none; stroke: #377eb8; stroke-width: 1.5"/>
    <path d="M 369 177.923238 
L 369 177.907017 
" clip-path="url(#p72071174f2)" style="fill: none; stroke: #377eb8; stroke-width: 1.5"/>
    <path d="M 383.493506 192.504639 
L 383.493506 192.48613 
" clip-path="url(#p72071174f2)" style="fill: none; stroke: #377eb8; stroke-width: 1.5"/>
    <path d="M 405.233766 219.396733 
L 405.233766 219.380392 
" clip-path="url(#p72071174f2)" style="fill: none; stroke: #377eb8; stroke-width: 1.5"/>
    <path d="M 477.701299 333.515664 
L 477.701299 333.505373 
" clip-path="url(#p72071174f2)" style="fill: none; stroke: #377eb8; stroke-width: 1.5"/>
    <path d="M 550.168831 468.845043 
L 550.168831 468.837998 
" clip-path="url(#p72071174f2)" style="fill: none; stroke: #377eb8; stroke-width: 1.5"/>
    <path d="M 622.636364 615.6 
L 622.636364 615.594976 
" clip-path="url(#p72071174f2)" style="fill: none; stroke: #377eb8; stroke-width: 1.5"/>
   </g>
   <g id="LineCollection_3">
    <path d="M 115.363636 111.606817 
L 115.363636 111.6 
" clip-path="url(#p72071174f2)" style="fill: none; stroke: #4daf4a; stroke-width: 1.5"/>
    <path d="M 187.831169 115.988271 
L 187.831169 115.96992 
" clip-path="url(#p72071174f2)" style="fill: none; stroke: #4daf4a; stroke-width: 1.5"/>
    <path d="M 260.298701 129.698873 
L 260.298701 129.697861 
" clip-path="url(#p72071174f2)" style="fill: none; stroke: #4daf4a; stroke-width: 1.5"/>
    <path d="M 318.272727 148.869381 
L 318.272727 148.864849 
" clip-path="url(#p72071174f2)" style="fill: none; stroke: #4daf4a; stroke-width: 1.5"/>
    <path d="M 332.766234 155.208291 
L 332.766234 155.20077 
" clip-path="url(#p72071174f2)" style="fill: none; stroke: #4daf4a; stroke-width: 1.5"/>
    <path d="M 340.012987 158.691612 
L 340.012987 158.680723 
" clip-path="url(#p72071174f2)" style="fill: none; stroke: #4daf4a; stroke-width: 1.5"/>
    <path d="M 354.506494 166.626481 
L 354.506494 166.598423 
" clip-path="url(#p72071174f2)" style="fill: none; stroke: #4daf4a; stroke-width: 1.5"/>
    <path d="M 361.753247 171.284693 
L 361.753247 171.233949 
" clip-path="url(#p72071174f2)" style="fill: none; stroke: #4daf4a; stroke-width: 1.5"/>
    <path d="M 369 176.641643 
L 369 176.550931 
" clip-path="url(#p72071174f2)" style="fill: none; stroke: #4daf4a; stroke-width: 1.5"/>
    <path d="M 383.493506 189.69552 
L 383.493506 189.464022 
" clip-path="url(#p72071174f2)" style="fill: none; stroke: #4daf4a; stroke-width: 1.5"/>
    <path d="M 405.233766 213.523144 
L 405.233766 213.035708 
" clip-path="url(#p72071174f2)" style="fill: none; stroke: #4daf4a; stroke-width: 1.5"/>
    <path d="M 477.701299 317.490692 
L 477.701299 316.09337 
" clip-path="url(#p72071174f2)" style="fill: none; stroke: #4daf4a; stroke-width: 1.5"/>
    <path d="M 550.168831 462.682983 
L 550.168831 461.252122 
" clip-path="url(#p72071174f2)" style="fill: none; stroke: #4daf4a; stroke-width: 1.5"/>
    <path d="M 622.636364 607.026558 
L 622.636364 605.031275 
" clip-path="url(#p72071174f2)" style="fill: none; stroke: #4daf4a; stroke-width: 1.5"/>
   </g>
   <g id="line2d_12">
    <path d="M 115.363636 111.60948 
L 187.831169 115.969167 
L 260.298701 129.699127 
L 318.272727 148.856684 
L 332.766234 155.121262 
L 340.012987 158.618264 
L 354.506494 166.221207 
L 361.753247 170.622109 
L 369 175.798197 
L 383.493506 186.50291 
L 405.233766 208.634442 
L 477.701299 333.491022 
L 550.168831 468.837613 
L 622.636364 615.595386 
" clip-path="url(#p72071174f2)" style="fill: none; stroke: #e41a1c; stroke-width: 1.5; stroke-linecap: square"/>
    <defs>
     <path id="m90b23713ee" d="M 0 1.5 
C 0.397805 1.5 0.77937 1.341951 1.06066 1.06066 
C 1.341951 0.77937 1.5 0.397805 1.5 0 
C 1.5 -0.397805 1.341951 -0.77937 1.06066 -1.06066 
C 0.77937 -1.341951 0.397805 -1.5 0 -1.5 
C -0.397805 -1.5 -0.77937 -1.341951 -1.06066 -1.06066 
C -1.341951 -0.77937 -1.5 -0.397805 -1.5 0 
C -1.5 0.397805 -1.341951 0.77937 -1.06066 1.06066 
C -0.77937 1.341951 -0.397805 1.5 0 1.5 
z
" style="stroke: #e41a1c"/>
    </defs>
    <g clip-path="url(#p72071174f2)">
     <use xlink:href="#m90b23713ee" x="115.363636" y="111.60948" style="fill: #e41a1c; stroke: #e41a1c"/>
     <use xlink:href="#m90b23713ee" x="187.831169" y="115.969167" style="fill: #e41a1c; stroke: #e41a1c"/>
     <use xlink:href="#m90b23713ee" x="260.298701" y="129.699127" style="fill: #e41a1c; stroke: #e41a1c"/>
     <use xlink:href="#m90b23713ee" x="318.272727" y="148.856684" style="fill: #e41a1c; stroke: #e41a1c"/>
     <use xlink:href="#m90b23713ee" x="332.766234" y="155.121262" style="fill: #e41a1c; stroke: #e41a1c"/>
     <use xlink:href="#m90b23713ee" x="340.012987" y="158.618264" style="fill: #e41a1c; stroke: #e41a1c"/>
     <use xlink:href="#m90b23713ee" x="354.506494" y="166.221207" style="fill: #e41a1c; stroke: #e41a1c"/>
     <use xlink:href="#m90b23713ee" x="361.753247" y="170.622109" style="fill: #e41a1c; stroke: #e41a1c"/>
     <use xlink:href="#m90b23713ee" x="369" y="175.798197" style="fill: #e41a1c; stroke: #e41a1c"/>
     <use xlink:href="#m90b23713ee" x="383.493506" y="186.50291" style="fill: #e41a1c; stroke: #e41a1c"/>
     <use xlink:href="#m90b23713ee" x="405.233766" y="208.634442" style="fill: #e41a1c; stroke: #e41a1c"/>
     <use xlink:href="#m90b23713ee" x="477.701299" y="333.491022" style="fill: #e41a1c; stroke: #e41a1c"/>
     <use xlink:href="#m90b23713ee" x="550.168831" y="468.837613" style="fill: #e41a1c; stroke: #e41a1c"/>
     <use xlink:href="#m90b23713ee" x="622.636364" y="615.595386" style="fill: #e41a1c; stroke: #e41a1c"/>
    </g>
   </g>
   <g id="line2d_13">
    <path d="M 115.363636 111.609482 
L 187.831169 115.991932 
L 260.298701 129.69985 
L 318.272727 148.900389 
L 332.766234 155.285635 
L 340.012987 158.845844 
L 354.506494 167.031734 
L 361.753247 172.035445 
L 369 177.915128 
L 383.493506 192.495384 
L 405.233766 219.388562 
L 477.701299 333.510518 
L 550.168831 468.841521 
L 622.636364 615.597488 
" clip-path="url(#p72071174f2)" style="fill: none; stroke-dasharray: 5.55,2.4; stroke-dashoffset: 0; stroke: #377eb8; stroke-width: 1.5"/>
    <defs>
     <path id="m1b620fbcdf" d="M 0 1.5 
C 0.397805 1.5 0.77937 1.341951 1.06066 1.06066 
C 1.341951 0.77937 1.5 0.397805 1.5 0 
C 1.5 -0.397805 1.341951 -0.77937 1.06066 -1.06066 
C 0.77937 -1.341951 0.397805 -1.5 0 -1.5 
C -0.397805 -1.5 -0.77937 -1.341951 -1.06066 -1.06066 
C -1.341951 -0.77937 -1.5 -0.397805 -1.5 0 
C -1.5 0.397805 -1.341951 0.77937 -1.06066 1.06066 
C -0.77937 1.341951 -0.397805 1.5 0 1.5 
z
" style="stroke: #377eb8"/>
    </defs>
    <g clip-path="url(#p72071174f2)">
     <use xlink:href="#m1b620fbcdf" x="115.363636" y="111.609482" style="fill: #377eb8; stroke: #377eb8"/>
     <use xlink:href="#m1b620fbcdf" x="187.831169" y="115.991932" style="fill: #377eb8; stroke: #377eb8"/>
     <use xlink:href="#m1b620fbcdf" x="260.298701" y="129.69985" style="fill: #377eb8; stroke: #377eb8"/>
     <use xlink:href="#m1b620fbcdf" x="318.272727" y="148.900389" style="fill: #377eb8; stroke: #377eb8"/>
     <use xlink:href="#m1b620fbcdf" x="332.766234" y="155.285635" style="fill: #377eb8; stroke: #377eb8"/>
     <use xlink:href="#m1b620fbcdf" x="340.012987" y="158.845844" style="fill: #377eb8; stroke: #377eb8"/>
     <use xlink:href="#m1b620fbcdf" x="354.506494" y="167.031734" style="fill: #377eb8; stroke: #377eb8"/>
     <use xlink:href="#m1b620fbcdf" x="361.753247" y="172.035445" style="fill: #377eb8; stroke: #377eb8"/>
     <use xlink:href="#m1b620fbcdf" x="369" y="177.915128" style="fill: #377eb8; stroke: #377eb8"/>
     <use xlink:href="#m1b620fbcdf" x="383.493506" y="192.495384" style="fill: #377eb8; stroke: #377eb8"/>
     <use xlink:href="#m1b620fbcdf" x="405.233766" y="219.388562" style="fill: #377eb8; stroke: #377eb8"/>
     <use xlink:href="#m1b620fbcdf" x="477.701299" y="333.510518" style="fill: #377eb8; stroke: #377eb8"/>
     <use xlink:href="#m1b620fbcdf" x="550.168831" y="468.841521" style="fill: #377eb8; stroke: #377eb8"/>
     <use xlink:href="#m1b620fbcdf" x="622.636364" y="615.597488" style="fill: #377eb8; stroke: #377eb8"/>
    </g>
   </g>
   <g id="line2d_14">
    <path d="M 115.363636 111.603409 
L 187.831169 115.979095 
L 260.298701 129.698367 
L 318.272727 148.867115 
L 332.766234 155.204531 
L 340.012987 158.686167 
L 354.506494 166.612452 
L 361.753247 171.259321 
L 369 176.596287 
L 383.493506 189.579771 
L 405.233766 213.279426 
L 477.701299 316.792031 
L 550.168831 461.967553 
L 622.636364 606.028917 
" clip-path="url(#p72071174f2)" style="fill: none; stroke-dasharray: 1.5,2.475; stroke-dashoffset: 0; stroke: #4daf4a; stroke-width: 1.5"/>
    <defs>
     <path id="mb0c84947bb" d="M 0 1.5 
C 0.397805 1.5 0.77937 1.341951 1.06066 1.06066 
C 1.341951 0.77937 1.5 0.397805 1.5 0 
C 1.5 -0.397805 1.341951 -0.77937 1.06066 -1.06066 
C 0.77937 -1.341951 0.397805 -1.5 0 -1.5 
C -0.397805 -1.5 -0.77937 -1.341951 -1.06066 -1.06066 
C -1.341951 -0.77937 -1.5 -0.397805 -1.5 0 
C -1.5 0.397805 -1.341951 0.77937 -1.06066 1.06066 
C -0.77937 1.341951 -0.397805 1.5 0 1.5 
z
" style="stroke: #4daf4a"/>
    </defs>
    <g clip-path="url(#p72071174f2)">
     <use xlink:href="#mb0c84947bb" x="115.363636" y="111.603409" style="fill: #4daf4a; stroke: #4daf4a"/>
     <use xlink:href="#mb0c84947bb" x="187.831169" y="115.979095" style="fill: #4daf4a; stroke: #4daf4a"/>
     <use xlink:href="#mb0c84947bb" x="260.298701" y="129.698367" style="fill: #4daf4a; stroke: #4daf4a"/>
     <use xlink:href="#mb0c84947bb" x="318.272727" y="148.867115" style="fill: #4daf4a; stroke: #4daf4a"/>
     <use xlink:href="#mb0c84947bb" x="332.766234" y="155.204531" style="fill: #4daf4a; stroke: #4daf4a"/>
     <use xlink:href="#mb0c84947bb" x="340.012987" y="158.686167" style="fill: #4daf4a; stroke: #4daf4a"/>
     <use xlink:href="#mb0c84947bb" x="354.506494" y="166.612452" style="fill: #4daf4a; stroke: #4daf4a"/>
     <use xlink:href="#mb0c84947bb" x="361.753247" y="171.259321" style="fill: #4daf4a; stroke: #4daf4a"/>
     <use xlink:href="#mb0c84947bb" x="369" y="176.596287" style="fill: #4daf4a; stroke: #4daf4a"/>
     <use xlink:href="#mb0c84947bb" x="383.493506" y="189.579771" style="fill: #4daf4a; stroke: #4daf4a"/>
     <use xlink:href="#mb0c84947bb" x="405.233766" y="213.279426" style="fill: #4daf4a; stroke: #4daf4a"/>
     <use xlink:href="#mb0c84947bb" x="477.701299" y="316.792031" style="fill: #4daf4a; stroke: #4daf4a"/>
     <use xlink:href="#mb0c84947bb" x="550.168831" y="461.967553" style="fill: #4daf4a; stroke: #4daf4a"/>
     <use xlink:href="#mb0c84947bb" x="622.636364" y="606.028917" style="fill: #4daf4a; stroke: #4daf4a"/>
    </g>
   </g>
   <g id="patch_3">
    <path d="M 90 640.8 
L 90 86.4 
" style="fill: none; stroke: #000000; stroke-width: 0.8; stroke-linejoin: miter; stroke-linecap: square"/>
   </g>
   <g id="patch_4">
    <path d="M 648 640.8 
L 648 86.4 
" style="fill: none; stroke: #000000; stroke-width: 0.8; stroke-linejoin: miter; stroke-linecap: square"/>
   </g>
   <g id="patch_5">
    <path d="M 90 640.8 
L 648 640.8 
" style="fill: none; stroke: #000000; stroke-width: 0.8; stroke-linejoin: miter; stroke-linecap: square"/>
   </g>
   <g id="patch_6">
    <path d="M 90 86.4 
L 648 86.4 
" style="fill: none; stroke: #000000; stroke-width: 0.8; stroke-linejoin: miter; stroke-linecap: square"/>
   </g>
   <g id="legend_1">
    <g id="patch_7">
     <path d="M 106.8 628.8 
L 335.3175 628.8 
Q 340.1175 628.8 340.1175 624 
L 340.1175 520.7175 
Q 340.1175 515.9175 335.3175 515.9175 
L 106.8 515.9175 
Q 102 515.9175 102 520.7175 
L 102 624 
Q 102 628.8 106.8 628.8 
z
" style="fill: #ffffff; opacity: 0.8; stroke: #cccccc; stroke-linejoin: miter"/>
    </g>
    <g id="LineCollection_4">
     <path d="M 135.6 547.35375 
L 135.6 523.35375 
" style="fill: none; stroke: #e41a1c; stroke-width: 1.5"/>
    </g>
    <g id="line2d_15">
     <path d="M 111.6 535.35375 
L 159.6 535.35375 
" style="fill: none; stroke: #e41a1c; stroke-width: 1.5; stroke-linecap: square"/>
    </g>
    <g id="line2d_16">
     <g>
      <use xlink:href="#m90b23713ee" x="135.6" y="535.35375" style="fill: #e41a1c; stroke: #e41a1c"/>
     </g>
    </g>
    <g id="text_14">
     <text style="font: 24px 'DejaVu Sans', 'Bitstream Vera Sans', 'Computer Modern Sans Serif', 'Lucida Grande', 'Verdana', 'Geneva', 'Lucid', 'Arial', 'Helvetica', 'Avant Garde', sans-serif; text-anchor: start" x="178.8" y="543.75375" transform="rotate(-0 178.8 543.75375)">independent</text>
    </g>
    <g id="LineCollection_5">
     <path d="M 135.6 582.58125 
L 135.6 558.58125 
" style="fill: none; stroke: #377eb8; stroke-width: 1.5"/>
    </g>
    <g id="line2d_17">
     <path d="M 111.6 570.58125 
L 159.6 570.58125 
" style="fill: none; stroke-dasharray: 5.55,2.4; stroke-dashoffset: 0; stroke: #377eb8; stroke-width: 1.5"/>
    </g>
    <g id="line2d_18">
     <g>
      <use xlink:href="#m1b620fbcdf" x="135.6" y="570.58125" style="fill: #377eb8; stroke: #377eb8"/>
     </g>
    </g>
    <g id="text_15">
     <text style="font: 24px 'DejaVu Sans', 'Bitstream Vera Sans', 'Computer Modern Sans Serif', 'Lucida Grande', 'Verdana', 'Geneva', 'Lucid', 'Arial', 'Helvetica', 'Avant Garde', sans-serif; text-anchor: start" x="178.8" y="578.98125" transform="rotate(-0 178.8 578.98125)">right-left</text>
    </g>
    <g id="LineCollection_6">
     <path d="M 135.6 617.80875 
L 135.6 593.80875 
" style="fill: none; stroke: #4daf4a; stroke-width: 1.5"/>
    </g>
    <g id="line2d_19">
     <path d="M 111.6 605.80875 
L 159.6 605.80875 
" style="fill: none; stroke-dasharray: 1.5,2.475; stroke-dashoffset: 0; stroke: #4daf4a; stroke-width: 1.5"/>
    </g>
    <g id="line2d_20">
     <g>
      <use xlink:href="#mb0c84947bb" x="135.6" y="605.80875" style="fill: #4daf4a; stroke: #4daf4a"/>
     </g>
    </g>
    <g id="text_16">
     <text style="font: 24px 'DejaVu Sans', 'Bitstream Vera Sans', 'Computer Modern Sans Serif', 'Lucida Grande', 'Verdana', 'Geneva', 'Lucid', 'Arial', 'Helvetica', 'Avant Garde', sans-serif; text-anchor: start" x="178.8" y="614.20875" transform="rotate(-0 178.8 614.20875)">left-right</text>
    </g>
   </g>
  </g>
 </g>
 <defs>
  <clipPath id="p72071174f2">
   <rect x="90" y="86.4" width="558" height="554.4"/>
  </clipPath>
 </defs>
</svg>
