<?xml version="1.0" encoding="utf-8" standalone="no"?>
<!DOCTYPE svg PUBLIC "-//W3C//DTD SVG 1.1//EN"
  "http://www.w3.org/Graphics/SVG/1.1/DTD/svg11.dtd">
<svg xmlns:xlink="http://www.w3.org/1999/xlink" width="720pt" height="720pt" viewBox="0 0 720 720" xmlns="http://www.w3.org/2000/svg" version="1.1">
 <metadata>
  <rdf:RDF xmlns:dc="http://purl.org/dc/elements/1.1/" xmlns:cc="http://creativecommons.org/ns#" xmlns:rdf="http://www.w3.org/1999/02/22-rdf-syntax-ns#">
   <cc:Work>
    <dc:type rdf:resource="http://purl.org/dc/dcmitype/StillImage"/>
    <dc:date>2023-09-01T09:25:07.573396</dc:date>
    <dc:format>image/svg+xml</dc:format>
    <dc:creator>
     <cc:Agent>
      <dc:title>Matplotlib v3.7.1, https://matplotlib.org/</dc:title>
     </cc:Agent>
    </dc:creator>
   </cc:Work>
  </rdf:RDF>
 </metadata>
 <defs>
  <style type="text/css">*{stroke-linejoin: round; stroke-linecap: butt}</style>
 </defs>
 <g id="figure_1">
  <g id="patch_1">
   <path d="M 0 720 
L 720 720 
L 720 0 
L 0 0 
z
" style="fill: #ffffff"/>
  </g>
  <g id="axes_1">
   <g id="patch_2">
    <path d="M 90 640.8 
L 648 640.8 
L 648 86.4 
L 90 86.4 
z
" style="fill: #ffffff"/>
   </g>
   <g id="matplotlib.axis_1">
    <g id="xtick_1">
     <g id="line2d_1">
      <defs>
       <path id="m26f203f8c5" d="M 0 0 
L 0 3.5 
" style="stroke: #000000; stroke-width: 0.8"/>
      </defs>
      <g>
       <use xlink:href="#m26f203f8c5" x="115.363636" y="640.8" style="stroke: #000000; stroke-width: 0.8"/>
      </g>
     </g>
     <g id="text_1">
      <text style="font: 24px 'DejaVu Sans', 'Bitstream Vera Sans', 'Computer Modern Sans Serif', 'Lucida Grande', 'Verdana', 'Geneva', 'Lucid', 'Arial', 'Helvetica', 'Avant Garde', sans-serif; text-anchor: middle" x="115.363636" y="666.03625" transform="rotate(-0 115.363636 666.03625)">0.0</text>
     </g>
    </g>
    <g id="xtick_2">
     <g id="line2d_2">
      <g>
       <use xlink:href="#m26f203f8c5" x="260.298701" y="640.8" style="stroke: #000000; stroke-width: 0.8"/>
      </g>
     </g>
     <g id="text_2">
      <text style="font: 24px 'DejaVu Sans', 'Bitstream Vera Sans', 'Computer Modern Sans Serif', 'Lucida Grande', 'Verdana', 'Geneva', 'Lucid', 'Arial', 'Helvetica', 'Avant Garde', sans-serif; text-anchor: middle" x="260.298701" y="666.03625" transform="rotate(-0 260.298701 666.03625)">0.2</text>
     </g>
    </g>
    <g id="xtick_3">
     <g id="line2d_3">
      <g>
       <use xlink:href="#m26f203f8c5" x="405.233766" y="640.8" style="stroke: #000000; stroke-width: 0.8"/>
      </g>
     </g>
     <g id="text_3">
      <text style="font: 24px 'DejaVu Sans', 'Bitstream Vera Sans', 'Computer Modern Sans Serif', 'Lucida Grande', 'Verdana', 'Geneva', 'Lucid', 'Arial', 'Helvetica', 'Avant Garde', sans-serif; text-anchor: middle" x="405.233766" y="666.03625" transform="rotate(-0 405.233766 666.03625)">0.4</text>
     </g>
    </g>
    <g id="xtick_4">
     <g id="line2d_4">
      <g>
       <use xlink:href="#m26f203f8c5" x="550.168831" y="640.8" style="stroke: #000000; stroke-width: 0.8"/>
      </g>
     </g>
     <g id="text_4">
      <text style="font: 24px 'DejaVu Sans', 'Bitstream Vera Sans', 'Computer Modern Sans Serif', 'Lucida Grande', 'Verdana', 'Geneva', 'Lucid', 'Arial', 'Helvetica', 'Avant Garde', sans-serif; text-anchor: middle" x="550.168831" y="666.03625" transform="rotate(-0 550.168831 666.03625)">0.6</text>
     </g>
    </g>
    <g id="text_5">
     <text style="font: 24px 'DejaVu Sans', 'Bitstream Vera Sans', 'Computer Modern Sans Serif', 'Lucida Grande', 'Verdana', 'Geneva', 'Lucid', 'Arial', 'Helvetica', 'Avant Garde', sans-serif; text-anchor: middle" x="369" y="693.26375" transform="rotate(-0 369 693.26375)">Field strength in $ z $-direction $ h_z $ </text>
    </g>
   </g>
   <g id="matplotlib.axis_2">
    <g id="ytick_1">
     <g id="line2d_5">
      <defs>
       <path id="m034e399a2c" d="M 0 0 
L -3.5 0 
" style="stroke: #000000; stroke-width: 0.8"/>
      </defs>
      <g>
       <use xlink:href="#m034e399a2c" x="90" y="632.498708" style="stroke: #000000; stroke-width: 0.8"/>
      </g>
     </g>
     <g id="text_6">
      <text style="font: 24px 'DejaVu Sans', 'Bitstream Vera Sans', 'Computer Modern Sans Serif', 'Lucida Grande', 'Verdana', 'Geneva', 'Lucid', 'Arial', 'Helvetica', 'Avant Garde', sans-serif; text-anchor: end" x="83" y="641.616833" transform="rotate(-0 83 641.616833)">−2.6</text>
     </g>
    </g>
    <g id="ytick_2">
     <g id="line2d_6">
      <g>
       <use xlink:href="#m034e399a2c" x="90" y="545.682257" style="stroke: #000000; stroke-width: 0.8"/>
      </g>
     </g>
     <g id="text_7">
      <text style="font: 24px 'DejaVu Sans', 'Bitstream Vera Sans', 'Computer Modern Sans Serif', 'Lucida Grande', 'Verdana', 'Geneva', 'Lucid', 'Arial', 'Helvetica', 'Avant Garde', sans-serif; text-anchor: end" x="83" y="554.800382" transform="rotate(-0 83 554.800382)">−2.5</text>
     </g>
    </g>
    <g id="ytick_3">
     <g id="line2d_7">
      <g>
       <use xlink:href="#m034e399a2c" x="90" y="458.865806" style="stroke: #000000; stroke-width: 0.8"/>
      </g>
     </g>
     <g id="text_8">
      <text style="font: 24px 'DejaVu Sans', 'Bitstream Vera Sans', 'Computer Modern Sans Serif', 'Lucida Grande', 'Verdana', 'Geneva', 'Lucid', 'Arial', 'Helvetica', 'Avant Garde', sans-serif; text-anchor: end" x="83" y="467.983931" transform="rotate(-0 83 467.983931)">−2.4</text>
     </g>
    </g>
    <g id="ytick_4">
     <g id="line2d_8">
      <g>
       <use xlink:href="#m034e399a2c" x="90" y="372.049355" style="stroke: #000000; stroke-width: 0.8"/>
      </g>
     </g>
     <g id="text_9">
      <text style="font: 24px 'DejaVu Sans', 'Bitstream Vera Sans', 'Computer Modern Sans Serif', 'Lucida Grande', 'Verdana', 'Geneva', 'Lucid', 'Arial', 'Helvetica', 'Avant Garde', sans-serif; text-anchor: end" x="83" y="381.16748" transform="rotate(-0 83 381.16748)">−2.3</text>
     </g>
    </g>
    <g id="ytick_5">
     <g id="line2d_9">
      <g>
       <use xlink:href="#m034e399a2c" x="90" y="285.232905" style="stroke: #000000; stroke-width: 0.8"/>
      </g>
     </g>
     <g id="text_10">
      <text style="font: 24px 'DejaVu Sans', 'Bitstream Vera Sans', 'Computer Modern Sans Serif', 'Lucida Grande', 'Verdana', 'Geneva', 'Lucid', 'Arial', 'Helvetica', 'Avant Garde', sans-serif; text-anchor: end" x="83" y="294.35103" transform="rotate(-0 83 294.35103)">−2.2</text>
     </g>
    </g>
    <g id="ytick_6">
     <g id="line2d_10">
      <g>
       <use xlink:href="#m034e399a2c" x="90" y="198.416454" style="stroke: #000000; stroke-width: 0.8"/>
      </g>
     </g>
     <g id="text_11">
      <text style="font: 24px 'DejaVu Sans', 'Bitstream Vera Sans', 'Computer Modern Sans Serif', 'Lucida Grande', 'Verdana', 'Geneva', 'Lucid', 'Arial', 'Helvetica', 'Avant Garde', sans-serif; text-anchor: end" x="83" y="207.534579" transform="rotate(-0 83 207.534579)">−2.1</text>
     </g>
    </g>
    <g id="ytick_7">
     <g id="line2d_11">
      <g>
       <use xlink:href="#m034e399a2c" x="90" y="111.600003" style="stroke: #000000; stroke-width: 0.8"/>
      </g>
     </g>
     <g id="text_12">
      <text style="font: 24px 'DejaVu Sans', 'Bitstream Vera Sans', 'Computer Modern Sans Serif', 'Lucida Grande', 'Verdana', 'Geneva', 'Lucid', 'Arial', 'Helvetica', 'Avant Garde', sans-serif; text-anchor: end" x="83" y="120.718128" transform="rotate(-0 83 120.718128)">−2.0</text>
     </g>
    </g>
    <g id="text_13">
     <text style="font: 24px 'DejaVu Sans', 'Bitstream Vera Sans', 'Computer Modern Sans Serif', 'Lucida Grande', 'Verdana', 'Geneva', 'Lucid', 'Arial', 'Helvetica', 'Avant Garde', sans-serif; text-anchor: middle" x="15.73" y="363.6" transform="rotate(-90 15.73 363.6)">Energy per spin $ E/N $</text>
    </g>
   </g>
   <g id="LineCollection_1">
    <path d="M 115.363636 111.600003 
L 115.363636 111.600003 
" clip-path="url(#p7db5be72e5)" style="fill: none; stroke: #e41a1c; stroke-width: 1.5"/>
    <path d="M 187.831169 115.982524 
L 187.831169 115.937019 
" clip-path="url(#p7db5be72e5)" style="fill: none; stroke: #e41a1c; stroke-width: 1.5"/>
    <path d="M 260.298701 129.690286 
L 260.298701 129.689692 
" clip-path="url(#p7db5be72e5)" style="fill: none; stroke: #e41a1c; stroke-width: 1.5"/>
    <path d="M 318.272727 148.849915 
L 318.272727 148.845899 
" clip-path="url(#p7db5be72e5)" style="fill: none; stroke: #e41a1c; stroke-width: 1.5"/>
    <path d="M 332.766234 155.119224 
L 332.766234 155.105982 
" clip-path="url(#p7db5be72e5)" style="fill: none; stroke: #e41a1c; stroke-width: 1.5"/>
    <path d="M 340.012987 158.615204 
L 340.012987 158.604138 
" clip-path="url(#p7db5be72e5)" style="fill: none; stroke: #e41a1c; stroke-width: 1.5"/>
    <path d="M 354.506494 166.225361 
L 354.506494 166.200153 
" clip-path="url(#p7db5be72e5)" style="fill: none; stroke: #e41a1c; stroke-width: 1.5"/>
    <path d="M 361.753247 170.639218 
L 361.753247 170.588264 
" clip-path="url(#p7db5be72e5)" style="fill: none; stroke: #e41a1c; stroke-width: 1.5"/>
    <path d="M 369 175.836994 
L 369 175.742859 
" clip-path="url(#p7db5be72e5)" style="fill: none; stroke: #e41a1c; stroke-width: 1.5"/>
    <path d="M 383.493506 186.604738 
L 383.493506 186.384944 
" clip-path="url(#p7db5be72e5)" style="fill: none; stroke: #e41a1c; stroke-width: 1.5"/>
    <path d="M 405.233766 208.88643 
L 405.233766 208.367149 
" clip-path="url(#p7db5be72e5)" style="fill: none; stroke: #e41a1c; stroke-width: 1.5"/>
    <path d="M 477.701299 333.491752 
L 477.701299 333.479682 
" clip-path="url(#p7db5be72e5)" style="fill: none; stroke: #e41a1c; stroke-width: 1.5"/>
    <path d="M 550.168831 468.838527 
L 550.168831 468.831179 
" clip-path="url(#p7db5be72e5)" style="fill: none; stroke: #e41a1c; stroke-width: 1.5"/>
    <path d="M 622.636364 615.598028 
L 622.636364 615.592743 
" clip-path="url(#p7db5be72e5)" style="fill: none; stroke: #e41a1c; stroke-width: 1.5"/>
   </g>
   <g id="LineCollection_2">
    <path d="M 115.363636 111.600009 
L 115.363636 111.6 
" clip-path="url(#p7db5be72e5)" style="fill: none; stroke: #377eb8; stroke-width: 1.5"/>
    <path d="M 187.831169 115.98255 
L 187.831169 115.982524 
" clip-path="url(#p7db5be72e5)" style="fill: none; stroke: #377eb8; stroke-width: 1.5"/>
    <path d="M 260.298701 129.690928 
L 260.298701 129.690499 
" clip-path="url(#p7db5be72e5)" style="fill: none; stroke: #377eb8; stroke-width: 1.5"/>
    <path d="M 318.272727 148.893027 
L 318.272727 148.890199 
" clip-path="url(#p7db5be72e5)" style="fill: none; stroke: #377eb8; stroke-width: 1.5"/>
    <path d="M 332.766234 155.279273 
L 332.766234 155.274686 
" clip-path="url(#p7db5be72e5)" style="fill: none; stroke: #377eb8; stroke-width: 1.5"/>
    <path d="M 340.012987 158.840278 
L 340.012987 158.834232 
" clip-path="url(#p7db5be72e5)" style="fill: none; stroke: #377eb8; stroke-width: 1.5"/>
    <path d="M 354.506494 167.028414 
L 354.506494 167.018183 
" clip-path="url(#p7db5be72e5)" style="fill: none; stroke: #377eb8; stroke-width: 1.5"/>
    <path d="M 361.753247 172.034041 
L 361.753247 172.020167 
" clip-path="url(#p7db5be72e5)" style="fill: none; stroke: #377eb8; stroke-width: 1.5"/>
    <path d="M 369 177.915008 
L 369 177.898787 
" clip-path="url(#p7db5be72e5)" style="fill: none; stroke: #377eb8; stroke-width: 1.5"/>
    <path d="M 383.493506 192.496683 
L 383.493506 192.478173 
" clip-path="url(#p7db5be72e5)" style="fill: none; stroke: #377eb8; stroke-width: 1.5"/>
    <path d="M 405.233766 219.389282 
L 405.233766 219.372941 
" clip-path="url(#p7db5be72e5)" style="fill: none; stroke: #377eb8; stroke-width: 1.5"/>
    <path d="M 477.701299 333.510359 
L 477.701299 333.500069 
" clip-path="url(#p7db5be72e5)" style="fill: none; stroke: #377eb8; stroke-width: 1.5"/>
    <path d="M 550.168831 468.842283 
L 550.168831 468.835238 
" clip-path="url(#p7db5be72e5)" style="fill: none; stroke: #377eb8; stroke-width: 1.5"/>
    <path d="M 622.636364 615.6 
L 622.636364 615.594976 
" clip-path="url(#p7db5be72e5)" style="fill: none; stroke: #377eb8; stroke-width: 1.5"/>
   </g>
   <g id="line2d_12">
    <path d="M 115.363636 111.600003 
L 187.831169 115.959772 
L 260.298701 129.689989 
L 318.272727 148.847907 
L 332.766234 155.112603 
L 340.012987 158.609671 
L 354.506494 166.212757 
L 361.753247 170.613741 
L 369 175.789926 
L 383.493506 186.494841 
L 405.233766 208.626789 
L 477.701299 333.485717 
L 550.168831 468.834853 
L 622.636364 615.595386 
" clip-path="url(#p7db5be72e5)" style="fill: none; stroke: #e41a1c; stroke-width: 1.5; stroke-linecap: square"/>
    <defs>
     <path id="m85c7d60f7e" d="M 0 1.5 
C 0.397805 1.5 0.77937 1.341951 1.06066 1.06066 
C 1.341951 0.77937 1.5 0.397805 1.5 0 
C 1.5 -0.397805 1.341951 -0.77937 1.06066 -1.06066 
C 0.77937 -1.341951 0.397805 -1.5 0 -1.5 
C -0.397805 -1.5 -0.77937 -1.341951 -1.06066 -1.06066 
C -1.341951 -0.77937 -1.5 -0.397805 -1.5 0 
C -1.5 0.397805 -1.341951 0.77937 -1.06066 1.06066 
C -0.77937 1.341951 -0.397805 1.5 0 1.5 
z
" style="stroke: #e41a1c"/>
    </defs>
    <g clip-path="url(#p7db5be72e5)">
     <use xlink:href="#m85c7d60f7e" x="115.363636" y="111.600003" style="fill: #e41a1c; stroke: #e41a1c"/>
     <use xlink:href="#m85c7d60f7e" x="187.831169" y="115.959772" style="fill: #e41a1c; stroke: #e41a1c"/>
     <use xlink:href="#m85c7d60f7e" x="260.298701" y="129.689989" style="fill: #e41a1c; stroke: #e41a1c"/>
     <use xlink:href="#m85c7d60f7e" x="318.272727" y="148.847907" style="fill: #e41a1c; stroke: #e41a1c"/>
     <use xlink:href="#m85c7d60f7e" x="332.766234" y="155.112603" style="fill: #e41a1c; stroke: #e41a1c"/>
     <use xlink:href="#m85c7d60f7e" x="340.012987" y="158.609671" style="fill: #e41a1c; stroke: #e41a1c"/>
     <use xlink:href="#m85c7d60f7e" x="354.506494" y="166.212757" style="fill: #e41a1c; stroke: #e41a1c"/>
     <use xlink:href="#m85c7d60f7e" x="361.753247" y="170.613741" style="fill: #e41a1c; stroke: #e41a1c"/>
     <use xlink:href="#m85c7d60f7e" x="369" y="175.789926" style="fill: #e41a1c; stroke: #e41a1c"/>
     <use xlink:href="#m85c7d60f7e" x="383.493506" y="186.494841" style="fill: #e41a1c; stroke: #e41a1c"/>
     <use xlink:href="#m85c7d60f7e" x="405.233766" y="208.626789" style="fill: #e41a1c; stroke: #e41a1c"/>
     <use xlink:href="#m85c7d60f7e" x="477.701299" y="333.485717" style="fill: #e41a1c; stroke: #e41a1c"/>
     <use xlink:href="#m85c7d60f7e" x="550.168831" y="468.834853" style="fill: #e41a1c; stroke: #e41a1c"/>
     <use xlink:href="#m85c7d60f7e" x="622.636364" y="615.595386" style="fill: #e41a1c; stroke: #e41a1c"/>
    </g>
   </g>
   <g id="line2d_13">
    <path d="M 115.363636 111.600005 
L 187.831169 115.982537 
L 260.298701 129.690713 
L 318.272727 148.891613 
L 332.766234 155.27698 
L 340.012987 158.837255 
L 354.506494 167.023299 
L 361.753247 172.027104 
L 369 177.906897 
L 383.493506 192.487428 
L 405.233766 219.381112 
L 477.701299 333.505214 
L 550.168831 468.838761 
L 622.636364 615.597488 
" clip-path="url(#p7db5be72e5)" style="fill: none; stroke-dasharray: 5.55,2.4; stroke-dashoffset: 0; stroke: #377eb8; stroke-width: 1.5"/>
    <defs>
     <path id="mc5fd5d1304" d="M 0 1.5 
C 0.397805 1.5 0.77937 1.341951 1.06066 1.06066 
C 1.341951 0.77937 1.5 0.397805 1.5 0 
C 1.5 -0.397805 1.341951 -0.77937 1.06066 -1.06066 
C 0.77937 -1.341951 0.397805 -1.5 0 -1.5 
C -0.397805 -1.5 -0.77937 -1.341951 -1.06066 -1.06066 
C -1.341951 -0.77937 -1.5 -0.397805 -1.5 0 
C -1.5 0.397805 -1.341951 0.77937 -1.06066 1.06066 
C -0.77937 1.341951 -0.397805 1.5 0 1.5 
z
" style="stroke: #377eb8"/>
    </defs>
    <g clip-path="url(#p7db5be72e5)">
     <use xlink:href="#mc5fd5d1304" x="115.363636" y="111.600005" style="fill: #377eb8; stroke: #377eb8"/>
     <use xlink:href="#mc5fd5d1304" x="187.831169" y="115.982537" style="fill: #377eb8; stroke: #377eb8"/>
     <use xlink:href="#mc5fd5d1304" x="260.298701" y="129.690713" style="fill: #377eb8; stroke: #377eb8"/>
     <use xlink:href="#mc5fd5d1304" x="318.272727" y="148.891613" style="fill: #377eb8; stroke: #377eb8"/>
     <use xlink:href="#mc5fd5d1304" x="332.766234" y="155.27698" style="fill: #377eb8; stroke: #377eb8"/>
     <use xlink:href="#mc5fd5d1304" x="340.012987" y="158.837255" style="fill: #377eb8; stroke: #377eb8"/>
     <use xlink:href="#mc5fd5d1304" x="354.506494" y="167.023299" style="fill: #377eb8; stroke: #377eb8"/>
     <use xlink:href="#mc5fd5d1304" x="361.753247" y="172.027104" style="fill: #377eb8; stroke: #377eb8"/>
     <use xlink:href="#mc5fd5d1304" x="369" y="177.906897" style="fill: #377eb8; stroke: #377eb8"/>
     <use xlink:href="#mc5fd5d1304" x="383.493506" y="192.487428" style="fill: #377eb8; stroke: #377eb8"/>
     <use xlink:href="#mc5fd5d1304" x="405.233766" y="219.381112" style="fill: #377eb8; stroke: #377eb8"/>
     <use xlink:href="#mc5fd5d1304" x="477.701299" y="333.505214" style="fill: #377eb8; stroke: #377eb8"/>
     <use xlink:href="#mc5fd5d1304" x="550.168831" y="468.838761" style="fill: #377eb8; stroke: #377eb8"/>
     <use xlink:href="#mc5fd5d1304" x="622.636364" y="615.597488" style="fill: #377eb8; stroke: #377eb8"/>
    </g>
   </g>
   <g id="patch_3">
    <path d="M 90 640.8 
L 90 86.4 
" style="fill: none; stroke: #000000; stroke-width: 0.8; stroke-linejoin: miter; stroke-linecap: square"/>
   </g>
   <g id="patch_4">
    <path d="M 648 640.8 
L 648 86.4 
" style="fill: none; stroke: #000000; stroke-width: 0.8; stroke-linejoin: miter; stroke-linecap: square"/>
   </g>
   <g id="patch_5">
    <path d="M 90 640.8 
L 648 640.8 
" style="fill: none; stroke: #000000; stroke-width: 0.8; stroke-linejoin: miter; stroke-linecap: square"/>
   </g>
   <g id="patch_6">
    <path d="M 90 86.4 
L 648 86.4 
" style="fill: none; stroke: #000000; stroke-width: 0.8; stroke-linejoin: miter; stroke-linecap: square"/>
   </g>
   <g id="legend_1">
    <g id="patch_7">
     <path d="M 402.6825 176.055 
L 631.2 176.055 
Q 636 176.055 636 171.255 
L 636 103.2 
Q 636 98.4 631.2 98.4 
L 402.6825 98.4 
Q 397.8825 98.4 397.8825 103.2 
L 397.8825 171.255 
Q 397.8825 176.055 402.6825 176.055 
z
" style="fill: #ffffff; opacity: 0.8; stroke: #cccccc; stroke-linejoin: miter"/>
    </g>
    <g id="LineCollection_3">
     <path d="M 431.4825 129.83625 
L 431.4825 105.83625 
" style="fill: none; stroke: #e41a1c; stroke-width: 1.5"/>
    </g>
    <g id="line2d_14">
     <path d="M 407.4825 117.83625 
L 455.4825 117.83625 
" style="fill: none; stroke: #e41a1c; stroke-width: 1.5; stroke-linecap: square"/>
    </g>
    <g id="line2d_15">
     <g>
      <use xlink:href="#m85c7d60f7e" x="431.4825" y="117.83625" style="fill: #e41a1c; stroke: #e41a1c"/>
     </g>
    </g>
    <g id="text_14">
     <text style="font: 24px 'DejaVu Sans', 'Bitstream Vera Sans', 'Computer Modern Sans Serif', 'Lucida Grande', 'Verdana', 'Geneva', 'Lucid', 'Arial', 'Helvetica', 'Avant Garde', sans-serif; text-anchor: start" x="474.6825" y="126.23625" transform="rotate(-0 474.6825 126.23625)">independent</text>
    </g>
    <g id="LineCollection_4">
     <path d="M 431.4825 165.06375 
L 431.4825 141.06375 
" style="fill: none; stroke: #377eb8; stroke-width: 1.5"/>
    </g>
    <g id="line2d_16">
     <path d="M 407.4825 153.06375 
L 455.4825 153.06375 
" style="fill: none; stroke-dasharray: 5.55,2.4; stroke-dashoffset: 0; stroke: #377eb8; stroke-width: 1.5"/>
    </g>
    <g id="line2d_17">
     <g>
      <use xlink:href="#mc5fd5d1304" x="431.4825" y="153.06375" style="fill: #377eb8; stroke: #377eb8"/>
     </g>
    </g>
    <g id="text_15">
     <text style="font: 24px 'DejaVu Sans', 'Bitstream Vera Sans', 'Computer Modern Sans Serif', 'Lucida Grande', 'Verdana', 'Geneva', 'Lucid', 'Arial', 'Helvetica', 'Avant Garde', sans-serif; text-anchor: start" x="474.6825" y="161.46375" transform="rotate(-0 474.6825 161.46375)">right-left</text>
    </g>
   </g>
  </g>
 </g>
 <defs>
  <clipPath id="p7db5be72e5">
   <rect x="90" y="86.4" width="558" height="554.4"/>
  </clipPath>
 </defs>
</svg>
