<?xml version="1.0" encoding="utf-8" standalone="no"?>
<!DOCTYPE svg PUBLIC "-//W3C//DTD SVG 1.1//EN"
  "http://www.w3.org/Graphics/SVG/1.1/DTD/svg11.dtd">
<svg xmlns:xlink="http://www.w3.org/1999/xlink" width="720pt" height="720pt" viewBox="0 0 720 720" xmlns="http://www.w3.org/2000/svg" version="1.1">
 <metadata>
  <rdf:RDF xmlns:dc="http://purl.org/dc/elements/1.1/" xmlns:cc="http://creativecommons.org/ns#" xmlns:rdf="http://www.w3.org/1999/02/22-rdf-syntax-ns#">
   <cc:Work>
    <dc:type rdf:resource="http://purl.org/dc/dcmitype/StillImage"/>
    <dc:date>2023-09-18T12:32:40.361006</dc:date>
    <dc:format>image/svg+xml</dc:format>
    <dc:creator>
     <cc:Agent>
      <dc:title>Matplotlib v3.7.1, https://matplotlib.org/</dc:title>
     </cc:Agent>
    </dc:creator>
   </cc:Work>
  </rdf:RDF>
 </metadata>
 <defs>
  <style type="text/css">*{stroke-linejoin: round; stroke-linecap: butt}</style>
 </defs>
 <g id="figure_1">
  <g id="patch_1">
   <path d="M 0 720 
L 720 720 
L 720 0 
L 0 0 
z
" style="fill: #ffffff"/>
  </g>
  <g id="axes_1">
   <g id="patch_2">
    <path d="M 90 640.8 
L 648 640.8 
L 648 86.4 
L 90 86.4 
z
" style="fill: #ffffff"/>
   </g>
   <g id="matplotlib.axis_1">
    <g id="xtick_1">
     <g id="line2d_1">
      <defs>
       <path id="m30e176bf53" d="M 0 0 
L 0 3.5 
" style="stroke: #000000; stroke-width: 0.8"/>
      </defs>
      <g>
       <use xlink:href="#m30e176bf53" x="115.363636" y="640.8" style="stroke: #000000; stroke-width: 0.8"/>
      </g>
     </g>
     <g id="text_1">
      <text style="font: 24px 'DejaVu Sans', 'Bitstream Vera Sans', 'Computer Modern Sans Serif', 'Lucida Grande', 'Verdana', 'Geneva', 'Lucid', 'Arial', 'Helvetica', 'Avant Garde', sans-serif; text-anchor: middle" x="115.363636" y="666.03625" transform="rotate(-0 115.363636 666.03625)">0.0</text>
     </g>
    </g>
    <g id="xtick_2">
     <g id="line2d_2">
      <g>
       <use xlink:href="#m30e176bf53" x="260.298701" y="640.8" style="stroke: #000000; stroke-width: 0.8"/>
      </g>
     </g>
     <g id="text_2">
      <text style="font: 24px 'DejaVu Sans', 'Bitstream Vera Sans', 'Computer Modern Sans Serif', 'Lucida Grande', 'Verdana', 'Geneva', 'Lucid', 'Arial', 'Helvetica', 'Avant Garde', sans-serif; text-anchor: middle" x="260.298701" y="666.03625" transform="rotate(-0 260.298701 666.03625)">0.2</text>
     </g>
    </g>
    <g id="xtick_3">
     <g id="line2d_3">
      <g>
       <use xlink:href="#m30e176bf53" x="405.233766" y="640.8" style="stroke: #000000; stroke-width: 0.8"/>
      </g>
     </g>
     <g id="text_3">
      <text style="font: 24px 'DejaVu Sans', 'Bitstream Vera Sans', 'Computer Modern Sans Serif', 'Lucida Grande', 'Verdana', 'Geneva', 'Lucid', 'Arial', 'Helvetica', 'Avant Garde', sans-serif; text-anchor: middle" x="405.233766" y="666.03625" transform="rotate(-0 405.233766 666.03625)">0.4</text>
     </g>
    </g>
    <g id="xtick_4">
     <g id="line2d_4">
      <g>
       <use xlink:href="#m30e176bf53" x="550.168831" y="640.8" style="stroke: #000000; stroke-width: 0.8"/>
      </g>
     </g>
     <g id="text_4">
      <text style="font: 24px 'DejaVu Sans', 'Bitstream Vera Sans', 'Computer Modern Sans Serif', 'Lucida Grande', 'Verdana', 'Geneva', 'Lucid', 'Arial', 'Helvetica', 'Avant Garde', sans-serif; text-anchor: middle" x="550.168831" y="666.03625" transform="rotate(-0 550.168831 666.03625)">0.6</text>
     </g>
    </g>
    <g id="text_5">
     <text style="font: 24px 'DejaVu Sans', 'Bitstream Vera Sans', 'Computer Modern Sans Serif', 'Lucida Grande', 'Verdana', 'Geneva', 'Lucid', 'Arial', 'Helvetica', 'Avant Garde', sans-serif; text-anchor: middle" x="369" y="693.26375" transform="rotate(-0 369 693.26375)">Field strength in $ z $-direction $ h_z $ </text>
    </g>
   </g>
   <g id="matplotlib.axis_2">
    <g id="ytick_1">
     <g id="line2d_5">
      <defs>
       <path id="m25dcdeeb3f" d="M 0 0 
L -3.5 0 
" style="stroke: #000000; stroke-width: 0.8"/>
      </defs>
      <g>
       <use xlink:href="#m25dcdeeb3f" x="90" y="615.543127" style="stroke: #000000; stroke-width: 0.8"/>
      </g>
     </g>
     <g id="text_6">
      <text style="font: 24px 'DejaVu Sans', 'Bitstream Vera Sans', 'Computer Modern Sans Serif', 'Lucida Grande', 'Verdana', 'Geneva', 'Lucid', 'Arial', 'Helvetica', 'Avant Garde', sans-serif; text-anchor: end" x="83" y="624.661252" transform="rotate(-0 83 624.661252)">0.0</text>
     </g>
    </g>
    <g id="ytick_2">
     <g id="line2d_6">
      <g>
       <use xlink:href="#m25dcdeeb3f" x="90" y="498.253233" style="stroke: #000000; stroke-width: 0.8"/>
      </g>
     </g>
     <g id="text_7">
      <text style="font: 24px 'DejaVu Sans', 'Bitstream Vera Sans', 'Computer Modern Sans Serif', 'Lucida Grande', 'Verdana', 'Geneva', 'Lucid', 'Arial', 'Helvetica', 'Avant Garde', sans-serif; text-anchor: end" x="83" y="507.371358" transform="rotate(-0 83 507.371358)">0.2</text>
     </g>
    </g>
    <g id="ytick_3">
     <g id="line2d_7">
      <g>
       <use xlink:href="#m25dcdeeb3f" x="90" y="380.963339" style="stroke: #000000; stroke-width: 0.8"/>
      </g>
     </g>
     <g id="text_8">
      <text style="font: 24px 'DejaVu Sans', 'Bitstream Vera Sans', 'Computer Modern Sans Serif', 'Lucida Grande', 'Verdana', 'Geneva', 'Lucid', 'Arial', 'Helvetica', 'Avant Garde', sans-serif; text-anchor: end" x="83" y="390.081464" transform="rotate(-0 83 390.081464)">0.4</text>
     </g>
    </g>
    <g id="ytick_4">
     <g id="line2d_8">
      <g>
       <use xlink:href="#m25dcdeeb3f" x="90" y="263.673446" style="stroke: #000000; stroke-width: 0.8"/>
      </g>
     </g>
     <g id="text_9">
      <text style="font: 24px 'DejaVu Sans', 'Bitstream Vera Sans', 'Computer Modern Sans Serif', 'Lucida Grande', 'Verdana', 'Geneva', 'Lucid', 'Arial', 'Helvetica', 'Avant Garde', sans-serif; text-anchor: end" x="83" y="272.791571" transform="rotate(-0 83 272.791571)">0.6</text>
     </g>
    </g>
    <g id="ytick_5">
     <g id="line2d_9">
      <g>
       <use xlink:href="#m25dcdeeb3f" x="90" y="146.383552" style="stroke: #000000; stroke-width: 0.8"/>
      </g>
     </g>
     <g id="text_10">
      <text style="font: 24px 'DejaVu Sans', 'Bitstream Vera Sans', 'Computer Modern Sans Serif', 'Lucida Grande', 'Verdana', 'Geneva', 'Lucid', 'Arial', 'Helvetica', 'Avant Garde', sans-serif; text-anchor: end" x="83" y="155.501677" transform="rotate(-0 83 155.501677)">0.8</text>
     </g>
    </g>
    <g id="text_11">
     <text style="font: 24px 'DejaVu Sans', 'Bitstream Vera Sans', 'Computer Modern Sans Serif', 'Lucida Grande', 'Verdana', 'Geneva', 'Lucid', 'Arial', 'Helvetica', 'Avant Garde', sans-serif; text-anchor: middle" x="35.84125" y="363.6" transform="rotate(-90 35.84125 363.6)">Magnetization $ m $ </text>
    </g>
   </g>
   <g id="LineCollection_1">
    <path d="M 115.363636 615.6 
L 115.363636 615.410471 
" clip-path="url(#pf3592d1f47)" style="fill: none; stroke: #e41a1c; stroke-width: 1.5"/>
    <path d="M 187.831169 586.45735 
L 187.831169 586.255917 
" clip-path="url(#pf3592d1f47)" style="fill: none; stroke: #e41a1c; stroke-width: 1.5"/>
    <path d="M 260.298701 553.995847 
L 260.298701 553.764809 
" clip-path="url(#pf3592d1f47)" style="fill: none; stroke: #e41a1c; stroke-width: 1.5"/>
    <path d="M 318.272727 520.629214 
L 318.272727 520.342989 
" clip-path="url(#pf3592d1f47)" style="fill: none; stroke: #e41a1c; stroke-width: 1.5"/>
    <path d="M 332.766234 509.790908 
L 332.766234 509.48955 
" clip-path="url(#pf3592d1f47)" style="fill: none; stroke: #e41a1c; stroke-width: 1.5"/>
    <path d="M 340.012987 500.668042 
L 340.012987 500.328841 
" clip-path="url(#pf3592d1f47)" style="fill: none; stroke: #e41a1c; stroke-width: 1.5"/>
    <path d="M 354.506494 487.203082 
L 354.506494 486.83106 
" clip-path="url(#pf3592d1f47)" style="fill: none; stroke: #e41a1c; stroke-width: 1.5"/>
    <path d="M 361.753247 472.954092 
L 361.753247 472.435407 
" clip-path="url(#pf3592d1f47)" style="fill: none; stroke: #e41a1c; stroke-width: 1.5"/>
    <path d="M 369 454.611629 
L 369 453.845091 
" clip-path="url(#pf3592d1f47)" style="fill: none; stroke: #e41a1c; stroke-width: 1.5"/>
    <path d="M 383.493506 393.249266 
L 383.493506 391.50476 
" clip-path="url(#pf3592d1f47)" style="fill: none; stroke: #e41a1c; stroke-width: 1.5"/>
    <path d="M 405.233766 295.371596 
L 405.233766 294.458463 
" clip-path="url(#pf3592d1f47)" style="fill: none; stroke: #e41a1c; stroke-width: 1.5"/>
    <path d="M 477.701299 193.496816 
L 477.701299 192.820757 
" clip-path="url(#pf3592d1f47)" style="fill: none; stroke: #e41a1c; stroke-width: 1.5"/>
    <path d="M 550.168831 141.984061 
L 550.168831 141.477069 
" clip-path="url(#pf3592d1f47)" style="fill: none; stroke: #e41a1c; stroke-width: 1.5"/>
    <path d="M 622.636364 112.300462 
L 622.636364 111.6 
" clip-path="url(#pf3592d1f47)" style="fill: none; stroke: #e41a1c; stroke-width: 1.5"/>
   </g>
   <g id="LineCollection_2">
    <path d="M 187.831169 586.351136 
L 187.831169 586.15226 
" clip-path="url(#pf3592d1f47)" style="fill: none; stroke: #377eb8; stroke-width: 1.5"/>
    <path d="M 260.298701 553.826919 
L 260.298701 553.596769 
" clip-path="url(#pf3592d1f47)" style="fill: none; stroke: #377eb8; stroke-width: 1.5"/>
    <path d="M 318.272727 519.378231 
L 318.272727 519.105587 
" clip-path="url(#pf3592d1f47)" style="fill: none; stroke: #377eb8; stroke-width: 1.5"/>
    <path d="M 332.766234 507.433469 
L 332.766234 507.128142 
" clip-path="url(#pf3592d1f47)" style="fill: none; stroke: #377eb8; stroke-width: 1.5"/>
    <path d="M 340.012987 498.205418 
L 340.012987 497.840378 
" clip-path="url(#pf3592d1f47)" style="fill: none; stroke: #377eb8; stroke-width: 1.5"/>
    <path d="M 354.506494 476.392371 
L 354.506494 475.899924 
" clip-path="url(#pf3592d1f47)" style="fill: none; stroke: #377eb8; stroke-width: 1.5"/>
    <path d="M 361.753247 451.33625 
L 361.753247 450.606141 
" clip-path="url(#pf3592d1f47)" style="fill: none; stroke: #377eb8; stroke-width: 1.5"/>
    <path d="M 369 409.707431 
L 369 408.770775 
" clip-path="url(#pf3592d1f47)" style="fill: none; stroke: #377eb8; stroke-width: 1.5"/>
    <path d="M 383.493506 348.906726 
L 383.493506 347.924659 
" clip-path="url(#pf3592d1f47)" style="fill: none; stroke: #377eb8; stroke-width: 1.5"/>
    <path d="M 405.233766 291.442843 
L 405.233766 290.535971 
" clip-path="url(#pf3592d1f47)" style="fill: none; stroke: #377eb8; stroke-width: 1.5"/>
    <path d="M 477.701299 192.693844 
L 477.701299 192.01132 
" clip-path="url(#pf3592d1f47)" style="fill: none; stroke: #377eb8; stroke-width: 1.5"/>
    <path d="M 550.168831 142.371218 
L 550.168831 141.815627 
" clip-path="url(#pf3592d1f47)" style="fill: none; stroke: #377eb8; stroke-width: 1.5"/>
    <path d="M 622.636364 112.413376 
L 622.636364 111.95059 
" clip-path="url(#pf3592d1f47)" style="fill: none; stroke: #377eb8; stroke-width: 1.5"/>
   </g>
   <g id="line2d_10">
    <path d="M 115.363636 615.505235 
L 187.831169 586.356633 
L 260.298701 553.880328 
L 318.272727 520.486101 
L 332.766234 509.640229 
L 340.012987 500.498442 
L 354.506494 487.017071 
L 361.753247 472.694749 
L 369 454.22836 
L 383.493506 392.377013 
L 405.233766 294.915029 
L 477.701299 193.158787 
L 550.168831 141.730565 
L 622.636364 111.950231 
" clip-path="url(#pf3592d1f47)" style="fill: none; stroke: #e41a1c; stroke-width: 1.5; stroke-linecap: square"/>
    <defs>
     <path id="m18aa903017" d="M 0 1.5 
C 0.397805 1.5 0.77937 1.341951 1.06066 1.06066 
C 1.341951 0.77937 1.5 0.397805 1.5 0 
C 1.5 -0.397805 1.341951 -0.77937 1.06066 -1.06066 
C 0.77937 -1.341951 0.397805 -1.5 0 -1.5 
C -0.397805 -1.5 -0.77937 -1.341951 -1.06066 -1.06066 
C -1.341951 -0.77937 -1.5 -0.397805 -1.5 0 
C -1.5 0.397805 -1.341951 0.77937 -1.06066 1.06066 
C -0.77937 1.341951 -0.397805 1.5 0 1.5 
z
" style="stroke: #e41a1c"/>
    </defs>
    <g clip-path="url(#pf3592d1f47)">
     <use xlink:href="#m18aa903017" x="115.363636" y="615.505235" style="fill: #e41a1c; stroke: #e41a1c"/>
     <use xlink:href="#m18aa903017" x="187.831169" y="586.356633" style="fill: #e41a1c; stroke: #e41a1c"/>
     <use xlink:href="#m18aa903017" x="260.298701" y="553.880328" style="fill: #e41a1c; stroke: #e41a1c"/>
     <use xlink:href="#m18aa903017" x="318.272727" y="520.486101" style="fill: #e41a1c; stroke: #e41a1c"/>
     <use xlink:href="#m18aa903017" x="332.766234" y="509.640229" style="fill: #e41a1c; stroke: #e41a1c"/>
     <use xlink:href="#m18aa903017" x="340.012987" y="500.498442" style="fill: #e41a1c; stroke: #e41a1c"/>
     <use xlink:href="#m18aa903017" x="354.506494" y="487.017071" style="fill: #e41a1c; stroke: #e41a1c"/>
     <use xlink:href="#m18aa903017" x="361.753247" y="472.694749" style="fill: #e41a1c; stroke: #e41a1c"/>
     <use xlink:href="#m18aa903017" x="369" y="454.22836" style="fill: #e41a1c; stroke: #e41a1c"/>
     <use xlink:href="#m18aa903017" x="383.493506" y="392.377013" style="fill: #e41a1c; stroke: #e41a1c"/>
     <use xlink:href="#m18aa903017" x="405.233766" y="294.915029" style="fill: #e41a1c; stroke: #e41a1c"/>
     <use xlink:href="#m18aa903017" x="477.701299" y="193.158787" style="fill: #e41a1c; stroke: #e41a1c"/>
     <use xlink:href="#m18aa903017" x="550.168831" y="141.730565" style="fill: #e41a1c; stroke: #e41a1c"/>
     <use xlink:href="#m18aa903017" x="622.636364" y="111.950231" style="fill: #e41a1c; stroke: #e41a1c"/>
    </g>
   </g>
   <g id="line2d_11">
    <path d="M 187.831169 586.251698 
L 260.298701 553.711844 
L 318.272727 519.241909 
L 332.766234 507.280806 
L 340.012987 498.022898 
L 354.506494 476.146147 
L 361.753247 450.971196 
L 369 409.239103 
L 383.493506 348.415693 
L 405.233766 290.989407 
L 477.701299 192.352582 
L 550.168831 142.093422 
L 622.636364 112.181983 
" clip-path="url(#pf3592d1f47)" style="fill: none; stroke-dasharray: 5.55,2.4; stroke-dashoffset: 0; stroke: #377eb8; stroke-width: 1.5"/>
    <defs>
     <path id="m437526bdd7" d="M 0 1.5 
C 0.397805 1.5 0.77937 1.341951 1.06066 1.06066 
C 1.341951 0.77937 1.5 0.397805 1.5 0 
C 1.5 -0.397805 1.341951 -0.77937 1.06066 -1.06066 
C 0.77937 -1.341951 0.397805 -1.5 0 -1.5 
C -0.397805 -1.5 -0.77937 -1.341951 -1.06066 -1.06066 
C -1.341951 -0.77937 -1.5 -0.397805 -1.5 0 
C -1.5 0.397805 -1.341951 0.77937 -1.06066 1.06066 
C -0.77937 1.341951 -0.397805 1.5 0 1.5 
z
" style="stroke: #377eb8"/>
    </defs>
    <g clip-path="url(#pf3592d1f47)">
     <use xlink:href="#m437526bdd7" x="187.831169" y="586.251698" style="fill: #377eb8; stroke: #377eb8"/>
     <use xlink:href="#m437526bdd7" x="260.298701" y="553.711844" style="fill: #377eb8; stroke: #377eb8"/>
     <use xlink:href="#m437526bdd7" x="318.272727" y="519.241909" style="fill: #377eb8; stroke: #377eb8"/>
     <use xlink:href="#m437526bdd7" x="332.766234" y="507.280806" style="fill: #377eb8; stroke: #377eb8"/>
     <use xlink:href="#m437526bdd7" x="340.012987" y="498.022898" style="fill: #377eb8; stroke: #377eb8"/>
     <use xlink:href="#m437526bdd7" x="354.506494" y="476.146147" style="fill: #377eb8; stroke: #377eb8"/>
     <use xlink:href="#m437526bdd7" x="361.753247" y="450.971196" style="fill: #377eb8; stroke: #377eb8"/>
     <use xlink:href="#m437526bdd7" x="369" y="409.239103" style="fill: #377eb8; stroke: #377eb8"/>
     <use xlink:href="#m437526bdd7" x="383.493506" y="348.415693" style="fill: #377eb8; stroke: #377eb8"/>
     <use xlink:href="#m437526bdd7" x="405.233766" y="290.989407" style="fill: #377eb8; stroke: #377eb8"/>
     <use xlink:href="#m437526bdd7" x="477.701299" y="192.352582" style="fill: #377eb8; stroke: #377eb8"/>
     <use xlink:href="#m437526bdd7" x="550.168831" y="142.093422" style="fill: #377eb8; stroke: #377eb8"/>
     <use xlink:href="#m437526bdd7" x="622.636364" y="112.181983" style="fill: #377eb8; stroke: #377eb8"/>
    </g>
   </g>
   <g id="patch_3">
    <path d="M 90 640.8 
L 90 86.4 
" style="fill: none; stroke: #000000; stroke-width: 0.8; stroke-linejoin: miter; stroke-linecap: square"/>
   </g>
   <g id="patch_4">
    <path d="M 648 640.8 
L 648 86.4 
" style="fill: none; stroke: #000000; stroke-width: 0.8; stroke-linejoin: miter; stroke-linecap: square"/>
   </g>
   <g id="patch_5">
    <path d="M 90 640.8 
L 648 640.8 
" style="fill: none; stroke: #000000; stroke-width: 0.8; stroke-linejoin: miter; stroke-linecap: square"/>
   </g>
   <g id="patch_6">
    <path d="M 90 86.4 
L 648 86.4 
" style="fill: none; stroke: #000000; stroke-width: 0.8; stroke-linejoin: miter; stroke-linecap: square"/>
   </g>
   <g id="legend_1">
    <g id="patch_7">
     <path d="M 106.8 176.055 
L 403.93125 176.055 
Q 408.73125 176.055 408.73125 171.255 
L 408.73125 103.2 
Q 408.73125 98.4 403.93125 98.4 
L 106.8 98.4 
Q 102 98.4 102 103.2 
L 102 171.255 
Q 102 176.055 106.8 176.055 
z
" style="fill: #ffffff; opacity: 0.8; stroke: #cccccc; stroke-linejoin: miter"/>
    </g>
    <g id="LineCollection_3">
     <path d="M 135.6 129.83625 
L 135.6 105.83625 
" style="fill: none; stroke: #e41a1c; stroke-width: 1.5"/>
    </g>
    <g id="line2d_12">
     <path d="M 111.6 117.83625 
L 159.6 117.83625 
" style="fill: none; stroke: #e41a1c; stroke-width: 1.5; stroke-linecap: square"/>
    </g>
    <g id="line2d_13">
     <g>
      <use xlink:href="#m18aa903017" x="135.6" y="117.83625" style="fill: #e41a1c; stroke: #e41a1c"/>
     </g>
    </g>
    <g id="text_12">
     <text style="font: 24px 'DejaVu Sans', 'Bitstream Vera Sans', 'Computer Modern Sans Serif', 'Lucida Grande', 'Verdana', 'Geneva', 'Lucid', 'Arial', 'Helvetica', 'Avant Garde', sans-serif; text-anchor: start" x="178.8" y="126.23625" transform="rotate(-0 178.8 126.23625)">hx03-independent</text>
    </g>
    <g id="LineCollection_4">
     <path d="M 135.6 165.06375 
L 135.6 141.06375 
" style="fill: none; stroke: #377eb8; stroke-width: 1.5"/>
    </g>
    <g id="line2d_14">
     <path d="M 111.6 153.06375 
L 159.6 153.06375 
" style="fill: none; stroke-dasharray: 5.55,2.4; stroke-dashoffset: 0; stroke: #377eb8; stroke-width: 1.5"/>
    </g>
    <g id="line2d_15">
     <g>
      <use xlink:href="#m437526bdd7" x="135.6" y="153.06375" style="fill: #377eb8; stroke: #377eb8"/>
     </g>
    </g>
    <g id="text_13">
     <text style="font: 24px 'DejaVu Sans', 'Bitstream Vera Sans', 'Computer Modern Sans Serif', 'Lucida Grande', 'Verdana', 'Geneva', 'Lucid', 'Arial', 'Helvetica', 'Avant Garde', sans-serif; text-anchor: start" x="178.8" y="161.46375" transform="rotate(-0 178.8 161.46375)">hx03-right-left</text>
    </g>
   </g>
  </g>
 </g>
 <defs>
  <clipPath id="pf3592d1f47">
   <rect x="90" y="86.4" width="558" height="554.4"/>
  </clipPath>
 </defs>
</svg>
