<?xml version="1.0" encoding="utf-8" standalone="no"?>
<!DOCTYPE svg PUBLIC "-//W3C//DTD SVG 1.1//EN"
  "http://www.w3.org/Graphics/SVG/1.1/DTD/svg11.dtd">
<svg xmlns:xlink="http://www.w3.org/1999/xlink" width="720pt" height="720pt" viewBox="0 0 720 720" xmlns="http://www.w3.org/2000/svg" version="1.1">
 <metadata>
  <rdf:RDF xmlns:dc="http://purl.org/dc/elements/1.1/" xmlns:cc="http://creativecommons.org/ns#" xmlns:rdf="http://www.w3.org/1999/02/22-rdf-syntax-ns#">
   <cc:Work>
    <dc:type rdf:resource="http://purl.org/dc/dcmitype/StillImage"/>
    <dc:date>2023-09-18T12:21:33.599321</dc:date>
    <dc:format>image/svg+xml</dc:format>
    <dc:creator>
     <cc:Agent>
      <dc:title>Matplotlib v3.7.1, https://matplotlib.org/</dc:title>
     </cc:Agent>
    </dc:creator>
   </cc:Work>
  </rdf:RDF>
 </metadata>
 <defs>
  <style type="text/css">*{stroke-linejoin: round; stroke-linecap: butt}</style>
 </defs>
 <g id="figure_1">
  <g id="patch_1">
   <path d="M 0 720 
L 720 720 
L 720 0 
L 0 0 
z
" style="fill: #ffffff"/>
  </g>
  <g id="axes_1">
   <g id="patch_2">
    <path d="M 90 640.8 
L 648 640.8 
L 648 86.4 
L 90 86.4 
z
" style="fill: #ffffff"/>
   </g>
   <g id="matplotlib.axis_1">
    <g id="xtick_1">
     <g id="line2d_1">
      <defs>
       <path id="m8947a40a73" d="M 0 0 
L 0 3.5 
" style="stroke: #000000; stroke-width: 0.8"/>
      </defs>
      <g>
       <use xlink:href="#m8947a40a73" x="115.363636" y="640.8" style="stroke: #000000; stroke-width: 0.8"/>
      </g>
     </g>
     <g id="text_1">
      <text style="font: 24px 'DejaVu Sans', 'Bitstream Vera Sans', 'Computer Modern Sans Serif', 'Lucida Grande', 'Verdana', 'Geneva', 'Lucid', 'Arial', 'Helvetica', 'Avant Garde', sans-serif; text-anchor: middle" x="115.363636" y="666.03625" transform="rotate(-0 115.363636 666.03625)">0.0</text>
     </g>
    </g>
    <g id="xtick_2">
     <g id="line2d_2">
      <g>
       <use xlink:href="#m8947a40a73" x="260.298701" y="640.8" style="stroke: #000000; stroke-width: 0.8"/>
      </g>
     </g>
     <g id="text_2">
      <text style="font: 24px 'DejaVu Sans', 'Bitstream Vera Sans', 'Computer Modern Sans Serif', 'Lucida Grande', 'Verdana', 'Geneva', 'Lucid', 'Arial', 'Helvetica', 'Avant Garde', sans-serif; text-anchor: middle" x="260.298701" y="666.03625" transform="rotate(-0 260.298701 666.03625)">0.2</text>
     </g>
    </g>
    <g id="xtick_3">
     <g id="line2d_3">
      <g>
       <use xlink:href="#m8947a40a73" x="405.233766" y="640.8" style="stroke: #000000; stroke-width: 0.8"/>
      </g>
     </g>
     <g id="text_3">
      <text style="font: 24px 'DejaVu Sans', 'Bitstream Vera Sans', 'Computer Modern Sans Serif', 'Lucida Grande', 'Verdana', 'Geneva', 'Lucid', 'Arial', 'Helvetica', 'Avant Garde', sans-serif; text-anchor: middle" x="405.233766" y="666.03625" transform="rotate(-0 405.233766 666.03625)">0.4</text>
     </g>
    </g>
    <g id="xtick_4">
     <g id="line2d_4">
      <g>
       <use xlink:href="#m8947a40a73" x="550.168831" y="640.8" style="stroke: #000000; stroke-width: 0.8"/>
      </g>
     </g>
     <g id="text_4">
      <text style="font: 24px 'DejaVu Sans', 'Bitstream Vera Sans', 'Computer Modern Sans Serif', 'Lucida Grande', 'Verdana', 'Geneva', 'Lucid', 'Arial', 'Helvetica', 'Avant Garde', sans-serif; text-anchor: middle" x="550.168831" y="666.03625" transform="rotate(-0 550.168831 666.03625)">0.6</text>
     </g>
    </g>
    <g id="text_5">
     <text style="font: 24px 'DejaVu Sans', 'Bitstream Vera Sans', 'Computer Modern Sans Serif', 'Lucida Grande', 'Verdana', 'Geneva', 'Lucid', 'Arial', 'Helvetica', 'Avant Garde', sans-serif; text-anchor: middle" x="369" y="693.26375" transform="rotate(-0 369 693.26375)">Field strength in $ z $-direction $ h_z $ </text>
    </g>
   </g>
   <g id="matplotlib.axis_2">
    <g id="ytick_1">
     <g id="line2d_5">
      <defs>
       <path id="m5d161945c8" d="M 0 0 
L -3.5 0 
" style="stroke: #000000; stroke-width: 0.8"/>
      </defs>
      <g>
       <use xlink:href="#m5d161945c8" x="90" y="615.448765" style="stroke: #000000; stroke-width: 0.8"/>
      </g>
     </g>
     <g id="text_6">
      <text style="font: 24px 'DejaVu Sans', 'Bitstream Vera Sans', 'Computer Modern Sans Serif', 'Lucida Grande', 'Verdana', 'Geneva', 'Lucid', 'Arial', 'Helvetica', 'Avant Garde', sans-serif; text-anchor: end" x="83" y="624.56689" transform="rotate(-0 83 624.56689)">0.0</text>
     </g>
    </g>
    <g id="ytick_2">
     <g id="line2d_6">
      <g>
       <use xlink:href="#m5d161945c8" x="90" y="499.361454" style="stroke: #000000; stroke-width: 0.8"/>
      </g>
     </g>
     <g id="text_7">
      <text style="font: 24px 'DejaVu Sans', 'Bitstream Vera Sans', 'Computer Modern Sans Serif', 'Lucida Grande', 'Verdana', 'Geneva', 'Lucid', 'Arial', 'Helvetica', 'Avant Garde', sans-serif; text-anchor: end" x="83" y="508.479579" transform="rotate(-0 83 508.479579)">0.2</text>
     </g>
    </g>
    <g id="ytick_3">
     <g id="line2d_7">
      <g>
       <use xlink:href="#m5d161945c8" x="90" y="383.274143" style="stroke: #000000; stroke-width: 0.8"/>
      </g>
     </g>
     <g id="text_8">
      <text style="font: 24px 'DejaVu Sans', 'Bitstream Vera Sans', 'Computer Modern Sans Serif', 'Lucida Grande', 'Verdana', 'Geneva', 'Lucid', 'Arial', 'Helvetica', 'Avant Garde', sans-serif; text-anchor: end" x="83" y="392.392268" transform="rotate(-0 83 392.392268)">0.4</text>
     </g>
    </g>
    <g id="ytick_4">
     <g id="line2d_8">
      <g>
       <use xlink:href="#m5d161945c8" x="90" y="267.186833" style="stroke: #000000; stroke-width: 0.8"/>
      </g>
     </g>
     <g id="text_9">
      <text style="font: 24px 'DejaVu Sans', 'Bitstream Vera Sans', 'Computer Modern Sans Serif', 'Lucida Grande', 'Verdana', 'Geneva', 'Lucid', 'Arial', 'Helvetica', 'Avant Garde', sans-serif; text-anchor: end" x="83" y="276.304958" transform="rotate(-0 83 276.304958)">0.6</text>
     </g>
    </g>
    <g id="ytick_5">
     <g id="line2d_9">
      <g>
       <use xlink:href="#m5d161945c8" x="90" y="151.099522" style="stroke: #000000; stroke-width: 0.8"/>
      </g>
     </g>
     <g id="text_10">
      <text style="font: 24px 'DejaVu Sans', 'Bitstream Vera Sans', 'Computer Modern Sans Serif', 'Lucida Grande', 'Verdana', 'Geneva', 'Lucid', 'Arial', 'Helvetica', 'Avant Garde', sans-serif; text-anchor: end" x="83" y="160.217647" transform="rotate(-0 83 160.217647)">0.8</text>
     </g>
    </g>
    <g id="text_11">
     <text style="font: 24px 'DejaVu Sans', 'Bitstream Vera Sans', 'Computer Modern Sans Serif', 'Lucida Grande', 'Verdana', 'Geneva', 'Lucid', 'Arial', 'Helvetica', 'Avant Garde', sans-serif; text-anchor: middle" x="35.84125" y="363.6" transform="rotate(-90 35.84125 363.6)">Magnetization $ m $ </text>
    </g>
   </g>
   <g id="LineCollection_1">
    <path d="M 115.363636 615.391802 
L 115.363636 615.207642 
" clip-path="url(#p947cc0314d)" style="fill: none; stroke: #e41a1c; stroke-width: 1.5"/>
    <path d="M 187.831169 586.06471 
L 187.831169 585.864749 
" clip-path="url(#p947cc0314d)" style="fill: none; stroke: #e41a1c; stroke-width: 1.5"/>
    <path d="M 260.298701 552.565931 
L 260.298701 552.331471 
" clip-path="url(#p947cc0314d)" style="fill: none; stroke: #e41a1c; stroke-width: 1.5"/>
    <path d="M 318.272727 516.228811 
L 318.272727 515.928676 
" clip-path="url(#p947cc0314d)" style="fill: none; stroke: #e41a1c; stroke-width: 1.5"/>
    <path d="M 332.766234 504.471459 
L 332.766234 504.131155 
" clip-path="url(#p947cc0314d)" style="fill: none; stroke: #e41a1c; stroke-width: 1.5"/>
    <path d="M 340.012987 496.483091 
L 340.012987 496.092248 
" clip-path="url(#p947cc0314d)" style="fill: none; stroke: #e41a1c; stroke-width: 1.5"/>
    <path d="M 354.506494 478.353875 
L 354.506494 477.735308 
" clip-path="url(#p947cc0314d)" style="fill: none; stroke: #e41a1c; stroke-width: 1.5"/>
    <path d="M 361.753247 464.305922 
L 361.753247 463.254072 
" clip-path="url(#p947cc0314d)" style="fill: none; stroke: #e41a1c; stroke-width: 1.5"/>
    <path d="M 369 441.493637 
L 369 439.806859 
" clip-path="url(#p947cc0314d)" style="fill: none; stroke: #e41a1c; stroke-width: 1.5"/>
    <path d="M 383.493506 414.779711 
L 383.493506 412.133089 
" clip-path="url(#p947cc0314d)" style="fill: none; stroke: #e41a1c; stroke-width: 1.5"/>
    <path d="M 405.233766 357.780934 
L 405.233766 354.327605 
" clip-path="url(#p947cc0314d)" style="fill: none; stroke: #e41a1c; stroke-width: 1.5"/>
    <path d="M 477.701299 193.392738 
L 477.701299 192.477639 
" clip-path="url(#p947cc0314d)" style="fill: none; stroke: #e41a1c; stroke-width: 1.5"/>
    <path d="M 550.168831 141.860016 
L 550.168831 141.132094 
" clip-path="url(#p947cc0314d)" style="fill: none; stroke: #e41a1c; stroke-width: 1.5"/>
    <path d="M 622.636364 112.166641 
L 622.636364 111.6 
" clip-path="url(#p947cc0314d)" style="fill: none; stroke: #e41a1c; stroke-width: 1.5"/>
   </g>
   <g id="LineCollection_2">
    <path d="M 115.363636 615.561209 
L 115.363636 615.372485 
" clip-path="url(#p947cc0314d)" style="fill: none; stroke: #377eb8; stroke-width: 1.5"/>
    <path d="M 187.831169 585.991085 
L 187.831169 585.791176 
" clip-path="url(#p947cc0314d)" style="fill: none; stroke: #377eb8; stroke-width: 1.5"/>
    <path d="M 260.298701 552.269327 
L 260.298701 552.036702 
" clip-path="url(#p947cc0314d)" style="fill: none; stroke: #377eb8; stroke-width: 1.5"/>
    <path d="M 318.272727 515.498003 
L 318.272727 515.187509 
" clip-path="url(#p947cc0314d)" style="fill: none; stroke: #377eb8; stroke-width: 1.5"/>
    <path d="M 332.766234 501.628211 
L 332.766234 501.247355 
" clip-path="url(#p947cc0314d)" style="fill: none; stroke: #377eb8; stroke-width: 1.5"/>
    <path d="M 340.012987 492.003993 
L 340.012987 491.568359 
" clip-path="url(#p947cc0314d)" style="fill: none; stroke: #377eb8; stroke-width: 1.5"/>
    <path d="M 354.506494 460.777495 
L 354.506494 460.120925 
" clip-path="url(#p947cc0314d)" style="fill: none; stroke: #377eb8; stroke-width: 1.5"/>
    <path d="M 361.753247 434.474317 
L 361.753247 433.703691 
" clip-path="url(#p947cc0314d)" style="fill: none; stroke: #377eb8; stroke-width: 1.5"/>
    <path d="M 369 402.139893 
L 369 401.229243 
" clip-path="url(#p947cc0314d)" style="fill: none; stroke: #377eb8; stroke-width: 1.5"/>
    <path d="M 383.493506 347.455182 
L 383.493506 346.459913 
" clip-path="url(#p947cc0314d)" style="fill: none; stroke: #377eb8; stroke-width: 1.5"/>
    <path d="M 405.233766 291.480108 
L 405.233766 290.539156 
" clip-path="url(#p947cc0314d)" style="fill: none; stroke: #377eb8; stroke-width: 1.5"/>
    <path d="M 477.701299 190.271652 
L 477.701299 189.623458 
" clip-path="url(#p947cc0314d)" style="fill: none; stroke: #377eb8; stroke-width: 1.5"/>
    <path d="M 550.168831 140.898759 
L 550.168831 140.30115 
" clip-path="url(#p947cc0314d)" style="fill: none; stroke: #377eb8; stroke-width: 1.5"/>
    <path d="M 622.636364 112.673584 
L 622.636364 112.102035 
" clip-path="url(#p947cc0314d)" style="fill: none; stroke: #377eb8; stroke-width: 1.5"/>
   </g>
   <g id="LineCollection_3">
    <path d="M 115.363636 615.6 
L 115.363636 615.406624 
" clip-path="url(#p947cc0314d)" style="fill: none; stroke: #4daf4a; stroke-width: 1.5"/>
    <path d="M 187.831169 585.861334 
L 187.831169 585.654856 
" clip-path="url(#p947cc0314d)" style="fill: none; stroke: #4daf4a; stroke-width: 1.5"/>
    <path d="M 260.298701 552.443717 
L 260.298701 552.211323 
" clip-path="url(#p947cc0314d)" style="fill: none; stroke: #4daf4a; stroke-width: 1.5"/>
    <path d="M 318.272727 516.637886 
L 318.272727 516.345032 
" clip-path="url(#p947cc0314d)" style="fill: none; stroke: #4daf4a; stroke-width: 1.5"/>
    <path d="M 332.766234 503.005023 
L 332.766234 502.655716 
" clip-path="url(#p947cc0314d)" style="fill: none; stroke: #4daf4a; stroke-width: 1.5"/>
    <path d="M 340.012987 495.816271 
L 340.012987 495.429355 
" clip-path="url(#p947cc0314d)" style="fill: none; stroke: #4daf4a; stroke-width: 1.5"/>
    <path d="M 354.506494 473.935849 
L 354.506494 473.319271 
" clip-path="url(#p947cc0314d)" style="fill: none; stroke: #4daf4a; stroke-width: 1.5"/>
    <path d="M 361.753247 457.466354 
L 361.753247 456.561343 
" clip-path="url(#p947cc0314d)" style="fill: none; stroke: #4daf4a; stroke-width: 1.5"/>
    <path d="M 369 436.198527 
L 369 434.832096 
" clip-path="url(#p947cc0314d)" style="fill: none; stroke: #4daf4a; stroke-width: 1.5"/>
    <path d="M 383.493506 381.940452 
L 383.493506 379.279277 
" clip-path="url(#p947cc0314d)" style="fill: none; stroke: #4daf4a; stroke-width: 1.5"/>
    <path d="M 405.233766 329.436796 
L 405.233766 326.18887 
" clip-path="url(#p947cc0314d)" style="fill: none; stroke: #4daf4a; stroke-width: 1.5"/>
    <path d="M 477.701299 229.968849 
L 477.701299 226.734058 
" clip-path="url(#p947cc0314d)" style="fill: none; stroke: #4daf4a; stroke-width: 1.5"/>
    <path d="M 550.168831 153.608919 
L 550.168831 151.554888 
" clip-path="url(#p947cc0314d)" style="fill: none; stroke: #4daf4a; stroke-width: 1.5"/>
    <path d="M 622.636364 124.623412 
L 622.636364 122.599663 
" clip-path="url(#p947cc0314d)" style="fill: none; stroke: #4daf4a; stroke-width: 1.5"/>
   </g>
   <g id="line2d_10">
    <path d="M 115.363636 615.299722 
L 187.831169 585.96473 
L 260.298701 552.448701 
L 318.272727 516.078743 
L 332.766234 504.301307 
L 340.012987 496.28767 
L 354.506494 478.044591 
L 361.753247 463.779997 
L 369 440.650248 
L 383.493506 413.4564 
L 405.233766 356.054269 
L 477.701299 192.935189 
L 550.168831 141.496055 
L 622.636364 111.88332 
" clip-path="url(#p947cc0314d)" style="fill: none; stroke: #e41a1c; stroke-width: 1.5; stroke-linecap: square"/>
    <defs>
     <path id="mf666a130cc" d="M 0 1.5 
C 0.397805 1.5 0.77937 1.341951 1.06066 1.06066 
C 1.341951 0.77937 1.5 0.397805 1.5 0 
C 1.5 -0.397805 1.341951 -0.77937 1.06066 -1.06066 
C 0.77937 -1.341951 0.397805 -1.5 0 -1.5 
C -0.397805 -1.5 -0.77937 -1.341951 -1.06066 -1.06066 
C -1.341951 -0.77937 -1.5 -0.397805 -1.5 0 
C -1.5 0.397805 -1.341951 0.77937 -1.06066 1.06066 
C -0.77937 1.341951 -0.397805 1.5 0 1.5 
z
" style="stroke: #e41a1c"/>
    </defs>
    <g clip-path="url(#p947cc0314d)">
     <use xlink:href="#mf666a130cc" x="115.363636" y="615.299722" style="fill: #e41a1c; stroke: #e41a1c"/>
     <use xlink:href="#mf666a130cc" x="187.831169" y="585.96473" style="fill: #e41a1c; stroke: #e41a1c"/>
     <use xlink:href="#mf666a130cc" x="260.298701" y="552.448701" style="fill: #e41a1c; stroke: #e41a1c"/>
     <use xlink:href="#mf666a130cc" x="318.272727" y="516.078743" style="fill: #e41a1c; stroke: #e41a1c"/>
     <use xlink:href="#mf666a130cc" x="332.766234" y="504.301307" style="fill: #e41a1c; stroke: #e41a1c"/>
     <use xlink:href="#mf666a130cc" x="340.012987" y="496.28767" style="fill: #e41a1c; stroke: #e41a1c"/>
     <use xlink:href="#mf666a130cc" x="354.506494" y="478.044591" style="fill: #e41a1c; stroke: #e41a1c"/>
     <use xlink:href="#mf666a130cc" x="361.753247" y="463.779997" style="fill: #e41a1c; stroke: #e41a1c"/>
     <use xlink:href="#mf666a130cc" x="369" y="440.650248" style="fill: #e41a1c; stroke: #e41a1c"/>
     <use xlink:href="#mf666a130cc" x="383.493506" y="413.4564" style="fill: #e41a1c; stroke: #e41a1c"/>
     <use xlink:href="#mf666a130cc" x="405.233766" y="356.054269" style="fill: #e41a1c; stroke: #e41a1c"/>
     <use xlink:href="#mf666a130cc" x="477.701299" y="192.935189" style="fill: #e41a1c; stroke: #e41a1c"/>
     <use xlink:href="#mf666a130cc" x="550.168831" y="141.496055" style="fill: #e41a1c; stroke: #e41a1c"/>
     <use xlink:href="#mf666a130cc" x="622.636364" y="111.88332" style="fill: #e41a1c; stroke: #e41a1c"/>
    </g>
   </g>
   <g id="line2d_11">
    <path d="M 115.363636 615.466847 
L 187.831169 585.891131 
L 260.298701 552.153014 
L 318.272727 515.342756 
L 332.766234 501.437783 
L 340.012987 491.786176 
L 354.506494 460.44921 
L 361.753247 434.089004 
L 369 401.684568 
L 383.493506 346.957548 
L 405.233766 291.009632 
L 477.701299 189.947555 
L 550.168831 140.599954 
L 622.636364 112.38781 
" clip-path="url(#p947cc0314d)" style="fill: none; stroke-dasharray: 5.55,2.4; stroke-dashoffset: 0; stroke: #377eb8; stroke-width: 1.5"/>
    <defs>
     <path id="mc2d638cc1e" d="M 0 1.5 
C 0.397805 1.5 0.77937 1.341951 1.06066 1.06066 
C 1.341951 0.77937 1.5 0.397805 1.5 0 
C 1.5 -0.397805 1.341951 -0.77937 1.06066 -1.06066 
C 0.77937 -1.341951 0.397805 -1.5 0 -1.5 
C -0.397805 -1.5 -0.77937 -1.341951 -1.06066 -1.06066 
C -1.341951 -0.77937 -1.5 -0.397805 -1.5 0 
C -1.5 0.397805 -1.341951 0.77937 -1.06066 1.06066 
C -0.77937 1.341951 -0.397805 1.5 0 1.5 
z
" style="stroke: #377eb8"/>
    </defs>
    <g clip-path="url(#p947cc0314d)">
     <use xlink:href="#mc2d638cc1e" x="115.363636" y="615.466847" style="fill: #377eb8; stroke: #377eb8"/>
     <use xlink:href="#mc2d638cc1e" x="187.831169" y="585.891131" style="fill: #377eb8; stroke: #377eb8"/>
     <use xlink:href="#mc2d638cc1e" x="260.298701" y="552.153014" style="fill: #377eb8; stroke: #377eb8"/>
     <use xlink:href="#mc2d638cc1e" x="318.272727" y="515.342756" style="fill: #377eb8; stroke: #377eb8"/>
     <use xlink:href="#mc2d638cc1e" x="332.766234" y="501.437783" style="fill: #377eb8; stroke: #377eb8"/>
     <use xlink:href="#mc2d638cc1e" x="340.012987" y="491.786176" style="fill: #377eb8; stroke: #377eb8"/>
     <use xlink:href="#mc2d638cc1e" x="354.506494" y="460.44921" style="fill: #377eb8; stroke: #377eb8"/>
     <use xlink:href="#mc2d638cc1e" x="361.753247" y="434.089004" style="fill: #377eb8; stroke: #377eb8"/>
     <use xlink:href="#mc2d638cc1e" x="369" y="401.684568" style="fill: #377eb8; stroke: #377eb8"/>
     <use xlink:href="#mc2d638cc1e" x="383.493506" y="346.957548" style="fill: #377eb8; stroke: #377eb8"/>
     <use xlink:href="#mc2d638cc1e" x="405.233766" y="291.009632" style="fill: #377eb8; stroke: #377eb8"/>
     <use xlink:href="#mc2d638cc1e" x="477.701299" y="189.947555" style="fill: #377eb8; stroke: #377eb8"/>
     <use xlink:href="#mc2d638cc1e" x="550.168831" y="140.599954" style="fill: #377eb8; stroke: #377eb8"/>
     <use xlink:href="#mc2d638cc1e" x="622.636364" y="112.38781" style="fill: #377eb8; stroke: #377eb8"/>
    </g>
   </g>
   <g id="line2d_12">
    <path d="M 115.363636 615.503312 
L 187.831169 585.758095 
L 260.298701 552.32752 
L 318.272727 516.491459 
L 332.766234 502.83037 
L 340.012987 495.622813 
L 354.506494 473.62756 
L 361.753247 457.013848 
L 369 435.515312 
L 383.493506 380.609864 
L 405.233766 327.812833 
L 477.701299 228.351453 
L 550.168831 152.581904 
L 622.636364 123.611537 
" clip-path="url(#p947cc0314d)" style="fill: none; stroke-dasharray: 1.5,2.475; stroke-dashoffset: 0; stroke: #4daf4a; stroke-width: 1.5"/>
    <defs>
     <path id="md1d4d29066" d="M 0 1.5 
C 0.397805 1.5 0.77937 1.341951 1.06066 1.06066 
C 1.341951 0.77937 1.5 0.397805 1.5 0 
C 1.5 -0.397805 1.341951 -0.77937 1.06066 -1.06066 
C 0.77937 -1.341951 0.397805 -1.5 0 -1.5 
C -0.397805 -1.5 -0.77937 -1.341951 -1.06066 -1.06066 
C -1.341951 -0.77937 -1.5 -0.397805 -1.5 0 
C -1.5 0.397805 -1.341951 0.77937 -1.06066 1.06066 
C -0.77937 1.341951 -0.397805 1.5 0 1.5 
z
" style="stroke: #4daf4a"/>
    </defs>
    <g clip-path="url(#p947cc0314d)">
     <use xlink:href="#md1d4d29066" x="115.363636" y="615.503312" style="fill: #4daf4a; stroke: #4daf4a"/>
     <use xlink:href="#md1d4d29066" x="187.831169" y="585.758095" style="fill: #4daf4a; stroke: #4daf4a"/>
     <use xlink:href="#md1d4d29066" x="260.298701" y="552.32752" style="fill: #4daf4a; stroke: #4daf4a"/>
     <use xlink:href="#md1d4d29066" x="318.272727" y="516.491459" style="fill: #4daf4a; stroke: #4daf4a"/>
     <use xlink:href="#md1d4d29066" x="332.766234" y="502.83037" style="fill: #4daf4a; stroke: #4daf4a"/>
     <use xlink:href="#md1d4d29066" x="340.012987" y="495.622813" style="fill: #4daf4a; stroke: #4daf4a"/>
     <use xlink:href="#md1d4d29066" x="354.506494" y="473.62756" style="fill: #4daf4a; stroke: #4daf4a"/>
     <use xlink:href="#md1d4d29066" x="361.753247" y="457.013848" style="fill: #4daf4a; stroke: #4daf4a"/>
     <use xlink:href="#md1d4d29066" x="369" y="435.515312" style="fill: #4daf4a; stroke: #4daf4a"/>
     <use xlink:href="#md1d4d29066" x="383.493506" y="380.609864" style="fill: #4daf4a; stroke: #4daf4a"/>
     <use xlink:href="#md1d4d29066" x="405.233766" y="327.812833" style="fill: #4daf4a; stroke: #4daf4a"/>
     <use xlink:href="#md1d4d29066" x="477.701299" y="228.351453" style="fill: #4daf4a; stroke: #4daf4a"/>
     <use xlink:href="#md1d4d29066" x="550.168831" y="152.581904" style="fill: #4daf4a; stroke: #4daf4a"/>
     <use xlink:href="#md1d4d29066" x="622.636364" y="123.611537" style="fill: #4daf4a; stroke: #4daf4a"/>
    </g>
   </g>
   <g id="patch_3">
    <path d="M 90 640.8 
L 90 86.4 
" style="fill: none; stroke: #000000; stroke-width: 0.8; stroke-linejoin: miter; stroke-linecap: square"/>
   </g>
   <g id="patch_4">
    <path d="M 648 640.8 
L 648 86.4 
" style="fill: none; stroke: #000000; stroke-width: 0.8; stroke-linejoin: miter; stroke-linecap: square"/>
   </g>
   <g id="patch_5">
    <path d="M 90 640.8 
L 648 640.8 
" style="fill: none; stroke: #000000; stroke-width: 0.8; stroke-linejoin: miter; stroke-linecap: square"/>
   </g>
   <g id="patch_6">
    <path d="M 90 86.4 
L 648 86.4 
" style="fill: none; stroke: #000000; stroke-width: 0.8; stroke-linejoin: miter; stroke-linecap: square"/>
   </g>
   <g id="legend_1">
    <g id="patch_7">
     <path d="M 106.8 211.2825 
L 335.3175 211.2825 
Q 340.1175 211.2825 340.1175 206.4825 
L 340.1175 103.2 
Q 340.1175 98.4 335.3175 98.4 
L 106.8 98.4 
Q 102 98.4 102 103.2 
L 102 206.4825 
Q 102 211.2825 106.8 211.2825 
z
" style="fill: #ffffff; opacity: 0.8; stroke: #cccccc; stroke-linejoin: miter"/>
    </g>
    <g id="LineCollection_4">
     <path d="M 135.6 129.83625 
L 135.6 105.83625 
" style="fill: none; stroke: #e41a1c; stroke-width: 1.5"/>
    </g>
    <g id="line2d_13">
     <path d="M 111.6 117.83625 
L 159.6 117.83625 
" style="fill: none; stroke: #e41a1c; stroke-width: 1.5; stroke-linecap: square"/>
    </g>
    <g id="line2d_14">
     <g>
      <use xlink:href="#mf666a130cc" x="135.6" y="117.83625" style="fill: #e41a1c; stroke: #e41a1c"/>
     </g>
    </g>
    <g id="text_12">
     <text style="font: 24px 'DejaVu Sans', 'Bitstream Vera Sans', 'Computer Modern Sans Serif', 'Lucida Grande', 'Verdana', 'Geneva', 'Lucid', 'Arial', 'Helvetica', 'Avant Garde', sans-serif; text-anchor: start" x="178.8" y="126.23625" transform="rotate(-0 178.8 126.23625)">independent</text>
    </g>
    <g id="LineCollection_5">
     <path d="M 135.6 165.06375 
L 135.6 141.06375 
" style="fill: none; stroke: #377eb8; stroke-width: 1.5"/>
    </g>
    <g id="line2d_15">
     <path d="M 111.6 153.06375 
L 159.6 153.06375 
" style="fill: none; stroke-dasharray: 5.55,2.4; stroke-dashoffset: 0; stroke: #377eb8; stroke-width: 1.5"/>
    </g>
    <g id="line2d_16">
     <g>
      <use xlink:href="#mc2d638cc1e" x="135.6" y="153.06375" style="fill: #377eb8; stroke: #377eb8"/>
     </g>
    </g>
    <g id="text_13">
     <text style="font: 24px 'DejaVu Sans', 'Bitstream Vera Sans', 'Computer Modern Sans Serif', 'Lucida Grande', 'Verdana', 'Geneva', 'Lucid', 'Arial', 'Helvetica', 'Avant Garde', sans-serif; text-anchor: start" x="178.8" y="161.46375" transform="rotate(-0 178.8 161.46375)">right-left</text>
    </g>
    <g id="LineCollection_6">
     <path d="M 135.6 200.29125 
L 135.6 176.29125 
" style="fill: none; stroke: #4daf4a; stroke-width: 1.5"/>
    </g>
    <g id="line2d_17">
     <path d="M 111.6 188.29125 
L 159.6 188.29125 
" style="fill: none; stroke-dasharray: 1.5,2.475; stroke-dashoffset: 0; stroke: #4daf4a; stroke-width: 1.5"/>
    </g>
    <g id="line2d_18">
     <g>
      <use xlink:href="#md1d4d29066" x="135.6" y="188.29125" style="fill: #4daf4a; stroke: #4daf4a"/>
     </g>
    </g>
    <g id="text_14">
     <text style="font: 24px 'DejaVu Sans', 'Bitstream Vera Sans', 'Computer Modern Sans Serif', 'Lucida Grande', 'Verdana', 'Geneva', 'Lucid', 'Arial', 'Helvetica', 'Avant Garde', sans-serif; text-anchor: start" x="178.8" y="196.69125" transform="rotate(-0 178.8 196.69125)">left-right</text>
    </g>
   </g>
  </g>
 </g>
 <defs>
  <clipPath id="p947cc0314d">
   <rect x="90" y="86.4" width="558" height="554.4"/>
  </clipPath>
 </defs>
</svg>
