<?xml version="1.0" encoding="utf-8" standalone="no"?>
<!DOCTYPE svg PUBLIC "-//W3C//DTD SVG 1.1//EN"
  "http://www.w3.org/Graphics/SVG/1.1/DTD/svg11.dtd">
<svg xmlns:xlink="http://www.w3.org/1999/xlink" width="720pt" height="720pt" viewBox="0 0 720 720" xmlns="http://www.w3.org/2000/svg" version="1.1">
 <metadata>
  <rdf:RDF xmlns:dc="http://purl.org/dc/elements/1.1/" xmlns:cc="http://creativecommons.org/ns#" xmlns:rdf="http://www.w3.org/1999/02/22-rdf-syntax-ns#">
   <cc:Work>
    <dc:type rdf:resource="http://purl.org/dc/dcmitype/StillImage"/>
    <dc:date>2023-09-18T12:21:33.665958</dc:date>
    <dc:format>image/svg+xml</dc:format>
    <dc:creator>
     <cc:Agent>
      <dc:title>Matplotlib v3.7.1, https://matplotlib.org/</dc:title>
     </cc:Agent>
    </dc:creator>
   </cc:Work>
  </rdf:RDF>
 </metadata>
 <defs>
  <style type="text/css">*{stroke-linejoin: round; stroke-linecap: butt}</style>
 </defs>
 <g id="figure_1">
  <g id="patch_1">
   <path d="M 0 720 
L 720 720 
L 720 0 
L 0 0 
z
" style="fill: #ffffff"/>
  </g>
  <g id="axes_1">
   <g id="patch_2">
    <path d="M 90 640.8 
L 648 640.8 
L 648 86.4 
L 90 86.4 
z
" style="fill: #ffffff"/>
   </g>
   <g id="matplotlib.axis_1">
    <g id="xtick_1">
     <g id="line2d_1">
      <defs>
       <path id="m68489e0f3a" d="M 0 0 
L 0 3.5 
" style="stroke: #000000; stroke-width: 0.8"/>
      </defs>
      <g>
       <use xlink:href="#m68489e0f3a" x="157.636364" y="640.8" style="stroke: #000000; stroke-width: 0.8"/>
      </g>
     </g>
     <g id="text_1">
      <text style="font: 24px 'DejaVu Sans', 'Bitstream Vera Sans', 'Computer Modern Sans Serif', 'Lucida Grande', 'Verdana', 'Geneva', 'Lucid', 'Arial', 'Helvetica', 'Avant Garde', sans-serif; text-anchor: middle" x="157.636364" y="666.03625" transform="rotate(-0 157.636364 666.03625)">0.1</text>
     </g>
    </g>
    <g id="xtick_2">
     <g id="line2d_2">
      <g>
       <use xlink:href="#m68489e0f3a" x="242.181818" y="640.8" style="stroke: #000000; stroke-width: 0.8"/>
      </g>
     </g>
     <g id="text_2">
      <text style="font: 24px 'DejaVu Sans', 'Bitstream Vera Sans', 'Computer Modern Sans Serif', 'Lucida Grande', 'Verdana', 'Geneva', 'Lucid', 'Arial', 'Helvetica', 'Avant Garde', sans-serif; text-anchor: middle" x="242.181818" y="666.03625" transform="rotate(-0 242.181818 666.03625)">0.2</text>
     </g>
    </g>
    <g id="xtick_3">
     <g id="line2d_3">
      <g>
       <use xlink:href="#m68489e0f3a" x="326.727273" y="640.8" style="stroke: #000000; stroke-width: 0.8"/>
      </g>
     </g>
     <g id="text_3">
      <text style="font: 24px 'DejaVu Sans', 'Bitstream Vera Sans', 'Computer Modern Sans Serif', 'Lucida Grande', 'Verdana', 'Geneva', 'Lucid', 'Arial', 'Helvetica', 'Avant Garde', sans-serif; text-anchor: middle" x="326.727273" y="666.03625" transform="rotate(-0 326.727273 666.03625)">0.3</text>
     </g>
    </g>
    <g id="xtick_4">
     <g id="line2d_4">
      <g>
       <use xlink:href="#m68489e0f3a" x="411.272727" y="640.8" style="stroke: #000000; stroke-width: 0.8"/>
      </g>
     </g>
     <g id="text_4">
      <text style="font: 24px 'DejaVu Sans', 'Bitstream Vera Sans', 'Computer Modern Sans Serif', 'Lucida Grande', 'Verdana', 'Geneva', 'Lucid', 'Arial', 'Helvetica', 'Avant Garde', sans-serif; text-anchor: middle" x="411.272727" y="666.03625" transform="rotate(-0 411.272727 666.03625)">0.4</text>
     </g>
    </g>
    <g id="xtick_5">
     <g id="line2d_5">
      <g>
       <use xlink:href="#m68489e0f3a" x="495.818182" y="640.8" style="stroke: #000000; stroke-width: 0.8"/>
      </g>
     </g>
     <g id="text_5">
      <text style="font: 24px 'DejaVu Sans', 'Bitstream Vera Sans', 'Computer Modern Sans Serif', 'Lucida Grande', 'Verdana', 'Geneva', 'Lucid', 'Arial', 'Helvetica', 'Avant Garde', sans-serif; text-anchor: middle" x="495.818182" y="666.03625" transform="rotate(-0 495.818182 666.03625)">0.5</text>
     </g>
    </g>
    <g id="xtick_6">
     <g id="line2d_6">
      <g>
       <use xlink:href="#m68489e0f3a" x="580.363636" y="640.8" style="stroke: #000000; stroke-width: 0.8"/>
      </g>
     </g>
     <g id="text_6">
      <text style="font: 24px 'DejaVu Sans', 'Bitstream Vera Sans', 'Computer Modern Sans Serif', 'Lucida Grande', 'Verdana', 'Geneva', 'Lucid', 'Arial', 'Helvetica', 'Avant Garde', sans-serif; text-anchor: middle" x="580.363636" y="666.03625" transform="rotate(-0 580.363636 666.03625)">0.6</text>
     </g>
    </g>
    <g id="text_7">
     <text style="font: 24px 'DejaVu Sans', 'Bitstream Vera Sans', 'Computer Modern Sans Serif', 'Lucida Grande', 'Verdana', 'Geneva', 'Lucid', 'Arial', 'Helvetica', 'Avant Garde', sans-serif; text-anchor: middle" x="369" y="693.26375" transform="rotate(-0 369 693.26375)">Field strength in $ z $-direction $ h_z $ </text>
    </g>
   </g>
   <g id="matplotlib.axis_2">
    <g id="ytick_1">
     <g id="line2d_7">
      <defs>
       <path id="mdb28b968fc" d="M 0 0 
L -3.5 0 
" style="stroke: #000000; stroke-width: 0.8"/>
      </defs>
      <g>
       <use xlink:href="#mdb28b968fc" x="90" y="564.776998" style="stroke: #000000; stroke-width: 0.8"/>
      </g>
     </g>
     <g id="text_8">
      <text style="font: 24px 'DejaVu Sans', 'Bitstream Vera Sans', 'Computer Modern Sans Serif', 'Lucida Grande', 'Verdana', 'Geneva', 'Lucid', 'Arial', 'Helvetica', 'Avant Garde', sans-serif; text-anchor: end" x="83" y="573.895123" transform="rotate(-0 83 573.895123)">1</text>
     </g>
    </g>
    <g id="ytick_2">
     <g id="line2d_8">
      <g>
       <use xlink:href="#mdb28b968fc" x="90" y="465.889856" style="stroke: #000000; stroke-width: 0.8"/>
      </g>
     </g>
     <g id="text_9">
      <text style="font: 24px 'DejaVu Sans', 'Bitstream Vera Sans', 'Computer Modern Sans Serif', 'Lucida Grande', 'Verdana', 'Geneva', 'Lucid', 'Arial', 'Helvetica', 'Avant Garde', sans-serif; text-anchor: end" x="83" y="475.007981" transform="rotate(-0 83 475.007981)">2</text>
     </g>
    </g>
    <g id="ytick_3">
     <g id="line2d_9">
      <g>
       <use xlink:href="#mdb28b968fc" x="90" y="367.002714" style="stroke: #000000; stroke-width: 0.8"/>
      </g>
     </g>
     <g id="text_10">
      <text style="font: 24px 'DejaVu Sans', 'Bitstream Vera Sans', 'Computer Modern Sans Serif', 'Lucida Grande', 'Verdana', 'Geneva', 'Lucid', 'Arial', 'Helvetica', 'Avant Garde', sans-serif; text-anchor: end" x="83" y="376.120839" transform="rotate(-0 83 376.120839)">3</text>
     </g>
    </g>
    <g id="ytick_4">
     <g id="line2d_10">
      <g>
       <use xlink:href="#mdb28b968fc" x="90" y="268.115573" style="stroke: #000000; stroke-width: 0.8"/>
      </g>
     </g>
     <g id="text_11">
      <text style="font: 24px 'DejaVu Sans', 'Bitstream Vera Sans', 'Computer Modern Sans Serif', 'Lucida Grande', 'Verdana', 'Geneva', 'Lucid', 'Arial', 'Helvetica', 'Avant Garde', sans-serif; text-anchor: end" x="83" y="277.233698" transform="rotate(-0 83 277.233698)">4</text>
     </g>
    </g>
    <g id="ytick_5">
     <g id="line2d_11">
      <g>
       <use xlink:href="#mdb28b968fc" x="90" y="169.228431" style="stroke: #000000; stroke-width: 0.8"/>
      </g>
     </g>
     <g id="text_12">
      <text style="font: 24px 'DejaVu Sans', 'Bitstream Vera Sans', 'Computer Modern Sans Serif', 'Lucida Grande', 'Verdana', 'Geneva', 'Lucid', 'Arial', 'Helvetica', 'Avant Garde', sans-serif; text-anchor: end" x="83" y="178.346556" transform="rotate(-0 83 178.346556)">5</text>
     </g>
    </g>
    <g id="text_13">
     <text style="font: 24px 'DejaVu Sans', 'Bitstream Vera Sans', 'Computer Modern Sans Serif', 'Lucida Grande', 'Verdana', 'Geneva', 'Lucid', 'Arial', 'Helvetica', 'Avant Garde', sans-serif; text-anchor: middle" x="58.73875" y="363.6" transform="rotate(-90 58.73875 363.6)">Susceptibility $ \chi $ </text>
    </g>
   </g>
   <g id="line2d_12">
    <path d="M 115.363636 613.68704 
L 199.909091 606.563941 
L 276 586.211205 
L 318.272727 563.339906 
L 330.954545 527.138338 
L 343.636364 508.263359 
L 356.318182 420.642751 
L 364.772727 269.609916 
L 377.454545 432.017641 
L 398.590909 337.683484 
L 453.545455 385.763315 
L 538.090909 576.028913 
L 622.636364 613.213859 
" clip-path="url(#p55bcc4672e)" style="fill: none; stroke: #e41a1c; stroke-width: 1.5; stroke-linecap: square"/>
    <defs>
     <path id="m4bc473069b" d="M 0 1.5 
C 0.397805 1.5 0.77937 1.341951 1.06066 1.06066 
C 1.341951 0.77937 1.5 0.397805 1.5 0 
C 1.5 -0.397805 1.341951 -0.77937 1.06066 -1.06066 
C 0.77937 -1.341951 0.397805 -1.5 0 -1.5 
C -0.397805 -1.5 -0.77937 -1.341951 -1.06066 -1.06066 
C -1.341951 -0.77937 -1.5 -0.397805 -1.5 0 
C -1.5 0.397805 -1.341951 0.77937 -1.06066 1.06066 
C -0.77937 1.341951 -0.397805 1.5 0 1.5 
z
" style="stroke: #e41a1c"/>
    </defs>
    <g clip-path="url(#p55bcc4672e)">
     <use xlink:href="#m4bc473069b" x="115.363636" y="613.68704" style="fill: #e41a1c; stroke: #e41a1c"/>
     <use xlink:href="#m4bc473069b" x="199.909091" y="606.563941" style="fill: #e41a1c; stroke: #e41a1c"/>
     <use xlink:href="#m4bc473069b" x="276" y="586.211205" style="fill: #e41a1c; stroke: #e41a1c"/>
     <use xlink:href="#m4bc473069b" x="318.272727" y="563.339906" style="fill: #e41a1c; stroke: #e41a1c"/>
     <use xlink:href="#m4bc473069b" x="330.954545" y="527.138338" style="fill: #e41a1c; stroke: #e41a1c"/>
     <use xlink:href="#m4bc473069b" x="343.636364" y="508.263359" style="fill: #e41a1c; stroke: #e41a1c"/>
     <use xlink:href="#m4bc473069b" x="356.318182" y="420.642751" style="fill: #e41a1c; stroke: #e41a1c"/>
     <use xlink:href="#m4bc473069b" x="364.772727" y="269.609916" style="fill: #e41a1c; stroke: #e41a1c"/>
     <use xlink:href="#m4bc473069b" x="377.454545" y="432.017641" style="fill: #e41a1c; stroke: #e41a1c"/>
     <use xlink:href="#m4bc473069b" x="398.590909" y="337.683484" style="fill: #e41a1c; stroke: #e41a1c"/>
     <use xlink:href="#m4bc473069b" x="453.545455" y="385.763315" style="fill: #e41a1c; stroke: #e41a1c"/>
     <use xlink:href="#m4bc473069b" x="538.090909" y="576.028913" style="fill: #e41a1c; stroke: #e41a1c"/>
     <use xlink:href="#m4bc473069b" x="622.636364" y="613.213859" style="fill: #e41a1c; stroke: #e41a1c"/>
    </g>
   </g>
   <g id="line2d_13">
    <path d="M 115.363636 613.276926 
L 199.909091 606.185576 
L 276 585.273546 
L 318.272727 545.216822 
L 330.954545 499.232762 
L 343.636364 396.725145 
L 356.318182 214.573646 
L 364.772727 111.6 
L 377.454545 197.480661 
L 398.590909 345.941819 
L 453.545455 491.487871 
L 538.090909 579.592192 
L 622.636364 615.6 
" clip-path="url(#p55bcc4672e)" style="fill: none; stroke-dasharray: 5.55,2.4; stroke-dashoffset: 0; stroke: #377eb8; stroke-width: 1.5"/>
    <defs>
     <path id="m817a046ba2" d="M 0 1.5 
C 0.397805 1.5 0.77937 1.341951 1.06066 1.06066 
C 1.341951 0.77937 1.5 0.397805 1.5 0 
C 1.5 -0.397805 1.341951 -0.77937 1.06066 -1.06066 
C 0.77937 -1.341951 0.397805 -1.5 0 -1.5 
C -0.397805 -1.5 -0.77937 -1.341951 -1.06066 -1.06066 
C -1.341951 -0.77937 -1.5 -0.397805 -1.5 0 
C -1.5 0.397805 -1.341951 0.77937 -1.06066 1.06066 
C -0.77937 1.341951 -0.397805 1.5 0 1.5 
z
" style="stroke: #377eb8"/>
    </defs>
    <g clip-path="url(#p55bcc4672e)">
     <use xlink:href="#m817a046ba2" x="115.363636" y="613.276926" style="fill: #377eb8; stroke: #377eb8"/>
     <use xlink:href="#m817a046ba2" x="199.909091" y="606.185576" style="fill: #377eb8; stroke: #377eb8"/>
     <use xlink:href="#m817a046ba2" x="276" y="585.273546" style="fill: #377eb8; stroke: #377eb8"/>
     <use xlink:href="#m817a046ba2" x="318.272727" y="545.216822" style="fill: #377eb8; stroke: #377eb8"/>
     <use xlink:href="#m817a046ba2" x="330.954545" y="499.232762" style="fill: #377eb8; stroke: #377eb8"/>
     <use xlink:href="#m817a046ba2" x="343.636364" y="396.725145" style="fill: #377eb8; stroke: #377eb8"/>
     <use xlink:href="#m817a046ba2" x="356.318182" y="214.573646" style="fill: #377eb8; stroke: #377eb8"/>
     <use xlink:href="#m817a046ba2" x="364.772727" y="111.6" style="fill: #377eb8; stroke: #377eb8"/>
     <use xlink:href="#m817a046ba2" x="377.454545" y="197.480661" style="fill: #377eb8; stroke: #377eb8"/>
     <use xlink:href="#m817a046ba2" x="398.590909" y="345.941819" style="fill: #377eb8; stroke: #377eb8"/>
     <use xlink:href="#m817a046ba2" x="453.545455" y="491.487871" style="fill: #377eb8; stroke: #377eb8"/>
     <use xlink:href="#m817a046ba2" x="538.090909" y="579.592192" style="fill: #377eb8; stroke: #377eb8"/>
     <use xlink:href="#m817a046ba2" x="622.636364" y="615.6" style="fill: #377eb8; stroke: #377eb8"/>
    </g>
   </g>
   <g id="line2d_14">
    <path d="M 115.363636 612.988153 
L 199.909091 606.709526 
L 276 587.348183 
L 318.272727 547.294308 
L 330.954545 540.871275 
L 343.636364 476.301048 
L 356.318182 380.621588 
L 364.772727 297.40036 
L 377.454545 195.96076 
L 398.590909 363.835359 
L 453.545455 494.214929 
L 538.090909 534.577952 
L 622.636364 614.308242 
" clip-path="url(#p55bcc4672e)" style="fill: none; stroke-dasharray: 1.5,2.475; stroke-dashoffset: 0; stroke: #4daf4a; stroke-width: 1.5"/>
    <defs>
     <path id="m5b63171978" d="M 0 1.5 
C 0.397805 1.5 0.77937 1.341951 1.06066 1.06066 
C 1.341951 0.77937 1.5 0.397805 1.5 0 
C 1.5 -0.397805 1.341951 -0.77937 1.06066 -1.06066 
C 0.77937 -1.341951 0.397805 -1.5 0 -1.5 
C -0.397805 -1.5 -0.77937 -1.341951 -1.06066 -1.06066 
C -1.341951 -0.77937 -1.5 -0.397805 -1.5 0 
C -1.5 0.397805 -1.341951 0.77937 -1.06066 1.06066 
C -0.77937 1.341951 -0.397805 1.5 0 1.5 
z
" style="stroke: #4daf4a"/>
    </defs>
    <g clip-path="url(#p55bcc4672e)">
     <use xlink:href="#m5b63171978" x="115.363636" y="612.988153" style="fill: #4daf4a; stroke: #4daf4a"/>
     <use xlink:href="#m5b63171978" x="199.909091" y="606.709526" style="fill: #4daf4a; stroke: #4daf4a"/>
     <use xlink:href="#m5b63171978" x="276" y="587.348183" style="fill: #4daf4a; stroke: #4daf4a"/>
     <use xlink:href="#m5b63171978" x="318.272727" y="547.294308" style="fill: #4daf4a; stroke: #4daf4a"/>
     <use xlink:href="#m5b63171978" x="330.954545" y="540.871275" style="fill: #4daf4a; stroke: #4daf4a"/>
     <use xlink:href="#m5b63171978" x="343.636364" y="476.301048" style="fill: #4daf4a; stroke: #4daf4a"/>
     <use xlink:href="#m5b63171978" x="356.318182" y="380.621588" style="fill: #4daf4a; stroke: #4daf4a"/>
     <use xlink:href="#m5b63171978" x="364.772727" y="297.40036" style="fill: #4daf4a; stroke: #4daf4a"/>
     <use xlink:href="#m5b63171978" x="377.454545" y="195.96076" style="fill: #4daf4a; stroke: #4daf4a"/>
     <use xlink:href="#m5b63171978" x="398.590909" y="363.835359" style="fill: #4daf4a; stroke: #4daf4a"/>
     <use xlink:href="#m5b63171978" x="453.545455" y="494.214929" style="fill: #4daf4a; stroke: #4daf4a"/>
     <use xlink:href="#m5b63171978" x="538.090909" y="534.577952" style="fill: #4daf4a; stroke: #4daf4a"/>
     <use xlink:href="#m5b63171978" x="622.636364" y="614.308242" style="fill: #4daf4a; stroke: #4daf4a"/>
    </g>
   </g>
   <g id="patch_3">
    <path d="M 90 640.8 
L 90 86.4 
" style="fill: none; stroke: #000000; stroke-width: 0.8; stroke-linejoin: miter; stroke-linecap: square"/>
   </g>
   <g id="patch_4">
    <path d="M 648 640.8 
L 648 86.4 
" style="fill: none; stroke: #000000; stroke-width: 0.8; stroke-linejoin: miter; stroke-linecap: square"/>
   </g>
   <g id="patch_5">
    <path d="M 90 640.8 
L 648 640.8 
" style="fill: none; stroke: #000000; stroke-width: 0.8; stroke-linejoin: miter; stroke-linecap: square"/>
   </g>
   <g id="patch_6">
    <path d="M 90 86.4 
L 648 86.4 
" style="fill: none; stroke: #000000; stroke-width: 0.8; stroke-linejoin: miter; stroke-linecap: square"/>
   </g>
   <g id="legend_1">
    <g id="patch_7">
     <path d="M 402.6825 211.2825 
L 631.2 211.2825 
Q 636 211.2825 636 206.4825 
L 636 103.2 
Q 636 98.4 631.2 98.4 
L 402.6825 98.4 
Q 397.8825 98.4 397.8825 103.2 
L 397.8825 206.4825 
Q 397.8825 211.2825 402.6825 211.2825 
z
" style="fill: #ffffff; opacity: 0.8; stroke: #cccccc; stroke-linejoin: miter"/>
    </g>
    <g id="line2d_15">
     <path d="M 407.4825 117.83625 
L 431.4825 117.83625 
L 455.4825 117.83625 
" style="fill: none; stroke: #e41a1c; stroke-width: 1.5; stroke-linecap: square"/>
     <g>
      <use xlink:href="#m4bc473069b" x="431.4825" y="117.83625" style="fill: #e41a1c; stroke: #e41a1c"/>
     </g>
    </g>
    <g id="text_14">
     <text style="font: 24px 'DejaVu Sans', 'Bitstream Vera Sans', 'Computer Modern Sans Serif', 'Lucida Grande', 'Verdana', 'Geneva', 'Lucid', 'Arial', 'Helvetica', 'Avant Garde', sans-serif; text-anchor: start" x="474.6825" y="126.23625" transform="rotate(-0 474.6825 126.23625)">independent</text>
    </g>
    <g id="line2d_16">
     <path d="M 407.4825 153.06375 
L 431.4825 153.06375 
L 455.4825 153.06375 
" style="fill: none; stroke-dasharray: 5.55,2.4; stroke-dashoffset: 0; stroke: #377eb8; stroke-width: 1.5"/>
     <g>
      <use xlink:href="#m817a046ba2" x="431.4825" y="153.06375" style="fill: #377eb8; stroke: #377eb8"/>
     </g>
    </g>
    <g id="text_15">
     <text style="font: 24px 'DejaVu Sans', 'Bitstream Vera Sans', 'Computer Modern Sans Serif', 'Lucida Grande', 'Verdana', 'Geneva', 'Lucid', 'Arial', 'Helvetica', 'Avant Garde', sans-serif; text-anchor: start" x="474.6825" y="161.46375" transform="rotate(-0 474.6825 161.46375)">right-left</text>
    </g>
    <g id="line2d_17">
     <path d="M 407.4825 188.29125 
L 431.4825 188.29125 
L 455.4825 188.29125 
" style="fill: none; stroke-dasharray: 1.5,2.475; stroke-dashoffset: 0; stroke: #4daf4a; stroke-width: 1.5"/>
     <g>
      <use xlink:href="#m5b63171978" x="431.4825" y="188.29125" style="fill: #4daf4a; stroke: #4daf4a"/>
     </g>
    </g>
    <g id="text_16">
     <text style="font: 24px 'DejaVu Sans', 'Bitstream Vera Sans', 'Computer Modern Sans Serif', 'Lucida Grande', 'Verdana', 'Geneva', 'Lucid', 'Arial', 'Helvetica', 'Avant Garde', sans-serif; text-anchor: start" x="474.6825" y="196.69125" transform="rotate(-0 474.6825 196.69125)">left-right</text>
    </g>
   </g>
  </g>
 </g>
 <defs>
  <clipPath id="p55bcc4672e">
   <rect x="90" y="86.4" width="558" height="554.4"/>
  </clipPath>
 </defs>
</svg>
