<?xml version="1.0" encoding="utf-8" standalone="no"?>
<!DOCTYPE svg PUBLIC "-//W3C//DTD SVG 1.1//EN"
  "http://www.w3.org/Graphics/SVG/1.1/DTD/svg11.dtd">
<svg xmlns:xlink="http://www.w3.org/1999/xlink" width="720pt" height="720pt" viewBox="0 0 720 720" xmlns="http://www.w3.org/2000/svg" version="1.1">
 <metadata>
  <rdf:RDF xmlns:dc="http://purl.org/dc/elements/1.1/" xmlns:cc="http://creativecommons.org/ns#" xmlns:rdf="http://www.w3.org/1999/02/22-rdf-syntax-ns#">
   <cc:Work>
    <dc:type rdf:resource="http://purl.org/dc/dcmitype/StillImage"/>
    <dc:date>2023-08-26T20:32:20.561409</dc:date>
    <dc:format>image/svg+xml</dc:format>
    <dc:creator>
     <cc:Agent>
      <dc:title>Matplotlib v3.7.1, https://matplotlib.org/</dc:title>
     </cc:Agent>
    </dc:creator>
   </cc:Work>
  </rdf:RDF>
 </metadata>
 <defs>
  <style type="text/css">*{stroke-linejoin: round; stroke-linecap: butt}</style>
 </defs>
 <g id="figure_1">
  <g id="patch_1">
   <path d="M 0 720 
L 720 720 
L 720 0 
L 0 0 
z
" style="fill: #ffffff"/>
  </g>
  <g id="axes_1">
   <g id="patch_2">
    <path d="M 90 640.8 
L 648 640.8 
L 648 86.4 
L 90 86.4 
z
" style="fill: #ffffff"/>
   </g>
   <g id="matplotlib.axis_1">
    <g id="xtick_1">
     <g id="line2d_1">
      <defs>
       <path id="m5dff7109f0" d="M 0 0 
L 0 3.5 
" style="stroke: #000000; stroke-width: 0.8"/>
      </defs>
      <g>
       <use xlink:href="#m5dff7109f0" x="115.363636" y="640.8" style="stroke: #000000; stroke-width: 0.8"/>
      </g>
     </g>
     <g id="text_1">
      <text style="font: 30px 'DejaVu Sans', 'Bitstream Vera Sans', 'Computer Modern Sans Serif', 'Lucida Grande', 'Verdana', 'Geneva', 'Lucid', 'Arial', 'Helvetica', 'Avant Garde', sans-serif; text-anchor: middle" x="115.363636" y="670.595312" transform="rotate(-0 115.363636 670.595312)">0.0</text>
     </g>
    </g>
    <g id="xtick_2">
     <g id="line2d_2">
      <g>
       <use xlink:href="#m5dff7109f0" x="228.090909" y="640.8" style="stroke: #000000; stroke-width: 0.8"/>
      </g>
     </g>
     <g id="text_2">
      <text style="font: 30px 'DejaVu Sans', 'Bitstream Vera Sans', 'Computer Modern Sans Serif', 'Lucida Grande', 'Verdana', 'Geneva', 'Lucid', 'Arial', 'Helvetica', 'Avant Garde', sans-serif; text-anchor: middle" x="228.090909" y="670.595312" transform="rotate(-0 228.090909 670.595312)">0.2</text>
     </g>
    </g>
    <g id="xtick_3">
     <g id="line2d_3">
      <g>
       <use xlink:href="#m5dff7109f0" x="340.818182" y="640.8" style="stroke: #000000; stroke-width: 0.8"/>
      </g>
     </g>
     <g id="text_3">
      <text style="font: 30px 'DejaVu Sans', 'Bitstream Vera Sans', 'Computer Modern Sans Serif', 'Lucida Grande', 'Verdana', 'Geneva', 'Lucid', 'Arial', 'Helvetica', 'Avant Garde', sans-serif; text-anchor: middle" x="340.818182" y="670.595312" transform="rotate(-0 340.818182 670.595312)">0.4</text>
     </g>
    </g>
    <g id="xtick_4">
     <g id="line2d_4">
      <g>
       <use xlink:href="#m5dff7109f0" x="453.545455" y="640.8" style="stroke: #000000; stroke-width: 0.8"/>
      </g>
     </g>
     <g id="text_4">
      <text style="font: 30px 'DejaVu Sans', 'Bitstream Vera Sans', 'Computer Modern Sans Serif', 'Lucida Grande', 'Verdana', 'Geneva', 'Lucid', 'Arial', 'Helvetica', 'Avant Garde', sans-serif; text-anchor: middle" x="453.545455" y="670.595312" transform="rotate(-0 453.545455 670.595312)">0.6</text>
     </g>
    </g>
    <g id="xtick_5">
     <g id="line2d_5">
      <g>
       <use xlink:href="#m5dff7109f0" x="566.272727" y="640.8" style="stroke: #000000; stroke-width: 0.8"/>
      </g>
     </g>
     <g id="text_5">
      <text style="font: 30px 'DejaVu Sans', 'Bitstream Vera Sans', 'Computer Modern Sans Serif', 'Lucida Grande', 'Verdana', 'Geneva', 'Lucid', 'Arial', 'Helvetica', 'Avant Garde', sans-serif; text-anchor: middle" x="566.272727" y="670.595312" transform="rotate(-0 566.272727 670.595312)">0.8</text>
     </g>
    </g>
    <g id="text_6">
     <text style="font: 30px 'DejaVu Sans', 'Bitstream Vera Sans', 'Computer Modern Sans Serif', 'Lucida Grande', 'Verdana', 'Geneva', 'Lucid', 'Arial', 'Helvetica', 'Avant Garde', sans-serif; text-anchor: middle" x="369" y="703.629688" transform="rotate(-0 369 703.629688)">Field in $ y $-direction $ h_y $ </text>
    </g>
   </g>
   <g id="matplotlib.axis_2">
    <g id="ytick_1">
     <g id="line2d_6">
      <defs>
       <path id="m39d3e01033" d="M 0 0 
L -3.5 0 
" style="stroke: #000000; stroke-width: 0.8"/>
      </defs>
      <g>
       <use xlink:href="#m39d3e01033" x="90" y="598.961522" style="stroke: #000000; stroke-width: 0.8"/>
      </g>
     </g>
     <g id="text_7">
      <!-- $\mathdefault{10^{-14}}$ -->
      <g transform="translate(-0.7 610.359179)">
       <text>
        <tspan style="font: 30px 'DejaVu Sans'" x="0 19.086914" y="-0.203125">10</tspan>
        <tspan style="font: 21px 'DejaVu Sans'" x="38.460938 56.056641 69.41748" y="-11.6875">−14</tspan>
       </text>
      </g>
     </g>
    </g>
    <g id="ytick_2">
     <g id="line2d_7">
      <g>
       <use xlink:href="#m39d3e01033" x="90" y="525.635997" style="stroke: #000000; stroke-width: 0.8"/>
      </g>
     </g>
     <g id="text_8">
      <!-- $\mathdefault{10^{-12}}$ -->
      <g transform="translate(-0.7 537.033653)">
       <text>
        <tspan style="font: 30px 'DejaVu Sans'" x="0 19.086914" y="-0.9296875">10</tspan>
        <tspan style="font: 21px 'DejaVu Sans'" x="38.460938 56.056641 69.41748" y="-12.4140625">−12</tspan>
       </text>
      </g>
     </g>
    </g>
    <g id="ytick_3">
     <g id="line2d_8">
      <g>
       <use xlink:href="#m39d3e01033" x="90" y="452.310472" style="stroke: #000000; stroke-width: 0.8"/>
      </g>
     </g>
     <g id="text_9">
      <!-- $\mathdefault{10^{-10}}$ -->
      <g transform="translate(-0.7 463.708128)">
       <text>
        <tspan style="font: 30px 'DejaVu Sans'" x="0 19.086914" y="-0.9296875">10</tspan>
        <tspan style="font: 21px 'DejaVu Sans'" x="38.460938 56.056641 69.41748" y="-12.4140625">−10</tspan>
       </text>
      </g>
     </g>
    </g>
    <g id="ytick_4">
     <g id="line2d_9">
      <g>
       <use xlink:href="#m39d3e01033" x="90" y="378.984946" style="stroke: #000000; stroke-width: 0.8"/>
      </g>
     </g>
     <g id="text_10">
      <!-- $\mathdefault{10^{-8}}$ -->
      <g transform="translate(12.5 390.382602)">
       <text>
        <tspan style="font: 30px 'DejaVu Sans'" x="0 19.086914" y="-0.9296875">10</tspan>
        <tspan style="font: 21px 'DejaVu Sans'" x="38.460938 56.056641" y="-12.4140625">−8</tspan>
       </text>
      </g>
     </g>
    </g>
    <g id="ytick_5">
     <g id="line2d_10">
      <g>
       <use xlink:href="#m39d3e01033" x="90" y="305.659421" style="stroke: #000000; stroke-width: 0.8"/>
      </g>
     </g>
     <g id="text_11">
      <!-- $\mathdefault{10^{-6}}$ -->
      <g transform="translate(12.5 317.057077)">
       <text>
        <tspan style="font: 30px 'DejaVu Sans'" x="0 19.086914" y="-0.9296875">10</tspan>
        <tspan style="font: 21px 'DejaVu Sans'" x="38.460938 56.056641" y="-12.4140625">−6</tspan>
       </text>
      </g>
     </g>
    </g>
    <g id="ytick_6">
     <g id="line2d_11">
      <g>
       <use xlink:href="#m39d3e01033" x="90" y="232.333895" style="stroke: #000000; stroke-width: 0.8"/>
      </g>
     </g>
     <g id="text_12">
      <!-- $\mathdefault{10^{-4}}$ -->
      <g transform="translate(12.5 243.731552)">
       <text>
        <tspan style="font: 30px 'DejaVu Sans'" x="0 19.086914" y="-0.203125">10</tspan>
        <tspan style="font: 21px 'DejaVu Sans'" x="38.460938 56.056641" y="-11.6875">−4</tspan>
       </text>
      </g>
     </g>
    </g>
    <g id="ytick_7">
     <g id="line2d_12">
      <g>
       <use xlink:href="#m39d3e01033" x="90" y="159.00837" style="stroke: #000000; stroke-width: 0.8"/>
      </g>
     </g>
     <g id="text_13">
      <!-- $\mathdefault{10^{-2}}$ -->
      <g transform="translate(12.5 170.406026)">
       <text>
        <tspan style="font: 30px 'DejaVu Sans'" x="0 19.086914" y="-0.9296875">10</tspan>
        <tspan style="font: 21px 'DejaVu Sans'" x="38.460938 56.056641" y="-12.4140625">−2</tspan>
       </text>
      </g>
     </g>
    </g>
    <g id="text_14">
     <text style="font: 30px 'DejaVu Sans', 'Bitstream Vera Sans', 'Computer Modern Sans Serif', 'Lucida Grande', 'Verdana', 'Geneva', 'Lucid', 'Arial', 'Helvetica', 'Avant Garde', sans-serif; text-anchor: middle" x="-11.773438" y="363.6" transform="rotate(-90 -11.773438 363.6)">$ |E_{\boldsymbol{\theta}}-E_\mathrm{exact}| / |E_\mathrm{exact}| $ </text>
    </g>
   </g>
   <g id="line2d_13">
    <path d="M 115.363636 406.121578 
L 171.727273 185.127449 
L 199.909091 173.121683 
L 228.090909 164.26003 
L 256.272727 157.777901 
L 284.454545 152.218817 
L 312.636364 148.625012 
L 340.818182 144.990757 
L 369 141.635939 
L 397.181818 138.450027 
L 453.545455 154.033934 
L 509.909091 156.217363 
L 566.272727 270.844183 
L 622.636364 316.373594 
" clip-path="url(#p5b2db8f5c7)" style="fill: none; stroke: #e41a1c; stroke-width: 1.5; stroke-linecap: square"/>
    <defs>
     <path id="ma6cc4d8e59" d="M 0 1 
C 0.265203 1 0.51958 0.894634 0.707107 0.707107 
C 0.894634 0.51958 1 0.265203 1 0 
C 1 -0.265203 0.894634 -0.51958 0.707107 -0.707107 
C 0.51958 -0.894634 0.265203 -1 0 -1 
C -0.265203 -1 -0.51958 -0.894634 -0.707107 -0.707107 
C -0.894634 -0.51958 -1 -0.265203 -1 0 
C -1 0.265203 -0.894634 0.51958 -0.707107 0.707107 
C -0.51958 0.894634 -0.265203 1 0 1 
z
" style="stroke: #e41a1c"/>
    </defs>
    <g clip-path="url(#p5b2db8f5c7)">
     <use xlink:href="#ma6cc4d8e59" x="115.363636" y="406.121578" style="fill: #e41a1c; stroke: #e41a1c"/>
     <use xlink:href="#ma6cc4d8e59" x="171.727273" y="185.127449" style="fill: #e41a1c; stroke: #e41a1c"/>
     <use xlink:href="#ma6cc4d8e59" x="199.909091" y="173.121683" style="fill: #e41a1c; stroke: #e41a1c"/>
     <use xlink:href="#ma6cc4d8e59" x="228.090909" y="164.26003" style="fill: #e41a1c; stroke: #e41a1c"/>
     <use xlink:href="#ma6cc4d8e59" x="256.272727" y="157.777901" style="fill: #e41a1c; stroke: #e41a1c"/>
     <use xlink:href="#ma6cc4d8e59" x="284.454545" y="152.218817" style="fill: #e41a1c; stroke: #e41a1c"/>
     <use xlink:href="#ma6cc4d8e59" x="312.636364" y="148.625012" style="fill: #e41a1c; stroke: #e41a1c"/>
     <use xlink:href="#ma6cc4d8e59" x="340.818182" y="144.990757" style="fill: #e41a1c; stroke: #e41a1c"/>
     <use xlink:href="#ma6cc4d8e59" x="369" y="141.635939" style="fill: #e41a1c; stroke: #e41a1c"/>
     <use xlink:href="#ma6cc4d8e59" x="397.181818" y="138.450027" style="fill: #e41a1c; stroke: #e41a1c"/>
     <use xlink:href="#ma6cc4d8e59" x="453.545455" y="154.033934" style="fill: #e41a1c; stroke: #e41a1c"/>
     <use xlink:href="#ma6cc4d8e59" x="509.909091" y="156.217363" style="fill: #e41a1c; stroke: #e41a1c"/>
     <use xlink:href="#ma6cc4d8e59" x="566.272727" y="270.844183" style="fill: #e41a1c; stroke: #e41a1c"/>
     <use xlink:href="#ma6cc4d8e59" x="622.636364" y="316.373594" style="fill: #e41a1c; stroke: #e41a1c"/>
    </g>
   </g>
   <g id="line2d_14">
    <path d="M 115.363636 421.850015 
L 171.727273 569.292373 
L 199.909091 598.036703 
L 228.090909 615.6 
L 256.272727 607.961268 
L 284.454545 590.995579 
L 312.636364 582.101317 
L 340.818182 572.266369 
L 369 563.87622 
L 397.181818 555.654121 
L 453.545455 542.553976 
L 509.909091 530.149944 
L 566.272727 516.183614 
L 622.636364 319.785226 
" clip-path="url(#p5b2db8f5c7)" style="fill: none; stroke-dasharray: 5.55,2.4; stroke-dashoffset: 0; stroke: #377eb8; stroke-width: 1.5"/>
    <defs>
     <path id="mf3a1f60314" d="M 0 1 
C 0.265203 1 0.51958 0.894634 0.707107 0.707107 
C 0.894634 0.51958 1 0.265203 1 0 
C 1 -0.265203 0.894634 -0.51958 0.707107 -0.707107 
C 0.51958 -0.894634 0.265203 -1 0 -1 
C -0.265203 -1 -0.51958 -0.894634 -0.707107 -0.707107 
C -0.894634 -0.51958 -1 -0.265203 -1 0 
C -1 0.265203 -0.894634 0.51958 -0.707107 0.707107 
C -0.51958 0.894634 -0.265203 1 0 1 
z
" style="stroke: #377eb8"/>
    </defs>
    <g clip-path="url(#p5b2db8f5c7)">
     <use xlink:href="#mf3a1f60314" x="115.363636" y="421.850015" style="fill: #377eb8; stroke: #377eb8"/>
     <use xlink:href="#mf3a1f60314" x="171.727273" y="569.292373" style="fill: #377eb8; stroke: #377eb8"/>
     <use xlink:href="#mf3a1f60314" x="199.909091" y="598.036703" style="fill: #377eb8; stroke: #377eb8"/>
     <use xlink:href="#mf3a1f60314" x="228.090909" y="615.6" style="fill: #377eb8; stroke: #377eb8"/>
     <use xlink:href="#mf3a1f60314" x="256.272727" y="607.961268" style="fill: #377eb8; stroke: #377eb8"/>
     <use xlink:href="#mf3a1f60314" x="284.454545" y="590.995579" style="fill: #377eb8; stroke: #377eb8"/>
     <use xlink:href="#mf3a1f60314" x="312.636364" y="582.101317" style="fill: #377eb8; stroke: #377eb8"/>
     <use xlink:href="#mf3a1f60314" x="340.818182" y="572.266369" style="fill: #377eb8; stroke: #377eb8"/>
     <use xlink:href="#mf3a1f60314" x="369" y="563.87622" style="fill: #377eb8; stroke: #377eb8"/>
     <use xlink:href="#mf3a1f60314" x="397.181818" y="555.654121" style="fill: #377eb8; stroke: #377eb8"/>
     <use xlink:href="#mf3a1f60314" x="453.545455" y="542.553976" style="fill: #377eb8; stroke: #377eb8"/>
     <use xlink:href="#mf3a1f60314" x="509.909091" y="530.149944" style="fill: #377eb8; stroke: #377eb8"/>
     <use xlink:href="#mf3a1f60314" x="566.272727" y="516.183614" style="fill: #377eb8; stroke: #377eb8"/>
     <use xlink:href="#mf3a1f60314" x="622.636364" y="319.785226" style="fill: #377eb8; stroke: #377eb8"/>
    </g>
   </g>
   <g id="line2d_15">
    <path d="M 115.363636 406.121581 
L 171.727273 181.062005 
L 199.909091 168.126615 
L 228.090909 158.934551 
L 256.272727 151.792165 
L 284.454545 145.946677 
L 312.636364 140.998219 
L 340.818182 136.709817 
L 369 132.930298 
L 397.181818 129.558019 
L 453.545455 123.770546 
L 509.909091 118.978634 
L 566.272727 114.968754 
L 622.636364 111.6 
" clip-path="url(#p5b2db8f5c7)" style="fill: none; stroke-dasharray: 1.5,2.475; stroke-dashoffset: 0; stroke: #4daf4a; stroke-width: 1.5"/>
    <defs>
     <path id="m9723e31882" d="M 0 1 
C 0.265203 1 0.51958 0.894634 0.707107 0.707107 
C 0.894634 0.51958 1 0.265203 1 0 
C 1 -0.265203 0.894634 -0.51958 0.707107 -0.707107 
C 0.51958 -0.894634 0.265203 -1 0 -1 
C -0.265203 -1 -0.51958 -0.894634 -0.707107 -0.707107 
C -0.894634 -0.51958 -1 -0.265203 -1 0 
C -1 0.265203 -0.894634 0.51958 -0.707107 0.707107 
C -0.51958 0.894634 -0.265203 1 0 1 
z
" style="stroke: #4daf4a"/>
    </defs>
    <g clip-path="url(#p5b2db8f5c7)">
     <use xlink:href="#m9723e31882" x="115.363636" y="406.121581" style="fill: #4daf4a; stroke: #4daf4a"/>
     <use xlink:href="#m9723e31882" x="171.727273" y="181.062005" style="fill: #4daf4a; stroke: #4daf4a"/>
     <use xlink:href="#m9723e31882" x="199.909091" y="168.126615" style="fill: #4daf4a; stroke: #4daf4a"/>
     <use xlink:href="#m9723e31882" x="228.090909" y="158.934551" style="fill: #4daf4a; stroke: #4daf4a"/>
     <use xlink:href="#m9723e31882" x="256.272727" y="151.792165" style="fill: #4daf4a; stroke: #4daf4a"/>
     <use xlink:href="#m9723e31882" x="284.454545" y="145.946677" style="fill: #4daf4a; stroke: #4daf4a"/>
     <use xlink:href="#m9723e31882" x="312.636364" y="140.998219" style="fill: #4daf4a; stroke: #4daf4a"/>
     <use xlink:href="#m9723e31882" x="340.818182" y="136.709817" style="fill: #4daf4a; stroke: #4daf4a"/>
     <use xlink:href="#m9723e31882" x="369" y="132.930298" style="fill: #4daf4a; stroke: #4daf4a"/>
     <use xlink:href="#m9723e31882" x="397.181818" y="129.558019" style="fill: #4daf4a; stroke: #4daf4a"/>
     <use xlink:href="#m9723e31882" x="453.545455" y="123.770546" style="fill: #4daf4a; stroke: #4daf4a"/>
     <use xlink:href="#m9723e31882" x="509.909091" y="118.978634" style="fill: #4daf4a; stroke: #4daf4a"/>
     <use xlink:href="#m9723e31882" x="566.272727" y="114.968754" style="fill: #4daf4a; stroke: #4daf4a"/>
     <use xlink:href="#m9723e31882" x="622.636364" y="111.6" style="fill: #4daf4a; stroke: #4daf4a"/>
    </g>
   </g>
   <g id="patch_3">
    <path d="M 90 640.8 
L 90 86.4 
" style="fill: none; stroke: #000000; stroke-width: 0.8; stroke-linejoin: miter; stroke-linecap: square"/>
   </g>
   <g id="patch_4">
    <path d="M 648 640.8 
L 648 86.4 
" style="fill: none; stroke: #000000; stroke-width: 0.8; stroke-linejoin: miter; stroke-linecap: square"/>
   </g>
   <g id="patch_5">
    <path d="M 90 640.8 
L 648 640.8 
" style="fill: none; stroke: #000000; stroke-width: 0.8; stroke-linejoin: miter; stroke-linecap: square"/>
   </g>
   <g id="patch_6">
    <path d="M 90 86.4 
L 648 86.4 
" style="fill: none; stroke: #000000; stroke-width: 0.8; stroke-linejoin: miter; stroke-linecap: square"/>
   </g>
   <g id="legend_1">
    <g id="patch_7">
     <path d="M 226.176562 434.151562 
L 511.823437 434.151562 
Q 517.823437 434.151562 517.823437 428.151562 
L 517.823437 299.048437 
Q 517.823437 293.048437 511.823437 293.048437 
L 226.176562 293.048437 
Q 220.176562 293.048437 220.176562 299.048437 
L 220.176562 428.151562 
Q 220.176562 434.151562 226.176562 434.151562 
z
" style="fill: #ffffff; opacity: 0.8; stroke: #cccccc; stroke-linejoin: miter"/>
    </g>
    <g id="line2d_16">
     <path d="M 232.176562 317.34375 
L 262.176562 317.34375 
L 292.176562 317.34375 
" style="fill: none; stroke: #e41a1c; stroke-width: 1.5; stroke-linecap: square"/>
     <g>
      <use xlink:href="#ma6cc4d8e59" x="262.176562" y="317.34375" style="fill: #e41a1c; stroke: #e41a1c"/>
     </g>
    </g>
    <g id="text_15">
     <text style="font: 30px 'DejaVu Sans', 'Bitstream Vera Sans', 'Computer Modern Sans Serif', 'Lucida Grande', 'Verdana', 'Geneva', 'Lucid', 'Arial', 'Helvetica', 'Avant Garde', sans-serif; text-anchor: start" x="316.176562" y="327.84375" transform="rotate(-0 316.176562 327.84375)">independent</text>
    </g>
    <g id="line2d_17">
     <path d="M 232.176562 361.378125 
L 262.176562 361.378125 
L 292.176562 361.378125 
" style="fill: none; stroke-dasharray: 5.55,2.4; stroke-dashoffset: 0; stroke: #377eb8; stroke-width: 1.5"/>
     <g>
      <use xlink:href="#mf3a1f60314" x="262.176562" y="361.378125" style="fill: #377eb8; stroke: #377eb8"/>
     </g>
    </g>
    <g id="text_16">
     <text style="font: 30px 'DejaVu Sans', 'Bitstream Vera Sans', 'Computer Modern Sans Serif', 'Lucida Grande', 'Verdana', 'Geneva', 'Lucid', 'Arial', 'Helvetica', 'Avant Garde', sans-serif; text-anchor: start" x="316.176562" y="371.878125" transform="rotate(-0 316.176562 371.878125)">right-left</text>
    </g>
    <g id="line2d_18">
     <path d="M 232.176562 405.4125 
L 262.176562 405.4125 
L 292.176562 405.4125 
" style="fill: none; stroke-dasharray: 1.5,2.475; stroke-dashoffset: 0; stroke: #4daf4a; stroke-width: 1.5"/>
     <g>
      <use xlink:href="#m9723e31882" x="262.176562" y="405.4125" style="fill: #4daf4a; stroke: #4daf4a"/>
     </g>
    </g>
    <g id="text_17">
     <text style="font: 30px 'DejaVu Sans', 'Bitstream Vera Sans', 'Computer Modern Sans Serif', 'Lucida Grande', 'Verdana', 'Geneva', 'Lucid', 'Arial', 'Helvetica', 'Avant Garde', sans-serif; text-anchor: start" x="316.176562" y="415.9125" transform="rotate(-0 316.176562 415.9125)">left-right</text>
    </g>
   </g>
  </g>
 </g>
 <defs>
  <clipPath id="p5b2db8f5c7">
   <rect x="90" y="86.4" width="558" height="554.4"/>
  </clipPath>
 </defs>
</svg>
