<?xml version="1.0" encoding="utf-8" standalone="no"?>
<!DOCTYPE svg PUBLIC "-//W3C//DTD SVG 1.1//EN"
  "http://www.w3.org/Graphics/SVG/1.1/DTD/svg11.dtd">
<svg xmlns:xlink="http://www.w3.org/1999/xlink" width="720pt" height="720pt" viewBox="0 0 720 720" xmlns="http://www.w3.org/2000/svg" version="1.1">
 <metadata>
  <rdf:RDF xmlns:dc="http://purl.org/dc/elements/1.1/" xmlns:cc="http://creativecommons.org/ns#" xmlns:rdf="http://www.w3.org/1999/02/22-rdf-syntax-ns#">
   <cc:Work>
    <dc:type rdf:resource="http://purl.org/dc/dcmitype/StillImage"/>
    <dc:date>2023-08-25T11:36:31.416689</dc:date>
    <dc:format>image/svg+xml</dc:format>
    <dc:creator>
     <cc:Agent>
      <dc:title>Matplotlib v3.7.1, https://matplotlib.org/</dc:title>
     </cc:Agent>
    </dc:creator>
   </cc:Work>
  </rdf:RDF>
 </metadata>
 <defs>
  <style type="text/css">*{stroke-linejoin: round; stroke-linecap: butt}</style>
 </defs>
 <g id="figure_1">
  <g id="patch_1">
   <path d="M 0 720 
L 720 720 
L 720 0 
L 0 0 
z
" style="fill: #ffffff"/>
  </g>
  <g id="axes_1">
   <g id="patch_2">
    <path d="M 90 640.8 
L 648 640.8 
L 648 86.4 
L 90 86.4 
z
" style="fill: #ffffff"/>
   </g>
   <g id="matplotlib.axis_1">
    <g id="xtick_1">
     <g id="line2d_1">
      <defs>
       <path id="m4283f54c7d" d="M 0 0 
L 0 3.5 
" style="stroke: #000000; stroke-width: 0.8"/>
      </defs>
      <g>
       <use xlink:href="#m4283f54c7d" x="115.363636" y="640.8" style="stroke: #000000; stroke-width: 0.8"/>
      </g>
     </g>
     <g id="text_1">
      <text style="font: 30px 'DejaVu Sans', 'Bitstream Vera Sans', 'Computer Modern Sans Serif', 'Lucida Grande', 'Verdana', 'Geneva', 'Lucid', 'Arial', 'Helvetica', 'Avant Garde', sans-serif; text-anchor: middle" x="115.363636" y="670.595312" transform="rotate(-0 115.363636 670.595312)">0.0</text>
     </g>
    </g>
    <g id="xtick_2">
     <g id="line2d_2">
      <g>
       <use xlink:href="#m4283f54c7d" x="228.090909" y="640.8" style="stroke: #000000; stroke-width: 0.8"/>
      </g>
     </g>
     <g id="text_2">
      <text style="font: 30px 'DejaVu Sans', 'Bitstream Vera Sans', 'Computer Modern Sans Serif', 'Lucida Grande', 'Verdana', 'Geneva', 'Lucid', 'Arial', 'Helvetica', 'Avant Garde', sans-serif; text-anchor: middle" x="228.090909" y="670.595312" transform="rotate(-0 228.090909 670.595312)">0.2</text>
     </g>
    </g>
    <g id="xtick_3">
     <g id="line2d_3">
      <g>
       <use xlink:href="#m4283f54c7d" x="340.818182" y="640.8" style="stroke: #000000; stroke-width: 0.8"/>
      </g>
     </g>
     <g id="text_3">
      <text style="font: 30px 'DejaVu Sans', 'Bitstream Vera Sans', 'Computer Modern Sans Serif', 'Lucida Grande', 'Verdana', 'Geneva', 'Lucid', 'Arial', 'Helvetica', 'Avant Garde', sans-serif; text-anchor: middle" x="340.818182" y="670.595312" transform="rotate(-0 340.818182 670.595312)">0.4</text>
     </g>
    </g>
    <g id="xtick_4">
     <g id="line2d_4">
      <g>
       <use xlink:href="#m4283f54c7d" x="453.545455" y="640.8" style="stroke: #000000; stroke-width: 0.8"/>
      </g>
     </g>
     <g id="text_4">
      <text style="font: 30px 'DejaVu Sans', 'Bitstream Vera Sans', 'Computer Modern Sans Serif', 'Lucida Grande', 'Verdana', 'Geneva', 'Lucid', 'Arial', 'Helvetica', 'Avant Garde', sans-serif; text-anchor: middle" x="453.545455" y="670.595312" transform="rotate(-0 453.545455 670.595312)">0.6</text>
     </g>
    </g>
    <g id="xtick_5">
     <g id="line2d_5">
      <g>
       <use xlink:href="#m4283f54c7d" x="566.272727" y="640.8" style="stroke: #000000; stroke-width: 0.8"/>
      </g>
     </g>
     <g id="text_5">
      <text style="font: 30px 'DejaVu Sans', 'Bitstream Vera Sans', 'Computer Modern Sans Serif', 'Lucida Grande', 'Verdana', 'Geneva', 'Lucid', 'Arial', 'Helvetica', 'Avant Garde', sans-serif; text-anchor: middle" x="566.272727" y="670.595312" transform="rotate(-0 566.272727 670.595312)">0.8</text>
     </g>
    </g>
    <g id="text_6">
     <text style="font: 30px 'DejaVu Sans', 'Bitstream Vera Sans', 'Computer Modern Sans Serif', 'Lucida Grande', 'Verdana', 'Geneva', 'Lucid', 'Arial', 'Helvetica', 'Avant Garde', sans-serif; text-anchor: middle" x="369" y="703.629688" transform="rotate(-0 369 703.629688)">Field in $ z $-direction $ h_z $ </text>
    </g>
   </g>
   <g id="matplotlib.axis_2">
    <g id="ytick_1">
     <g id="line2d_6">
      <defs>
       <path id="mba217fb885" d="M 0 0 
L -3.5 0 
" style="stroke: #000000; stroke-width: 0.8"/>
      </defs>
      <g>
       <use xlink:href="#mba217fb885" x="90" y="569.886176" style="stroke: #000000; stroke-width: 0.8"/>
      </g>
     </g>
     <g id="text_7">
      <!-- $\mathdefault{10^{-10}}$ -->
      <g transform="translate(-0.7 581.283832)">
       <text>
        <tspan style="font: 30px 'DejaVu Sans'" x="0 19.086914" y="-0.9296875">10</tspan>
        <tspan style="font: 21px 'DejaVu Sans'" x="38.460938 56.056641 69.41748" y="-12.4140625">−10</tspan>
       </text>
      </g>
     </g>
    </g>
    <g id="ytick_2">
     <g id="line2d_7">
      <g>
       <use xlink:href="#mba217fb885" x="90" y="455.363626" style="stroke: #000000; stroke-width: 0.8"/>
      </g>
     </g>
     <g id="text_8">
      <!-- $\mathdefault{10^{-8}}$ -->
      <g transform="translate(12.5 466.761282)">
       <text>
        <tspan style="font: 30px 'DejaVu Sans'" x="0 19.086914" y="-0.9296875">10</tspan>
        <tspan style="font: 21px 'DejaVu Sans'" x="38.460938 56.056641" y="-12.4140625">−8</tspan>
       </text>
      </g>
     </g>
    </g>
    <g id="ytick_3">
     <g id="line2d_8">
      <g>
       <use xlink:href="#mba217fb885" x="90" y="340.841076" style="stroke: #000000; stroke-width: 0.8"/>
      </g>
     </g>
     <g id="text_9">
      <!-- $\mathdefault{10^{-6}}$ -->
      <g transform="translate(12.5 352.238732)">
       <text>
        <tspan style="font: 30px 'DejaVu Sans'" x="0 19.086914" y="-0.9296875">10</tspan>
        <tspan style="font: 21px 'DejaVu Sans'" x="38.460938 56.056641" y="-12.4140625">−6</tspan>
       </text>
      </g>
     </g>
    </g>
    <g id="ytick_4">
     <g id="line2d_9">
      <g>
       <use xlink:href="#mba217fb885" x="90" y="226.318526" style="stroke: #000000; stroke-width: 0.8"/>
      </g>
     </g>
     <g id="text_10">
      <!-- $\mathdefault{10^{-4}}$ -->
      <g transform="translate(12.5 237.716183)">
       <text>
        <tspan style="font: 30px 'DejaVu Sans'" x="0 19.086914" y="-0.203125">10</tspan>
        <tspan style="font: 21px 'DejaVu Sans'" x="38.460938 56.056641" y="-11.6875">−4</tspan>
       </text>
      </g>
     </g>
    </g>
    <g id="ytick_5">
     <g id="line2d_10">
      <g>
       <use xlink:href="#mba217fb885" x="90" y="111.795977" style="stroke: #000000; stroke-width: 0.8"/>
      </g>
     </g>
     <g id="text_11">
      <!-- $\mathdefault{10^{-2}}$ -->
      <g transform="translate(12.5 123.193633)">
       <text>
        <tspan style="font: 30px 'DejaVu Sans'" x="0 19.086914" y="-0.9296875">10</tspan>
        <tspan style="font: 21px 'DejaVu Sans'" x="38.460938 56.056641" y="-12.4140625">−2</tspan>
       </text>
      </g>
     </g>
    </g>
    <g id="text_12">
     <text style="font: 30px 'DejaVu Sans', 'Bitstream Vera Sans', 'Computer Modern Sans Serif', 'Lucida Grande', 'Verdana', 'Geneva', 'Lucid', 'Arial', 'Helvetica', 'Avant Garde', sans-serif; text-anchor: middle" x="-11.773438" y="363.6" transform="rotate(-90 -11.773438 363.6)">$ |E_{\boldsymbol{\theta}}-E_\mathrm{exact}| / |E_\mathrm{exact}| $ </text>
    </g>
   </g>
   <g id="line2d_11">
    <path d="M 115.363636 497.746632 
L 171.727273 139.065915 
L 199.909091 119.283617 
L 228.090909 111.6 
L 256.272727 114.175721 
L 284.454545 133.859678 
L 312.636364 170.55739 
L 340.818182 230.740805 
L 369 310.371426 
L 397.181818 411.034593 
L 453.545455 504.390151 
L 509.909091 514.349939 
L 566.272727 523.422883 
L 622.636364 526.462098 
" clip-path="url(#p3476202fa9)" style="fill: none; stroke: #e41a1c; stroke-width: 1.5; stroke-linecap: square"/>
    <defs>
     <path id="mb72756bcef" d="M 0 1 
C 0.265203 1 0.51958 0.894634 0.707107 0.707107 
C 0.894634 0.51958 1 0.265203 1 0 
C 1 -0.265203 0.894634 -0.51958 0.707107 -0.707107 
C 0.51958 -0.894634 0.265203 -1 0 -1 
C -0.265203 -1 -0.51958 -0.894634 -0.707107 -0.707107 
C -0.894634 -0.51958 -1 -0.265203 -1 0 
C -1 0.265203 -0.894634 0.51958 -0.707107 0.707107 
C -0.51958 0.894634 -0.265203 1 0 1 
z
" style="stroke: #e41a1c"/>
    </defs>
    <g clip-path="url(#p3476202fa9)">
     <use xlink:href="#mb72756bcef" x="115.363636" y="497.746632" style="fill: #e41a1c; stroke: #e41a1c"/>
     <use xlink:href="#mb72756bcef" x="171.727273" y="139.065915" style="fill: #e41a1c; stroke: #e41a1c"/>
     <use xlink:href="#mb72756bcef" x="199.909091" y="119.283617" style="fill: #e41a1c; stroke: #e41a1c"/>
     <use xlink:href="#mb72756bcef" x="228.090909" y="111.6" style="fill: #e41a1c; stroke: #e41a1c"/>
     <use xlink:href="#mb72756bcef" x="256.272727" y="114.175721" style="fill: #e41a1c; stroke: #e41a1c"/>
     <use xlink:href="#mb72756bcef" x="284.454545" y="133.859678" style="fill: #e41a1c; stroke: #e41a1c"/>
     <use xlink:href="#mb72756bcef" x="312.636364" y="170.55739" style="fill: #e41a1c; stroke: #e41a1c"/>
     <use xlink:href="#mb72756bcef" x="340.818182" y="230.740805" style="fill: #e41a1c; stroke: #e41a1c"/>
     <use xlink:href="#mb72756bcef" x="369" y="310.371426" style="fill: #e41a1c; stroke: #e41a1c"/>
     <use xlink:href="#mb72756bcef" x="397.181818" y="411.034593" style="fill: #e41a1c; stroke: #e41a1c"/>
     <use xlink:href="#mb72756bcef" x="453.545455" y="504.390151" style="fill: #e41a1c; stroke: #e41a1c"/>
     <use xlink:href="#mb72756bcef" x="509.909091" y="514.349939" style="fill: #e41a1c; stroke: #e41a1c"/>
     <use xlink:href="#mb72756bcef" x="566.272727" y="523.422883" style="fill: #e41a1c; stroke: #e41a1c"/>
     <use xlink:href="#mb72756bcef" x="622.636364" y="526.462098" style="fill: #e41a1c; stroke: #e41a1c"/>
    </g>
   </g>
   <g id="line2d_12">
    <path d="M 115.363636 615.6 
L 171.727273 608.990057 
L 199.909091 603.796041 
L 228.090909 598.294383 
L 256.272727 592.700907 
L 284.454545 587.192323 
L 312.636364 581.881098 
L 340.818182 576.792867 
L 369 571.826029 
L 397.181818 566.747325 
L 453.545455 561.054889 
L 509.909091 554.788412 
L 566.272727 545.855021 
L 622.636364 528.719535 
" clip-path="url(#p3476202fa9)" style="fill: none; stroke-dasharray: 5.55,2.4; stroke-dashoffset: 0; stroke: #377eb8; stroke-width: 1.5"/>
    <defs>
     <path id="m65c3de0c7a" d="M 0 1 
C 0.265203 1 0.51958 0.894634 0.707107 0.707107 
C 0.894634 0.51958 1 0.265203 1 0 
C 1 -0.265203 0.894634 -0.51958 0.707107 -0.707107 
C 0.51958 -0.894634 0.265203 -1 0 -1 
C -0.265203 -1 -0.51958 -0.894634 -0.707107 -0.707107 
C -0.894634 -0.51958 -1 -0.265203 -1 0 
C -1 0.265203 -0.894634 0.51958 -0.707107 0.707107 
C -0.51958 0.894634 -0.265203 1 0 1 
z
" style="stroke: #377eb8"/>
    </defs>
    <g clip-path="url(#p3476202fa9)">
     <use xlink:href="#m65c3de0c7a" x="115.363636" y="615.6" style="fill: #377eb8; stroke: #377eb8"/>
     <use xlink:href="#m65c3de0c7a" x="171.727273" y="608.990057" style="fill: #377eb8; stroke: #377eb8"/>
     <use xlink:href="#m65c3de0c7a" x="199.909091" y="603.796041" style="fill: #377eb8; stroke: #377eb8"/>
     <use xlink:href="#m65c3de0c7a" x="228.090909" y="598.294383" style="fill: #377eb8; stroke: #377eb8"/>
     <use xlink:href="#m65c3de0c7a" x="256.272727" y="592.700907" style="fill: #377eb8; stroke: #377eb8"/>
     <use xlink:href="#m65c3de0c7a" x="284.454545" y="587.192323" style="fill: #377eb8; stroke: #377eb8"/>
     <use xlink:href="#m65c3de0c7a" x="312.636364" y="581.881098" style="fill: #377eb8; stroke: #377eb8"/>
     <use xlink:href="#m65c3de0c7a" x="340.818182" y="576.792867" style="fill: #377eb8; stroke: #377eb8"/>
     <use xlink:href="#m65c3de0c7a" x="369" y="571.826029" style="fill: #377eb8; stroke: #377eb8"/>
     <use xlink:href="#m65c3de0c7a" x="397.181818" y="566.747325" style="fill: #377eb8; stroke: #377eb8"/>
     <use xlink:href="#m65c3de0c7a" x="453.545455" y="561.054889" style="fill: #377eb8; stroke: #377eb8"/>
     <use xlink:href="#m65c3de0c7a" x="509.909091" y="554.788412" style="fill: #377eb8; stroke: #377eb8"/>
     <use xlink:href="#m65c3de0c7a" x="566.272727" y="545.855021" style="fill: #377eb8; stroke: #377eb8"/>
     <use xlink:href="#m65c3de0c7a" x="622.636364" y="528.719535" style="fill: #377eb8; stroke: #377eb8"/>
    </g>
   </g>
   <g id="line2d_13">
    <path d="M 115.363636 497.746633 
L 171.727273 136.983788 
L 199.909091 121.70827 
L 228.090909 132.469638 
L 256.272727 169.419986 
L 284.454545 227.524119 
L 312.636364 330.79934 
L 340.818182 481.721332 
L 369 520.329942 
L 397.181818 532.074066 
L 453.545455 536.452475 
L 509.909091 543.017285 
L 566.272727 550.114643 
L 622.636364 557.046407 
" clip-path="url(#p3476202fa9)" style="fill: none; stroke-dasharray: 1.5,2.475; stroke-dashoffset: 0; stroke: #4daf4a; stroke-width: 1.5"/>
    <defs>
     <path id="m3f714d3b35" d="M 0 1 
C 0.265203 1 0.51958 0.894634 0.707107 0.707107 
C 0.894634 0.51958 1 0.265203 1 0 
C 1 -0.265203 0.894634 -0.51958 0.707107 -0.707107 
C 0.51958 -0.894634 0.265203 -1 0 -1 
C -0.265203 -1 -0.51958 -0.894634 -0.707107 -0.707107 
C -0.894634 -0.51958 -1 -0.265203 -1 0 
C -1 0.265203 -0.894634 0.51958 -0.707107 0.707107 
C -0.51958 0.894634 -0.265203 1 0 1 
z
" style="stroke: #4daf4a"/>
    </defs>
    <g clip-path="url(#p3476202fa9)">
     <use xlink:href="#m3f714d3b35" x="115.363636" y="497.746633" style="fill: #4daf4a; stroke: #4daf4a"/>
     <use xlink:href="#m3f714d3b35" x="171.727273" y="136.983788" style="fill: #4daf4a; stroke: #4daf4a"/>
     <use xlink:href="#m3f714d3b35" x="199.909091" y="121.70827" style="fill: #4daf4a; stroke: #4daf4a"/>
     <use xlink:href="#m3f714d3b35" x="228.090909" y="132.469638" style="fill: #4daf4a; stroke: #4daf4a"/>
     <use xlink:href="#m3f714d3b35" x="256.272727" y="169.419986" style="fill: #4daf4a; stroke: #4daf4a"/>
     <use xlink:href="#m3f714d3b35" x="284.454545" y="227.524119" style="fill: #4daf4a; stroke: #4daf4a"/>
     <use xlink:href="#m3f714d3b35" x="312.636364" y="330.79934" style="fill: #4daf4a; stroke: #4daf4a"/>
     <use xlink:href="#m3f714d3b35" x="340.818182" y="481.721332" style="fill: #4daf4a; stroke: #4daf4a"/>
     <use xlink:href="#m3f714d3b35" x="369" y="520.329942" style="fill: #4daf4a; stroke: #4daf4a"/>
     <use xlink:href="#m3f714d3b35" x="397.181818" y="532.074066" style="fill: #4daf4a; stroke: #4daf4a"/>
     <use xlink:href="#m3f714d3b35" x="453.545455" y="536.452475" style="fill: #4daf4a; stroke: #4daf4a"/>
     <use xlink:href="#m3f714d3b35" x="509.909091" y="543.017285" style="fill: #4daf4a; stroke: #4daf4a"/>
     <use xlink:href="#m3f714d3b35" x="566.272727" y="550.114643" style="fill: #4daf4a; stroke: #4daf4a"/>
     <use xlink:href="#m3f714d3b35" x="622.636364" y="557.046407" style="fill: #4daf4a; stroke: #4daf4a"/>
    </g>
   </g>
   <g id="patch_3">
    <path d="M 90 640.8 
L 90 86.4 
" style="fill: none; stroke: #000000; stroke-width: 0.8; stroke-linejoin: miter; stroke-linecap: square"/>
   </g>
   <g id="patch_4">
    <path d="M 648 640.8 
L 648 86.4 
" style="fill: none; stroke: #000000; stroke-width: 0.8; stroke-linejoin: miter; stroke-linecap: square"/>
   </g>
   <g id="patch_5">
    <path d="M 90 640.8 
L 648 640.8 
" style="fill: none; stroke: #000000; stroke-width: 0.8; stroke-linejoin: miter; stroke-linecap: square"/>
   </g>
   <g id="patch_6">
    <path d="M 90 86.4 
L 648 86.4 
" style="fill: none; stroke: #000000; stroke-width: 0.8; stroke-linejoin: miter; stroke-linecap: square"/>
   </g>
   <g id="legend_1">
    <g id="patch_7">
     <path d="M 341.353125 242.503125 
L 627 242.503125 
Q 633 242.503125 633 236.503125 
L 633 107.4 
Q 633 101.4 627 101.4 
L 341.353125 101.4 
Q 335.353125 101.4 335.353125 107.4 
L 335.353125 236.503125 
Q 335.353125 242.503125 341.353125 242.503125 
z
" style="fill: #ffffff; opacity: 0.8; stroke: #cccccc; stroke-linejoin: miter"/>
    </g>
    <g id="line2d_14">
     <path d="M 347.353125 125.695312 
L 377.353125 125.695312 
L 407.353125 125.695312 
" style="fill: none; stroke: #e41a1c; stroke-width: 1.5; stroke-linecap: square"/>
     <g>
      <use xlink:href="#mb72756bcef" x="377.353125" y="125.695312" style="fill: #e41a1c; stroke: #e41a1c"/>
     </g>
    </g>
    <g id="text_13">
     <text style="font: 30px 'DejaVu Sans', 'Bitstream Vera Sans', 'Computer Modern Sans Serif', 'Lucida Grande', 'Verdana', 'Geneva', 'Lucid', 'Arial', 'Helvetica', 'Avant Garde', sans-serif; text-anchor: start" x="431.353125" y="136.195312" transform="rotate(-0 431.353125 136.195312)">independent</text>
    </g>
    <g id="line2d_15">
     <path d="M 347.353125 169.729687 
L 377.353125 169.729687 
L 407.353125 169.729687 
" style="fill: none; stroke-dasharray: 5.55,2.4; stroke-dashoffset: 0; stroke: #377eb8; stroke-width: 1.5"/>
     <g>
      <use xlink:href="#m65c3de0c7a" x="377.353125" y="169.729687" style="fill: #377eb8; stroke: #377eb8"/>
     </g>
    </g>
    <g id="text_14">
     <text style="font: 30px 'DejaVu Sans', 'Bitstream Vera Sans', 'Computer Modern Sans Serif', 'Lucida Grande', 'Verdana', 'Geneva', 'Lucid', 'Arial', 'Helvetica', 'Avant Garde', sans-serif; text-anchor: start" x="431.353125" y="180.229687" transform="rotate(-0 431.353125 180.229687)">right-left</text>
    </g>
    <g id="line2d_16">
     <path d="M 347.353125 213.764062 
L 377.353125 213.764062 
L 407.353125 213.764062 
" style="fill: none; stroke-dasharray: 1.5,2.475; stroke-dashoffset: 0; stroke: #4daf4a; stroke-width: 1.5"/>
     <g>
      <use xlink:href="#m3f714d3b35" x="377.353125" y="213.764062" style="fill: #4daf4a; stroke: #4daf4a"/>
     </g>
    </g>
    <g id="text_15">
     <text style="font: 30px 'DejaVu Sans', 'Bitstream Vera Sans', 'Computer Modern Sans Serif', 'Lucida Grande', 'Verdana', 'Geneva', 'Lucid', 'Arial', 'Helvetica', 'Avant Garde', sans-serif; text-anchor: start" x="431.353125" y="224.264062" transform="rotate(-0 431.353125 224.264062)">left-right</text>
    </g>
   </g>
  </g>
 </g>
 <defs>
  <clipPath id="p3476202fa9">
   <rect x="90" y="86.4" width="558" height="554.4"/>
  </clipPath>
 </defs>
</svg>
