<?xml version="1.0" encoding="utf-8" standalone="no"?>
<!DOCTYPE svg PUBLIC "-//W3C//DTD SVG 1.1//EN"
  "http://www.w3.org/Graphics/SVG/1.1/DTD/svg11.dtd">
<svg xmlns:xlink="http://www.w3.org/1999/xlink" width="720pt" height="720pt" viewBox="0 0 720 720" xmlns="http://www.w3.org/2000/svg" version="1.1">
 <metadata>
  <rdf:RDF xmlns:dc="http://purl.org/dc/elements/1.1/" xmlns:cc="http://creativecommons.org/ns#" xmlns:rdf="http://www.w3.org/1999/02/22-rdf-syntax-ns#">
   <cc:Work>
    <dc:type rdf:resource="http://purl.org/dc/dcmitype/StillImage"/>
    <dc:date>2024-01-30T14:12:53.662976</dc:date>
    <dc:format>image/svg+xml</dc:format>
    <dc:creator>
     <cc:Agent>
      <dc:title>Matplotlib v3.7.1, https://matplotlib.org/</dc:title>
     </cc:Agent>
    </dc:creator>
   </cc:Work>
  </rdf:RDF>
 </metadata>
 <defs>
  <style type="text/css">*{stroke-linejoin: round; stroke-linecap: butt}</style>
 </defs>
 <g id="figure_1">
  <g id="patch_1">
   <path d="M 0 720 
L 720 720 
L 720 0 
L 0 0 
z
" style="fill: #ffffff"/>
  </g>
  <g id="axes_1">
   <g id="patch_2">
    <path d="M 90 640.8 
L 648 640.8 
L 648 86.4 
L 90 86.4 
z
" style="fill: #ffffff"/>
   </g>
   <g id="matplotlib.axis_1">
    <g id="xtick_1">
     <g id="line2d_1">
      <defs>
       <path id="m951318e11c" d="M 0 0 
L 0 3.5 
" style="stroke: #000000; stroke-width: 0.8"/>
      </defs>
      <g>
       <use xlink:href="#m951318e11c" x="115.363636" y="640.8" style="stroke: #000000; stroke-width: 0.8"/>
      </g>
     </g>
     <g id="text_1">
      <text style="font: 36px 'DejaVu Sans', 'Bitstream Vera Sans', 'Computer Modern Sans Serif', 'Lucida Grande', 'Verdana', 'Geneva', 'Lucid', 'Arial', 'Helvetica', 'Avant Garde', sans-serif; text-anchor: middle" x="115.363636" y="675.154375" transform="rotate(-0 115.363636 675.154375)">0.0</text>
     </g>
    </g>
    <g id="xtick_2">
     <g id="line2d_2">
      <g>
       <use xlink:href="#m951318e11c" x="228.090909" y="640.8" style="stroke: #000000; stroke-width: 0.8"/>
      </g>
     </g>
     <g id="text_2">
      <text style="font: 36px 'DejaVu Sans', 'Bitstream Vera Sans', 'Computer Modern Sans Serif', 'Lucida Grande', 'Verdana', 'Geneva', 'Lucid', 'Arial', 'Helvetica', 'Avant Garde', sans-serif; text-anchor: middle" x="228.090909" y="675.154375" transform="rotate(-0 228.090909 675.154375)">0.2</text>
     </g>
    </g>
    <g id="xtick_3">
     <g id="line2d_3">
      <g>
       <use xlink:href="#m951318e11c" x="340.818182" y="640.8" style="stroke: #000000; stroke-width: 0.8"/>
      </g>
     </g>
     <g id="text_3">
      <text style="font: 36px 'DejaVu Sans', 'Bitstream Vera Sans', 'Computer Modern Sans Serif', 'Lucida Grande', 'Verdana', 'Geneva', 'Lucid', 'Arial', 'Helvetica', 'Avant Garde', sans-serif; text-anchor: middle" x="340.818182" y="675.154375" transform="rotate(-0 340.818182 675.154375)">0.4</text>
     </g>
    </g>
    <g id="xtick_4">
     <g id="line2d_4">
      <g>
       <use xlink:href="#m951318e11c" x="453.545455" y="640.8" style="stroke: #000000; stroke-width: 0.8"/>
      </g>
     </g>
     <g id="text_4">
      <text style="font: 36px 'DejaVu Sans', 'Bitstream Vera Sans', 'Computer Modern Sans Serif', 'Lucida Grande', 'Verdana', 'Geneva', 'Lucid', 'Arial', 'Helvetica', 'Avant Garde', sans-serif; text-anchor: middle" x="453.545455" y="675.154375" transform="rotate(-0 453.545455 675.154375)">0.6</text>
     </g>
    </g>
    <g id="xtick_5">
     <g id="line2d_5">
      <g>
       <use xlink:href="#m951318e11c" x="566.272727" y="640.8" style="stroke: #000000; stroke-width: 0.8"/>
      </g>
     </g>
     <g id="text_5">
      <text style="font: 36px 'DejaVu Sans', 'Bitstream Vera Sans', 'Computer Modern Sans Serif', 'Lucida Grande', 'Verdana', 'Geneva', 'Lucid', 'Arial', 'Helvetica', 'Avant Garde', sans-serif; text-anchor: middle" x="566.272727" y="675.154375" transform="rotate(-0 566.272727 675.154375)">0.8</text>
     </g>
    </g>
    <g id="text_6">
     <text style="font: 36px 'DejaVu Sans', 'Bitstream Vera Sans', 'Computer Modern Sans Serif', 'Lucida Grande', 'Verdana', 'Geneva', 'Lucid', 'Arial', 'Helvetica', 'Avant Garde', sans-serif; text-anchor: middle" x="369" y="714.153125" transform="rotate(-0 369 714.153125)">Field strength $|h|$</text>
    </g>
   </g>
   <g id="matplotlib.axis_2">
    <g id="ytick_1">
     <g id="line2d_6">
      <defs>
       <path id="m4a41464259" d="M 0 0 
L -3.5 0 
" style="stroke: #000000; stroke-width: 0.8"/>
      </defs>
      <g>
       <use xlink:href="#m4a41464259" x="90" y="551.727829" style="stroke: #000000; stroke-width: 0.8"/>
      </g>
     </g>
     <g id="text_7">
      <!-- $\mathdefault{10^{-14}}$ -->
      <g transform="translate(-17.44 565.405016)">
       <text>
        <tspan style="font: 36px 'DejaVu Sans'" x="0 22.904297" y="-0.84375">10</tspan>
        <tspan style="font: 25.2px 'DejaVu Sans'" x="46.153125 67.267969 83.300977" y="-14.625">−14</tspan>
       </text>
      </g>
     </g>
    </g>
    <g id="ytick_2">
     <g id="line2d_7">
      <g>
       <use xlink:href="#m4a41464259" x="90" y="446.607963" style="stroke: #000000; stroke-width: 0.8"/>
      </g>
     </g>
     <g id="text_8">
      <!-- $\mathdefault{10^{-11}}$ -->
      <g transform="translate(-17.44 460.285151)">
       <text>
        <tspan style="font: 36px 'DejaVu Sans'" x="0 22.904297" y="-0.84375">10</tspan>
        <tspan style="font: 25.2px 'DejaVu Sans'" x="46.153125 67.267969 83.300977" y="-14.625">−11</tspan>
       </text>
      </g>
     </g>
    </g>
    <g id="ytick_3">
     <g id="line2d_8">
      <g>
       <use xlink:href="#m4a41464259" x="90" y="341.488098" style="stroke: #000000; stroke-width: 0.8"/>
      </g>
     </g>
     <g id="text_9">
      <!-- $\mathdefault{10^{-8}}$ -->
      <g transform="translate(-1.6 355.165285)">
       <text>
        <tspan style="font: 36px 'DejaVu Sans'" x="0 22.904297" y="-0.515625">10</tspan>
        <tspan style="font: 25.2px 'DejaVu Sans'" x="46.153125 67.267969" y="-14.296875">−8</tspan>
       </text>
      </g>
     </g>
    </g>
    <g id="ytick_4">
     <g id="line2d_9">
      <g>
       <use xlink:href="#m4a41464259" x="90" y="236.368232" style="stroke: #000000; stroke-width: 0.8"/>
      </g>
     </g>
     <g id="text_10">
      <!-- $\mathdefault{10^{-5}}$ -->
      <g transform="translate(-1.6 250.04542)">
       <text>
        <tspan style="font: 36px 'DejaVu Sans'" x="0 22.904297" y="-0.84375">10</tspan>
        <tspan style="font: 25.2px 'DejaVu Sans'" x="46.153125 67.267969" y="-14.625">−5</tspan>
       </text>
      </g>
     </g>
    </g>
    <g id="ytick_5">
     <g id="line2d_10">
      <g>
       <use xlink:href="#m4a41464259" x="90" y="131.248367" style="stroke: #000000; stroke-width: 0.8"/>
      </g>
     </g>
     <g id="text_11">
      <!-- $\mathdefault{10^{-2}}$ -->
      <g transform="translate(-1.6 144.925554)">
       <text>
        <tspan style="font: 36px 'DejaVu Sans'" x="0 22.904297" y="-0.515625">10</tspan>
        <tspan style="font: 25.2px 'DejaVu Sans'" x="46.153125 67.267969" y="-14.296875">−2</tspan>
       </text>
      </g>
     </g>
    </g>
    <g id="text_12">
     <text style="font: 36px 'DejaVu Sans', 'Bitstream Vera Sans', 'Computer Modern Sans Serif', 'Lucida Grande', 'Verdana', 'Geneva', 'Lucid', 'Arial', 'Helvetica', 'Avant Garde', sans-serif; text-anchor: middle" x="-29.928125" y="363.6" transform="rotate(-90 -29.928125 363.6)">$ |E_{\boldsymbol{\theta}}-E_\mathrm{exact}| / |E_\mathrm{exact}| $ </text>
    </g>
   </g>
   <g id="line2d_11">
    <path d="M 115.363636 367.423578 
L 171.727273 221.676804 
L 199.909091 240.632808 
L 228.090909 244.62666 
L 256.272727 313.38415 
L 284.454545 279.990596 
L 312.636364 338.612041 
L 340.818182 364.18138 
L 369 422.935655 
L 397.181818 466.902644 
L 453.545455 585.477704 
L 509.909091 476.671621 
L 566.272727 527.508615 
L 622.636364 615.6 
" clip-path="url(#p4d4d77b507)" style="fill: none; stroke: #e41a1c; stroke-width: 1.5; stroke-linecap: square"/>
    <defs>
     <path id="m489a9f6c49" d="M 0 1 
C 0.265203 1 0.51958 0.894634 0.707107 0.707107 
C 0.894634 0.51958 1 0.265203 1 0 
C 1 -0.265203 0.894634 -0.51958 0.707107 -0.707107 
C 0.51958 -0.894634 0.265203 -1 0 -1 
C -0.265203 -1 -0.51958 -0.894634 -0.707107 -0.707107 
C -0.894634 -0.51958 -1 -0.265203 -1 0 
C -1 0.265203 -0.894634 0.51958 -0.707107 0.707107 
C -0.51958 0.894634 -0.265203 1 0 1 
z
" style="stroke: #e41a1c"/>
    </defs>
    <g clip-path="url(#p4d4d77b507)">
     <use xlink:href="#m489a9f6c49" x="115.363636" y="367.423578" style="fill: #e41a1c; stroke: #e41a1c"/>
     <use xlink:href="#m489a9f6c49" x="171.727273" y="221.676804" style="fill: #e41a1c; stroke: #e41a1c"/>
     <use xlink:href="#m489a9f6c49" x="199.909091" y="240.632808" style="fill: #e41a1c; stroke: #e41a1c"/>
     <use xlink:href="#m489a9f6c49" x="228.090909" y="244.62666" style="fill: #e41a1c; stroke: #e41a1c"/>
     <use xlink:href="#m489a9f6c49" x="256.272727" y="313.38415" style="fill: #e41a1c; stroke: #e41a1c"/>
     <use xlink:href="#m489a9f6c49" x="284.454545" y="279.990596" style="fill: #e41a1c; stroke: #e41a1c"/>
     <use xlink:href="#m489a9f6c49" x="312.636364" y="338.612041" style="fill: #e41a1c; stroke: #e41a1c"/>
     <use xlink:href="#m489a9f6c49" x="340.818182" y="364.18138" style="fill: #e41a1c; stroke: #e41a1c"/>
     <use xlink:href="#m489a9f6c49" x="369" y="422.935655" style="fill: #e41a1c; stroke: #e41a1c"/>
     <use xlink:href="#m489a9f6c49" x="397.181818" y="466.902644" style="fill: #e41a1c; stroke: #e41a1c"/>
     <use xlink:href="#m489a9f6c49" x="453.545455" y="585.477704" style="fill: #e41a1c; stroke: #e41a1c"/>
     <use xlink:href="#m489a9f6c49" x="509.909091" y="476.671621" style="fill: #e41a1c; stroke: #e41a1c"/>
     <use xlink:href="#m489a9f6c49" x="566.272727" y="527.508615" style="fill: #e41a1c; stroke: #e41a1c"/>
     <use xlink:href="#m489a9f6c49" x="622.636364" y="615.6" style="fill: #e41a1c; stroke: #e41a1c"/>
    </g>
   </g>
   <g id="line2d_12">
    <path d="M 115.363636 367.423578 
L 171.727273 156.211334 
L 199.909091 144.736981 
L 228.090909 136.267572 
L 256.272727 130.072362 
L 284.454545 124.75934 
L 312.636364 121.324608 
L 340.818182 117.851217 
L 369 114.644894 
L 397.181818 111.6 
L 453.545455 126.494115 
L 509.909091 128.580898 
L 566.272727 238.13398 
L 622.636364 281.648118 
" clip-path="url(#p4d4d77b507)" style="fill: none; stroke-dasharray: 5.55,2.4; stroke-dashoffset: 0; stroke: #4daf4a; stroke-width: 1.5"/>
    <defs>
     <path id="m5c94268691" d="M 0 1 
C 0.265203 1 0.51958 0.894634 0.707107 0.707107 
C 0.894634 0.51958 1 0.265203 1 0 
C 1 -0.265203 0.894634 -0.51958 0.707107 -0.707107 
C 0.51958 -0.894634 0.265203 -1 0 -1 
C -0.265203 -1 -0.51958 -0.894634 -0.707107 -0.707107 
C -0.894634 -0.51958 -1 -0.265203 -1 0 
C -1 0.265203 -0.894634 0.51958 -0.707107 0.707107 
C -0.51958 0.894634 -0.265203 1 0 1 
z
" style="stroke: #4daf4a"/>
    </defs>
    <g clip-path="url(#p4d4d77b507)">
     <use xlink:href="#m5c94268691" x="115.363636" y="367.423578" style="fill: #4daf4a; stroke: #4daf4a"/>
     <use xlink:href="#m5c94268691" x="171.727273" y="156.211334" style="fill: #4daf4a; stroke: #4daf4a"/>
     <use xlink:href="#m5c94268691" x="199.909091" y="144.736981" style="fill: #4daf4a; stroke: #4daf4a"/>
     <use xlink:href="#m5c94268691" x="228.090909" y="136.267572" style="fill: #4daf4a; stroke: #4daf4a"/>
     <use xlink:href="#m5c94268691" x="256.272727" y="130.072362" style="fill: #4daf4a; stroke: #4daf4a"/>
     <use xlink:href="#m5c94268691" x="284.454545" y="124.75934" style="fill: #4daf4a; stroke: #4daf4a"/>
     <use xlink:href="#m5c94268691" x="312.636364" y="121.324608" style="fill: #4daf4a; stroke: #4daf4a"/>
     <use xlink:href="#m5c94268691" x="340.818182" y="117.851217" style="fill: #4daf4a; stroke: #4daf4a"/>
     <use xlink:href="#m5c94268691" x="369" y="114.644894" style="fill: #4daf4a; stroke: #4daf4a"/>
     <use xlink:href="#m5c94268691" x="397.181818" y="111.6" style="fill: #4daf4a; stroke: #4daf4a"/>
     <use xlink:href="#m5c94268691" x="453.545455" y="126.494115" style="fill: #4daf4a; stroke: #4daf4a"/>
     <use xlink:href="#m5c94268691" x="509.909091" y="128.580898" style="fill: #4daf4a; stroke: #4daf4a"/>
     <use xlink:href="#m5c94268691" x="566.272727" y="238.13398" style="fill: #4daf4a; stroke: #4daf4a"/>
     <use xlink:href="#m5c94268691" x="622.636364" y="281.648118" style="fill: #4daf4a; stroke: #4daf4a"/>
    </g>
   </g>
   <g id="line2d_13">
    <path d="M 115.363636 367.423577 
L 171.727273 147.93569 
L 199.909091 135.830287 
L 228.090909 131.128443 
L 256.272727 132.704607 
L 284.454545 144.749832 
L 312.636364 167.206303 
L 340.818182 204.034407 
L 369 252.762861 
L 397.181818 314.361783 
L 453.545455 371.488953 
L 509.909091 377.583658 
L 566.272727 383.135674 
L 622.636364 384.995464 
" clip-path="url(#p4d4d77b507)" style="fill: none; stroke-dasharray: 1.5,2.475; stroke-dashoffset: 0; stroke: #377eb8; stroke-width: 1.5"/>
    <defs>
     <path id="m6f1f6d770f" d="M 0 1 
C 0.265203 1 0.51958 0.894634 0.707107 0.707107 
C 0.894634 0.51958 1 0.265203 1 0 
C 1 -0.265203 0.894634 -0.51958 0.707107 -0.707107 
C 0.51958 -0.894634 0.265203 -1 0 -1 
C -0.265203 -1 -0.51958 -0.894634 -0.707107 -0.707107 
C -0.894634 -0.51958 -1 -0.265203 -1 0 
C -1 0.265203 -0.894634 0.51958 -0.707107 0.707107 
C -0.51958 0.894634 -0.265203 1 0 1 
z
" style="stroke: #377eb8"/>
    </defs>
    <g clip-path="url(#p4d4d77b507)">
     <use xlink:href="#m6f1f6d770f" x="115.363636" y="367.423577" style="fill: #377eb8; stroke: #377eb8"/>
     <use xlink:href="#m6f1f6d770f" x="171.727273" y="147.93569" style="fill: #377eb8; stroke: #377eb8"/>
     <use xlink:href="#m6f1f6d770f" x="199.909091" y="135.830287" style="fill: #377eb8; stroke: #377eb8"/>
     <use xlink:href="#m6f1f6d770f" x="228.090909" y="131.128443" style="fill: #377eb8; stroke: #377eb8"/>
     <use xlink:href="#m6f1f6d770f" x="256.272727" y="132.704607" style="fill: #377eb8; stroke: #377eb8"/>
     <use xlink:href="#m6f1f6d770f" x="284.454545" y="144.749832" style="fill: #377eb8; stroke: #377eb8"/>
     <use xlink:href="#m6f1f6d770f" x="312.636364" y="167.206303" style="fill: #377eb8; stroke: #377eb8"/>
     <use xlink:href="#m6f1f6d770f" x="340.818182" y="204.034407" style="fill: #377eb8; stroke: #377eb8"/>
     <use xlink:href="#m6f1f6d770f" x="369" y="252.762861" style="fill: #377eb8; stroke: #377eb8"/>
     <use xlink:href="#m6f1f6d770f" x="397.181818" y="314.361783" style="fill: #377eb8; stroke: #377eb8"/>
     <use xlink:href="#m6f1f6d770f" x="453.545455" y="371.488953" style="fill: #377eb8; stroke: #377eb8"/>
     <use xlink:href="#m6f1f6d770f" x="509.909091" y="377.583658" style="fill: #377eb8; stroke: #377eb8"/>
     <use xlink:href="#m6f1f6d770f" x="566.272727" y="383.135674" style="fill: #377eb8; stroke: #377eb8"/>
     <use xlink:href="#m6f1f6d770f" x="622.636364" y="384.995464" style="fill: #377eb8; stroke: #377eb8"/>
    </g>
   </g>
   <g id="patch_3">
    <path d="M 90 640.8 
L 90 86.4 
" style="fill: none; stroke: #000000; stroke-width: 0.8; stroke-linejoin: miter; stroke-linecap: square"/>
   </g>
   <g id="patch_4">
    <path d="M 648 640.8 
L 648 86.4 
" style="fill: none; stroke: #000000; stroke-width: 0.8; stroke-linejoin: miter; stroke-linecap: square"/>
   </g>
   <g id="patch_5">
    <path d="M 90 640.8 
L 648 640.8 
" style="fill: none; stroke: #000000; stroke-width: 0.8; stroke-linejoin: miter; stroke-linecap: square"/>
   </g>
   <g id="patch_6">
    <path d="M 90 86.4 
L 648 86.4 
" style="fill: none; stroke: #000000; stroke-width: 0.8; stroke-linejoin: miter; stroke-linecap: square"/>
   </g>
   <g id="legend_1">
    <g id="patch_7">
     <path d="M 115.2 622.8 
L 422.443125 622.8 
Q 429.643125 622.8 429.643125 615.6 
L 429.643125 460.67625 
Q 429.643125 453.47625 422.443125 453.47625 
L 115.2 453.47625 
Q 108 453.47625 108 460.67625 
L 108 615.6 
Q 108 622.8 115.2 622.8 
z
" style="fill: #ffffff; opacity: 0.8; stroke: #cccccc; stroke-linejoin: miter"/>
    </g>
    <g id="line2d_14">
     <path d="M 122.4 482.630625 
L 158.4 482.630625 
L 194.4 482.630625 
" style="fill: none; stroke: #e41a1c; stroke-width: 1.5; stroke-linecap: square"/>
     <g>
      <use xlink:href="#m489a9f6c49" x="158.4" y="482.630625" style="fill: #e41a1c; stroke: #e41a1c"/>
     </g>
    </g>
    <g id="text_13">
     <text style="font: 36px 'DejaVu Sans', 'Bitstream Vera Sans', 'Computer Modern Sans Serif', 'Lucida Grande', 'Verdana', 'Geneva', 'Lucid', 'Arial', 'Helvetica', 'Avant Garde', sans-serif; text-anchor: start" x="223.2" y="495.230625" transform="rotate(-0 223.2 495.230625)">x-direction</text>
    </g>
    <g id="line2d_15">
     <path d="M 122.4 535.471875 
L 158.4 535.471875 
L 194.4 535.471875 
" style="fill: none; stroke-dasharray: 5.55,2.4; stroke-dashoffset: 0; stroke: #4daf4a; stroke-width: 1.5"/>
     <g>
      <use xlink:href="#m5c94268691" x="158.4" y="535.471875" style="fill: #4daf4a; stroke: #4daf4a"/>
     </g>
    </g>
    <g id="text_14">
     <text style="font: 36px 'DejaVu Sans', 'Bitstream Vera Sans', 'Computer Modern Sans Serif', 'Lucida Grande', 'Verdana', 'Geneva', 'Lucid', 'Arial', 'Helvetica', 'Avant Garde', sans-serif; text-anchor: start" x="223.2" y="548.071875" transform="rotate(-0 223.2 548.071875)">y-direction</text>
    </g>
    <g id="line2d_16">
     <path d="M 122.4 588.313125 
L 158.4 588.313125 
L 194.4 588.313125 
" style="fill: none; stroke-dasharray: 1.5,2.475; stroke-dashoffset: 0; stroke: #377eb8; stroke-width: 1.5"/>
     <g>
      <use xlink:href="#m6f1f6d770f" x="158.4" y="588.313125" style="fill: #377eb8; stroke: #377eb8"/>
     </g>
    </g>
    <g id="text_15">
     <text style="font: 36px 'DejaVu Sans', 'Bitstream Vera Sans', 'Computer Modern Sans Serif', 'Lucida Grande', 'Verdana', 'Geneva', 'Lucid', 'Arial', 'Helvetica', 'Avant Garde', sans-serif; text-anchor: start" x="223.2" y="600.913125" transform="rotate(-0 223.2 600.913125)">z-direction</text>
    </g>
   </g>
  </g>
 </g>
 <defs>
  <clipPath id="p4d4d77b507">
   <rect x="90" y="86.4" width="558" height="554.4"/>
  </clipPath>
 </defs>
</svg>
