<?xml version="1.0" encoding="utf-8" standalone="no"?>
<!DOCTYPE svg PUBLIC "-//W3C//DTD SVG 1.1//EN"
  "http://www.w3.org/Graphics/SVG/1.1/DTD/svg11.dtd">
<svg xmlns:xlink="http://www.w3.org/1999/xlink" width="720pt" height="720pt" viewBox="0 0 720 720" xmlns="http://www.w3.org/2000/svg" version="1.1">
 <metadata>
  <rdf:RDF xmlns:dc="http://purl.org/dc/elements/1.1/" xmlns:cc="http://creativecommons.org/ns#" xmlns:rdf="http://www.w3.org/1999/02/22-rdf-syntax-ns#">
   <cc:Work>
    <dc:type rdf:resource="http://purl.org/dc/dcmitype/StillImage"/>
    <dc:date>2023-08-29T14:12:41.936200</dc:date>
    <dc:format>image/svg+xml</dc:format>
    <dc:creator>
     <cc:Agent>
      <dc:title>Matplotlib v3.7.1, https://matplotlib.org/</dc:title>
     </cc:Agent>
    </dc:creator>
   </cc:Work>
  </rdf:RDF>
 </metadata>
 <defs>
  <style type="text/css">*{stroke-linejoin: round; stroke-linecap: butt}</style>
 </defs>
 <g id="figure_1">
  <g id="patch_1">
   <path d="M 0 720 
L 720 720 
L 720 0 
L 0 0 
z
" style="fill: #ffffff"/>
  </g>
  <g id="axes_1">
   <g id="patch_2">
    <path d="M 90 640.8 
L 648 640.8 
L 648 86.4 
L 90 86.4 
z
" style="fill: #ffffff"/>
   </g>
   <g id="matplotlib.axis_1">
    <g id="xtick_1">
     <g id="line2d_1">
      <defs>
       <path id="m625f805d48" d="M 0 0 
L 0 3.5 
" style="stroke: #000000; stroke-width: 0.8"/>
      </defs>
      <g>
       <use xlink:href="#m625f805d48" x="210.477273" y="640.8" style="stroke: #000000; stroke-width: 0.8"/>
      </g>
     </g>
     <g id="text_1">
      <text style="font: 24px 'DejaVu Sans', 'Bitstream Vera Sans', 'Computer Modern Sans Serif', 'Lucida Grande', 'Verdana', 'Geneva', 'Lucid', 'Arial', 'Helvetica', 'Avant Garde', sans-serif; text-anchor: middle" x="210.477273" y="666.03625" transform="rotate(-0 210.477273 666.03625)">0.2</text>
     </g>
    </g>
    <g id="xtick_2">
     <g id="line2d_2">
      <g>
       <use xlink:href="#m625f805d48" x="337.295455" y="640.8" style="stroke: #000000; stroke-width: 0.8"/>
      </g>
     </g>
     <g id="text_2">
      <text style="font: 24px 'DejaVu Sans', 'Bitstream Vera Sans', 'Computer Modern Sans Serif', 'Lucida Grande', 'Verdana', 'Geneva', 'Lucid', 'Arial', 'Helvetica', 'Avant Garde', sans-serif; text-anchor: middle" x="337.295455" y="666.03625" transform="rotate(-0 337.295455 666.03625)">0.4</text>
     </g>
    </g>
    <g id="xtick_3">
     <g id="line2d_3">
      <g>
       <use xlink:href="#m625f805d48" x="464.113636" y="640.8" style="stroke: #000000; stroke-width: 0.8"/>
      </g>
     </g>
     <g id="text_3">
      <text style="font: 24px 'DejaVu Sans', 'Bitstream Vera Sans', 'Computer Modern Sans Serif', 'Lucida Grande', 'Verdana', 'Geneva', 'Lucid', 'Arial', 'Helvetica', 'Avant Garde', sans-serif; text-anchor: middle" x="464.113636" y="666.03625" transform="rotate(-0 464.113636 666.03625)">0.6</text>
     </g>
    </g>
    <g id="xtick_4">
     <g id="line2d_4">
      <g>
       <use xlink:href="#m625f805d48" x="590.931818" y="640.8" style="stroke: #000000; stroke-width: 0.8"/>
      </g>
     </g>
     <g id="text_4">
      <text style="font: 24px 'DejaVu Sans', 'Bitstream Vera Sans', 'Computer Modern Sans Serif', 'Lucida Grande', 'Verdana', 'Geneva', 'Lucid', 'Arial', 'Helvetica', 'Avant Garde', sans-serif; text-anchor: middle" x="590.931818" y="666.03625" transform="rotate(-0 590.931818 666.03625)">0.8</text>
     </g>
    </g>
    <g id="text_5">
     <text style="font: 24px 'DejaVu Sans', 'Bitstream Vera Sans', 'Computer Modern Sans Serif', 'Lucida Grande', 'Verdana', 'Geneva', 'Lucid', 'Arial', 'Helvetica', 'Avant Garde', sans-serif; text-anchor: middle" x="369" y="693.26375" transform="rotate(-0 369 693.26375)">Field strength in $ x $-direction $ h_x $ </text>
    </g>
   </g>
   <g id="matplotlib.axis_2">
    <g id="ytick_1">
     <g id="line2d_5">
      <defs>
       <path id="m7a80f1b45b" d="M 0 0 
L -3.5 0 
" style="stroke: #000000; stroke-width: 0.8"/>
      </defs>
      <g>
       <use xlink:href="#m7a80f1b45b" x="90" y="594.861906" style="stroke: #000000; stroke-width: 0.8"/>
      </g>
     </g>
     <g id="text_6">
      <text style="font: 24px 'DejaVu Sans', 'Bitstream Vera Sans', 'Computer Modern Sans Serif', 'Lucida Grande', 'Verdana', 'Geneva', 'Lucid', 'Arial', 'Helvetica', 'Avant Garde', sans-serif; text-anchor: end" x="83" y="603.980031" transform="rotate(-0 83 603.980031)">0</text>
     </g>
    </g>
    <g id="ytick_2">
     <g id="line2d_6">
      <g>
       <use xlink:href="#m7a80f1b45b" x="90" y="513.928237" style="stroke: #000000; stroke-width: 0.8"/>
      </g>
     </g>
     <g id="text_7">
      <text style="font: 24px 'DejaVu Sans', 'Bitstream Vera Sans', 'Computer Modern Sans Serif', 'Lucida Grande', 'Verdana', 'Geneva', 'Lucid', 'Arial', 'Helvetica', 'Avant Garde', sans-serif; text-anchor: end" x="83" y="523.046362" transform="rotate(-0 83 523.046362)">10</text>
     </g>
    </g>
    <g id="ytick_3">
     <g id="line2d_7">
      <g>
       <use xlink:href="#m7a80f1b45b" x="90" y="432.994567" style="stroke: #000000; stroke-width: 0.8"/>
      </g>
     </g>
     <g id="text_8">
      <text style="font: 24px 'DejaVu Sans', 'Bitstream Vera Sans', 'Computer Modern Sans Serif', 'Lucida Grande', 'Verdana', 'Geneva', 'Lucid', 'Arial', 'Helvetica', 'Avant Garde', sans-serif; text-anchor: end" x="83" y="442.112692" transform="rotate(-0 83 442.112692)">20</text>
     </g>
    </g>
    <g id="ytick_4">
     <g id="line2d_8">
      <g>
       <use xlink:href="#m7a80f1b45b" x="90" y="352.060898" style="stroke: #000000; stroke-width: 0.8"/>
      </g>
     </g>
     <g id="text_9">
      <text style="font: 24px 'DejaVu Sans', 'Bitstream Vera Sans', 'Computer Modern Sans Serif', 'Lucida Grande', 'Verdana', 'Geneva', 'Lucid', 'Arial', 'Helvetica', 'Avant Garde', sans-serif; text-anchor: end" x="83" y="361.179023" transform="rotate(-0 83 361.179023)">30</text>
     </g>
    </g>
    <g id="ytick_5">
     <g id="line2d_9">
      <g>
       <use xlink:href="#m7a80f1b45b" x="90" y="271.127228" style="stroke: #000000; stroke-width: 0.8"/>
      </g>
     </g>
     <g id="text_10">
      <text style="font: 24px 'DejaVu Sans', 'Bitstream Vera Sans', 'Computer Modern Sans Serif', 'Lucida Grande', 'Verdana', 'Geneva', 'Lucid', 'Arial', 'Helvetica', 'Avant Garde', sans-serif; text-anchor: end" x="83" y="280.245353" transform="rotate(-0 83 280.245353)">40</text>
     </g>
    </g>
    <g id="ytick_6">
     <g id="line2d_10">
      <g>
       <use xlink:href="#m7a80f1b45b" x="90" y="190.193559" style="stroke: #000000; stroke-width: 0.8"/>
      </g>
     </g>
     <g id="text_11">
      <text style="font: 24px 'DejaVu Sans', 'Bitstream Vera Sans', 'Computer Modern Sans Serif', 'Lucida Grande', 'Verdana', 'Geneva', 'Lucid', 'Arial', 'Helvetica', 'Avant Garde', sans-serif; text-anchor: end" x="83" y="199.311684" transform="rotate(-0 83 199.311684)">50</text>
     </g>
    </g>
    <g id="ytick_7">
     <g id="line2d_11">
      <g>
       <use xlink:href="#m7a80f1b45b" x="90" y="109.259889" style="stroke: #000000; stroke-width: 0.8"/>
      </g>
     </g>
     <g id="text_12">
      <text style="font: 24px 'DejaVu Sans', 'Bitstream Vera Sans', 'Computer Modern Sans Serif', 'Lucida Grande', 'Verdana', 'Geneva', 'Lucid', 'Arial', 'Helvetica', 'Avant Garde', sans-serif; text-anchor: end" x="83" y="118.378014" transform="rotate(-0 83 118.378014)">60</text>
     </g>
    </g>
    <g id="text_13">
     <text style="font: 24px 'DejaVu Sans', 'Bitstream Vera Sans', 'Computer Modern Sans Serif', 'Lucida Grande', 'Verdana', 'Geneva', 'Lucid', 'Arial', 'Helvetica', 'Avant Garde', sans-serif; text-anchor: middle" x="43.46875" y="363.6" transform="rotate(-90 43.46875 363.6)">Susceptibility $ \chi $ </text>
    </g>
   </g>
   <g id="line2d_12">
    <path d="M 115.363636 592.886626 
L 178.772727 592.94173 
L 242.181818 593.225008 
L 283.397727 593.196904 
L 299.25 593.338783 
L 308.761364 593.246406 
L 315.102273 615.6 
L 321.443182 111.6 
L 327.784091 563.539063 
L 334.125 571.707984 
L 340.465909 577.155707 
L 346.806818 578.920427 
L 353.147727 581.901538 
L 359.488636 583.350437 
L 365.829545 584.462757 
L 384.852273 587.269887 
L 432.409091 590.626965 
L 495.818182 592.609163 
L 559.227273 593.44723 
L 622.636364 593.935593 
" clip-path="url(#pf1fde126c2)" style="fill: none; stroke: #e41a1c; stroke-width: 1.5; stroke-linecap: square"/>
    <defs>
     <path id="ma13f985815" d="M 0 1.5 
C 0.397805 1.5 0.77937 1.341951 1.06066 1.06066 
C 1.341951 0.77937 1.5 0.397805 1.5 0 
C 1.5 -0.397805 1.341951 -0.77937 1.06066 -1.06066 
C 0.77937 -1.341951 0.397805 -1.5 0 -1.5 
C -0.397805 -1.5 -0.77937 -1.341951 -1.06066 -1.06066 
C -1.341951 -0.77937 -1.5 -0.397805 -1.5 0 
C -1.5 0.397805 -1.341951 0.77937 -1.06066 1.06066 
C -0.77937 1.341951 -0.397805 1.5 0 1.5 
z
" style="stroke: #e41a1c"/>
    </defs>
    <g clip-path="url(#pf1fde126c2)">
     <use xlink:href="#ma13f985815" x="115.363636" y="592.886626" style="fill: #e41a1c; stroke: #e41a1c"/>
     <use xlink:href="#ma13f985815" x="178.772727" y="592.94173" style="fill: #e41a1c; stroke: #e41a1c"/>
     <use xlink:href="#ma13f985815" x="242.181818" y="593.225008" style="fill: #e41a1c; stroke: #e41a1c"/>
     <use xlink:href="#ma13f985815" x="283.397727" y="593.196904" style="fill: #e41a1c; stroke: #e41a1c"/>
     <use xlink:href="#ma13f985815" x="299.25" y="593.338783" style="fill: #e41a1c; stroke: #e41a1c"/>
     <use xlink:href="#ma13f985815" x="308.761364" y="593.246406" style="fill: #e41a1c; stroke: #e41a1c"/>
     <use xlink:href="#ma13f985815" x="315.102273" y="615.6" style="fill: #e41a1c; stroke: #e41a1c"/>
     <use xlink:href="#ma13f985815" x="321.443182" y="111.6" style="fill: #e41a1c; stroke: #e41a1c"/>
     <use xlink:href="#ma13f985815" x="327.784091" y="563.539063" style="fill: #e41a1c; stroke: #e41a1c"/>
     <use xlink:href="#ma13f985815" x="334.125" y="571.707984" style="fill: #e41a1c; stroke: #e41a1c"/>
     <use xlink:href="#ma13f985815" x="340.465909" y="577.155707" style="fill: #e41a1c; stroke: #e41a1c"/>
     <use xlink:href="#ma13f985815" x="346.806818" y="578.920427" style="fill: #e41a1c; stroke: #e41a1c"/>
     <use xlink:href="#ma13f985815" x="353.147727" y="581.901538" style="fill: #e41a1c; stroke: #e41a1c"/>
     <use xlink:href="#ma13f985815" x="359.488636" y="583.350437" style="fill: #e41a1c; stroke: #e41a1c"/>
     <use xlink:href="#ma13f985815" x="365.829545" y="584.462757" style="fill: #e41a1c; stroke: #e41a1c"/>
     <use xlink:href="#ma13f985815" x="384.852273" y="587.269887" style="fill: #e41a1c; stroke: #e41a1c"/>
     <use xlink:href="#ma13f985815" x="432.409091" y="590.626965" style="fill: #e41a1c; stroke: #e41a1c"/>
     <use xlink:href="#ma13f985815" x="495.818182" y="592.609163" style="fill: #e41a1c; stroke: #e41a1c"/>
     <use xlink:href="#ma13f985815" x="559.227273" y="593.44723" style="fill: #e41a1c; stroke: #e41a1c"/>
     <use xlink:href="#ma13f985815" x="622.636364" y="593.935593" style="fill: #e41a1c; stroke: #e41a1c"/>
    </g>
   </g>
   <g id="line2d_13">
    <path d="M 178.772727 592.915938 
L 242.181818 593.208859 
L 283.397727 593.364303 
L 299.25 594.639606 
L 308.761364 594.416702 
L 315.102273 168.084836 
L 321.443182 550.809357 
L 327.784091 566.135569 
L 334.125 573.229137 
L 340.465909 576.922633 
L 346.806818 579.922307 
L 353.147727 581.40456 
L 359.488636 583.307329 
L 365.829545 584.771926 
L 384.852273 587.233855 
L 432.409091 590.648676 
L 495.818182 592.590453 
L 559.227273 593.471046 
L 622.636364 593.945909 
" clip-path="url(#pf1fde126c2)" style="fill: none; stroke-dasharray: 5.55,2.4; stroke-dashoffset: 0; stroke: #377eb8; stroke-width: 1.5"/>
    <defs>
     <path id="m2074f35cff" d="M 0 1.5 
C 0.397805 1.5 0.77937 1.341951 1.06066 1.06066 
C 1.341951 0.77937 1.5 0.397805 1.5 0 
C 1.5 -0.397805 1.341951 -0.77937 1.06066 -1.06066 
C 0.77937 -1.341951 0.397805 -1.5 0 -1.5 
C -0.397805 -1.5 -0.77937 -1.341951 -1.06066 -1.06066 
C -1.341951 -0.77937 -1.5 -0.397805 -1.5 0 
C -1.5 0.397805 -1.341951 0.77937 -1.06066 1.06066 
C -0.77937 1.341951 -0.397805 1.5 0 1.5 
z
" style="stroke: #377eb8"/>
    </defs>
    <g clip-path="url(#pf1fde126c2)">
     <use xlink:href="#m2074f35cff" x="178.772727" y="592.915938" style="fill: #377eb8; stroke: #377eb8"/>
     <use xlink:href="#m2074f35cff" x="242.181818" y="593.208859" style="fill: #377eb8; stroke: #377eb8"/>
     <use xlink:href="#m2074f35cff" x="283.397727" y="593.364303" style="fill: #377eb8; stroke: #377eb8"/>
     <use xlink:href="#m2074f35cff" x="299.25" y="594.639606" style="fill: #377eb8; stroke: #377eb8"/>
     <use xlink:href="#m2074f35cff" x="308.761364" y="594.416702" style="fill: #377eb8; stroke: #377eb8"/>
     <use xlink:href="#m2074f35cff" x="315.102273" y="168.084836" style="fill: #377eb8; stroke: #377eb8"/>
     <use xlink:href="#m2074f35cff" x="321.443182" y="550.809357" style="fill: #377eb8; stroke: #377eb8"/>
     <use xlink:href="#m2074f35cff" x="327.784091" y="566.135569" style="fill: #377eb8; stroke: #377eb8"/>
     <use xlink:href="#m2074f35cff" x="334.125" y="573.229137" style="fill: #377eb8; stroke: #377eb8"/>
     <use xlink:href="#m2074f35cff" x="340.465909" y="576.922633" style="fill: #377eb8; stroke: #377eb8"/>
     <use xlink:href="#m2074f35cff" x="346.806818" y="579.922307" style="fill: #377eb8; stroke: #377eb8"/>
     <use xlink:href="#m2074f35cff" x="353.147727" y="581.40456" style="fill: #377eb8; stroke: #377eb8"/>
     <use xlink:href="#m2074f35cff" x="359.488636" y="583.307329" style="fill: #377eb8; stroke: #377eb8"/>
     <use xlink:href="#m2074f35cff" x="365.829545" y="584.771926" style="fill: #377eb8; stroke: #377eb8"/>
     <use xlink:href="#m2074f35cff" x="384.852273" y="587.233855" style="fill: #377eb8; stroke: #377eb8"/>
     <use xlink:href="#m2074f35cff" x="432.409091" y="590.648676" style="fill: #377eb8; stroke: #377eb8"/>
     <use xlink:href="#m2074f35cff" x="495.818182" y="592.590453" style="fill: #377eb8; stroke: #377eb8"/>
     <use xlink:href="#m2074f35cff" x="559.227273" y="593.471046" style="fill: #377eb8; stroke: #377eb8"/>
     <use xlink:href="#m2074f35cff" x="622.636364" y="593.945909" style="fill: #377eb8; stroke: #377eb8"/>
    </g>
   </g>
   <g id="line2d_14">
    <path d="M 178.772727 593.132214 
L 242.181818 592.963545 
L 283.397727 593.425181 
L 299.25 593.448574 
L 308.761364 593.205993 
L 315.102273 593.672092 
L 321.443182 593.688824 
L 327.784091 593.90576 
L 334.125 592.971179 
L 340.465909 593.897583 
L 346.806818 593.660809 
L 353.147727 593.904103 
L 359.488636 593.488323 
L 365.829545 593.88451 
L 384.852273 593.918431 
L 432.409091 593.99174 
L 495.818182 594.182127 
L 559.227273 594.347435 
L 622.636364 594.489996 
" clip-path="url(#pf1fde126c2)" style="fill: none; stroke-dasharray: 1.5,2.475; stroke-dashoffset: 0; stroke: #4daf4a; stroke-width: 1.5"/>
    <defs>
     <path id="mcc1cbd8bc5" d="M 0 1.5 
C 0.397805 1.5 0.77937 1.341951 1.06066 1.06066 
C 1.341951 0.77937 1.5 0.397805 1.5 0 
C 1.5 -0.397805 1.341951 -0.77937 1.06066 -1.06066 
C 0.77937 -1.341951 0.397805 -1.5 0 -1.5 
C -0.397805 -1.5 -0.77937 -1.341951 -1.06066 -1.06066 
C -1.341951 -0.77937 -1.5 -0.397805 -1.5 0 
C -1.5 0.397805 -1.341951 0.77937 -1.06066 1.06066 
C -0.77937 1.341951 -0.397805 1.5 0 1.5 
z
" style="stroke: #4daf4a"/>
    </defs>
    <g clip-path="url(#pf1fde126c2)">
     <use xlink:href="#mcc1cbd8bc5" x="178.772727" y="593.132214" style="fill: #4daf4a; stroke: #4daf4a"/>
     <use xlink:href="#mcc1cbd8bc5" x="242.181818" y="592.963545" style="fill: #4daf4a; stroke: #4daf4a"/>
     <use xlink:href="#mcc1cbd8bc5" x="283.397727" y="593.425181" style="fill: #4daf4a; stroke: #4daf4a"/>
     <use xlink:href="#mcc1cbd8bc5" x="299.25" y="593.448574" style="fill: #4daf4a; stroke: #4daf4a"/>
     <use xlink:href="#mcc1cbd8bc5" x="308.761364" y="593.205993" style="fill: #4daf4a; stroke: #4daf4a"/>
     <use xlink:href="#mcc1cbd8bc5" x="315.102273" y="593.672092" style="fill: #4daf4a; stroke: #4daf4a"/>
     <use xlink:href="#mcc1cbd8bc5" x="321.443182" y="593.688824" style="fill: #4daf4a; stroke: #4daf4a"/>
     <use xlink:href="#mcc1cbd8bc5" x="327.784091" y="593.90576" style="fill: #4daf4a; stroke: #4daf4a"/>
     <use xlink:href="#mcc1cbd8bc5" x="334.125" y="592.971179" style="fill: #4daf4a; stroke: #4daf4a"/>
     <use xlink:href="#mcc1cbd8bc5" x="340.465909" y="593.897583" style="fill: #4daf4a; stroke: #4daf4a"/>
     <use xlink:href="#mcc1cbd8bc5" x="346.806818" y="593.660809" style="fill: #4daf4a; stroke: #4daf4a"/>
     <use xlink:href="#mcc1cbd8bc5" x="353.147727" y="593.904103" style="fill: #4daf4a; stroke: #4daf4a"/>
     <use xlink:href="#mcc1cbd8bc5" x="359.488636" y="593.488323" style="fill: #4daf4a; stroke: #4daf4a"/>
     <use xlink:href="#mcc1cbd8bc5" x="365.829545" y="593.88451" style="fill: #4daf4a; stroke: #4daf4a"/>
     <use xlink:href="#mcc1cbd8bc5" x="384.852273" y="593.918431" style="fill: #4daf4a; stroke: #4daf4a"/>
     <use xlink:href="#mcc1cbd8bc5" x="432.409091" y="593.99174" style="fill: #4daf4a; stroke: #4daf4a"/>
     <use xlink:href="#mcc1cbd8bc5" x="495.818182" y="594.182127" style="fill: #4daf4a; stroke: #4daf4a"/>
     <use xlink:href="#mcc1cbd8bc5" x="559.227273" y="594.347435" style="fill: #4daf4a; stroke: #4daf4a"/>
     <use xlink:href="#mcc1cbd8bc5" x="622.636364" y="594.489996" style="fill: #4daf4a; stroke: #4daf4a"/>
    </g>
   </g>
   <g id="patch_3">
    <path d="M 90 640.8 
L 90 86.4 
" style="fill: none; stroke: #000000; stroke-width: 0.8; stroke-linejoin: miter; stroke-linecap: square"/>
   </g>
   <g id="patch_4">
    <path d="M 648 640.8 
L 648 86.4 
" style="fill: none; stroke: #000000; stroke-width: 0.8; stroke-linejoin: miter; stroke-linecap: square"/>
   </g>
   <g id="patch_5">
    <path d="M 90 640.8 
L 648 640.8 
" style="fill: none; stroke: #000000; stroke-width: 0.8; stroke-linejoin: miter; stroke-linecap: square"/>
   </g>
   <g id="patch_6">
    <path d="M 90 86.4 
L 648 86.4 
" style="fill: none; stroke: #000000; stroke-width: 0.8; stroke-linejoin: miter; stroke-linecap: square"/>
   </g>
   <g id="legend_1">
    <g id="patch_7">
     <path d="M 402.6825 211.2825 
L 631.2 211.2825 
Q 636 211.2825 636 206.4825 
L 636 103.2 
Q 636 98.4 631.2 98.4 
L 402.6825 98.4 
Q 397.8825 98.4 397.8825 103.2 
L 397.8825 206.4825 
Q 397.8825 211.2825 402.6825 211.2825 
z
" style="fill: #ffffff; opacity: 0.8; stroke: #cccccc; stroke-linejoin: miter"/>
    </g>
    <g id="line2d_15">
     <path d="M 407.4825 117.83625 
L 431.4825 117.83625 
L 455.4825 117.83625 
" style="fill: none; stroke: #e41a1c; stroke-width: 1.5; stroke-linecap: square"/>
     <g>
      <use xlink:href="#ma13f985815" x="431.4825" y="117.83625" style="fill: #e41a1c; stroke: #e41a1c"/>
     </g>
    </g>
    <g id="text_14">
     <text style="font: 24px 'DejaVu Sans', 'Bitstream Vera Sans', 'Computer Modern Sans Serif', 'Lucida Grande', 'Verdana', 'Geneva', 'Lucid', 'Arial', 'Helvetica', 'Avant Garde', sans-serif; text-anchor: start" x="474.6825" y="126.23625" transform="rotate(-0 474.6825 126.23625)">independent</text>
    </g>
    <g id="line2d_16">
     <path d="M 407.4825 153.06375 
L 431.4825 153.06375 
L 455.4825 153.06375 
" style="fill: none; stroke-dasharray: 5.55,2.4; stroke-dashoffset: 0; stroke: #377eb8; stroke-width: 1.5"/>
     <g>
      <use xlink:href="#m2074f35cff" x="431.4825" y="153.06375" style="fill: #377eb8; stroke: #377eb8"/>
     </g>
    </g>
    <g id="text_15">
     <text style="font: 24px 'DejaVu Sans', 'Bitstream Vera Sans', 'Computer Modern Sans Serif', 'Lucida Grande', 'Verdana', 'Geneva', 'Lucid', 'Arial', 'Helvetica', 'Avant Garde', sans-serif; text-anchor: start" x="474.6825" y="161.46375" transform="rotate(-0 474.6825 161.46375)">right-left</text>
    </g>
    <g id="line2d_17">
     <path d="M 407.4825 188.29125 
L 431.4825 188.29125 
L 455.4825 188.29125 
" style="fill: none; stroke-dasharray: 1.5,2.475; stroke-dashoffset: 0; stroke: #4daf4a; stroke-width: 1.5"/>
     <g>
      <use xlink:href="#mcc1cbd8bc5" x="431.4825" y="188.29125" style="fill: #4daf4a; stroke: #4daf4a"/>
     </g>
    </g>
    <g id="text_16">
     <text style="font: 24px 'DejaVu Sans', 'Bitstream Vera Sans', 'Computer Modern Sans Serif', 'Lucida Grande', 'Verdana', 'Geneva', 'Lucid', 'Arial', 'Helvetica', 'Avant Garde', sans-serif; text-anchor: start" x="474.6825" y="196.69125" transform="rotate(-0 474.6825 196.69125)">left-right</text>
    </g>
   </g>
  </g>
 </g>
 <defs>
  <clipPath id="pf1fde126c2">
   <rect x="90" y="86.4" width="558" height="554.4"/>
  </clipPath>
 </defs>
</svg>
